<?xml version="1.0" encoding="UTF-8"?><svg id="Layer_2" xmlns="http://www.w3.org/2000/svg" viewBox="0 0 326.86 324.42"><defs><style>.cls-1{fill:#fff;}</style></defs><g id="Layer_1-2"><g><path class="cls-1" d="M163.63,.42c.87,.03,1.74-.02,2.6-.12,9.37-1.07,19.71,.88,29.9,2.72,7.02,1.27,14.05,3.31,20.91,5.83,8.94,3.29,17.67,6.91,25.99,11.52,15.41,8.52,29.13,19.17,41.02,32.18,11.09,12.13,20.53,25.44,27.43,40.38,4.76,10.3,8.25,21.03,11.13,32.08,4.56,17.56,4.83,35.34,3.65,53.08-.67,10.08-2.98,20.16-5.88,30.08-5.16,17.68-13.23,33.79-23.86,48.61-16.58,23.11-37.95,40.68-63.73,52.69-10.03,4.67-20.55,7.97-31.33,10.79-17.69,4.63-35.58,4.56-53.47,3.75-7.14-.32-14.41-1.78-21.54-3.51-6.58-1.6-13.09-3.43-19.45-5.6-7.45-2.54-14.58-5.99-21.52-9.75-11.14-6.05-21.48-13.25-30.92-21.69-13.21-11.81-24.22-25.42-33.24-40.69-5.68-9.62-10.08-19.85-13.53-30.39-2.4-7.31-4.08-14.9-5.48-22.56-1.55-8.48-2.03-16.98-2.27-25.47-.22-7.99,.07-16.06,1.5-24.04,1.15-6.42,1.95-12.93,3.6-19.24,1.33-5.11,3.05-10.15,4.88-15.11,4.9-13.29,11.61-25.64,19.83-37.18,9.4-13.2,20.39-24.8,33.28-34.71,11.55-8.88,24.01-16.16,37.35-21.81,8.02-3.39,16.42-5.76,24.97-7.78C137.7,1.57,149.95-.01,163.63,.42Zm2.62,11.85c-12.1,.11-22.14,.41-32.21,2.49-7.27,1.5-14.45,3.34-21.38,5.67-9.32,3.13-18.15,7.62-26.71,12.67-15.56,9.19-28.82,20.91-40.33,34.74-9.66,11.61-16.92,24.63-22.84,38.47-3.07,7.16-5.44,14.61-7.01,22.14-1.44,6.94-2.51,14.02-2.99,21.22-1.45,21.63,.52,42.72,7.89,63.14,4.16,11.54,9.7,22.42,16.65,32.63,11.37,16.69,25.15,30.85,42.05,41.93,9.74,6.39,19.95,11.82,30.96,15.76,5.11,1.83,10.34,3.19,15.49,4.8,5.33,1.66,10.83,2.64,16.19,3.42,9.78,1.43,19.77,1.12,29.7,1.01,8.93-.09,17.73-1.52,26.35-3.4,6.91-1.51,13.78-3.6,20.4-6.39,9.01-3.79,17.76-7.99,26.06-13.18,12.08-7.56,22.57-16.95,32.2-27.34,11.04-11.89,19.63-25.39,25.88-40.37,2.9-6.94,5.32-14,7.38-21.27,1.62-5.72,2.82-11.56,3.66-17.31,1.22-8.28,.97-16.81,.95-25.23,0-6.31,.18-12.79-1.18-18.87-1.75-7.76-3.27-15.61-5.9-23.23-3.12-9.02-6.67-17.81-11.26-26.1-8.59-15.52-19.74-29.03-33.12-40.73-9.1-7.96-19.06-14.56-29.73-20.16-7.56-3.97-15.48-7.02-23.56-9.81-7.97-2.75-16.23-4.22-24.42-5.71-6.89-1.26-14.06-1.34-19.18-1Z"/><path class="cls-1" d="M188.83,127.3c0,16.74,.05,33.49-.05,50.23-.02,3.15,1.07,5.18,3.56,7.2,11.26,9.12,17.48,20.67,17.5,35.58,.02,20.38-9.63,34.82-27.56,42.78-23.46,10.42-50.7,.67-61.86-24.09-4.19-9.29-4.25-19.27-2.42-28.78,2.03-10.52,8.19-19.29,16.95-25.77,2.66-1.97,3.38-4.18,3.38-7.26-.06-33.61,.06-67.22-.1-100.83-.05-9.44,9.65-21.31,19.54-23.32,11.56-2.34,20.09,1.42,26.71,10.44,3.05,4.15,4.39,9.07,4.37,14.33-.06,16.49-.02,32.99-.02,49.48Zm-12.6,3.41c0-17.61-.2-35.22,.08-52.82,.14-9.1-7.09-13.77-12.56-13.83-7.43-.08-12.85,5.81-12.85,13.76-.02,34.97-.06,69.94,.05,104.9,.01,3.73-1.05,6.06-4.38,8.12-16.19,9.99-21.54,26.43-14.35,44.3,6.54,16.26,26.81,24.89,43.67,17.86,12.18-5.08,19.91-13.91,21.52-27.69,1.69-14.47-3.91-26.7-16.64-34.05-3.25-1.87-4.63-4.25-4.59-8.11,.17-17.48,.08-34.97,.07-52.45Z"/><path class="cls-1" d="M225.19,179.86c-4.83,0-9.67-.12-14.5,.04-3.22,.11-4.54-1.4-4.6-4.4-.03-1.24-.03-2.48,0-3.72,.03-2.52,1.14-3.92,3.84-3.91,10.16,.04,20.32-.05,30.48,.06,3.44,.04,4.26,1.55,4.3,6.34,.03,3.04-.46,5.54-4.27,5.55-5.08,.01-10.16,0-15.24,0,0,0,0,.02,0,.03Z"/><path class="cls-1" d="M225.37,109.17c4.82,0,9.64-.04,14.46,.02,2.55,.03,4.59,.7,4.85,3.86,.41,5.01-.3,6.67-3.93,7.43-1.79,.38-3.67,.49-5.51,.5-7.91,.05-15.82,.05-23.73,0-4.6-.02-5.46-1.07-5.46-6.26,0-4.72,.72-5.52,5.24-5.57,4.7-.05,9.39-.01,14.09-.01v.02Z"/><path class="cls-1" d="M99.16,167.89c4.94,0,9.89,.06,14.83-.02,2.99-.05,4.36,1.26,4.2,4.23-.04,.74,.01,1.48,0,2.22-.03,5.06-.46,5.52-5.49,5.53-9.27,.02-18.54-.08-27.81,.05-3.52,.05-5.05-1.35-4.78-4.83,.09-1.11,.05-2.22,.02-3.34-.06-2.62,1.19-3.86,3.82-3.84,5.07,.03,10.13,0,15.2,0,0,0,0,0,0-.01Z"/><path class="cls-1" d="M99.53,109.16c4.84,0,9.67,.08,14.51-.02,3.02-.06,4.16,1.27,4.21,4.25,.13,6.75-.57,7.61-7.2,7.62-8.18,0-16.37,.1-24.55-.07-5.6-.11-6.38-1.06-6.36-6.28,.02-4.89,.57-5.46,5.63-5.5,4.59-.04,9.18,0,13.76,0Z"/><path class="cls-1" d="M169.56,157.86c0,12.64,.03,25.29-.01,37.93,0,3.28,.76,5.36,4.15,7.31,7.56,4.36,11.37,11.59,9.8,20.35-1.29,7.22-5.4,12.91-12.9,15.39-11.76,3.89-22.64-1.48-26.71-13.26-2.57-7.45,2.08-19.09,9.54-22.59,2.96-1.39,3.56-3.13,3.55-6-.07-25.29-.04-50.58-.04-75.87,0-6.21,5.26-9.34,10.94-6.52,1.99,.99,1.66,2.88,1.66,4.57,.03,12.89,.02,25.78,.02,38.68Z"/></g></g></svg>