<?xml version="1.0" encoding="UTF-8"?><svg id="Layer_2" xmlns="http://www.w3.org/2000/svg" viewBox="0 0 128.71 129.03"><defs><style>.cls-1{fill:#e4e4e4;}.cls-2{fill:#c2984d;}</style></defs><g id="Layer_1-2"><g><circle class="cls-1" cx="64.6" cy="64.11" r="64.11"/><g><path class="cls-2" d="M37.95,48.89c-13.97,0-24.8,12.43-25.25,12.94-1.45,1.7-1.45,4.21,0,5.91,.45,.55,11.28,12.97,25.25,12.97s24.76-12.43,25.22-12.97c1.45-1.7,1.45-4.21,0-5.91-.45-.52-11.28-12.94-25.22-12.94Zm0,27.28c-12.03,0-21.79-11.37-21.79-11.37,0,0,9.76-11.37,21.79-11.37s21.76,11.37,21.76,11.37c0,0-9.76,11.37-21.76,11.37Z"/><path class="cls-2" d="M122.76,87.26c-.76-.7-1.55-1.39-2.36-2.03-6.06-4.97-12.91-8.09-13.19-8.21-2.06-1-20.73-9.67-37.89-3.43-17.73,6.46-26.46,26.22-26.83,27.07-.49,1.09-.03,2.39,1.06,2.94,.61,.3,11.61,5.7,24.55,5.7,4.36,0,8.94-.61,13.4-2.24,14.52-5.27,23.01-19.46,25.83-24.92,2.64,1.39,7.27,4.03,11.22,7.49-9.4,20.55-30.19,34.86-54.29,34.86-32.98,0-59.71-26.74-59.71-59.68S31.28,5.09,64.26,5.09c24.13,0,44.89,14.31,54.32,34.89-3.94,3.43-8.61,6.06-11.25,7.46-2.82-5.46-11.31-19.64-25.83-24.92-17.73-6.46-37.13,3.06-37.95,3.49-1.09,.55-1.55,1.82-1.06,2.94,.36,.82,9.09,20.58,26.83,27.04,4.49,1.64,9.06,2.24,13.4,2.24,12.34,0,22.95-4.91,24.43-5.64,.33-.12,7.18-3.27,13.25-8.21,.82-.64,1.61-1.33,2.36-2.03l.33-.33c.2-.19,.36-.41,.48-.66,.08-.16,.15-.34,.18-.52,.03-.21-.05-.37-.12-.56-.17-.44-.35-.87-.54-1.29-.06-.13-.12-.26-.17-.39C112.88,16.18,90.36,.54,64.26,.54,28.83,.54,0,29.37,0,64.8s28.83,64.23,64.26,64.23c26.1,0,48.62-15.64,58.65-38.04,.06-.13,.12-.26,.18-.39,.15-.33,.29-.67,.44-1s.29-.65,.2-1c-.1-.39-.35-.75-.63-1.03l-.33-.3Zm-42.8,15.52c-12.76,4.64-27.07-.21-32.31-2.36,2.67-5,10.49-17.91,23.25-22.55,12.76-4.67,27.04,.18,32.31,2.36-2.64,5-10.49,17.91-23.25,22.55Zm-9.06-51.05c-12.76-4.67-20.61-17.58-23.25-22.58,5.24-2.15,19.52-7,32.31-2.36,12.76,4.64,20.61,17.55,23.25,22.58-5.24,2.12-19.55,7-32.31,2.36Z"/></g></g></g></svg>