<?xml version="1.0" encoding="UTF-8"?><svg id="Layer_2" xmlns="http://www.w3.org/2000/svg" viewBox="0 0 201.64 213.71"><defs><style>.cls-1{fill:#82b673;}</style></defs><g id="Layer_1-2"><g><rect class="cls-1" x="90.77" y="102.84" width="20.1" height="201.64" transform="translate(304.48 102.84) rotate(90)"/><g><path class="cls-1" d="M104.77,163.96c-45.2,0-81.98-36.78-81.98-81.98S59.56,0,104.77,0s81.98,36.78,81.98,81.98-36.78,81.98-81.98,81.98Zm0-159.32C62.12,4.64,27.43,39.33,27.43,81.98s34.69,77.34,77.34,77.34,77.34-34.69,77.34-77.34S147.41,4.64,104.77,4.64Z"/><rect class="cls-1" x="63.17" y="73.92" width="4.64" height="7.01"/><rect class="cls-1" x="71.03" y="68.37" width="4.64" height="12.56"/><rect class="cls-1" x="78.88" y="64.15" width="4.64" height="16.79"/><rect class="cls-1" x="86.74" y="68.37" width="4.64" height="12.56"/><rect class="cls-1" x="94.59" y="73.92" width="4.64" height="7.01"/><rect class="cls-1" x="102.45" y="67.38" width="4.64" height="13.56"/><rect class="cls-1" x="110.3" y="58.55" width="4.64" height="22.39"/><rect class="cls-1" x="118.16" y="53.82" width="4.64" height="27.11"/><rect class="cls-1" x="126.01" y="58.55" width="4.64" height="22.39"/><rect class="cls-1" x="133.86" y="64.15" width="4.64" height="16.79"/><rect class="cls-1" x="141.72" y="73.92" width="4.64" height="7.01"/><rect class="cls-1" x="149.57" y="73.92" width="4.64" height="7.01"/><rect class="cls-1" x="55.32" y="73.92" width="4.64" height="7.01"/><g><rect class="cls-1" x="63.17" y="89.11" width="4.64" height=".93"/><rect class="cls-1" x="63.17" y="85.67" width="4.64" height="1.72"/><rect class="cls-1" x="63.17" y="83.02" width="4.64" height=".93"/></g><g><rect class="cls-1" x="71.03" y="94.65" width="4.64" height=".93"/><path class="cls-1" d="M75.67,92.51h-4.64v-2.14h4.64v2.14Zm0-4.28h-4.64v-2.14h4.64v2.14Z"/><rect class="cls-1" x="71.03" y="83.02" width="4.64" height=".93"/></g><g><rect class="cls-1" x="78.88" y="98.88" width="4.64" height=".93"/><path class="cls-1" d="M83.52,97.22h-4.64v-1.66h4.64v1.66Zm0-3.32h-4.64v-1.66h4.64v1.66Zm0-3.32h-4.64v-1.66h4.64v1.66Zm0-3.32h-4.64v-1.66h4.64v1.66Z"/><rect class="cls-1" x="78.88" y="83.02" width="4.64" height=".93"/></g><g><rect class="cls-1" x="86.74" y="94.65" width="4.64" height=".93"/><path class="cls-1" d="M91.38,92.51h-4.64v-2.14h4.64v2.14Zm0-4.28h-4.64v-2.14h4.64v2.14Z"/><rect class="cls-1" x="86.74" y="83.02" width="4.64" height=".93"/></g><g><rect class="cls-1" x="94.59" y="89.11" width="4.64" height=".93"/><rect class="cls-1" x="94.59" y="85.67" width="4.64" height="1.72"/><rect class="cls-1" x="94.59" y="83.02" width="4.64" height=".93"/></g><g><rect class="cls-1" x="102.45" y="95.65" width="4.64" height=".93"/><path class="cls-1" d="M107.09,93.98h-4.64v-1.67h4.64v1.67Zm0-3.34h-4.64v-1.67h4.64v1.67Zm0-3.34h-4.64v-1.67h4.64v1.67Z"/><rect class="cls-1" x="102.45" y="83.02" width="4.64" height=".93"/></g><g><rect class="cls-1" x="110.3" y="104.48" width="4.64" height=".93"/><path class="cls-1" d="M114.94,102.62h-4.64v-1.87h4.64v1.87Zm0-3.73h-4.64v-1.87h4.64v1.87Zm0-3.73h-4.64v-1.87h4.64v1.87Zm0-3.73h-4.64v-1.87h4.64v1.87Zm0-3.73h-4.64v-1.87h4.64v1.87Z"/><rect class="cls-1" x="110.3" y="83.02" width="4.64" height=".93"/></g><g><rect class="cls-1" x="118.16" y="109.21" width="4.64" height=".93"/><path class="cls-1" d="M122.79,107.27h-4.64v-1.94h4.64v1.94Zm0-3.89h-4.64v-1.94h4.64v1.94Zm0-3.89h-4.64v-1.94h4.64v1.94Zm0-3.89h-4.64v-1.94h4.64v1.94Zm0-3.89h-4.64v-1.94h4.64v1.94Zm0-3.89h-4.64v-1.94h4.64v1.94Z"/><rect class="cls-1" x="118.16" y="83.02" width="4.64" height=".93"/></g><g><rect class="cls-1" x="126.01" y="104.48" width="4.64" height=".93"/><path class="cls-1" d="M130.65,102.62h-4.64v-1.87h4.64v1.87Zm0-3.73h-4.64v-1.87h4.64v1.87Zm0-3.73h-4.64v-1.87h4.64v1.87Zm0-3.73h-4.64v-1.87h4.64v1.87Zm0-3.73h-4.64v-1.87h4.64v1.87Z"/><rect class="cls-1" x="126.01" y="83.02" width="4.64" height=".93"/></g><g><rect class="cls-1" x="133.87" y="98.88" width="4.64" height=".93"/><path class="cls-1" d="M138.5,97.22h-4.64v-1.66h4.64v1.66Zm0-3.32h-4.64v-1.66h4.64v1.66Zm0-3.32h-4.64v-1.66h4.64v1.66Zm0-3.32h-4.64v-1.66h4.64v1.66Z"/><rect class="cls-1" x="133.87" y="83.02" width="4.64" height=".93"/></g><g><rect class="cls-1" x="141.72" y="89.11" width="4.64" height=".93"/><rect class="cls-1" x="141.72" y="85.67" width="4.64" height="1.72"/><rect class="cls-1" x="141.72" y="83.02" width="4.64" height=".93"/></g><g><rect class="cls-1" x="149.57" y="89.11" width="4.64" height=".93"/><rect class="cls-1" x="149.57" y="85.67" width="4.64" height="1.72"/><rect class="cls-1" x="149.57" y="83.02" width="4.64" height=".93"/></g><rect class="cls-1" x="157.43" y="78.53" width="4.64" height="2.41"/><g><rect class="cls-1" x="157.43" y="84.61" width="4.64" height=".93"/><rect class="cls-1" x="157.43" y="83.02" width="4.64" height=".93"/></g><rect class="cls-1" x="165.28" y="78.53" width="4.64" height="2.41"/><g><rect class="cls-1" x="165.28" y="84.61" width="4.64" height=".93"/><rect class="cls-1" x="165.28" y="83.02" width="4.64" height=".93"/></g><rect class="cls-1" x="173.14" y="78.53" width="4.64" height="2.41"/><g><rect class="cls-1" x="173.14" y="84.61" width="4.64" height=".93"/><rect class="cls-1" x="173.14" y="83.02" width="4.64" height=".93"/></g><rect class="cls-1" x="47.47" y="78.53" width="4.64" height="2.41"/><g><rect class="cls-1" x="47.47" y="84.61" width="4.64" height=".93"/><rect class="cls-1" x="47.47" y="83.02" width="4.64" height=".93"/></g><rect class="cls-1" x="39.61" y="78.53" width="4.64" height="2.41"/><g><rect class="cls-1" x="39.61" y="84.61" width="4.64" height=".93"/><rect class="cls-1" x="39.61" y="83.02" width="4.64" height=".93"/></g><rect class="cls-1" x="31.76" y="78.53" width="4.64" height="2.41"/><g><rect class="cls-1" x="31.76" y="84.61" width="4.64" height=".93"/><rect class="cls-1" x="31.76" y="83.02" width="4.64" height=".93"/></g><g><rect class="cls-1" x="55.32" y="89.11" width="4.64" height=".93"/><rect class="cls-1" x="55.32" y="85.67" width="4.64" height="1.72"/><rect class="cls-1" x="55.32" y="83.02" width="4.64" height=".93"/></g></g></g></g></svg>