<?xml version="1.0" encoding="UTF-8"?><svg id="Layer_2" xmlns="http://www.w3.org/2000/svg" viewBox="0 0 323.09 323.18"><defs><style>.cls-1{fill:#fff;}</style></defs><g id="Layer_1-2"><g><path class="cls-1" d="M0,161.55C-.43,72.81,72.8-.23,161.97,0c88.36,.23,161.57,72.94,161.12,162.5-.44,88.05-72.87,160.91-162.06,160.68C72.63,322.96-.45,250.39,0,161.55Zm312.7,.55c1.11-83.38-67.81-151.22-149.84-151.9C78.74,9.49,10.32,78.43,10.09,161.09c-.23,83.41,68.23,151.66,150.9,151.91,83.42,.25,152.37-68.23,151.71-150.9Z"/><path class="cls-1" d="M156.01,191.78c-25.96,25.79-51.35,26.75-73.69,15.9-19.85-9.64-32.98-32.62-30.07-51.24h25.32c8.87,0,17.74,.05,26.61-.01,8.48-.06,16.98,.27,27.33-.35-22.07-20.93-29.9-44.1-17.74-71.24,9.76-21.8,27.62-32.51,51.49-34.53,2.08,6.54,.77,13.1,.99,19.53,.24,6.86,.05,13.73,.05,20.6v41.43c10.11-9.25,18.8-17.06,30.56-20.34,11.93-3.33,23.63-3.15,35.21,.62,11.39,3.71,20.96,10.3,27.94,20.19,7.01,9.93,12.01,20.58,11.15,33.64-8.93,1.51-17.47,.56-25.95,.73-8.87,.17-17.74,.04-26.61,.04h-27.46c2.28,3.02,3.3,4.85,4.75,6.22,7.22,6.87,12.29,15.1,14.9,24.64,4.95,18.07,2.56,35.19-8.36,50.59-9.33,13.16-22.12,21.14-38.24,23.49-2.22,.32-4.4,.88-7,1.41-2.27-6.66-.92-13.21-1.14-19.62-.24-6.86-.05-13.73-.05-20.6v-41.09Zm-.45-129.6c-18.82,4.68-30.39,16.29-35.32,33.96-5.74,20.56,1.31,37.32,16.55,50.28,6.47-4.39,12.45-8.45,18.78-12.74V62.18Zm104.46,93.98c-4.02-18.67-19.36-34.43-42.25-36.88-17.25-1.84-31.43,5.46-41.81,18.51,4.48,6.45,8.51,12.25,12.76,18.37h71.3Zm-197.86,10.91c6.54,22.27,21.36,33.59,42.63,36.99,12.84,2.05,35.23-6.4,41.79-20.09-6.98-3.32-9.48-10.12-12.33-16.9H62.16Zm122.74,9.55c-6.75,4.61-12.54,8.57-18.32,12.53-1.34,25.43-.74,65.27,1.17,71.7,18.41-5.81,30.77-17.89,34.28-36.73,3.45-18.46-1.94-34.85-17.13-47.5Z"/><path class="cls-1" d="M61.76,147.44h-7.73c-4.38-15.76,15.98-56.57,37.64-69.82-12.6,22.93-23.91,44.84-29.91,69.82Z"/><path class="cls-1" d="M143.57,270.44c-24.32-4.66-44.47-14.66-60.59-32.51,20.24,7.99,39.86,17.6,61.82,22.64-.36,2.89-.69,5.57-1.22,9.87Z"/><path class="cls-1" d="M262.19,175.79c2.13,.55,4.5,1.17,6.68,1.74,1.49,16.54-14.17,48.42-29.38,60.49,7.5-20.58,15.02-41.2,22.7-62.24Z"/><path class="cls-1" d="M177.2,61.62v-7.2c13.88-2.55,43.67,10.79,57.73,25.98-19.47-6.33-38.14-12.41-57.73-18.78Z"/></g></g></svg>