<?xml version="1.0" encoding="UTF-8"?><svg id="Layer_2" xmlns="http://www.w3.org/2000/svg" viewBox="0 0 324.81 324.42"><defs><style>.cls-1{fill:#fff;}</style></defs><g id="Layer_1-2"><g><path class="cls-1" d="M324.76,163.19c.93,37.57-11.77,70.35-34.23,99.62-18.56,24.19-42.55,41.37-71.06,52.21-17.3,6.58-35.11,9.35-53.7,9.41-20.25,.07-39.97-1.71-58.99-8.9-27.61-10.44-50.91-26.79-69.81-49.68C19.05,244.12,7.7,219.45,2.52,192.02c-3.09-16.32-3.16-32.82-1.16-49.51,2.81-23.51,10.62-44.95,22.88-64.98,11.21-18.3,25.71-33.56,42.93-46.31C87.32,16.29,109.88,6.74,134.42,2.47c30.53-5.31,60.34-2.03,89.2,9.64,22.43,9.07,41.94,22.38,58.17,40.19,20.87,22.9,34.97,49.48,40.24,80.2,1.73,10.09,1.87,20.45,2.73,30.69ZM162.49,10.57C79.3,9.5,9.95,79.58,10.19,162.87c.24,83.57,67.7,151.83,151.59,152.31,84.28,.49,153.24-67.49,153.2-152.53-.04-84.9-69.36-152.86-152.49-152.09Z"/><path class="cls-1" d="M139.09,113.39c0-6.29,.33-12.31-.09-18.28-.51-7.27,.8-13.15,9.07-15.18,0-6.98-.09-13.56,.02-20.14,.19-10.82,3.15-14.55,13.75-17.67,1.59,.41,3.27,.76,4.9,1.29,5.92,1.92,8.78,6.09,8.79,12.25,.01,8,0,16.01,0,24.18,1.36,.6,2.37,1.02,3.36,1.48,4.91,2.31,7.24,6,7.01,11.61-.29,6.84-.07,13.7-.07,20.7,4.46,3.25,8.57,6.3,12.75,9.26,5.28,3.74,7.95,8.59,7.92,15.26-.14,33.25-.07,66.5-.07,99.76,0,.57,.01,1.15-.02,1.72-.61,10.81-4.65,14.97-15.48,15.28-8.88,.25-17.77,.06-26.66,.07-9.17,0-18.35,.05-27.52-.03-2.56-.02-5.17-.15-7.65-.72-7.18-1.64-10.15-5.13-10.5-12.54-.27-5.72-.11-11.46-.11-17.2,0-28.38,.28-56.76-.19-85.13-.13-7.9,2.94-13.08,8.81-17.37,3.69-2.69,7.41-5.33,11.97-8.6Zm54.95,130.82c2.51-5.91,2.97-21.36,1.07-31.27-9.36-1.44-59.44-1.15-66.19,.51-.03,10.03-.55,20.19,.38,30.75h64.75Zm-13.52-121.58h-36.21c-5,3.88-11.31,6.27-15.4,11.83,.28,6.76-1.17,13.54,.97,20.16h65.74v-21.26c-5.28-3.76-10.14-7.22-15.09-10.74Zm-32.08-11.47c9.47,1.56,20.69,1.34,26.56-.37v-18.39c-9.28-1.66-20.52-1.42-26.56,.55v18.21Zm14.12-60.11c-4.77,5.99-4.88,6.82-4.12,25.75,.05,1.31,.61,2.61,.99,4.15,1.96-.2,3.54-.35,5.26-.53,0-8.94,.06-17.36-.08-25.78-.02-.97-1.07-1.92-2.06-3.59Z"/></g></g></svg>