<?xml version="1.0" encoding="UTF-8"?><svg id="Layer_2" xmlns="http://www.w3.org/2000/svg" viewBox="0 0 779.6 1005.98"><defs><style>.cls-1{fill:#729db5;}.cls-2{opacity:.36;}</style></defs><g id="Layer_1-2"><g class="cls-2"><g><path class="cls-1" d="M481.86,492.9c-.49-1.72-1.72-3.39-3.57-4.86-.98-.74-2.09-1.48-3.26-2.22-1.35-.92-2.95-1.91-3.45-2.46-.06-.12,0-.49,0-.74,0-.74-.06-1.48-.18-2.22-.62-3.14-2.83-5.48-5.17-7.94-.8-.8-1.6-1.66-2.4-2.59-1.85-2.15-3.63-4-5.72-5.97-.92-.8-2.22-2.03-4.25-2.89-1.6-.74-3.26-1.11-4.74-1.42-4.8-1.05-8.92-2.15-12.31-3.26-1.6-.55-3.14-1.17-4.62-1.72-1.17-.43-2.34-.92-3.75-1.42l-1.23-.43c-1.35-.43-2.83-.86-4.62-1.11-2.28-.31-4.43-.37-6.46-.12-4.68,.55-7.75,2.65-10.52,4.43-1.23,.8-2.4,1.66-3.82,2.28-.92,.43-1.91,.86-2.83,1.23-1.05,.37-2.09,.8-3.02,1.23-1.97,.98-3.57,2.03-5.11,3.02l-.92,.62c-1.66,1.11-4.06,2.22-7.45,3.51-3.2,1.17-6.09,2.52-8.68,3.69-3.14,1.48-6.22,3.26-7.2,6.4-.68,2.09,0,3.94,1.05,5.42,.8,1.11,1.85,2.03,2.58,2.71,1.6,1.42,3.57,3.14,6.22,4.62,.37,.25,.74,.49,1.11,.68l.92,.43c.31,.18,.62,.37,.98,.55-.8,1.17-1.66,2.83-1.29,4.92,.31,1.91,1.6,3.32,2.46,4.25l1.48,1.54c.18,.18,.31,.31,.49,.49,3.08,3.08,6.22,5.79,9.78,8.25,.92,.68,1.85,1.35,2.83,1.97,.74,.49,1.05,.92,1.72,1.97,.25,.43,.49,.8,.8,1.23,1.91,2.65,4.68,4.74,8.12,6.15,1.85,.98,4.06,1.42,6.34,1.42,2.03,0,4.06-.37,5.72-.8,2.95-.86,5.35-2.09,7.69-3.26l.12-.06,1.05-.55c5.05-2.46,8.31-1.72,12.18-.86l.74,.18c4.18,.86,8.18,1.11,13.72-1.05,.18,0,.43-.12,.62-.18,1.78-.68,3.75-1.35,5.66-1.97,5.48-1.85,11.14-3.82,14.65-7.39,1.72-1.78,2.28-3.57,2.71-4.92,.18-.55,.31-.92,.49-1.23,.06-.18,.18-.37,.37-.49l2.22-2.22c1.85-1.91,2.15-3.94,2.03-5.29,0-.55-.12-1.05-.31-1.54Zm-12.12,8.43c-.37,.98-.49,1.42-.92,1.91-2.22,2.22-6.95,3.82-11.57,5.42-2.03,.68-4.12,1.35-6.03,2.15-4.12,1.6-6.52,1.54-9.85,.8l-.74-.18c-3.32-.74-7.2-1.6-12.12-.31-1.6,.31-3.26,.92-5.11,1.85l-1.29,.62c-2.09,1.05-4.06,2.03-6.34,2.71-.12,0-.18,.06-.31,.06-2.46,.68-5.05,.55-5.91,0l-.55-.31c-2.15-.86-3.82-2.03-4.86-3.45q-.06-.06-.12-.12l-.62-.92c-.8-1.29-1.85-2.89-4-4.31-2.52-1.6-4.8-3.26-6.95-5.11-1.66-1.35-3.26-2.83-4.8-4.43l-1.35-1.48-.06-.06c2.4-3.45,2.34-6.34-.18-8.68-.37-.31-.74-.62-1.17-.86-.92-.68-1.91-1.23-2.89-1.72l-.8-.37c-2.46-1.29-4.18-2.83-5.85-4.25-.06-.06-.12-.12-.25-.25-.06-.06-.18-.18-.31-.31,.49-.25,1.17-.68,2.28-1.17,1.6-.74,3.38-1.54,5.29-2.34,.92-.43,1.85-.8,2.83-1.17,3.57-1.35,6.28-2.58,8.31-3.88,.25-.12,.43-.25,.62-.37l.98-.62c1.35-.92,2.58-1.72,4.18-2.46,.8-.37,1.66-.74,2.58-1.11,1.05-.43,2.09-.86,3.2-1.35,1.85-.86,3.32-1.85,4.8-2.83,2.46-1.6,4.37-2.89,7.2-3.2,1.29-.18,2.83-.12,4.43,.06,1.29,.18,2.34,.55,3.32,.86l1.29,.43c1.11,.37,2.22,.8,3.32,1.23,1.6,.62,3.2,1.23,4.92,1.85,3.69,1.17,8.06,2.4,13.11,3.45,1.17,.31,2.4,.55,3.32,.92,.74,.37,1.29,.86,2.09,1.54,1.85,1.72,3.45,3.45,5.11,5.35,.86,1.05,1.78,1.97,2.65,2.89,1.42,1.48,3.02,3.14,3.2,4.06v.74c0,.62,0,1.35,.18,2.22,.18,.92,.55,2.03,1.42,3.08,1.35,1.78,3.45,3.08,5.42,4.43,.92,.55,1.85,1.17,2.65,1.78,.31,.25,.55,.43,.68,.62-.49,.49-1.05,1.05-1.54,1.54-.62,.62-1.11,1.23-1.48,1.85-.8,1.17-1.11,2.28-1.42,3.2Z"/><path class="cls-1" d="M516.82,532.65c-1.72-1.17-3.63-2.34-5.54-3.45-2.89-1.66-6.09-3.57-7.2-5.11-.06-.25,.06-1.23,.12-1.85,.18-1.29,.31-2.52,.25-3.75-.43-7.02-6.22-12.06-12.86-17.91l-1.35-1.23c-2.77-2.4-5.6-4.49-8.37-6.46-1.42-.98-2.77-1.91-4.12-2.77-1.91-1.29-4.37-2.89-7.69-4-1.97-.62-4-.98-6.03-1.29-.68-.12-1.35-.25-1.97-.31l-.68-.12c-8.12-1.17-16.12-3.08-23.14-5.48-3.2-1.05-6.15-2.28-9.11-3.45-2.03-.8-4.06-1.66-6.15-2.4-.92-.37-1.78-.68-2.71-.98-2.28-.8-5.05-1.6-8.37-2.09-3.94-.55-7.94-.62-11.57-.25-2.46,.25-4.74,.74-6.83,1.42-4.31,1.29-7.88,3.2-11.14,5.05-.31,.12-.55,.31-.8,.43-1.97,1.17-4,2.28-6.15,3.26-.12,.06-.18,.06-.31,.12-.98,.43-2.03,.92-3.02,1.29-1.54,.68-3.02,1.35-4.43,2.03-.86,.37-1.66,.8-2.4,1.23-2.71,1.48-4.8,3.08-6.83,4.62-.86,.68-1.78,1.35-2.83,2.09-3.14,2.22-8.06,4.43-14.34,6.46l-5.05,1.66c-4.31,1.35-8.49,2.71-12.37,4.06-8.49,2.95-12.86,5.85-14.52,9.85-2.77,6.4,3.26,11.14,6.46,13.72,2.65,2.09,5.6,4.37,9.35,6.52,1.54,.86,3.2,1.72,5.05,2.52l1.97,.86c1.17,.49,2.52,1.05,3.57,1.6-.12,.12-.18,.31-.31,.43-.25,.31-.55,.68-.86,1.05-1.54,2.03-3.26,4.86-2.65,8.31,.18,1.05,.62,1.97,1.11,2.83,1.05,1.78,2.58,3.2,3.75,4.25,.92,.8,1.85,1.66,2.83,2.46,.12,.12,.25,.18,.37,.31,3.63,3.02,7.63,5.85,12.25,8.62,3.2,2.03,6.77,4,10.58,5.91,2.09,1.11,4.31,2.15,6.58,3.26,2.34,1.11,3.45,2.34,4.98,4.12,.68,.74,1.29,1.54,2.03,2.28,4.18,4.18,10.09,7.39,17.17,9.29,2.58,1.11,5.66,1.54,8.74,1.54,3.26,0,6.46-.49,9.11-1.17,5.05-1.29,9.23-3.2,13.35-5.05l.74-.37c1.23-.55,2.46-1.05,3.63-1.42,6.46-2.09,11.69-1.66,16.8-1.17l1.72,.12c4.06,.37,8.06,.31,12.92-.8,2.52-.55,5.29-1.35,8.43-2.58,4.37-1.66,9.42-3.02,14.34-4.31,5.97-1.54,11.69-3.02,16.49-5.17,2.83-1.23,5.29-2.71,7.38-4.49,.43-.37,.86-.74,1.23-1.11,0-.06,.06-.06,.06-.06,2.34-2.52,3.2-5.05,3.88-7.02,.68-1.91,.98-2.77,2.22-3.69l1.97-1.35c.49-.37,1.05-.74,1.54-1.11,.43-.37,.86-.68,1.29-.98,3.63-2.83,4.37-6.09,4.31-8.31-.06-2.65-1.35-6.59-6.89-10.52Zm-6.22,12.49c-.74,.49-1.48,1.05-2.15,1.54-1.42,1.05-2.46,2.15-3.26,3.26-1.35,1.91-2.03,3.75-2.52,5.29-.68,1.91-.98,2.77-2.15,3.75-.62,.55-1.35,1.05-2.22,1.54-3.14,1.85-7.57,3.26-12.25,4.55-1.78,.49-3.57,.92-5.35,1.42-5.17,1.42-10.52,2.77-15.38,4.68-7.38,2.89-11.75,3.14-16.8,2.77l-1.6-.18c-5.66-.49-12.37-1.11-20.74,1.6-1.6,.43-3.2,1.11-4.92,1.85l-.74,.37c-1.91,.86-3.82,1.72-5.66,2.46-1.97,.8-3.94,1.48-6.03,2.03-4.31,1.11-9.05,1.11-11.38,.06l-.86-.31c-6.89-1.85-10.77-4.68-12.86-6.71-.55-.62-1.11-1.23-1.6-1.78-.68-.74-1.35-1.54-2.22-2.4-1.48-1.48-3.38-3.02-6.15-4.31-2.34-1.11-4.55-2.22-6.65-3.26-6.71-3.45-12.31-6.89-17.11-10.46-1.23-.92-2.34-1.78-3.45-2.71-.98-.8-1.97-1.6-2.89-2.46-.25-.18-.8-.74-1.23-1.05,.12-.12,.18-.25,.31-.37,.25-.31,.49-.62,.68-.86,3.88-4.86,4.55-8.99,1.91-12.37-.37-.55-.92-1.11-1.6-1.66-1.97-1.6-4.55-2.71-7.08-3.75-.18-.12-.37-.18-.55-.25l-1.85-.8c-5.11-2.22-8.62-4.98-12.06-7.63-.49-.43-1.78-1.48-2.58-2.28,.98-.74,3.14-1.97,7.63-3.51,3.82-1.35,7.88-2.65,12.12-4l5.11-1.66c7.32-2.34,13.05-4.98,17.11-7.82,1.11-.8,2.09-1.6,3.14-2.34,1.85-1.42,3.51-2.65,5.54-3.82,1.78-.98,3.82-1.85,5.97-2.77,.06-.06,.18-.06,.25-.12,1.05-.43,2.09-.92,3.2-1.42,1.85-.8,3.51-1.72,5.23-2.65,.55-.31,1.17-.62,1.72-.92,4.8-2.71,8.98-5.05,14.83-5.66,2.77-.31,5.97-.25,8.98,.18,2.52,.31,4.62,.98,6.52,1.66,.86,.25,1.66,.55,2.4,.86,2.03,.74,4,1.54,5.97,2.28,3.08,1.29,6.22,2.52,9.66,3.69,7.57,2.59,16.19,4.62,24.92,5.91l.68,.12c2.34,.31,4.49,.62,6.34,1.23,1.6,.49,2.95,1.35,4.25,2.15,.31,.18,.62,.37,.92,.55,1.78,1.23,3.63,2.46,5.48,3.75,1.97,1.48,3.94,3.02,5.85,4.68l1.35,1.17c4.55,4,9.23,8.12,9.42,10.83,0,.55-.12,1.17-.18,1.72-.31,2.22-.8,5.91,1.78,9.42,.74,1.05,1.66,1.97,2.71,2.83,2.09,1.78,4.68,3.26,7.2,4.8,.12,.06,.25,.12,.37,.18,1.66,.98,3.32,1.97,4.86,3.02,1.29,.92,1.97,1.66,2.28,2.15-.06,0-.06,.06-.12,.12-.18,.12-.31,.25-.49,.37-.68,.43-1.35,.92-1.97,1.42Z"/><path class="cls-1" d="M534.3,575.36c-2.03-1.35-4.31-2.58-6.58-3.82-3.75-2.03-8-4.37-9.42-6.34-.37-.49-.31-1.23,.12-3.39,.25-1.29,.55-2.77,.55-4.37s-.25-3.32-.86-4.98c-.92-2.95-2.77-5.85-5.54-8.74-1.85-1.97-4.18-3.94-6.89-5.85-1.42-1.11-2.89-2.09-4.55-3.14-.86-.55-1.78-1.11-2.65-1.66-4.49-2.77-8.98-5.48-13.85-8-2.58-1.42-5.54-2.95-9.48-3.88-2.95-.74-6.09-.98-9.11-1.29l-1.54-.18c-3.69-.37-7.38-.86-11.08-1.6-6.22-1.05-12.31-2.58-17.97-4.49-2.4-.8-4.74-1.66-6.95-2.52-1.54-.62-3.08-1.23-4.62-1.85-2.52-1.05-4.98-2.03-7.57-2.95-1.11-.43-2.22-.8-3.32-1.23-2.77-.92-6.15-1.97-10.28-2.52-3.38-.43-6.89-.55-10.28-.43-1.23,.06-2.46,.18-3.69,.31-2.15,.25-4.25,.62-6.15,1.11-6.58,1.54-11.94,4.25-17.11,6.83-2.03,1.05-4.06,2.03-6.15,3.02l-1.72,.74c-3.69,1.66-7.2,3.26-10.15,5.11-2.83,1.72-4.92,3.51-7.02,5.29-1.17,.98-2.34,2.03-3.69,3.02-.06,0-.06,.06-.12,.12-2.77,2.03-6.71,4.06-11.51,5.91-2.03,.8-4.31,1.54-6.65,2.28-4,1.17-8.06,2.34-12,3.45-3.69,.98-7.32,1.97-10.71,3.02-10.77,3.2-16.49,6.65-18.58,11.02-3.45,7.2,3.94,12.56,7.88,15.51,2.34,1.66,4.86,3.51,7.75,5.23,3.02,1.85,6.46,3.63,10.59,5.23l1.42,.49,1.23,.43c2.15,.8,4.62,1.6,6.22,2.59-.49,.62-1.11,1.35-1.6,1.91-1.6,1.97-3.69,4.43-4.25,7.39-.18,1.05-.25,2.15,0,3.32,.43,2.15,1.66,3.88,3.14,5.42,.92,.86,1.91,1.72,2.89,2.52,.86,.68,1.66,1.29,2.58,1.97,.55,.43,1.17,.86,1.78,1.29,1.85,1.29,3.69,2.58,5.72,3.75,4.18,2.65,8.8,5.11,14.09,7.63,3.38,1.6,7.02,3.2,11.02,4.8,2.89,1.23,5.97,2.46,9.29,3.69,3.63,1.42,5.48,3.08,7.75,5.29,.92,.86,1.85,1.78,2.95,2.65,.31,.25,.62,.49,.98,.74,5.54,4.37,12.98,7.51,21.78,9.11,2.46,.86,5.42,1.29,8.68,1.29,2.46,0,5.05-.25,7.69-.74,.86-.18,1.72-.37,2.58-.55,5.6-1.35,10.4-3.26,15.63-5.48,1.17-.49,2.28-.92,3.38-1.29,7.02-2.34,12.8-2.52,18.46-2.65h3.75c7.38-.18,13.54-1.6,22.65-5.11,5.78-2.28,12.92-3.88,19.75-5.42,3.2-.68,6.28-1.35,9.29-2.15,4.74-1.17,9.11-2.52,12.92-4.31,2.15-.98,4.06-2.09,5.78-3.45,2.46-1.91,3.88-4,4.92-5.91,0-.06,0-.18,.06-.25,.55-1.17,.92-2.28,1.29-3.2,.68-1.97,1.11-3.2,2.46-4.31,.25-.25,.55-.49,.92-.74,.92-.62,1.91-1.17,2.89-1.78,.18-.12,.37-.25,.55-.31,1.05-.68,2.09-1.29,3.02-1.91,4.49-3.02,5.42-6.59,5.35-9.05-.06-4.18-2.89-8.25-8.18-11.63Zm-2.58,12.68c-.98,.62-2.03,1.29-3.08,1.91-1.05,.62-2.09,1.23-3.08,1.91-.06,0-.18,.06-.25,.12-2.09,1.42-3.57,2.95-4.55,4.49-1.35,1.91-2.03,3.82-2.58,5.42-.31,.86-.55,1.54-.86,2.22-.49,.98-1.11,1.85-2.22,2.71-3.75,2.89-10.4,4.92-17.54,6.65-2.15,.49-4.43,.98-6.65,1.48-6.89,1.54-13.97,3.14-20.25,5.48-.31,.06-.62,.18-.92,.31-8.06,3.14-13.11,4.31-19.39,4.43l-2.58,.06c-6.4,.12-14.15,.18-23.51,3.57-.98,.31-1.97,.68-3.02,1.11-2.46,1.05-4.8,2.03-7.2,2.89-2.28,.8-4.55,1.54-6.95,2.09-5.23,1.29-10.65,1.35-13.78,.18l-.8-.18c-9.85-1.78-15.57-5.29-18.71-7.88-.86-.74-1.66-1.48-2.46-2.22-1.29-1.23-2.65-2.52-4.31-3.75-1.78-1.29-3.88-2.52-6.65-3.57-2.4-.92-4.74-1.78-6.89-2.71-7.88-3.14-14.46-6.15-20.06-9.17-2.95-1.66-5.66-3.26-8.18-4.92-.98-.62-1.91-1.23-2.83-1.91-1.35-.98-2.65-1.97-3.94-2.95-.92-.74-1.6-1.35-2.03-1.78-.18-.12-.25-.25-.37-.37,.37-.74,1.35-1.97,2.03-2.71,2.09-2.46,4.68-5.6,4.25-9.54-.06-.43-.12-.92-.31-1.42-.43-1.42-1.42-3.08-3.38-4.55-.43-.37-.92-.68-1.48-.92-2.28-1.42-5.11-2.46-7.94-3.38l-2.46-.92c-.31-.12-.68-.25-.98-.37-6.34-2.46-10.77-5.72-15.02-8.8-.98-.74-3.63-2.71-4.55-3.88,.8-.86,3.63-2.95,12.31-5.6,3.32-.98,6.89-1.97,10.46-2.95,4.06-1.11,8.25-2.28,12.31-3.51,3.88-1.17,8.68-2.83,13.23-5.05,2.89-1.35,5.66-2.95,8.06-4.74,.92-.74,1.85-1.48,2.71-2.22,.49-.37,.92-.8,1.42-1.23,1.85-1.6,3.63-3.08,5.78-4.43,2.46-1.48,5.66-2.95,9.05-4.43l1.78-.8c2.22-.98,4.31-2.09,6.46-3.14,6.28-3.2,12.18-6.15,20-7.02,.86-.06,1.72-.18,2.58-.25,3.02-.12,6.15,0,9.11,.37,.92,.12,1.85,.25,2.65,.43,2.15,.49,4,1.05,5.72,1.66,1.05,.37,2.09,.74,3.08,1.11,.86,.31,1.72,.62,2.52,.98,1.66,.62,3.2,1.23,4.8,1.85,1.78,.74,3.63,1.48,5.48,2.22,2.15,.8,4.31,1.66,6.65,2.4,9.72,3.2,20.49,5.48,31.2,6.59l1.54,.12c2.77,.25,5.48,.55,7.75,1.11,2.77,.68,4.98,1.78,7.32,3.02,5.48,2.89,10.58,6.03,15.75,9.29,4.25,2.65,7.2,5.05,9.23,7.02,3.51,3.57,4.18,6.03,4.12,7.45,0,.86-.18,1.66-.37,2.52-.31,1.54-.74,3.51-.49,5.66v.12c.18,1.6,.68,3.45,1.97,5.17,2.71,3.75,7.57,6.4,12.68,9.17,2.03,1.11,4.12,2.28,5.97,3.45,2.95,1.91,3.69,3.38,3.75,3.51,0,.12-.31,.49-1.11,1.05Z"/><path class="cls-1" d="M553.07,615.68c-2.34-1.42-4.98-2.77-7.63-4.12-.55-.31-1.17-.55-1.72-.86l-.06-.06c-4.18-2.15-8.49-4.49-9.97-6.65-.25-.31-.37-.74-.37-1.17-.18-.86,.06-1.97,.49-3.82,.06-.37,.18-.68,.31-1.05,.25-1.23,.49-2.52,.55-3.94,.43-9.11-6.71-17.79-21.17-25.73-1.66-.92-3.32-1.78-4.98-2.65,0,0,0-.06-.06-.06-3.32-1.78-6.71-3.45-10.15-5.05-1.91-.86-3.82-1.66-5.72-2.52-3.14-1.35-6.71-2.83-11.14-3.69-3.38-.62-6.95-.8-10.4-.98l-2.22-.12c-12-.74-24.12-3.02-35.14-6.59-5.05-1.6-9.66-3.45-14.15-5.23-2.95-1.17-5.91-2.34-8.92-3.45-1.29-.43-2.65-.92-4-1.35-3.45-1.17-7.32-2.34-12.06-2.89-5.23-.62-11.08-.62-16.49,0-11.51,1.35-20.25,5.48-28.68,9.54-1.72,.8-3.45,1.6-5.17,2.4-.49,.25-.98,.43-1.48,.68-3.69,1.66-6.95,3.26-9.72,4.86-.86,.49-1.6,.98-2.34,1.48-3.02,2.03-5.17,4.12-7.32,6.09-1.35,1.29-2.77,2.65-4.37,3.94-3.14,2.46-7.69,4.92-13.17,7.14-2.77,1.11-5.85,2.15-9.11,3.14-1.29,.37-2.58,.74-3.88,1.11-3.94,1.11-8,2.09-12,3.14-4.18,1.11-8.25,2.15-12.18,3.26-12.86,3.57-20,7.57-22.52,12.43-4,7.82,4.74,13.79,9.42,16.99,1.42,.98,2.89,1.97,4.43,3.02,3.08,1.97,6.52,4,10.59,5.85,2.22,.98,4.68,1.97,7.32,2.83,1.05,.37,2.22,.74,3.32,1.11,2.52,.74,5.29,1.6,7.38,2.65,.49,.25,.92,.55,1.35,.8-.49,.92-1.78,2.52-2.65,3.57-2.4,2.77-5.23,6.15-5.23,10.22,0,.55,.12,1.17,.25,1.78,.18,.68,.37,1.29,.68,1.91,.98,2.03,2.71,3.75,4.68,5.35,.62,.43,1.23,.86,1.85,1.35,1.17,.86,2.34,1.66,3.57,2.46,.62,.43,1.23,.8,1.91,1.23,1.48,.98,3.02,1.91,4.62,2.77,2.71,1.6,5.54,3.08,8.43,4.43,2.58,1.29,5.29,2.52,8,3.63,3.26,1.48,6.65,2.77,10.03,4.06h.06c3.32,1.29,6.71,2.46,10.09,3.63h.12c2.83,.98,5.66,1.91,8.49,2.77,.37,.12,.74,.25,1.11,.37,3.02,.92,5.17,2.09,7.02,3.45,.25,.18,.43,.31,.62,.49,.06,0,.12,.06,.18,.12,.92,.68,1.78,1.42,2.71,2.15,.31,.31,.68,.55,1.05,.86,.43,.37,.92,.74,1.42,1.17,.43,.31,.86,.62,1.35,.98,7.14,5.17,16.99,8.74,28.49,10.34,2.71,.68,5.54,.92,8.31,.92,3.45,0,6.65-.37,9.05-.8,1.11-.18,2.03-.37,2.77-.55,1.54-.37,3.02-.74,4.43-1.17,.12,0,.25-.06,.37-.12,.49-.12,.92-.25,1.35-.43,2.03-.55,4-1.23,5.91-1.91,1.78-.62,3.45-1.23,5.11-1.91,.25-.12,.55-.18,.8-.31,3.26-1.23,6.34-2.15,9.29-2.83,5.29-1.17,10.03-1.66,14.52-2.09,1.48-.12,2.89-.31,4.31-.43,1.54-.18,3.02-.37,4.49-.68,4.8-.86,9.29-2.28,14.77-4.37,1.48-.49,3.08-1.11,4.74-1.78,7.2-2.83,16.19-4.62,24.92-6.4,5.48-1.11,10.83-2.15,15.69-3.51,4.43-1.17,8.55-2.52,12.06-4.31,1.72-.8,3.26-1.72,4.68-2.77,2.28-1.66,3.75-3.45,4.8-5.17,1.23-1.91,1.91-3.82,2.46-5.48,.12-.37,.25-.68,.37-.98v-.06c.25-.55,.43-1.05,.68-1.54,.68-1.48,1.66-2.65,3.63-3.88,.62-.43,1.35-.86,2.09-1.23,.18-.12,.37-.25,.62-.31,.31-.18,.68-.37,.98-.55,1.54-.86,3.08-1.66,4.37-2.46,.43-.31,.86-.55,1.23-.86,4.18-3.08,5.11-6.59,5.05-8.99-.06-4.55-3.32-8.92-9.54-12.62Zm-11.94,20.99c-3.51,2.89-4.8,6.03-5.78,8.74-.06,.25-.18,.55-.25,.8-.8,2.28-1.35,3.94-3.26,5.6-.25,.25-.55,.49-.86,.74-4.62,3.39-12.62,5.54-21.17,7.39-2.52,.55-5.17,1.11-7.69,1.6-7.75,1.6-15.75,3.2-22.83,5.6-1.23,.37-2.46,.8-3.63,1.29-8.92,3.51-14.71,5.42-21.72,6.22-1.35,.18-2.77,.31-4.18,.43-.37,.06-.74,.06-1.11,.12-4.43,.43-9.6,.98-15.32,2.4-3.32,.74-6.89,1.78-10.59,3.26-.74,.31-1.48,.55-2.22,.86-2.52,.98-5.23,1.97-8.12,2.83-1.78,.55-3.63,1.05-5.54,1.48-.55,.12-1.05,.25-1.6,.31-5.48,1.05-10.89,1.11-14.4,.12-.18-.06-.43-.12-.62-.12-.43-.06-.92-.12-1.35-.25-.37,0-.8-.06-1.17-.18-4.62-.68-8.43-1.72-11.69-2.95-.37-.06-.74-.25-1.11-.37-.06-.06-.18-.06-.25-.12-.18,0-.31-.06-.43-.18-3.82-1.48-6.65-3.14-8.68-4.62-.8-.55-1.54-1.17-2.28-1.85-.37-.25-.68-.55-1.05-.86-1.42-1.17-2.95-2.46-4.8-3.69-2.28-1.54-5.05-3.02-8.74-4.18-.68-.25-1.42-.43-2.09-.68-5.11-1.6-10.28-3.32-15.32-5.23-3.32-1.17-6.58-2.4-9.79-3.75-3.88-1.6-7.69-3.32-11.32-5.17-2.46-1.23-4.86-2.52-7.2-3.94-1.11-.62-2.15-1.23-3.2-1.91-1.6-.98-3.14-2.03-4.62-3.14-.12-.06-.25-.18-.37-.25-2.77-2.03-3.57-2.95-3.69-3.14,.12-.86,1.91-3.02,2.95-4.25q.06-.06,.12-.12c2.4-2.89,5.23-6.15,4.98-10.15,0-.18,0-.37-.06-.55-.25-1.66-1.11-4.12-4.12-6.22-2.58-1.78-6.28-3.02-9.91-4.18-.37-.12-.8-.25-1.17-.37-1.11-.31-2.22-.62-3.2-.98-3.08-.98-5.85-2.15-8.31-3.38-4.49-2.28-8.18-4.74-11.75-7.2-4.06-2.77-6.28-4.68-6.52-5.42,.25-.37,2.34-3.75,16.92-7.88,3.88-1.11,7.94-2.15,12-3.2,5.42-1.35,10.95-2.77,16.25-4.37,1.72-.49,3.57-1.11,5.54-1.78,4-1.35,8.37-3.14,12.37-5.29,2.65-1.42,5.17-3.02,7.38-4.74,1.85-1.48,3.45-2.95,4.99-4.43,1.91-1.85,3.82-3.57,6.15-5.17,1.17-.8,2.46-1.54,3.88-2.28,2.4-1.29,5.23-2.59,8.37-4.06l2.03-.92c1.11-.49,2.15-.98,3.26-1.54,8.12-3.88,15.82-7.51,25.85-8.68,2.4-.31,4.86-.43,7.32-.43s4.8,.12,7.02,.43c4,.49,7.32,1.48,10.34,2.46,1.29,.43,2.52,.86,3.75,1.29,2.95,1.11,5.78,2.22,8.68,3.32,4.62,1.85,9.42,3.75,14.71,5.48,11.69,3.75,24.62,6.15,37.29,6.95l2.34,.12c3.26,.18,6.4,.37,9.23,.92,2.28,.43,4.31,1.05,6.28,1.85,1.05,.43,2.03,.86,3.14,1.29,3.57,1.54,7.14,3.2,10.65,4.92,3.14,1.54,6.22,3.2,9.29,4.86,9.66,5.35,15.45,10.83,16.43,15.69,.12,.55,.12,1.17,.12,1.72-.06,1.05-.37,2.15-.62,3.26-.12,.49-.25,.98-.37,1.48-.62,2.83-.98,6.28,.92,9.72,.06,.18,.12,.31,.31,.49,.06,.25,.18,.43,.37,.68,2.77,3.88,7.82,6.71,13.35,9.54,.55,.25,1.17,.55,1.72,.86,2.46,1.23,4.92,2.46,7.08,3.75,1.23,.74,2.22,1.48,2.95,2.15,1.54,1.35,2.15,2.4,2.15,2.89,0,.31-.55,1.11-2.03,2.09-.18,.12-.37,.25-.62,.31-.49,.31-1.05,.62-1.6,.92-.49,.31-1.05,.62-1.6,.86-1.48,.8-2.89,1.6-4.25,2.4-.74,.43-1.35,.92-1.97,1.35-.12,.12-.25,.25-.37,.31Z"/><path class="cls-1" d="M573.07,653.28c-1.66-.92-3.45-1.78-5.23-2.71-1.17-.55-2.28-1.11-3.45-1.66-5.11-2.4-10.71-5.05-13.42-7.75-.31-.31-.62-.68-.86-.98-1.05-1.54-.74-3.26,.18-6.77,.06-.31,.18-.62,.25-.92,.12-.55,.25-1.11,.37-1.66,.25-.98,.37-1.97,.49-3.02,.06-.74,.06-1.48,0-2.28-.25-4.25-2.15-9.35-7.69-14.83l-.06-.06c-2.52-2.52-5.91-5.17-10.34-7.82-1.11-.68-2.28-1.35-3.57-2.03-.92-.49-1.91-.98-2.89-1.48-.74-.37-1.42-.68-2.15-.98-1.29-.68-2.58-1.29-3.94-1.85-5.78-2.65-12.12-5.23-18.95-7.69-3.75-1.35-8-2.89-13.11-3.63-3.82-.49-7.82-.62-11.63-.68l-3.02-.06c-4.49-.12-8.98-.49-13.48-1.05-9.54-1.11-18.95-3.08-27.82-5.79-2.28-.68-4.43-1.48-6.58-2.22-3.51-1.23-6.83-2.52-10.09-3.82-3.38-1.29-6.83-2.58-10.34-3.88-1.54-.55-3.08-1.05-4.62-1.54-4-1.29-8.43-2.58-13.97-3.2-5.78-.62-12.55-.49-18.95,.25-.37,.06-.74,.12-1.11,.18-5.42,.68-10.34,1.91-14.89,3.45-6.89,2.28-13.11,5.17-19.2,8l-3.14,1.42c-2.58,1.23-5.29,2.46-7.82,3.75-2.65,1.42-5.11,2.89-7.26,4.49-3.14,2.34-5.42,4.68-7.69,6.95-.25,.25-.43,.49-.68,.68-1.29,1.42-2.65,2.77-4.31,4.12-5.48,4.55-14.77,8.99-26.22,12.37-1.17,.37-2.34,.68-3.51,1.05-4.06,1.11-8.25,2.22-12.43,3.26-1.17,.31-2.34,.55-3.51,.86-4.8,1.17-9.48,2.28-14.03,3.57-14.89,4.06-23.51,8.62-26.34,14.03-4.49,8.43,5.23,14.65,11.02,18.4,0,0,.06,0,.06,.06,2.89,1.85,5.91,3.82,9.35,5.66,4.68,2.65,10.15,5.17,16.86,7.14,1.29,.37,2.71,.74,4.06,1.11,.68,.18,1.42,.37,2.09,.62,3.38,.86,6.58,1.85,8.37,3.08,.06,.06,.18,.12,.25,.12,.37,.25,.49,.43,.55,.43,0,.25-.12,.49-.31,.86-.74,1.29-2.34,3.26-3.38,4.43-3.02,3.63-6.46,7.69-5.72,12.49,0,.25,.06,.55,.12,.8,.12,.49,.31,.98,.49,1.48,.49,1.11,1.23,2.15,2.09,3.08,.12,.18,.31,.37,.49,.55,1.17,1.23,2.58,2.28,3.94,3.26,.12,.12,.25,.18,.37,.25,.37,.25,.68,.49,.98,.68,.31,.18,.55,.37,.86,.55,.37,.31,.8,.55,1.23,.8,.49,.31,.92,.62,1.42,.92,.49,.31,.98,.62,1.48,.86,.55,.37,1.05,.68,1.6,.98,17.66,10.22,40.19,17.11,61.85,23.02,6.22,1.66,9.48,4.12,13.23,7.02,1.54,1.17,3.08,2.34,4.8,3.45,8.62,5.6,20.43,9.23,34.15,10.52,2.34,.49,5.05,.74,7.94,.74,4.18,0,8.86-.49,13.48-1.54,7.38-1.6,13.91-3.88,18.77-5.72,9.54-3.57,17.97-4.92,25.35-6.15,2.34-.43,4.49-.8,6.65-1.17,8-1.54,14.22-4.06,23.63-7.82l1.78-.74c8.55-3.38,19.45-5.48,29.97-7.51,9.35-1.78,18.4-3.57,25.97-6.15,3.08-1.05,5.91-2.28,8.37-3.69,.49-.31,.98-.55,1.42-.92,.18-.06,.43-.18,.62-.37,.25-.12,.43-.25,.68-.43,1.17-.86,2.22-1.72,3.02-2.59l.55-.55c.18-.25,.37-.43,.49-.68,1.35-1.6,2.28-3.2,2.89-4.74,.49-1.17,.86-2.22,1.23-3.26,.06-.25,.18-.55,.25-.8,.74-2.03,1.42-3.69,3.02-5.23,.62-.62,1.29-1.17,2.22-1.72,.12-.12,.25-.18,.43-.31,1.17-.68,2.46-1.35,3.82-2.03,.25-.12,.49-.25,.74-.37,1.05-.49,2.03-1.05,3.02-1.54,.74-.43,1.48-.8,2.15-1.23,.43-.25,.8-.49,1.17-.8q.06,0,.12-.06c2.52-1.78,4-3.63,4.8-5.42,.8-1.6,.98-3.08,.98-4.31-.06-4.98-3.82-9.66-10.83-13.6Zm-19.82,34.65q0,.06-.06,.12c-.55,1.66-1.05,3.08-1.91,4.37-.68,1.11-1.66,2.22-3.14,3.26-.62,.43-1.29,.86-1.97,1.23-1.97,1.11-4.25,2.09-6.77,3.02-4.25,1.48-9.11,2.65-14.22,3.82h-.25c-3.45,.74-7.02,1.42-10.59,2.09-2.4,.49-4.86,.92-7.26,1.42-.18,.06-.37,.06-.49,.12-1.66,.31-3.32,.68-4.98,.98-3.75,.86-7.45,1.72-10.95,2.83-2.71,.74-5.29,1.66-7.75,2.65l-1.78,.68c-8.98,3.63-14.95,5.97-22.15,7.39-2.03,.37-4.18,.74-6.4,1.11-7.82,1.29-16.62,2.77-26.95,6.65-4.55,1.72-10.71,3.88-17.6,5.35-6.71,1.48-13.48,1.72-18.15,.74l-.49-.06c-15.75-1.48-25.35-5.85-30.59-9.29-1.54-.98-2.89-2.03-4.25-3.02-4.12-3.14-8.31-6.34-16.12-8.49-19.2-5.17-39.02-11.2-55.08-19.57-.74-.37-1.48-.74-2.22-1.17-.25-.12-.49-.25-.74-.43-.62-.25-1.17-.62-1.78-.92,0-.06-.06-.06-.06-.06-.68-.43-1.35-.8-2.03-1.23-.12-.06-.25-.12-.37-.25-.18-.12-.43-.25-.62-.43-1.05-.55-2.09-1.23-3.08-1.91-.8-.55-1.42-.98-1.97-1.42-.8-.62-1.42-1.11-1.85-1.54-.8-.68-.98-1.11-1.05-1.35-.25-1.05,2.52-4.31,3.88-5.91,.68-.8,1.35-1.6,1.97-2.46,1.54-1.97,2.89-4.06,3.38-6.4,.25-.98,.31-1.97,.18-3.02-.18-1.42-.8-2.77-1.78-3.94-.06-.12-.12-.25-.31-.31-.55-.8-1.42-1.54-2.4-2.15-1.11-.74-2.4-1.35-3.82-1.97-2.77-1.11-5.97-1.97-9.11-2.83-1.29-.31-2.58-.68-3.88-1.05-2.34-.68-4.49-1.48-6.52-2.28-4-1.6-7.38-3.38-10.58-5.23-2.46-1.42-4.74-2.89-7.02-4.37-5.97-3.82-8.68-6.34-8.12-7.45,.43-.8,3.45-4.98,21.17-9.85,4.49-1.23,9.11-2.34,13.78-3.51,4-.98,8.06-1.97,12.12-3.14,2.58-.62,5.23-1.35,7.75-2.09,2.34-.68,4.62-1.48,6.77-2.28,9.54-3.39,17.17-7.39,22.4-11.75,.74-.62,1.42-1.23,2.09-1.78,1.29-1.23,2.46-2.4,3.57-3.57,1.11-1.17,2.22-2.28,3.32-3.26,.98-.98,2.09-1.91,3.26-2.77,3.63-2.58,8.74-5.11,13.72-7.39l3.08-1.48c8.12-3.75,16.49-7.63,26.28-9.66,2.09-.55,4.25-.92,6.46-1.17,3.26-.43,6.58-.62,9.79-.62h.86c2.22,0,4.37,.12,6.34,.37,4.8,.49,8.74,1.66,12.31,2.77,1.48,.49,2.95,.98,4.37,1.54,3.45,1.23,6.83,2.52,10.15,3.75,.62,.25,1.17,.49,1.78,.68,4.49,1.78,9.17,3.57,14.28,5.17,.37,.12,.8,.25,1.17,.37,13.72,4.25,28.74,6.77,43.45,7.2l3.14,.06c3.75,.12,7.32,.18,10.65,.62,4.25,.62,7.88,1.97,11.45,3.26,6.58,2.4,12.74,4.86,18.34,7.38,2.03,.86,3.94,1.78,5.85,2.71,.86,.43,1.66,.86,2.46,1.23,.12,.12,.25,.18,.37,.25,6.22,3.32,10.83,6.89,13.66,10.46,2.4,2.89,3.57,5.72,3.38,8.43-.06,.37-.12,.74-.25,1.17-.12,.92-.37,1.85-.62,2.89-.37,1.48-.8,3.14-.98,4.92-.06,.18-.06,.31-.06,.49-.25,2.65,.18,5.54,2.15,8.31,.37,.55,.86,1.11,1.35,1.6,.92,1.05,2.03,2.03,3.32,2.89,3.51,2.59,8.06,4.74,12.8,7.02,.18,.06,.37,.18,.55,.25,2.58,1.23,5.11,2.46,7.38,3.75,.06,.06,.18,.06,.25,.12,4.49,2.52,6.52,5.11,6.58,6.4,0,.86-1.11,2.09-3.02,3.26h-.06c-1.29,.8-2.83,1.6-4.43,2.34-.06,.06-.12,.12-.18,.12-.18,.06-.31,.18-.49,.25-1.54,.8-3.14,1.6-4.55,2.46-.8,.49-1.48,.92-2.15,1.48,0,0-.06,0-.12,.06-2.4,1.78-3.94,3.75-4.98,5.6-1.11,1.91-1.72,3.69-2.28,5.35Z"/><path class="cls-1" d="M606.05,700.85c-.06-.49-.18-.98-.37-1.42-.8-2.59-2.52-4.98-5.23-7.26-1.72-1.48-3.88-2.89-6.4-4.25-2.03-1.11-4.31-2.15-6.65-3.2-1.05-.49-2.15-.98-3.2-1.48-1.42-.62-2.89-1.29-4.25-1.97-1.85-.8-3.63-1.66-5.29-2.59-3.2-1.72-5.78-3.45-7.14-5.35-.06-.12-.18-.25-.18-.37-.18-.25-.31-.49-.37-.74-.62-1.6-.31-3.45,.31-5.97,.12-.49,.31-.98,.43-1.48,.37-1.35,.74-2.77,.98-4.31,.06-.49,.18-.98,.18-1.54,.06-.12,.06-.25,.06-.37,.25-2.71-.12-5.35-1.11-8-1.66-4.68-5.11-9.11-10.28-13.29-2.09-1.66-4.43-3.26-7.02-4.8-.37-.31-.8-.49-1.23-.74-2.03-1.17-4.18-2.28-6.52-3.39-.55-.25-1.11-.55-1.72-.8-7.14-3.2-15.63-6.4-25.85-9.66-1.11-.31-2.28-.68-3.45-1.05-4.06-1.29-8.74-2.77-14.22-3.38-.25-.06-.49-.12-.74-.12-4.18-.43-8.55-.43-12.74-.37h-3.94c-16-.06-32.43-2.46-47.45-6.95-6.83-2.03-13.17-4.37-19.32-6.71-3.88-1.42-7.69-2.89-11.75-4.25-1.72-.62-3.45-1.17-5.29-1.78-4.55-1.42-9.6-2.77-15.82-3.32-6.52-.62-13.91-.43-21.35,.55-13.05,1.66-24.12,5.79-33.91,10.15-3.08,1.35-6.03,2.71-8.92,4.06-.43,.18-.86,.43-1.29,.62-6.95,3.32-11.69,6.09-15.26,8.86-1.85,1.48-3.45,2.95-4.8,4.37-1.17,1.17-2.22,2.28-3.2,3.38-1.11,1.17-2.09,2.28-3.2,3.38-.74,.8-1.6,1.6-2.46,2.34-6.22,5.42-16.86,10.65-30.15,14.65-5.6,1.72-11.51,3.26-17.35,4.74-1.78,.43-3.57,.86-5.35,1.29-2.03,.49-4.06,.98-6.09,1.48-3.38,.86-6.77,1.72-10.03,2.58-25.42,6.95-28.99,13.6-30.15,15.76-3.75,6.95,1.85,12.55,7.63,16.56,1.72,1.17,3.45,2.28,4.98,3.2,1.05,.68,2.15,1.29,3.26,2.03,5.97,3.51,12.68,7.26,21.42,10.09,1.78,.62,3.69,1.23,5.66,1.72,1.54,.43,3.14,.8,4.74,1.17,2.65,.68,5.35,1.29,7.69,2.03,.12,.06,.25,.06,.31,.12,.37,.12,.68,.25,.98,.37,.8,.25,1.54,.55,2.15,.86,.18,.06,.37,.12,.49,.25,.18,.06,.31,.12,.43,.25,.12,.06,.18,.06,.25,.12,.43,.31,.74,.55,.98,.74,.18,.18,.31,.37,.31,.43l.06,.06c.06,.49-.31,1.35-.98,2.28-.12,.18-.25,.37-.37,.55-.92,1.35-2.15,2.89-3.08,4-3.57,4.31-7.63,9.17-6.22,14.59,1.11,4.37,5.54,7.39,9.54,9.91,2.46,1.54,4.98,3.08,7.69,4.49,19.14,10.28,42.89,17.05,72.68,24.06,7.57,1.78,11.69,4.68,16.12,7.75,1.78,1.29,3.57,2.58,5.6,3.75,10.15,6.03,23.94,9.72,39.88,10.71,2.4,.37,4.86,.49,7.26,.49,6.15,0,12.06-.98,15.57-1.66,6.4-1.35,12.86-3.26,20.37-5.91,9.29-3.32,17.72-5.23,25.11-6.83,3.51-.8,6.71-1.54,9.78-2.34,6.65-1.72,12.12-4.06,19.02-6.95,2.46-1.05,5.05-2.15,7.94-3.32,9.79-4,22.52-6.4,34.83-8.74,16.62-3.08,32.25-6.03,41.79-12.74,6.09-4.31,7.75-9.17,9.05-13.05,1.29-3.94,2.22-6.77,7.14-9.66,1.66-.92,3.51-1.85,5.42-2.77,.12-.06,.18-.12,.31-.18,1.97-.98,3.94-1.91,5.66-2.89,.18-.12,.43-.25,.62-.43,.55-.31,.98-.62,1.48-.98,.18-.12,.43-.31,.62-.49,.31-.18,.55-.43,.8-.68,.62-.55,1.17-1.11,1.6-1.66,.49-.49,.8-.98,1.11-1.48,.06-.12,.18-.25,.18-.37,.31-.55,.55-1.05,.74-1.48,.18-.49,.31-.98,.43-1.42,.06-.18,.06-.43,.12-.62v-.06c.12-.62,.12-1.17,.12-1.72,0-.49-.06-.98-.18-1.48Zm-22.95,12.06c-7.38,4.37-9.17,9.6-10.58,13.85-1.17,3.57-2.09,6.34-6.09,9.17-8.18,5.72-23.02,8.55-38.77,11.51-12.68,2.4-25.85,4.86-36.37,9.17-2.89,1.17-5.54,2.28-8,3.32-6.58,2.77-11.82,4.98-17.97,6.65-2.95,.74-6.09,1.48-9.48,2.22-7.63,1.66-16.31,3.57-26.09,7.08-7.14,2.58-13.23,4.37-19.32,5.6-7.45,1.6-14.83,1.97-20.18,1.11h-.37c-18.71-1.11-30.22-5.91-36.55-9.66-1.85-1.11-3.51-2.28-5.17-3.45-4.8-3.32-9.78-6.83-18.77-8.92-29.17-6.89-52.43-13.54-70.83-23.39-2.52-1.35-4.92-2.77-7.2-4.18-1.42-.92-5.72-3.63-6.15-5.29-.43-1.6,2.65-5.29,4.68-7.69,3.38-4.06,6.83-8.25,6.09-13.05-.06-.25-.12-.49-.18-.74,0-.12-.06-.25-.12-.37-.25-.92-.68-1.72-1.23-2.52-.06-.06-.12-.18-.25-.25-.06-.12-.12-.25-.25-.31-.18-.31-.43-.55-.74-.8l-.25-.25c-.31-.31-.68-.55-1.11-.8-.25-.25-.49-.37-.74-.55-.37-.25-.74-.43-1.17-.62-.62-.37-1.29-.74-2.03-1.05-.8-.31-1.6-.62-2.46-.86-2.83-.92-5.91-1.66-8.98-2.4-.12,0-.25-.06-.37-.12-1.42-.31-2.83-.68-4.19-1.05-7.2-1.85-12.98-4.37-18.09-7.08-3.14-1.66-6.09-3.38-8.92-5.11-.43-.25-.86-.55-1.29-.8-3.63-2.22-11.2-6.83-9.79-9.48,.74-1.35,4.74-6.28,25.35-11.94,5.17-1.42,10.52-2.71,15.88-4,.49-.12,.98-.25,1.48-.37,4.19-1.05,8.49-2.09,12.68-3.2,3.08-.8,6.09-1.6,9.05-2.52,9.29-2.83,17.42-6.22,23.82-9.85,3.57-2.03,6.58-4.18,9.11-6.4,2.52-2.15,4.43-4.31,6.34-6.34,.55-.62,1.11-1.23,1.66-1.85,1.6-1.72,3.32-3.38,5.35-4.98,3.32-2.58,8-5.23,15.14-8.62,.92-.43,1.91-.86,2.89-1.35,3.45-1.6,7.08-3.26,10.89-4.8,8-3.26,16.8-6.15,26.71-7.45,4.25-.55,8.55-.8,12.62-.8,2.46,0,4.86,.06,7.08,.31,5.48,.49,10.09,1.78,14.22,3.08,1.72,.49,3.38,1.05,5.05,1.66,3.94,1.35,7.75,2.77,11.57,4.18,6.28,2.34,12.68,4.8,19.82,6.89,12.8,3.82,26.52,6.15,40.19,6.95,3.14,.18,6.28,.31,9.42,.31h4c4.25-.06,8.18-.06,11.94,.31,2.22,.25,4.31,.62,6.28,1.17,2.52,.55,4.86,1.29,7.2,2.03,11.45,3.57,20.74,6.95,28.43,10.4,1.11,.49,2.22,1.05,3.26,1.54,.12,.06,.18,.06,.31,.18,3.38,1.6,6.34,3.38,8.86,5.11,6.03,4.31,9.72,8.86,10.71,13.29,.12,.68,.25,1.35,.25,1.97,0,.43,0,.8-.06,1.23-.12,1.35-.49,2.77-.92,4.31,0,.12-.06,.31-.12,.49-.55,2.09-1.23,4.49-1.29,6.89-.12,2.4,.25,4.86,1.72,7.26q0,.06,.06,.12c.12,.25,.31,.55,.49,.8,1.35,1.91,3.26,3.57,5.48,5.11,2.22,1.54,4.74,2.89,7.51,4.19,1.66,.86,3.45,1.66,5.23,2.46,.55,.25,1.11,.49,1.66,.74,1.66,.74,3.32,1.48,4.92,2.22,1.54,.74,3.02,1.48,4.43,2.22,3.45,1.85,5.66,3.69,6.83,5.17,.68,.8,1.05,1.54,1.17,2.09,0,.12,.06,.25,.06,.37v.12c0,.25-.06,.55-.18,.8-.37,1.11-1.48,2.09-2.52,2.83q-.06,.06-.12,.12c-.31,.18-.62,.37-.92,.55-.12,.06-.18,.12-.31,.18-.68,.43-1.48,.86-2.28,1.23-.74,.43-1.48,.8-2.22,1.17-.12,.06-.25,.12-.37,.18-.18,.06-.31,.18-.49,.25-1.48,.68-2.95,1.42-4.31,2.15-.55,.31-1.11,.62-1.66,.92Z"/><path class="cls-1" d="M625.87,726.52c-1.66-2.03-4-3.94-6.95-5.66h-.06c-.92-.62-1.91-1.17-2.95-1.66-3.26-1.72-6.89-3.2-10.46-4.74-.18-.06-.37-.18-.55-.25-1.48-.62-2.95-1.23-4.37-1.91-.37-.12-.68-.31-1.05-.43-.49-.25-.98-.43-1.48-.68-.68-.31-1.35-.62-2.03-.92-1.35-.68-2.65-1.35-3.82-2.03-1.85-.98-3.38-2.03-4.62-3.14-.12,0-.18-.12-.25-.18-.18-.12-.31-.25-.43-.43-.43-.37-.8-.8-1.11-1.23-.31-.37-.49-.8-.62-1.23-.49-.92-.62-1.91-.49-3.08-.06-.06-.06-.12,0-.25,0-.68,.12-1.42,.31-2.22,.25-1.11,.55-2.28,.92-3.57,.06-.12,.06-.25,.12-.37,.12-.55,.31-1.17,.43-1.72,.18-.68,.37-1.35,.49-2.03,.18-.86,.31-1.78,.43-2.71,.06-.43,.06-.92,.06-1.35,.06-1.17,0-2.34-.25-3.51-.49-3.45-1.91-6.83-4.25-10.03-3.08-4.43-7.82-8.55-14.03-12.25-2.4-1.48-4.98-2.89-7.82-4.18-1.6-.74-3.32-1.48-5.05-2.22-2.52-.98-5.17-2.03-8.06-3.08-1.29-.43-2.58-.86-4-1.29v-.06c-2.71-.86-5.54-1.78-8.62-2.71-3.94-1.17-8.18-2.4-12.8-3.63-4.86-1.35-10.34-2.83-16.86-3.32-4.55-.37-9.35-.18-13.97-.06l-4.74,.12c-13.35,.25-27.02-.98-40.12-3.63-4.62-.92-9.11-1.97-13.54-3.26-3.14-.86-6.15-1.85-9.05-2.83-4.43-1.48-8.62-2.95-12.8-4.49-4.37-1.6-8.74-3.14-13.23-4.68-1.97-.62-3.94-1.29-5.97-1.91-5.05-1.48-10.71-2.95-17.66-3.51-6.4-.55-13.66-.37-21.11,.55-.92,.12-1.85,.25-2.77,.37-4.86,.68-9.6,1.66-14.09,2.89-12.18,3.14-23.08,7.88-33.17,12.68-3.57,1.72-6.71,3.38-9.42,4.92-3.45,1.97-6.28,3.88-8.62,5.79-.86,.74-1.72,1.48-2.46,2.22-2.28,2.15-4.12,4.31-5.91,6.4-1.97,2.28-3.82,4.49-6.22,6.65-.68,.62-1.42,1.23-2.15,1.78-2.58,2.03-5.66,4.06-9.17,5.91-6.28,3.45-13.97,6.59-22.71,9.29-8.31,2.65-17.35,4.8-26.03,6.95-1.97,.49-3.94,.98-5.91,1.48-3.51,.86-6.89,1.72-10.28,2.65-.68,.12-1.29,.31-1.97,.49-19.02,5.29-30.46,11.2-33.91,17.66-3.02,5.66-.12,10.4,4.25,14.22,2.03,1.78,4.37,3.38,6.58,4.74,1.23,.74,2.34,1.42,3.38,2.03,4.25,2.46,8.74,5.05,13.85,7.45,2.65,1.29,5.42,2.52,8.43,3.57,1.85,.74,3.75,1.42,5.72,2.03,1.11,.31,2.22,.62,3.32,.92,.92,.25,1.91,.49,2.89,.74,.06,.06,.12,.06,.18,.06,.68,.18,1.35,.31,2.09,.43,1.11,.31,2.34,.55,3.51,.8,.18,.06,.43,.06,.62,.12,.06,0,.12,.06,.18,.06,.43,.06,.8,.18,1.23,.25,1.35,.31,2.65,.62,3.94,.92h.06c3.2,.8,6.09,1.72,8,2.83,.68,.37,1.78,1.17,1.91,1.91,.31,1.78-2.83,5.66-5.17,8.43-3.94,4.74-8.37,10.15-6.77,15.94,1.29,4.55,6.22,7.82,10.65,10.46,2.83,1.66,5.78,3.26,8.8,4.8,21.6,10.83,48.06,17.54,83.69,24.86,8.8,1.85,13.66,5.05,18.83,8.43,2.15,1.35,4.25,2.71,6.58,4.06,11.63,6.4,27.39,10.09,45.6,10.71,1.91,.18,4,.31,6.22,.31,5.48,0,11.69-.68,17.97-1.97,7.08-1.42,14.22-3.45,21.97-6.09,8.49-2.95,16.43-5.05,23.45-6.89,5.17-1.42,9.97-2.65,14.28-4.06,5.91-1.91,10.89-4.18,16.62-6.83,3.51-1.66,7.32-3.38,11.82-5.23,11.08-4.62,25.66-7.39,39.75-10.03,18.52-3.45,36-6.77,46.52-14.09,6.71-4.68,8.37-9.79,9.85-14.34,1.42-4.37,2.52-7.82,8.37-11.26,1.91-1.11,4.06-2.09,6.22-3.14,.92-.43,1.85-.86,2.71-1.29,1.48-.74,2.83-1.42,4.06-2.15,.12-.06,.25-.18,.37-.25,.43-.25,.8-.49,1.17-.8,1.97-1.23,3.38-2.59,4.37-3.88,2.15-2.71,2.65-5.29,2.58-7.26-.06-2.71-1.29-5.35-3.51-7.88Zm-14.83,17.11c-2.34,1.11-4.68,2.22-6.71,3.45-8.18,4.8-9.97,10.28-11.57,15.2-1.29,3.94-2.4,7.32-7.14,10.65-9.29,6.46-26.03,9.6-43.82,12.99-14.4,2.71-29.35,5.54-41.11,10.4-4.55,1.91-8.49,3.69-12.06,5.35-5.54,2.52-10.34,4.74-15.88,6.52-4.18,1.35-8.86,2.58-13.85,3.94-7.14,1.91-15.26,4-23.94,7.02-7.51,2.59-14.4,4.55-21.11,5.91-8.12,1.66-16,2.22-22.15,1.54l-.25-.06c-21.66-.68-35.08-5.72-42.52-9.85-2.22-1.17-4.18-2.46-6.09-3.75-5.54-3.57-11.26-7.32-21.35-9.42-35.08-7.2-60.99-13.79-81.91-24.25-2.89-1.48-5.66-2.95-8.37-4.55-1.85-1.11-6.83-4.06-7.45-6.28-.55-2.22,2.77-6.28,5.42-9.48,3.75-4.55,7.57-9.17,6.71-14.22-.49-2.71-2.28-4.98-5.29-6.77-1.85-1.11-4.12-1.97-6.65-2.71-.18-.06-.37-.12-.62-.18-1.35-.43-2.77-.74-4.18-1.11-.43-.06-.86-.18-1.29-.31-.49-.06-.98-.18-1.48-.31-.62-.12-1.29-.31-1.97-.43-.25-.06-.43-.06-.68-.12-1.54-.31-3.14-.62-4.62-.98-.06-.06-.12-.06-.18-.06-.74-.18-1.42-.37-2.09-.55-.43-.06-.86-.18-1.29-.37-2.89-.74-5.66-1.66-8.18-2.65-6.89-2.58-12.68-5.72-18.15-8.92-.92-.49-1.78-1.05-2.71-1.54-1.85-1.11-3.57-2.09-5.05-3.08-4.98-3.32-7.69-6.09-6.46-8.43,2.34-4.37,13.42-9.66,29.54-14.09,2.71-.74,5.48-1.48,8.31-2.15,3.2-.86,6.4-1.66,9.66-2.46,.43-.12,.86-.18,1.29-.31,8.37-2.09,17.05-4.18,25.11-6.71,11.63-3.63,21.72-8.06,29.23-12.92,2.58-1.6,4.86-3.32,6.77-4.98,.25-.25,.49-.43,.74-.68,2.71-2.46,4.8-4.92,6.83-7.26,1.66-1.97,3.26-3.82,5.17-5.66,.74-.68,1.48-1.35,2.28-2.03,1.48-1.23,3.2-2.46,5.23-3.69,3.08-1.91,6.77-3.88,11.38-6.09,11.51-5.54,24.92-11.51,41.11-14.34,1.35-.25,2.71-.49,4.06-.68,5.23-.74,10.46-1.11,15.32-1.11h.37c2.34,0,4.55,.06,6.58,.25,6.34,.49,11.57,1.85,16.19,3.26,1.97,.62,3.94,1.23,5.78,1.85,4.49,1.48,8.8,3.02,13.11,4.62,1.66,.62,3.32,1.17,4.98,1.78,4.62,1.66,9.29,3.26,14.34,4.74,.98,.37,1.97,.62,3.02,.92,17.72,5.05,37.05,7.57,55.69,7.2l4.8-.12c4.68-.18,9.05-.31,13.29,0,5.78,.43,10.77,1.78,15.51,3.08,4,1.11,7.69,2.15,11.14,3.2,3.32,.92,6.4,1.91,9.29,2.83,4.55,1.54,8.55,3.02,12.25,4.49,2.46,.98,4.8,2.03,6.95,3.14,2.52,1.29,4.86,2.58,6.95,4,1.97,1.29,3.63,2.52,5.17,4h.06c2.34,2.03,4.18,4.12,5.42,6.28l.06,.06v.06c.98,1.54,1.6,3.08,1.97,4.62,.31,1.23,.43,2.46,.31,3.63,.06,.18,0,.31,0,.49-.12,1.05-.31,2.09-.62,3.26-.06,.31-.12,.62-.25,.92-.12,.43-.25,.92-.37,1.42-.31,1.05-.62,2.15-.86,3.32-.25,.92-.43,1.97-.55,3.02,0,.31-.06,.62-.06,.98-.06,1.05-.06,2.15,.06,3.26,.06,.37,.12,.74,.25,1.11,0,.12,0,.18,.06,.31,.06,.31,.12,.55,.25,.86,.37,1.23,.92,2.4,1.78,3.57,.12,.18,.31,.37,.49,.55,0,.06,.06,.12,.12,.18,1.11,1.42,2.52,2.65,4.18,3.82,2.28,1.72,5.05,3.2,8,4.62,1.54,.8,3.2,1.54,4.86,2.28,1.48,.62,2.95,1.29,4.49,1.91,.49,.25,1.05,.43,1.54,.68,3.14,1.29,6.28,2.65,9.05,4.06,3.02,1.54,5.42,3.14,7.08,4.8,1.6,1.48,2.46,3.02,2.52,4.31,.06,1.54-1.17,2.95-2.58,4.12h-.06c-.8,.68-1.66,1.23-2.34,1.66-1.42,.8-2.89,1.6-4.49,2.34-.55,.31-1.17,.55-1.78,.86Z"/><path class="cls-1" d="M644.64,750.15c-1.42-.98-2.95-1.91-4.68-2.77-.43-.25-.92-.49-1.42-.74-3.69-1.72-7.75-3.38-11.75-4.98-.12-.06-.31-.12-.43-.18-.98-.37-2.03-.8-3.02-1.23-1.23-.49-2.46-.98-3.63-1.48h-.06c-.62-.25-1.17-.49-1.72-.74-5.85-2.65-10.95-5.42-13.29-8.55-1.6-2.22-1.66-4.74-.98-8,.25-1.29,.62-2.71,1.05-4.25,.25-.92,.49-1.85,.74-2.77,.12-.49,.25-.98,.37-1.54,.06-.37,.12-.74,.25-1.11,.06-.49,.12-.92,.18-1.42,0-.18,.06-.43,.06-.62,.06-.49,.06-.92,.06-1.42,.06-.18,.06-.31,.06-.49,0-.37,0-.74-.06-1.17,0-.62-.06-1.23-.12-1.85,0-.25-.06-.49-.12-.74v-.06c-.18-1.11-.43-2.22-.8-3.26-.25-.68-.49-1.42-.86-2.09-.92-2.22-2.28-4.43-4-6.52-3.2-3.88-7.63-7.57-13.29-10.95-2.71-1.6-5.72-3.14-9.05-4.62q-.06-.06-.12,0l-.06-.06c-2.03-.92-4.12-1.78-6.34-2.65-1.17-.43-2.34-.86-3.57-1.29-.37-.12-.74-.25-1.05-.37-2.65-.92-5.35-1.78-8.06-2.58-8.68-2.58-17.54-4.74-24.99-6.52-.74-.18-1.48-.37-2.28-.55-4.86-1.11-10.28-2.28-16.43-2.52-1.78-.06-3.57-.12-5.42-.12-3.26,.06-6.58,.18-9.85,.43-1.85,.06-3.69,.18-5.54,.25-20.37,.86-40.49-1.42-59.82-6.71-8.74-2.4-16.74-5.17-24.55-7.94-1.11-.37-2.15-.74-3.26-1.11-3.75-1.29-7.51-2.65-11.45-3.88-2.15-.74-4.31-1.35-6.58-2.03-5.54-1.6-11.75-3.2-19.51-3.69-.18,0-.43,0-.62-.06-7.69-.49-16.55,.06-25.72,1.42-15.45,2.28-28.86,6.89-39.94,11.69-3.57,1.48-6.83,3.02-9.91,4.49-.62,.25-1.23,.55-1.85,.86-6.58,3.2-11.88,6.22-16,9.23-1.23,.92-2.4,1.78-3.45,2.71-1.23,1.11-2.4,2.15-3.38,3.26-2.03,2.09-3.69,4.12-5.35,6.15-2.09,2.65-4.12,5.11-6.77,7.63-4.68,4.43-11.57,8.74-20.18,12.68-3.63,1.72-7.63,3.32-11.82,4.74-1.91,.74-3.88,1.42-5.91,2.03-9.29,3.02-19.45,5.54-29.23,7.94-5.97,1.48-11.88,3.02-17.66,4.62-.86,.18-1.72,.43-2.58,.68-2.03,.55-4,1.17-5.91,1.78-17.66,5.48-28.31,11.45-31.75,17.79-2.34,4.37-1.29,8.19,1.29,11.51,1.29,1.66,2.89,3.14,4.68,4.55,3.26,2.46,6.95,4.49,9.97,6.15,.68,.37,1.35,.74,2.09,1.17,2.15,1.17,4.37,2.4,6.77,3.63,2.89,1.48,5.91,2.95,9.17,4.31,2.09,.92,4.31,1.78,6.58,2.52,.18,.12,.37,.18,.62,.25,.06,.06,.18,.06,.31,.12,1.17,.43,2.4,.8,3.63,1.11,.55,.25,1.11,.37,1.72,.55,2.34,.68,4.86,1.35,7.51,1.91,2.03,.49,4.18,.86,6.34,1.29,6.09,1.17,12.37,2.4,15.94,4.37,1.42,.86,2.28,1.66,2.4,2.52,.49,2.34-3.02,6.59-5.78,10.09-4.49,5.48-9.11,11.14-7.32,17.17,1.42,4.86,6.83,8.25,11.82,11.08,3.14,1.78,6.46,3.45,9.91,5.05,26.77,12.62,61.36,19.51,94.53,25.48,10.09,1.85,15.75,5.29,21.72,8.99,2.4,1.42,4.8,2.89,7.51,4.31,13.17,6.77,30.89,10.4,51.26,10.59,1.66,.12,3.26,.18,4.92,.18,7.75,0,15.38-1.17,20.8-2.28,7.69-1.54,15.45-3.63,23.57-6.4,7.02-2.34,13.72-4.31,19.94-6.15,7.38-2.22,14.4-4.25,20.43-6.52,5.42-2.09,10.15-4.43,15.14-6.95,4.49-2.22,9.11-4.55,14.83-6.95,12.37-5.23,28.68-8.37,44.49-11.39,20.49-3.94,39.88-7.63,51.39-15.63,7.32-5.11,9.05-10.65,10.58-15.57,1.48-4.8,2.77-8.92,9.6-12.92,2.15-1.23,4.55-2.4,7.02-3.57,2.46-1.11,4.92-2.28,7.02-3.51,.25-.12,.43-.25,.62-.37,1.48-.92,2.83-1.85,3.94-2.77,.62-.49,1.11-.98,1.6-1.48l.06-.06c1.48-1.6,2.52-3.32,3.02-5.05,.43-1.17,.55-2.34,.49-3.57-.18-4.43-3.2-8.74-8.68-12.49Zm-10.83,23.45c-2.58,1.29-5.23,2.52-7.51,3.82-8.98,5.29-10.83,11.26-12.49,16.62-1.42,4.43-2.65,8.31-8.12,12.19-10.4,7.2-29.11,10.77-48.86,14.59-16.19,3.08-32.86,6.28-45.85,11.75-5.91,2.52-10.59,4.86-15.2,7.14-4.86,2.4-9.42,4.74-14.58,6.65-5.78,2.22-12.68,4.25-19.94,6.4-6.28,1.85-13.05,3.88-20.18,6.28-7.88,2.65-15.32,4.68-22.77,6.15-8.74,1.78-17.29,2.46-24.06,1.97h-.18c-24.62-.18-39.94-5.48-48.49-9.85-2.52-1.35-4.8-2.71-7.08-4.12-6.22-3.82-12.68-7.75-23.94-9.79-32.74-5.91-66.89-12.74-92.99-24.99-3.26-1.54-6.46-3.14-9.48-4.86-2.34-1.35-7.94-4.49-8.74-7.2-.86-2.77,2.83-7.32,6.09-11.32,4.06-4.98,8.18-10.09,7.2-15.39-.55-2.77-2.46-5.11-5.66-6.95-4.43-2.46-11.26-3.82-17.85-5.05-2.15-.43-4.18-.8-6.22-1.23-.31-.06-.62-.12-.86-.18-1.17-.25-2.34-.55-3.45-.86-.49-.12-.92-.25-1.42-.37-.18,0-.37-.06-.55-.18-.62-.12-1.29-.31-1.91-.55-1.54-.43-2.95-.86-4.37-1.35-3.2-1.11-6.09-2.34-8.86-3.57-2.46-1.11-4.8-2.28-7.02-3.45-2.89-1.48-5.6-2.95-8.18-4.43-1.91-1.05-3.63-2.09-5.23-3.02-2.4-1.54-4.43-2.95-5.85-4.31-2.4-2.15-3.32-4.18-2.28-6.15,2.71-4.98,14.83-11.02,32.62-16.12,.37-.12,.68-.18,1.05-.31,2.83-.8,5.72-1.54,8.62-2.28,3.82-1.05,7.63-1.97,11.51-2.95,9.85-2.46,20.06-4.98,29.6-8.06,5.05-1.6,9.85-3.39,14.34-5.29,3.88-1.6,7.45-3.32,10.77-5.11,1.97-1.05,3.88-2.15,5.66-3.26,3.38-2.15,6.34-4.31,8.8-6.52,.31-.25,.55-.49,.8-.74,2.77-2.58,4.92-5.23,6.95-7.69,.18-.18,.31-.31,.43-.49,2.4-3.02,4.68-5.85,7.94-8.62,.25-.25,.49-.43,.8-.68,3.94-3.26,9.6-6.71,17.23-10.4,1.72-.86,3.57-1.72,5.54-2.65,3.26-1.48,6.83-3.02,10.59-4.55,9.72-3.82,21.05-7.39,33.66-9.23,6.65-.98,13.05-1.54,18.95-1.54,2.03,0,4.06,.06,5.97,.18,7.14,.55,12.98,1.97,18.22,3.51,2.15,.62,4.31,1.29,6.4,1.97,4.98,1.6,9.78,3.26,14.58,4.92,7.82,2.77,16,5.66,24.92,8.06,15.08,4.12,30.65,6.46,46.4,7.02,5.11,.12,10.22,.12,15.38-.06,1.91-.06,3.75-.18,5.66-.31,4.86-.25,9.91-.49,14.52-.31,1.66,.12,3.2,.25,4.74,.43,4.62,.55,8.8,1.54,12.86,2.52,8.31,1.97,18.52,4.49,28.06,7.57,.06,0,.12,0,.18,.06,2.95,.92,5.85,1.91,8.62,2.95,.55,.18,1.11,.43,1.6,.62,3.38,1.35,6.52,2.77,9.35,4.31,2.46,1.17,4.68,2.52,6.65,3.88,1.97,1.29,3.69,2.65,5.23,4.12,0,0,.06,0,.12,.06,2.46,2.28,4.31,4.62,5.66,7.02,.37,.8,.74,1.54,.98,2.34,.06,.06,.12,.18,.12,.25,.12,.25,.18,.55,.25,.8,.37,1.17,.55,2.34,.62,3.51q.06,.06,0,.12c.06,.49,.06,.92,.06,1.35,0,.25,0,.49-.06,.8-.06,.49-.12,1.05-.18,1.6-.06,.25-.12,.49-.18,.74-.06,.12-.06,.25-.06,.37-.12,.43-.25,.92-.43,1.42-.12,.74-.37,1.48-.55,2.22-.31,1.11-.62,2.28-.86,3.38-1.17,4.68-1.6,9.72,1.78,14.4,2.83,3.82,7.63,6.77,13.42,9.48,1.29,.62,2.58,1.17,3.94,1.72,1.48,.62,2.95,1.23,4.49,1.85,.37,.18,.8,.37,1.23,.49,.49,.25,.98,.43,1.48,.62,4,1.66,8.18,3.32,11.75,5.05,.92,.43,1.78,.86,2.58,1.35,1.78,.98,3.32,2.03,4.55,3.14,2.52,2.03,3.94,4.12,4,5.97,0,.31,0,.62-.06,.92-.31,1.6-1.66,3.08-3.26,4.37-.18,.12-.37,.31-.62,.43-.68,.49-1.35,.92-2.03,1.35-.55,.31-1.17,.68-1.78,.98-1.66,.86-3.45,1.72-5.29,2.59Z"/><path class="cls-1" d="M677.68,785.54c-.86-5.66-6.28-11.02-15.32-15.26-.18-.12-.43-.18-.62-.31-1.17-.55-2.4-1.05-3.63-1.6-1.72-.74-3.51-1.42-5.29-2.15-1.48-.55-2.89-1.11-4.31-1.66-.55-.25-1.17-.43-1.72-.68-1.54-.62-3.14-1.23-4.68-1.85-1.78-.68-3.45-1.42-5.05-2.09-5.72-2.52-10.58-5.23-12.92-8.43-1.05-1.42-1.6-3.02-1.66-4.68-.06-.43-.06-.86-.06-1.29,.06-1.66,.43-3.45,.92-5.29,.18-.92,.49-1.85,.74-2.77,.74-2.65,1.48-5.35,1.72-8.12,.12-.98,.12-1.91,.06-2.83,0-2.58-.49-5.11-1.48-7.57-.12-.37-.25-.74-.43-1.11-.49-1.05-.98-2.15-1.66-3.14-.49-.92-1.11-1.85-1.78-2.71-.49-.68-.98-1.29-1.54-1.91l-.12-.12c-1.48-1.72-3.2-3.38-5.17-4.92-1.6-1.42-3.32-2.65-5.23-3.94-.86-.55-1.78-1.11-2.77-1.66-.37-.25-.8-.49-1.23-.74-3.63-2.09-7.69-4-12.19-5.72-.06-.06-.12-.06-.12-.06-1.48-.55-2.95-1.11-4.49-1.66-.43-.12-.8-.25-1.23-.43-2.15-.74-4.43-1.42-6.77-2.15-1.78-.49-3.63-1.05-5.48-1.54-3.2-.86-6.46-1.72-9.72-2.46-3.02-.74-5.97-1.42-8.92-2.09-3.32-.74-6.58-1.42-9.72-2.09-5.97-1.23-12.74-2.58-20.62-2.83-5.29-.06-10.83,.31-16.25,.68-2.22,.18-4.37,.37-6.58,.49-9.35,.55-18.77,.49-28.12-.25-8.62-.55-17.11-1.72-25.6-3.38-4.12-.8-8.25-1.72-12.31-2.77-9.66-2.52-18.52-5.54-27.08-8.43-5.35-1.85-10.71-3.63-16.25-5.35-2.4-.74-4.8-1.48-7.26-2.15-6.15-1.72-12.98-3.32-21.42-3.82-8.43-.43-18.34,.18-28.8,1.85-4.68,.74-9.35,1.66-14.03,2.89-4.49,1.05-8.98,2.34-13.48,3.82-9.42,3.14-18.89,7.08-28.62,11.88-2.09,1.05-4.12,2.09-5.97,3.14-2.09,1.11-4,2.28-5.78,3.38-3.26,2.03-6.03,4.06-8.37,6.15-.25,.18-.43,.37-.68,.55-3.08,2.77-5.42,5.54-7.51,8.25-.55,.68-1.11,1.35-1.6,2.03-.55,.68-1.05,1.35-1.6,2.09-1.66,2.09-3.32,4.19-5.54,6.28,0,.06-.06,.12-.12,.18-.12,.12-.25,.25-.37,.37-5.91,5.6-15.02,11.14-26.34,16-4.68,2.03-9.66,3.94-15.02,5.66-1.05,.37-2.09,.68-3.14,.98-3.45,1.11-7.02,2.15-10.58,3.14-6.15,1.66-12.43,3.26-18.65,4.86-7.57,1.97-15.14,3.88-22.46,5.97-2.09,.62-4.25,1.23-6.46,1.97-2.22,.68-4.49,1.48-6.71,2.28-12.43,4.43-24.43,10.4-28.12,17.42-1.6,2.95-1.66,5.72-.68,8.19,.55,1.6,1.6,3.14,2.83,4.55,1.6,1.78,3.57,3.38,5.72,4.86,1.72,1.23,3.57,2.34,5.29,3.32,1.54,.86,3.08,1.66,4.43,2.4,.25,.12,.49,.31,.8,.43,1.6,.86,3.26,1.78,4.98,2.65,.31,.18,.68,.37,1.05,.55,1.29,.68,2.65,1.35,4,1.97,8.68,4.25,18.71,8.25,31.63,10.77,2.28,.43,4.62,.86,7.02,1.23,6.77,1.17,13.85,2.4,17.85,4.55,1.78,.98,2.83,2.03,3.08,3.14,.55,2.83-3.2,7.57-6.52,11.75-3.02,3.75-6.09,7.57-7.45,11.51-.86,2.28-1.11,4.62-.37,6.95,.31,1.05,.8,1.97,1.42,2.89,2.22,3.2,6.28,5.91,11.57,8.68,3.45,1.91,7.14,3.69,11.02,5.42,29.17,12.86,66.52,19.51,105.48,25.79,11.38,1.72,17.79,5.48,24.55,9.42,2.71,1.54,5.42,3.14,8.43,4.62,14.65,7.08,34.46,10.65,56.99,10.34,.98,.06,1.97,.06,2.95,.06,9.05,0,18.03-1.35,24.19-2.65,8.37-1.66,16.62-3.82,25.23-6.65,4.74-1.54,9.29-3.02,13.66-4.37,11.26-3.57,20.99-6.65,29.29-10.22,5.17-2.22,9.6-4.62,14.34-7.2,5.17-2.77,10.46-5.66,17.17-8.55,13.6-5.85,31.69-9.42,49.23-12.8,22.46-4.43,43.69-8.55,56.19-17.29,7.94-5.54,9.72-11.51,11.32-16.8,1.66-5.42,3.08-10.09,10.83-14.65,2.34-1.42,5.11-2.71,7.82-4,2.89-1.35,5.85-2.77,8.37-4.25,3.2-1.91,5.6-3.94,7.26-6.09,.86-1.11,1.48-2.28,1.91-3.45,.06-.18,.12-.37,.12-.62,.43-1.17,.55-2.34,.49-3.57,0-.37-.06-.8-.18-1.17Zm-5.91,3.26c-.31,1.05-.98,2.03-1.78,2.89-1.35,1.48-3.2,2.71-4.86,3.69-2.28,1.42-5.17,2.77-7.88,4.06-2.83,1.35-5.78,2.71-8.31,4.18-9.72,5.72-11.69,12.25-13.42,17.97-1.54,5.05-2.83,9.35-9.11,13.72-11.45,8.06-32.12,12.06-53.97,16.37-17.85,3.45-36.25,7.08-50.4,13.17-6.95,3.02-12.43,5.97-17.66,8.8-4.62,2.46-8.98,4.86-13.91,6.95-8,3.45-17.6,6.52-28.68,9.97-4.43,1.42-9.05,2.89-13.78,4.43-8.37,2.77-16.37,4.86-24.49,6.52-9.42,1.85-18.34,2.71-25.91,2.46h-.12c-27.39,.31-44.8-5.17-54.46-9.79-2.89-1.42-5.42-2.89-8-4.43-6.95-4.06-14.15-8.19-26.59-10.15-38.59-6.15-75.51-12.74-104.06-25.36-3.75-1.66-7.32-3.38-10.65-5.17-2.71-1.48-9.11-4.92-10.09-8.12-1.05-3.39,3.08-8.62,6.77-13.17,4.31-5.48,8.8-11.08,7.69-16.56-.62-2.89-2.65-5.23-6.03-7.08-4.86-2.65-12.37-3.94-19.63-5.17-2.34-.37-4.68-.8-6.89-1.23-9.97-1.91-18.15-4.86-25.35-8.06-1.35-.55-2.65-1.17-3.94-1.85-.12,0-.18-.06-.31-.12-1.78-.8-3.45-1.66-5.11-2.52-1.78-.92-3.51-1.85-5.17-2.71-.31-.18-.68-.37-.98-.55-1.72-.92-3.32-1.78-4.74-2.65-3.08-1.78-5.6-3.38-7.45-5.05-1.72-1.48-2.89-2.95-3.32-4.37-.37-1.17-.25-2.28,.37-3.38,2.58-4.86,12.49-10.4,27.63-15.57,2.46-.86,5.11-1.72,7.88-2.52,.74-.25,1.54-.43,2.28-.68,7.2-2.09,14.71-4,22.28-5.91,8.49-2.15,17.23-4.37,25.6-6.95,2.4-.68,4.74-1.42,7.08-2.15,.8-.25,1.66-.55,2.46-.8,.68-.25,1.35-.49,2.09-.74,1.54-.55,3.08-1.11,4.55-1.72,2.52-.92,4.98-1.97,7.32-2.95,3.26-1.48,6.28-2.89,9.17-4.43,1.6-.86,3.14-1.72,4.62-2.59,.06,0,.12-.06,.18-.12,2.83-1.66,5.42-3.32,7.75-5.05,.06-.06,.12-.06,.18-.12,2.09-1.6,4-3.2,5.66-4.86l1.66-1.66c.74-.8,1.48-1.66,2.15-2.46,.25-.31,.49-.62,.74-.92,.55-.62,1.05-1.23,1.54-1.91,.18-.18,.37-.43,.55-.68,.37-.49,.8-1.05,1.17-1.54,.12-.12,.25-.31,.31-.43,1.85-2.34,3.57-4.49,5.6-6.71l.06-.06c.62-.62,1.23-1.23,1.91-1.85,.12-.18,.31-.31,.49-.49,1.78-1.54,3.82-3.14,6.15-4.68,3.63-2.52,8.06-4.98,13.35-7.63,11.57-5.79,22.83-10.22,34.03-13.48,5.05-1.48,10.15-2.71,15.26-3.69,1.72-.31,3.45-.62,5.17-.92,10.03-1.6,19.57-2.22,27.51-1.78,7.94,.49,14.4,2.03,20.19,3.63,2.4,.68,4.8,1.42,7.14,2.09,5.54,1.72,10.83,3.51,16.12,5.29,8.18,2.77,16.68,5.66,25.91,8.12,.49,.18,1.05,.31,1.54,.43,8.18,2.09,16.37,3.75,24.62,4.92,14.4,1.97,28.86,2.59,43.26,1.66,2.22-.12,4.43-.31,6.65-.43,5.23-.37,10.65-.8,15.63-.68,7.38,.18,13.91,1.54,19.63,2.71,2.77,.55,5.66,1.17,8.55,1.85,2.71,.55,5.48,1.23,8.25,1.85,5.66,1.35,11.32,2.83,16.74,4.43,2.34,.68,4.62,1.42,6.77,2.15,.31,.06,.55,.18,.8,.25,2.46,.86,4.86,1.78,7.08,2.77,1.97,.8,3.88,1.66,5.6,2.52,.18,.12,.37,.18,.49,.31,.37,.12,.74,.31,1.11,.55,.49,.25,.92,.49,1.35,.74,1.48,.8,2.89,1.66,4.18,2.52,.25,.18,.55,.37,.8,.55,.74,.49,1.42,.98,2.09,1.48,.37,.31,.74,.55,1.11,.86,1.66,1.35,3.14,2.71,4.37,4.12,.18,.12,.31,.31,.37,.43,.62,.62,1.11,1.23,1.54,1.85,1.35,1.78,2.34,3.57,3.02,5.42h.06c.98,2.58,1.35,5.23,1.11,7.88-.06,.55-.12,1.05-.25,1.6-.25,1.78-.8,3.69-1.29,5.6-.18,.68-.37,1.42-.55,2.09-.25,.8-.43,1.6-.62,2.4-.25,1.35-.49,2.71-.55,4.06-.18,1.42-.18,2.83,.06,4.25,.31,2.15,1.11,4.25,2.58,6.28,3.51,4.74,10.09,8.19,17.85,11.39,1.78,.8,3.69,1.54,5.66,2.28,.37,.12,.74,.31,1.17,.49,.74,.25,1.54,.55,2.34,.86,1.11,.43,2.22,.86,3.32,1.23v.06l.06-.06c2.58,1.05,5.17,2.09,7.63,3.2,.62,.25,1.23,.49,1.85,.8,.98,.43,1.97,.92,2.83,1.42,3.63,1.91,6.4,4.06,8.06,6.09,1.17,1.42,1.85,2.83,1.91,4.18,0,.18,0,.43-.06,.62,0,.43-.06,.86-.25,1.23Z"/><path class="cls-1" d="M702.61,804.37c-.06-.49-.18-.98-.43-1.48-.49-1.54-1.35-3.02-2.58-4.43-.31-.43-.68-.8-1.05-1.23-2.95-3.14-7.38-6.03-13.11-8.55-.25-.12-.43-.18-.68-.31-1.85-.8-3.82-1.54-5.78-2.34-.43-.12-.86-.31-1.29-.49-2.22-.8-4.43-1.66-6.65-2.46-.31-.12-.55-.18-.86-.31-2.28-.86-4.55-1.66-6.77-2.58-1.97-.74-3.88-1.48-5.66-2.28-3.69-1.54-6.95-3.26-9.6-5.11-1.66-1.11-3.02-2.34-4.06-3.63q0-.06-.06-.12c-.18-.25-.37-.49-.49-.8-1.23-1.91-1.6-4-1.42-6.22,0-1.6,.31-3.26,.74-5.05,.31-1.23,.62-2.52,.98-3.82,.31-.98,.55-1.97,.8-3.02,.49-1.91,.92-3.88,1.11-5.79,.74-7.32-1.91-14.28-7.51-20.56-2.22-2.58-4.98-5.05-8.25-7.32-1.29-.98-2.71-1.91-4.18-2.77-2.03-1.29-4.25-2.46-6.65-3.57-.12-.12-.18-.12-.31-.18-3.82-1.85-8-3.57-12.62-5.11-.06-.06-.18-.06-.25-.12-.62-.18-1.29-.43-1.91-.62-.37-.12-.68-.25-1.05-.31-.98-.31-1.97-.62-3.02-.92-.31-.12-.62-.18-.98-.31-.18-.06-.37-.12-.55-.18-4.43-1.23-9.11-2.4-13.85-3.45-.43-.18-.92-.25-1.42-.37-1.85-.43-3.69-.8-5.6-1.23-5.97-1.23-12-2.4-17.66-3.38-.68-.12-1.35-.25-1.97-.37-2.28-.43-4.49-.8-6.71-1.17-5.11-.8-10.15-1.35-15.75-1.42-5.48,0-11.69,.55-17.48,1.11-2.46,.18-4.92,.43-7.38,.62-24.19,1.91-48.49-.06-72.25-5.97-.8-.18-1.54-.37-2.28-.62-5.42-1.35-10.58-2.89-15.63-4.43-4-1.29-7.94-2.52-11.82-3.82-5.85-1.91-11.69-3.82-17.72-5.66-2.65-.74-5.29-1.54-8-2.22-6.65-1.78-14.09-3.51-23.26-3.88-4.06-.18-8.43-.12-13.11,.25-5.72,.37-11.82,1.05-18.15,2.09-.8,.12-1.54,.25-2.34,.43h-.06c-18.65,3.38-37.79,9.79-55.57,18.59-.86,.37-1.72,.8-2.52,1.23-1.91,.98-3.75,1.91-5.48,2.95-.8,.43-1.66,.86-2.4,1.29l-.06,.06c-3.88,2.28-7.2,4.49-10.09,6.71-1.48,1.17-2.89,2.34-4.12,3.51-.25,.25-.49,.43-.68,.68-.55,.49-1.05,1.05-1.48,1.54-1.66,1.66-3.08,3.32-4.31,4.98-.06,0-.06,.06-.12,.12-.18,.31-.43,.55-.62,.8-.74,1.05-1.48,2.03-2.22,3.02-1.29,1.72-2.52,3.45-3.88,5.11l-.12,.12c-1.11,1.42-2.34,2.83-3.75,4.25-1.66,1.66-3.57,3.32-5.66,4.92-.92,.74-1.91,1.48-2.95,2.22-1.17,.8-2.34,1.6-3.63,2.34-1.6,1.05-3.32,2.09-5.17,3.08-1.29,.74-2.65,1.48-4.06,2.15-1.6,.86-3.32,1.66-5.05,2.52-1.78,.8-3.63,1.6-5.48,2.4-4.25,1.78-8.8,3.51-13.54,5.11-7.88,2.65-16.19,5.05-24.62,7.26l-9.23,2.4c-.55,.12-1.11,.31-1.66,.43-8.12,2.15-16.55,4.37-24.55,6.71-4.43,1.29-9.17,2.83-13.85,4.49-1.85,.68-3.69,1.42-5.48,2.09-11.69,4.74-22.15,10.59-25.6,17.23-.74,1.42-1.17,2.83-1.29,4.25-.12,1.29,0,2.58,.43,3.82,.06,.25,.18,.49,.31,.74,.25,.74,.68,1.54,1.17,2.22,.68,1.17,1.6,2.28,2.71,3.32,.62,.62,1.29,1.23,2.03,1.78,.98,.8,2.09,1.6,3.32,2.4,3.14,2.03,6.83,4,10.58,5.91,12.25,6.28,26.15,13.42,46.52,17.05,2.52,.43,5.11,.8,7.69,1.23,7.51,1.11,15.32,2.28,19.82,4.62,2.15,1.17,3.38,2.34,3.69,3.75,.74,3.32-3.26,8.43-7.14,13.42-2.03,2.59-4.12,5.23-5.72,7.88-2.4,4-3.82,8-2.58,11.94,.06,.18,.12,.37,.25,.55,1.78,4.55,6.83,7.88,13.85,11.51,3.88,1.97,7.94,3.88,12.18,5.66,32.06,13.42,73.36,19.88,116.43,25.85,12.68,1.72,19.82,5.66,27.39,9.85,3.02,1.66,6.03,3.32,9.35,4.86,14.65,6.65,33.79,10.15,55.63,10.15,2.34,0,4.68-.06,7.02-.12h.37c8.43,0,18.22-1.11,28.31-3.08,8.92-1.78,17.97-4.18,26.83-7.02l2.65-.86c16.74-5.42,31.26-10.09,42.83-15.63,4.98-2.34,9.29-4.86,13.85-7.51,5.72-3.32,11.63-6.77,19.26-10.09,14.77-6.52,34.65-10.52,53.91-14.4,24.43-4.92,47.57-9.54,60.99-19.02,8.49-5.97,10.34-12.43,12-18.16,1.78-5.97,3.32-11.2,12-16.37,2.58-1.48,5.66-2.95,8.68-4.37,3.14-1.54,6.4-3.08,9.11-4.74,7.26-4.31,10.77-9.17,10.4-14.52-.06-.55-.12-1.17-.31-1.72Zm-12.74,11.82c-2.52,1.54-5.66,3.02-8.68,4.49-3.14,1.42-6.34,2.95-9.05,4.62-10.52,6.22-12.55,13.17-14.34,19.39-1.6,5.35-3.08,10.4-10.03,15.32-12.55,8.86-35.14,13.35-59.08,18.16-19.51,3.94-39.69,8-54.96,14.77-7.94,3.45-13.97,6.95-19.82,10.34-4.43,2.58-8.62,5.05-13.42,7.32-11.26,5.42-25.6,10.03-42.22,15.39l-2.58,.8c-8.74,2.83-17.6,5.17-26.28,6.89-9.91,1.97-19.51,3.02-27.69,2.95h-.12c-30.28,1.05-49.54-4.62-60.37-9.54-3.2-1.48-6.09-3.08-8.98-4.68-7.69-4.18-15.57-8.62-29.17-10.46-42.71-5.91-83.69-12.31-115.14-25.48-4.12-1.72-8.12-3.57-11.82-5.48-5.11-2.59-10.46-5.72-11.57-9.05-1.23-3.88,3.2-9.54,7.45-15.02,3.08-3.88,6.09-7.69,7.45-11.39,.86-2.15,1.17-4.25,.68-6.34-.25-1.29-.8-2.46-1.72-3.51-1.05-1.42-2.65-2.65-4.68-3.75-5.23-2.71-13.42-3.94-21.35-5.17-2.58-.37-5.11-.74-7.57-1.17-19.63-3.51-33.17-10.46-45.11-16.56-1.78-.92-4-2.03-6.22-3.32-1.23-.68-2.52-1.48-3.75-2.28-.86-.55-1.66-1.11-2.4-1.66-1.29-.98-2.46-2.03-3.38-3.08-.74-.86-1.35-1.78-1.66-2.65-.06-.12-.06-.18-.12-.31-.43-1.35-.25-2.65,.49-4.12,.12-.25,.31-.55,.55-.8,2.89-4.49,11.08-9.48,23.32-14.28,1.85-.8,3.88-1.54,5.97-2.28,3.75-1.29,7.75-2.65,12-3.88,7.94-2.34,16.31-4.55,24.43-6.65,2.34-.62,4.74-1.23,7.08-1.85,3.14-.86,6.34-1.66,9.48-2.58,6.58-1.78,13.05-3.69,19.26-5.79,2.34-.8,4.62-1.6,6.89-2.46,1.78-.68,3.57-1.42,5.35-2.15,2.65-1.05,5.23-2.15,7.69-3.32,2.28-1.05,4.43-2.15,6.46-3.26,.06,0,.12-.06,.12-.06,.37-.12,.74-.37,1.11-.55,.86-.43,1.72-.92,2.58-1.42,3.02-1.72,5.85-3.51,8.37-5.23,.55-.43,1.11-.86,1.6-1.23,2.77-2.03,5.23-4.18,7.32-6.28,3.38-3.45,5.91-6.77,8.31-10.09,1.05-1.42,2.03-2.77,3.08-4.12,.43-.55,.86-1.05,1.29-1.6,1.05-1.23,2.09-2.4,3.32-3.63l1.11-1.11c1.11-1.05,2.28-2.03,3.63-3.08,.37-.31,.8-.62,1.17-.86,.43-.37,.86-.68,1.35-.98,.06-.06,.06-.12,.12-.12,3.08-2.15,6.65-4.37,10.71-6.59,.12-.06,.31-.12,.43-.18,.62-.37,1.29-.74,1.97-1.05,.49-.25,1.05-.55,1.54-.8,1.72-.86,3.45-1.72,5.23-2.52,17.35-8.31,35.82-14.22,53.79-17.23,2.34-.37,4.62-.74,6.89-1.05h.12c6.77-.86,13.17-1.35,18.89-1.35,.74,0,1.48,0,2.22,.06,.68,0,1.35,.06,2.03,.06,8.68,.37,15.82,2.03,22.22,3.69,2.65,.74,5.23,1.48,7.82,2.22,5.97,1.78,11.82,3.69,17.6,5.6,1.72,.55,3.51,1.17,5.29,1.72,4.68,1.48,9.48,3.02,14.46,4.43,3.32,.98,6.77,1.97,10.28,2.83,24.31,6.03,49.17,8.06,73.97,6.09,2.46-.18,4.92-.43,7.45-.62,5.66-.55,11.69-1.17,16.99-1.05,3.75,0,7.32,.31,10.65,.68,4,.49,7.69,1.17,10.89,1.78,.68,.12,1.35,.25,2.09,.37,4.12,.74,8.37,1.54,12.74,2.4,1.97,.37,3.94,.8,5.97,1.23,1.35,.31,2.77,.62,4.18,.92,1.72,.43,3.51,.8,5.23,1.29,.55,.06,1.05,.18,1.6,.37,1.97,.49,3.94,.98,5.85,1.54,1.78,.43,3.51,.98,5.23,1.54,.86,.18,1.66,.49,2.52,.74,.37,.12,.74,.25,1.05,.37,.92,.31,1.85,.55,2.71,.92,2.34,.8,4.55,1.66,6.65,2.58,.49,.18,.92,.37,1.42,.62,2.46,1.05,4.8,2.22,6.89,3.38,1.11,.68,2.22,1.29,3.2,1.97,11.38,7.14,17.11,15.76,16.19,24.92-.12,1.17-.31,2.34-.62,3.51-.31,1.42-.68,2.89-1.11,4.43-.18,.68-.37,1.35-.55,2.03-.55,1.97-.98,4.06-1.23,6.09-.31,2.15-.31,4.37,.18,6.46,.31,1.6,.92,3.14,1.85,4.62,.25,.43,.49,.8,.8,1.17,.98,1.35,2.22,2.59,3.69,3.75,4.37,3.51,10.59,6.28,17.54,8.99,2.65,.98,5.42,2.03,8.18,3.02,.8,.31,1.66,.62,2.46,.86,1.85,.74,3.69,1.42,5.48,2.09,2.09,.8,4.18,1.66,6.09,2.52,.68,.31,1.35,.62,1.97,.92,2.89,1.35,5.29,2.89,7.26,4.49,1.35,.98,2.46,2.03,3.26,3.14,1.17,1.48,1.85,3.02,1.91,4.43,.25,4.06-4.12,7.57-7.88,9.79Z"/><path class="cls-1" d="M722.18,809.72c-3.14-2.71-7.45-5.29-12.74-7.51-3.08-1.29-6.46-2.58-9.85-3.75-1.91-.68-3.82-1.35-5.66-1.97-3.57-1.23-7.2-2.52-10.58-3.82-2.09-.8-4.12-1.6-5.97-2.4-1.91-.86-3.69-1.72-5.35-2.71-3.38-1.78-6.09-3.75-7.75-6.03-.37-.43-.62-.86-.86-1.35-.68-1.11-1.05-2.28-1.29-3.51-.31-2.03-.18-4.18,.25-6.4,.37-2.09,.92-4.25,1.54-6.46,.8-3.08,1.66-6.28,1.97-9.48,1.29-14.09-8.74-26.65-28.06-35.82-3.63-1.72-7.69-3.32-12-4.8-1.66-.62-3.38-1.11-5.11-1.66-.06,0-.12-.06-.18-.06-3.51-1.05-7.2-2.03-10.95-2.95-1.05-.18-2.09-.43-3.2-.68-.55-.12-1.11-.25-1.72-.37-1.54-.37-3.14-.74-4.74-.98-.62-.18-1.23-.31-1.91-.43-.74-.18-1.48-.31-2.22-.43-2.95-.62-5.91-1.11-8.92-1.66-1.6-.31-3.2-.55-4.8-.86-1.35-.18-2.77-.43-4.12-.62-2.52-.43-5.05-.86-7.57-1.23-.49-.06-.98-.18-1.48-.25-4.31-.68-8.55-1.23-12.86-1.6-.8-.06-1.6-.12-2.46-.18-2.4-.18-4.92-.25-7.51-.18-2.22,.06-4.43,.18-6.65,.37-4.06,.25-8.12,.74-12.18,1.17-2.65,.31-5.35,.55-8.06,.8-26.28,2.52-52.68,.74-78.53-5.29-6.83-1.66-13.42-3.51-19.69-5.42-4.31-1.29-8.55-2.65-12.68-3.94-.98-.31-2.03-.62-3.02-.92-5.35-1.66-10.71-3.32-16.19-4.92-2.83-.8-5.72-1.6-8.68-2.34-5.17-1.29-10.71-2.59-17.11-3.26-2.52-.31-5.17-.55-8-.62-3.26-.12-6.77-.06-10.46,.12-7.14,.43-15.02,1.35-23.26,2.83-17.66,3.14-32.99,8.06-45.42,13.11-1.97,.74-3.88,1.54-5.66,2.28-1.29,.55-2.52,1.11-3.69,1.66-.12,.06-.31,.12-.43,.18-3.57,1.66-6.83,3.26-9.72,4.74-1.17,.62-2.34,1.23-3.45,1.85-.25,.12-.55,.31-.8,.43-2.34,1.29-4.55,2.65-6.58,3.94-1.42,.92-2.77,1.85-4.06,2.77-.37,.18-.74,.43-1.05,.74-.74,.49-1.42,1.05-2.09,1.54-1.97,1.54-3.75,3.08-5.35,4.62-2.09,2.03-3.82,4.06-5.35,6.09-.74,.92-1.48,1.85-2.15,2.83-.06,.06-.06,.12-.12,.12-.68,.98-1.42,2.03-2.09,3.02-.18,.25-.37,.49-.55,.74-1.23,1.78-2.46,3.45-3.82,5.17-1.17,1.54-2.4,3.02-3.88,4.55-.49,.49-.98,.98-1.54,1.54-.18,.12-.37,.31-.55,.49-.62,.55-1.23,1.11-1.91,1.72,0,0-.06,.06-.12,.06-2.83,2.46-6.22,4.86-9.97,7.26-.06,0-.12,.06-.18,.12-2.34,1.48-4.86,2.89-7.51,4.31-2.4,1.35-4.98,2.65-7.63,3.88-3.63,1.72-7.51,3.38-11.51,4.98-2.71,1.05-5.54,2.09-8.37,3.08-.25,.06-.49,.18-.8,.25-11.88,4.12-24.92,7.63-37.54,11.02-2.52,.68-5.11,1.35-7.69,2.09-2.52,.68-5.11,1.42-7.69,2.09-3.88,1.11-7.75,2.22-11.57,3.39-4.98,1.54-11.14,3.57-17.48,6.03-2.09,.8-4.25,1.66-6.4,2.65-10.52,4.55-20.37,10.22-24.12,16.56-.18,.25-.37,.55-.49,.8-.74,1.42-1.17,2.89-1.29,4.31-.06,.18-.06,.43-.06,.62,0,1.11,.12,2.22,.49,3.32,0,.06,.06,.12,.06,.18,2.28,7.02,11.63,12.06,21.78,17.11,13.35,6.58,28.55,14.03,50.65,17.54,2.77,.43,5.6,.86,8.43,1.23,8.18,1.11,16.68,2.22,21.66,4.74,2.58,1.23,4,2.65,4.37,4.31,.92,3.82-3.51,9.54-7.75,15.08-1.54,2.03-3.08,4.06-4.49,6.09v.06c-2.65,3.88-4.68,7.75-4.74,11.51,0,1.17,.18,2.34,.55,3.51,1.72,5.05,7.32,8.68,15.26,12.55,4.06,2.03,8.55,4,13.29,5.85,34.95,13.85,80.19,20,127.39,25.66,13.91,1.6,21.85,5.79,30.22,10.15,3.26,1.72,6.65,3.51,10.34,5.11,15.02,6.46,34.34,9.85,56.37,9.85,3.88,0,7.88-.12,11.94-.37,9.17-.18,19.57-1.48,30.22-3.63,9.48-1.91,19.08-4.37,28.49-7.39,16.92-5.35,34.46-11.32,47.88-18.34,4.86-2.58,9.05-5.17,13.48-7.94,6.22-3.88,12.68-7.88,21.11-11.69,16-7.2,37.6-11.69,58.52-16,24.62-5.17,47.94-9.97,62.65-18.89,.12-.06,.25-.18,.37-.25,.98-.62,1.91-1.23,2.83-1.85,.55-.43,1.11-.8,1.6-1.23,.06-.06,.18-.12,.25-.18,7.51-5.97,9.23-12.31,10.83-17.97,1.78-6.4,3.51-12.37,13.11-18.16,2.83-1.72,6.22-3.32,9.48-4.92,3.38-1.6,6.95-3.32,9.91-5.11,7.69-4.62,11.32-9.79,10.95-15.39-.25-3.69-2.4-7.32-6.15-10.59Zm-7.14,22.09c-2.83,1.66-6.22,3.32-9.54,4.92-3.38,1.6-6.83,3.26-9.85,5.05-11.2,6.77-13.17,13.91-15.14,20.86-1.66,5.85-3.2,11.45-10.95,16.92-13.6,9.72-38.15,14.83-64.12,20.19-21.17,4.43-43.02,8.99-59.45,16.37-8.74,3.94-15.32,8-21.66,11.94-4.37,2.71-8.49,5.29-13.17,7.75-13.11,6.83-30.4,12.74-47.2,18.09-9.23,2.95-18.65,5.35-27.94,7.26-10.4,2.09-20.62,3.32-29.48,3.57h-.06c-33.29,1.72-54.46-4.06-66.34-9.17-3.57-1.54-6.83-3.26-10.03-4.92-8.37-4.43-17.05-8.99-31.75-10.71-46.89-5.54-91.82-11.69-126.28-25.29-4.62-1.85-8.98-3.75-12.98-5.72-5.66-2.77-11.63-6.15-12.92-9.91-1.54-4.49,3.32-10.83,8-16.99,2.09-2.71,4.12-5.35,5.72-7.94,2.28-3.82,3.63-7.45,2.83-10.95-.12-.55-.31-1.05-.49-1.54-1.05-2.34-3.14-4.25-6.28-5.85-5.66-2.77-14.52-4-23.08-5.11-2.83-.43-5.6-.8-8.31-1.23-21.48-3.39-36.31-10.71-49.35-17.17-8.55-4.18-17.79-9.11-19.51-14.46,0-.06-.06-.12-.06-.18-.37-1.11-.31-2.28,.06-3.51,.12-.37,.31-.8,.49-1.17,.06-.12,.12-.18,.18-.31,1.23-2.28,3.75-4.68,7.38-7.14,3.57-2.46,8.25-4.98,13.78-7.45,1.54-.68,3.08-1.35,4.74-1.97,5.78-2.34,12.43-4.68,19.75-6.89,5.05-1.54,10.28-3.02,15.51-4.43,2.71-.8,5.48-1.48,8.12-2.22,1.05-.31,2.09-.55,3.14-.86,12.99-3.51,26.4-7.08,38.65-11.39,1.48-.49,2.89-1.05,4.31-1.54,.74-.25,1.48-.55,2.15-.8,1.35-.49,2.65-.98,3.88-1.54,1.17-.43,2.28-.92,3.38-1.42,1.23-.49,2.4-.98,3.57-1.54,6.03-2.71,11.57-5.6,16.55-8.55,7.02-4.25,12.86-8.68,17.23-13.23,.12-.12,.25-.31,.37-.43h.06c1.85-1.97,3.45-4,4.98-5.97,.31-.49,.68-.92,.98-1.42,.8-1.11,1.54-2.15,2.28-3.2,2.77-3.94,5.42-7.63,9.23-11.39,2.03-1.97,4.43-3.94,7.2-5.91,1.05-.8,2.15-1.6,3.32-2.34,.92-.62,1.85-1.17,2.83-1.78,1.85-1.11,3.75-2.28,5.85-3.38,.98-.55,2.03-1.11,3.08-1.66,3.57-1.85,7.82-3.88,12.55-6.03,3.08-1.29,6.34-2.71,9.85-4,3.2-1.23,6.65-2.46,10.28-3.63,9.23-3.08,19.63-5.85,30.95-7.88,10.83-1.97,20.92-2.95,29.54-2.95,.62,0,1.23,0,1.85,.06,.49-.06,.92,0,1.35,0,.86,0,1.72,.06,2.58,.12,.31,0,.55,.06,.86,.06,2.28,.12,4.43,.37,6.52,.68,1.05,.18,2.03,.37,3.08,.49,2.09,.31,4.12,.74,6.09,1.17,1.72,.37,3.38,.8,5.05,1.23,.62,.12,1.17,.31,1.72,.43,2.34,.62,4.55,1.23,6.77,1.85,.37,.12,.74,.18,1.11,.31,2.89,.86,5.72,1.72,8.55,2.59,3.14,.98,6.28,1.97,9.42,2.95,2.15,.68,4.31,1.35,6.46,2.03,8.37,2.58,16.99,5.17,26.34,7.38,21.97,5.17,44.49,7.26,66.96,6.34,1.05-.06,2.03-.12,3.08-.18,.86-.06,1.72-.12,2.58-.12,.49-.06,.98-.06,1.48-.12,1.91-.12,3.88-.31,5.85-.49,2.71-.25,5.42-.55,8.12-.86,2.22-.25,4.43-.49,6.65-.68,4-.43,7.94-.74,11.75-.8h.18c1.35,0,2.71,0,4,.12,6.71,.18,12.8,1.05,19.38,2.03,3.57,.55,7.14,1.11,10.77,1.72,1.23,.18,2.4,.43,3.63,.62,1.85,.31,3.63,.62,5.48,.98,2.83,.49,5.66,1.05,8.43,1.6,.55,.12,1.05,.18,1.54,.31,.55,.12,1.05,.25,1.6,.31,1.6,.37,3.14,.74,4.68,1.11,3.45,.74,6.83,1.6,10.03,2.52,1.17,.31,2.34,.62,3.51,.98,.62,.18,1.23,.37,1.85,.55,.98,.31,1.85,.62,2.77,.86,5.29,1.85,10.03,3.82,14.28,5.97,15.94,8.06,24.19,18.59,23.08,30.09-.25,2.83-.98,5.72-1.85,8.74-.49,1.85-.98,3.75-1.35,5.72-.43,2.03-.74,4.06-.68,6.09,0,1.17,.12,2.34,.31,3.45,.43,2.22,1.35,4.37,2.89,6.4,.18,.18,.31,.43,.49,.62,2.15,2.59,5.17,4.8,8.86,6.77,1.66,.92,3.45,1.78,5.35,2.65,5.17,2.28,11.02,4.31,17.11,6.4,1.11,.43,2.28,.8,3.38,1.23,2.28,.8,4.55,1.6,6.77,2.4,1.72,.68,3.45,1.35,5.11,2.03,9.72,4.06,15.69,9.42,16.06,14.22,.37,4.68-4.55,8.68-8.74,11.2Z"/><path class="cls-1" d="M748.21,818.28c-3.38-3.14-8.31-6.09-14.52-8.55-5.23-2.09-11.02-4-16.68-5.85-6.4-2.03-12.86-4.25-18.46-6.65-6.03-2.52-11.02-5.42-13.78-8.86-.06-.06-.12-.12-.18-.18-4.31-5.48-2.52-12.37-.62-19.63,.86-3.32,1.72-6.77,2.03-10.09,1.72-19.08-16.12-35.2-48.86-44.19-5.66-1.54-11.69-2.95-17.97-4.12-.06-.06-.12-.06-.18-.06-3.45-.68-6.95-1.29-10.52-1.91-.68-.06-1.35-.18-2.03-.31-.55-.06-1.05-.18-1.6-.25-1.66-.25-3.26-.49-4.92-.74-.62-.12-1.29-.18-1.91-.31-.74-.12-1.54-.25-2.34-.31-2.28-.37-4.49-.68-6.77-.98-.43-.06-.92-.12-1.35-.18-1.66-.18-3.32-.43-4.92-.62-1.42-.18-2.89-.37-4.43-.62-6.28-.74-13.66-1.48-21.78-1.17h-.31c-1.23,.06-2.52,.12-3.75,.25-5.29,.37-10.71,1.05-16.06,1.72-.62,.06-1.29,.18-1.91,.25-2.28,.31-4.49,.55-6.77,.86-4.62,.55-9.23,.92-13.85,1.17-.49,.06-.98,.06-1.48,.12-.86,0-1.72,.06-2.58,.12-.86,0-1.72,.06-2.58,.06-21.66,.74-43.2-1.23-64.31-5.91-10.28-2.34-19.88-5.05-29.11-7.82-2.03-.62-4-1.17-5.97-1.78-3.38-1.05-6.83-2.09-10.28-3.08-3.2-.92-6.46-1.85-9.72-2.77-.25-.06-.49-.12-.74-.18-3.08-.86-6.15-1.66-9.35-2.4-.55-.12-1.05-.25-1.6-.37-5.29-1.29-11.02-2.4-17.48-3.02-.31,0-.55-.06-.86-.06-.86-.06-1.72-.12-2.58-.12-.49-.06-.98-.12-1.54-.12-.98-.06-1.97-.12-2.95-.12-10.22-.18-22.4,1.05-36.12,3.69-12.12,2.34-24.25,5.54-35.88,9.6-3.38,1.11-6.71,2.34-9.97,3.63-4.43,1.72-8.8,3.57-12.98,5.54-.06,0-.06,.06-.12,.12-.55,.18-1.05,.43-1.6,.68-1.05,.49-2.03,.98-3.08,1.54-1.54,.74-3.08,1.48-4.55,2.28-.37,.18-.74,.37-1.05,.55-1.17,.62-2.34,1.29-3.51,1.97-.8,.43-1.6,.86-2.4,1.35-.06,0-.06,.06-.12,.12-.37,.12-.74,.31-1.11,.62-.12-.06-.25,0-.37,.18-7.08,4.31-12.74,8.62-17.11,12.99-.68,.74-1.35,1.42-1.91,2.15-1.97,2.09-3.57,4.18-4.98,6.28-.92,1.23-1.72,2.46-2.52,3.63-.18,.31-.43,.62-.62,.92-.37,.62-.8,1.17-1.17,1.72-1.48,2.22-3.02,4.37-4.74,6.52-.86,1.05-1.78,2.09-2.77,3.2-.25,.25-.49,.49-.74,.8-.06,0-.12,.06-.18,.12-3.38,3.45-7.57,6.89-12.55,10.22-2.4,1.66-5.05,3.26-7.82,4.86-.86,.55-1.85,1.11-2.83,1.6-1.66,.92-3.32,1.78-5.11,2.71-.55,.25-1.11,.55-1.66,.8-6.71,3.32-14.15,6.46-21.97,9.29-5.85,2.15-12,4.12-18.22,6.03-2.65,.8-5.35,1.6-8.06,2.34-5.05,1.48-10.15,2.89-15.2,4.31-7.82,2.22-15.82,4.43-23.63,6.83-1.78,.49-3.51,1.05-5.23,1.54q-.06,.06-.12,.06c-4.31,1.35-9.42,3.08-14.83,5.17-3.63,1.35-7.38,2.89-11.08,4.55-9.11,4.06-17.66,8.92-22.71,14.15l-.06,.06c-1.42,1.48-2.52,3.02-3.32,4.55-.12,.31-.25,.55-.37,.86-.49,1.17-.86,2.34-.92,3.51-.12,1.42,.06,2.89,.55,4.31,2.52,7.32,12.98,12.8,23.57,17.79,.43,.18,.86,.43,1.29,.62,14.15,6.65,30.34,14.09,53.54,17.36,2.89,.37,5.97,.74,9.05,1.11,8.92,1.05,18.15,2.09,23.63,4.68,2.89,1.42,4.55,3.02,5.05,4.92,1.05,4.37-3.69,10.71-8.25,16.86-1.66,2.15-3.32,4.37-4.74,6.59-.43,.62-.8,1.23-1.17,1.85-1.23,1.97-2.28,4-2.89,5.91,.06,.06,0,.06,0,.12-.98,2.77-1.23,5.48-.31,8.06,1.91,5.23,7.94,8.92,16.43,12.92,4.55,2.15,9.42,4.18,14.46,6.03,35.2,13.11,80,19.02,127.14,23.76,3.75,.43,7.51,.8,11.26,1.17,6.77,.68,12.25,1.91,17.11,3.45,5.97,1.97,10.89,4.43,16,6.95,3.57,1.78,7.26,3.63,11.32,5.23,15.26,6.22,34.59,9.42,56.56,9.42,5.66,0,11.45-.18,17.48-.62,9.85-.55,20.49-1.97,31.69-4.31,10.22-2.09,20.31-4.74,30.09-7.82,21.85-6.95,38.28-13.66,50.22-20.43,4.74-2.71,9.11-5.6,13.23-8.37,.55-.37,1.05-.68,1.6-1.05,6.22-4.12,12.74-8.31,21.23-12.25,11.63-5.42,26.15-9.48,41.42-13.05,7.14-1.72,14.4-3.26,21.66-4.86,28.43-6.22,55.26-12,70.59-23.14,9.54-6.89,11.45-13.97,13.29-20.74,1.85-6.95,3.63-13.54,14.15-20,3.02-1.85,6.71-3.63,10.22-5.35,3.69-1.78,7.51-3.63,10.65-5.6,8.12-4.98,12-10.46,11.51-16.25-.31-3.57-2.28-6.95-5.72-10.15Zm-7.82,23.08c-3.02,1.85-6.71,3.69-10.34,5.42-3.57,1.78-7.32,3.63-10.52,5.54-11.88,7.26-13.91,14.89-15.94,22.28-1.72,6.46-3.32,12.56-11.75,18.65-14.71,10.59-41.17,16.37-69.17,22.46-2.15,.49-4.31,.92-6.46,1.42-20.68,4.49-41.54,9.42-57.42,16.74-9.48,4.37-16.49,9.11-23.32,13.6-3.38,2.28-6.58,4.43-10.03,6.52-.98,.55-1.97,1.17-2.95,1.72-11.69,6.65-27.94,13.17-49.54,20.06-9.6,3.08-19.57,5.72-29.66,7.75-11.02,2.28-21.48,3.69-31.14,4.25h-.06c-36.12,2.58-59.26-3.2-72.25-8.49-3.94-1.6-7.51-3.38-11.02-5.17-1.17-.55-2.28-1.17-3.45-1.72-8.12-3.88-17.11-7.69-31.08-9.05-15.38-1.54-30.59-3.08-45.35-4.92-34.09-4.31-65.85-10.03-92-19.76-4.98-1.85-9.72-3.88-14.22-5.91-6.28-2.95-12.92-6.52-14.4-10.71-1.11-3.08,.43-6.89,2.89-10.89,1.6-2.65,3.63-5.35,5.66-8,1.54-2.09,3.14-4.18,4.43-6.22,2.71-4,4.74-7.88,4.74-11.51v-.06c0-.8-.12-1.6-.31-2.34-.74-3.08-3.14-5.6-7.08-7.51-6.09-2.89-15.63-4-24.92-5.05-3.02-.37-6.03-.68-8.98-1.11-23.26-3.26-39.45-10.89-53.66-17.66-4.62-2.15-9.35-4.49-13.29-7.02-3.26-2.15-5.97-4.37-7.38-6.77-.37-.55-.68-1.11-.86-1.72-.68-1.78-.49-3.63,.55-5.6,.68-1.42,1.85-2.89,3.38-4.43,2.89-2.77,7.14-5.72,12.62-8.62,0,0,.06-.06,.12-.06,1.48-.8,3.02-1.6,4.68-2.34,1.72-.86,3.57-1.72,5.48-2.52,6.71-2.89,14.58-5.79,23.39-8.55,.55-.18,1.11-.37,1.66-.49,1.97-.62,3.94-1.23,5.91-1.78,7.08-2.15,14.22-4.18,21.29-6.15,6.34-1.72,12.8-3.57,19.14-5.42,2.77-.8,5.48-1.66,8.18-2.46,.92-.31,1.91-.62,2.89-.98,3.94-1.23,7.75-2.52,11.51-3.88,6.09-2.22,11.88-4.55,17.29-7.02,.06,0,.18-.06,.25-.12,3.57-1.6,6.95-3.26,10.15-4.98,2.77-1.48,5.48-3.02,8-4.55,5.97-3.69,11.08-7.51,15.26-11.32,1.29-1.17,2.46-2.28,3.51-3.45,3.08-3.26,5.42-6.52,7.57-9.72,.25-.43,.55-.8,.8-1.17,.12-.18,.25-.37,.37-.55,.06-.18,.18-.31,.31-.49,1.29-1.97,2.58-3.94,4-5.85,.68-.86,1.35-1.78,2.15-2.65,.98-1.29,2.15-2.58,3.45-3.88,.68-.68,1.42-1.35,2.15-2.09,.06,0,.06-.06,.12-.12,1.97-1.72,4.19-3.51,6.65-5.29l.12-.12c.06,0,.12-.06,.18-.12,2.34-1.66,4.92-3.38,7.75-5.05,.06-.06,.12-.06,.18-.12,1.35-.8,2.83-1.6,4.31-2.46,.68-.37,1.42-.8,2.15-1.17,.06-.06,.18-.06,.25-.12,.8-.43,1.66-.86,2.46-1.23,1.97-1.05,3.94-2.03,5.97-3.02,5.42-2.58,11.14-4.98,16.99-7.2,3.45-1.35,7.02-2.59,10.59-3.69,10.34-3.45,21.11-6.28,31.88-8.31,12.62-2.4,23.82-3.63,33.35-3.63h1.97c2.95,.06,5.72,.25,8.37,.55,6.65,.62,12.43,1.91,17.85,3.2,3.14,.74,6.15,1.54,9.17,2.34,6.95,1.85,13.54,3.88,20.18,5.91,.12,.06,.31,.06,.43,.12,11.2,3.32,22.77,6.83,35.39,9.66,16.06,3.57,32.37,5.54,48.74,6.03,12.43,.37,24.92-.12,37.35-1.54,2.89-.37,5.85-.74,8.74-1.11,1.72-.25,3.45-.43,5.17-.62,4.92-.68,9.91-1.17,14.65-1.35,9.05-.37,17.23,.62,24,1.6,.55,.06,1.05,.12,1.54,.18,.68,.06,1.29,.18,1.97,.25,1.91,.25,3.88,.55,5.85,.8,2.03,.25,4,.55,6.03,.86,1.23,.12,2.52,.31,3.75,.49,.74,.12,1.48,.25,2.22,.37,1.35,.18,2.77,.43,4.12,.68,2.28,.31,4.55,.74,6.83,1.17,.37,0,.68,.06,1.05,.18,2.83,.49,5.66,.98,8.37,1.54,2.65,.55,5.23,1.17,7.69,1.78,2.09,.49,4.12,.98,6.09,1.54,.62,.18,1.17,.31,1.72,.49,29.66,8.55,45.79,22.89,44.31,39.57-.31,3.02-1.11,6.34-1.97,9.48-1.6,6.22-3.26,12.62-1.17,18.46,.49,1.54,1.29,3.08,2.46,4.55,.55,.74,1.17,1.42,1.91,2.09,.62,.62,1.29,1.17,1.97,1.66,2.09,1.66,4.49,3.14,7.26,4.49,2.95,1.48,6.15,2.77,9.6,4.06,4.31,1.6,8.92,3.14,13.6,4.68,2.15,.68,4.31,1.42,6.4,2.15,3.45,1.17,6.89,2.4,10.03,3.63,5.66,2.22,10.15,4.92,13.23,7.69,2.77,2.52,4.37,5.17,4.62,7.69,.43,5.23-4.98,9.72-9.66,12.62Z"/><path class="cls-1" d="M341.31,997.92c-4.31-1.6-8.25-3.45-12.06-5.23-9.91-4.55-20.18-9.29-37.29-10.52-37.29-2.65-73.54-5.6-105.6-11.57,5.42,2.15,10.95,4.12,16.49,6.03,27.75,4.18,57.97,6.59,88.86,8.8,16.55,1.17,26.03,5.6,36.12,10.22,3.88,1.85,7.94,3.69,12.31,5.29,4.74,1.78,9.85,3.32,15.32,4.49,7.88,.37,15.82,.55,23.82,.55,1.72,0,3.38,0,5.11-.06-19.69-.92-33.72-4.49-43.08-8Zm299.51-74.34c-24.31,5.72-49.48,11.69-68,20.68-10.09,4.92-17.54,10.28-24.74,15.45-4.06,2.89-8.25,5.91-12.8,8.8-12.68,7.88-30.03,15.51-51.57,22.65-10.34,3.38-20.86,6.28-31.32,8.55-7.14,1.54-14.15,2.83-20.98,3.75,13.78-1.29,27.45-3.14,40.92-5.48,4.12-1.11,8.31-2.4,12.37-3.75,21.79-7.2,39.39-14.95,52.31-22.96,4.68-2.95,8.92-5.97,12.98-8.92,7.08-5.11,14.4-10.4,24.25-15.14,18.22-8.86,43.2-14.77,67.39-20.49,11.51-2.77,22.83-5.42,33.35-8.37,3.14-2.03,6.28-4.12,9.35-6.22-13.05,4.18-28.06,7.75-43.51,11.45Zm138.59-93.61c.18-.98,.25-2.03,.12-3.02-.8-7.2-8.62-14.15-21.66-19.02-.06,0-.18,0-.25-.06-5.54-2.03-11.75-3.94-17.79-5.72-14.52-4.37-29.54-8.92-35.39-16.12-4.86-5.97-3.02-13.54-1.11-21.48,.86-3.57,1.72-7.26,2.03-10.83,1.42-20.37-17.85-36.93-52.99-45.48-13.23-3.26-28.55-5.42-43.94-7.14-.8-.06-1.6-.12-2.4-.25-.25,0-.49-.06-.74-.06-2.46-.31-4.92-.55-7.38-.8-.25,0-.43-.06-.68-.06-1.23-.12-2.4-.25-3.63-.37-.25,0-.49-.06-.8-.06-2.52-.31-5.29-.55-8.18-.8-.49,0-.92-.06-1.42-.12-1.85-.12-3.69-.18-5.66-.25-3.82-.12-7.88-.12-12.06,.12-2.09,.12-4.18,.37-6.34,.62-.86,.06-1.72,.18-2.58,.31-.98,.12-2.03,.25-3.02,.37-3.14,.43-6.28,.92-9.35,1.42-3.14,.49-6.34,.98-9.48,1.42-3.14,.43-6.34,.86-9.54,1.17h-.25c-27.14,2.83-54.46,1.6-81.29-3.69-10.09-2.03-19.51-4.43-28.62-6.95-3.14-.86-6.22-1.66-9.23-2.52-4.86-1.35-9.85-2.77-14.95-4.12-.18-.06-.43-.12-.62-.12-2.22-.62-4.49-1.23-6.77-1.78-.8-.18-1.66-.37-2.46-.62-1.97-.49-4-.92-6.09-1.35-.06-.06-.18-.06-.25-.12-.43-.06-.8-.18-1.23-.25-1.72-.37-3.51-.74-5.29-1.11-1.05-.12-2.03-.31-3.08-.49-3.75-.62-7.82-1.11-12.12-1.48-2.71-.18-5.48-.31-8.43-.37-10.77,.06-23.69,1.66-38.52,4.8-10.03,2.15-19.94,4.86-29.48,7.94-2.03,.68-4.06,1.35-6.03,2.03-.55,.18-1.17,.37-1.72,.62-.8,.31-1.54,.55-2.34,.8-4.12,1.54-8.12,3.14-12,4.8-.92,.37-1.72,.74-2.58,1.17-2.28,.92-4.49,1.91-6.71,3.02-.86,.37-1.66,.74-2.46,1.17-.31,.12-.55,.25-.8,.43-3.14,1.48-6.22,3.08-9.17,4.74-6.65,3.69-12.37,7.51-17.17,11.26-3.26,2.52-6.03,5.11-8.43,7.63-.49,.55-.98,1.11-1.54,1.66-.25,.37-.55,.74-.8,1.11-1.42,1.66-2.65,3.32-3.82,4.99-1.42,2.09-2.77,4.18-4.06,6.22-.06,.12-.12,.25-.25,.37-1.48,2.46-3.14,5.05-4.98,7.57-1.11,1.54-2.34,3.08-3.69,4.62-.68,.74-1.35,1.48-2.09,2.22-2.09,2.15-4.49,4.25-7.14,6.34-1.54,1.23-3.08,2.46-4.8,3.69-.49,.31-1.05,.68-1.54,1.05-.43,.31-.92,.62-1.35,.92-8.92,5.97-19.88,11.75-32.19,16.86-.86,.43-1.72,.8-2.58,1.11-1.48,.62-3.02,1.23-4.49,1.78-.98,.37-1.97,.74-2.95,1.11-12.43,4.62-25.91,8.74-39.08,12.68-.8,.25-1.54,.49-2.34,.74-1.29,.37-2.58,.8-3.94,1.17-9.05,2.71-18.22,5.48-27.02,8.49-.25,.06-.49,.18-.74,.25-1.54,.49-3.14,1.11-4.86,1.66-1.48,.55-3.02,1.11-4.62,1.72-.06,0-.12,.06-.12,.06-5.17,1.91-10.71,4.18-16.12,6.65l-.06,.06c-3.14,1.42-6.15,2.95-9.05,4.55-9.17,4.99-16.68,10.65-19.57,16.49-1.05,2.15-1.48,4.25-1.23,6.28,6.22,6.09,12.55,12,19.02,17.66,2.28,1.11,4.68,2.22,7.08,3.26,15.69,6.89,33.54,14.77,59.14,17.66,3.2,.37,6.52,.68,9.78,.98,1.17,.12,2.4,.18,3.57,.31h.06c8.43,.8,16.74,1.72,21.97,4.06,3.32,1.48,5.17,3.26,5.78,5.42,.55,1.97,0,4.37-1.17,6.89-1.6,3.69-4.55,7.75-7.38,11.82-3.51,4.8-7.02,9.72-8.74,14.46,.98,.49,1.91,1.05,2.83,1.6,1.54-4.43,5.05-9.35,8.55-14.15,1.54-2.15,3.02-4.25,4.37-6.28,0-.06,.06-.06,0-.12,1.35-1.97,2.46-3.88,3.26-5.72,.31-.68,.62-1.35,.8-2.03,.92-2.52,1.23-4.99,.62-7.32-.86-3.14-3.38-5.66-7.57-7.51-6.52-2.89-16.74-3.82-26.65-4.68-.86-.06-1.66-.18-2.52-.25-2.4-.25-4.86-.43-7.2-.68-25.11-2.89-42.71-10.65-58.22-17.48-10.71-4.74-21.42-9.91-23.75-16.37-.74-2.03-.55-4.12,.49-6.4,2.34-4.8,8.92-10.09,19.08-15.51,.98-.55,1.97-1.05,2.95-1.54,2.28-1.17,4.68-2.34,7.26-3.51,5.35-2.34,11.26-4.74,17.85-7.08,1.42-.49,2.83-.98,4.31-1.48,.62-.25,1.23-.49,1.85-.68,9.54-3.2,19.57-6.28,29.29-9.17,.49-.18,1.05-.37,1.54-.49,1.72-.49,3.45-1.05,5.17-1.54,13.35-4,26.89-8.19,39.32-12.99,.06,0,.06-.06,.12-.06,2.46-.98,4.92-1.91,7.26-2.95,10.28-4.25,19.51-8.92,27.45-13.85,.06,0,.18-.06,.25-.12,3.02-1.78,5.85-3.69,8.43-5.54,2.28-1.6,4.37-3.26,6.28-4.86,.74-.62,1.48-1.23,2.15-1.91,1.29-1.17,2.58-2.34,3.69-3.51,.68-.68,1.35-1.42,1.97-2.09,1.11-1.29,2.15-2.58,3.08-3.82,1.35-1.72,2.52-3.45,3.51-5.11,.98-1.35,1.78-2.71,2.65-4.06,.8-1.23,1.6-2.52,2.46-3.75,.68-1.11,1.42-2.15,2.15-3.26,1.42-2.03,3.02-4,4.86-6.03,.12-.12,.25-.31,.37-.43,.62-.68,1.23-1.29,1.91-1.91,5.6-5.48,13.29-10.95,22.89-16.31,1.11-.62,2.28-1.23,3.45-1.78,.12-.18,.25-.25,.37-.18,.37-.31,.74-.49,1.11-.62,.49-.31,.98-.55,1.48-.74,1.97-1.11,4-2.09,6.03-3.02,1.11-.55,2.28-1.11,3.38-1.6,.92-.43,1.91-.86,2.89-1.29,.43-.18,.92-.43,1.42-.62,4.92-2.15,10.09-4.18,15.45-6.09,3.45-1.23,6.95-2.4,10.52-3.51,3.63-1.17,7.32-2.22,11.02-3.2,5.05-1.42,10.15-2.65,15.26-3.75,14.58-3.08,27.32-4.68,37.85-4.74h.43c4.49,0,8.68,.31,12.55,.74,5.54,.68,10.52,1.66,15.26,2.65,3.38,.74,6.71,1.54,9.97,2.34,7.57,1.91,15.02,3.94,22.22,5.97,1.29,.37,2.58,.74,3.94,1.11,10.83,2.95,22.03,6.03,34.15,8.43,19.32,3.82,38.95,5.54,58.59,5.11,11.2-.12,22.4-.98,33.54-2.52,3.2-.43,6.4-.92,9.54-1.48,.49-.06,.92-.12,1.42-.25h.18c1.78-.25,3.63-.55,5.42-.8,1.48-.25,2.89-.43,4.37-.62h.31c3.14-.43,6.28-.8,9.35-.98,1.05-.06,2.09-.12,3.14-.18,1.05,0,2.03-.06,3.02-.06,1.97,0,3.88,.06,5.72,.12,2.65,.06,5.11,.25,7.51,.43,2.89,.25,5.6,.49,8.12,.74,1.66,.18,3.32,.37,5.05,.55,.31,0,.62,0,.98,.06,.68,.06,1.42,.12,2.09,.25,.55,.06,1.11,.12,1.66,.18,1.05,.06,2.03,.18,3.08,.31,2.52,.25,5.05,.55,7.57,.92,13.42,1.54,26.46,3.51,37.91,6.34,33.42,8.19,51.82,23.51,50.52,42.1-.25,3.32-1.11,6.89-1.97,10.28-2.03,8.43-4.12,17.11,1.78,24.31,6.46,8,21.29,12.49,36.92,17.17,5.66,1.72,11.45,3.45,16.62,5.35,.37,.12,.74,.25,1.05,.37,11.75,4.37,19.14,10.46,19.75,16.37,.49,4.68-2.95,9.42-10.34,14.15-3.2,2.09-7.2,4.06-11.02,6.03-3.88,1.97-7.88,4-11.26,6.15-12.49,7.94-14.46,16.06-16.43,23.94-.25,.92-.43,1.85-.74,2.77,1.48-1.23,2.95-2.46,4.37-3.75,1.78-6.95,4.12-13.54,14.58-20.19,3.2-2.09,7.14-4.06,10.95-6.03,2.28-1.17,4.68-2.34,6.89-3.57l16.12-16.86Z"/></g><path class="cls-1" d="M357.3,435.28c-4.56,0-8.32-3.61-8.49-8.2-.16-4.69,3.5-8.62,8.19-8.79l1.44-.05c4.64-.26,8.66,3.4,8.88,8.09,.22,4.68-3.4,8.66-8.09,8.88l-1.63,.07c-.1,0-.2,0-.31,0Zm-53.65-25.75c-2.37,0-4.72-.99-6.4-2.9l-1.17-1.39c-2.97-3.63-2.43-8.99,1.2-11.95,3.64-2.97,8.99-2.44,11.95,1.2l.81,.96c3.09,3.53,2.73,8.9-.8,11.99-1.61,1.41-3.61,2.1-5.59,2.1Zm-22.51-57.61c-1.28,0-2.57-.29-3.79-.9-3.06-1.53-4.8-4.67-4.69-7.89v-1.24c-.01-4.69,3.79-8.5,8.49-8.5s8.5,3.8,8.5,8.5v1.42c.02,1.35-.28,2.69-.89,3.9-1.48,2.98-4.49,4.71-7.61,4.71Zm15.93-60.32c-1.35,0-2.72-.32-3.99-1-4.14-2.21-5.71-7.35-3.5-11.49l.78-1.43c2.24-4.12,7.42-5.63,11.53-3.38,4.12,2.25,5.63,7.41,3.38,11.53l-.69,1.27c-1.53,2.87-4.47,4.5-7.5,4.5Zm38.54-49.63c-2.21,0-4.42-.86-6.08-2.57-3.28-3.36-3.21-8.74,.15-12.01l.81-.78c3.4-3.23,8.97-3.29,12.19,.11,3.24,3.4,3.29,8.59-.1,11.83l-1.04,.99c-1.65,1.61-3.79,2.42-5.93,2.42Zm44-45.03c-1.68,0-3.38-.5-4.87-1.54-3.84-2.69-4.78-7.99-2.09-11.83l.74-1.09c2.59-3.92,7.86-4.99,11.77-2.4,3.91,2.59,4.99,7.86,2.4,11.77l-.99,1.46c-1.65,2.36-4.29,3.62-6.97,3.62Zm12.47-60c-4.04,0-7.61-2.89-8.35-7.01l-.25-1.29c-.94-4.6,2.03-9.09,6.62-10.03,4.62-.93,9.09,2.02,10.03,6.62l.33,1.72c.82,4.62-2.25,9.03-6.88,9.86-.5,.09-1,.13-1.5,.13Zm-21.8-59.02c-3.25,0-6.34-1.87-7.76-5.02l-.58-1.28c-1.98-4.26-.15-9.31,4.1-11.3,4.27-1.98,9.31-.14,11.3,4.1l.69,1.52c1.92,4.29,0,9.31-4.27,11.23-1.13,.5-2.31,.75-3.47,.75Zm-20.35-59.49c-4.16,0-7.8-3.07-8.4-7.31l-.19-1.44c-.61-4.65,2.66-9,7.31-9.61,4.65-.57,8.91,2.58,9.52,7.23l.19,1.44c.66,4.65-2.58,8.95-7.22,9.6-.4,.05-.81,.08-1.2,.08Z"/><path class="cls-1" d="M444.17,463.73c-4.56,0-8.32-3.61-8.49-8.2-.16-4.69,3.5-8.62,8.19-8.79l1.44-.05c4.66-.25,8.66,3.4,8.88,8.09,.22,4.68-3.4,8.66-8.09,8.88l-1.63,.07c-.1,0-.2,0-.31,0Zm-53.64-25.75c-2.37,0-4.72-.99-6.4-2.9l-1.17-1.39c-2.97-3.63-2.43-8.99,1.2-11.95,3.64-2.97,8.99-2.44,11.95,1.2l.81,.96c3.09,3.53,2.73,8.9-.8,11.99-1.61,1.41-3.61,2.1-5.59,2.1Zm-22.5-57.61c-4.6,0-8.38-3.68-8.49-8.29l-.02-1.72c0-4.69,3.8-8.5,8.5-8.5s8.5,3.8,8.5,8.5v1.42c.07,4.68-3.66,8.51-8.33,8.59-.05,0-.1,0-.16,0Zm15.92-60.32c-1.35,0-2.72-.32-3.99-1-4.14-2.21-5.71-7.35-3.5-11.49l.78-1.43c2.24-4.12,7.42-5.63,11.53-3.38,4.12,2.25,5.63,7.41,3.38,11.53l-.69,1.27c-1.53,2.87-4.47,4.5-7.5,4.5Zm38.54-49.63c-2.21,0-4.42-.86-6.08-2.57-3.28-3.36-3.21-8.74,.15-12.01l.88-.85c3.43-3.17,8.97-3.17,12.16,.23,3.2,3.4,3.25,8.56-.13,11.79-.03,.02-.44,.42-.47,.45l-.57,.55c-1.65,1.61-3.79,2.42-5.93,2.42Zm44-45.04c-1.68,0-3.38-.5-4.87-1.54-3.84-2.69-4.78-7.99-2.09-11.83l.74-1.09c2.59-3.92,7.86-4.99,11.77-2.4,3.91,2.59,4.99,7.86,2.4,11.77l-.99,1.46c-1.65,2.36-4.29,3.62-6.97,3.62Zm12.46-60c-4.04,0-7.61-2.89-8.35-7.01l-.25-1.29c-.94-4.6,2.03-9.09,6.62-10.03,4.62-.91,9.09,2.03,10.03,6.62l.33,1.72c.82,4.62-2.25,9.03-6.88,9.86-.5,.09-1,.13-1.5,.13Zm-21.8-59.02c-3.25,0-6.34-1.87-7.76-5.02l-.58-1.28c-1.98-4.26-.15-9.31,4.1-11.3,4.27-1.98,9.31-.14,11.3,4.1l.69,1.52c1.92,4.29,0,9.31-4.27,11.23-1.13,.5-2.31,.75-3.47,.75Zm-20.35-59.49c-4.16,0-7.8-3.07-8.4-7.31l-.19-1.44c-.61-4.65,2.66-9,7.31-9.61,4.63-.56,8.91,2.58,9.52,7.23l.19,1.44c.66,4.65-2.58,8.95-7.22,9.6-.4,.05-.81,.08-1.2,.08Z"/><path class="cls-1" d="M450.59,432.29c-.23,0-.47-.01-.7-.03-4.68-.38-8.16-4.48-7.78-9.16l.1-1.35c.27-4.69,4.35-8.32,8.98-7.98,4.68,.28,8.26,4.3,7.98,8.98l-.12,1.73c-.36,4.44-4.08,7.81-8.46,7.81Zm-7.48-62.39c-3.88,0-7.39-2.68-8.28-6.62l-.34-1.48c-1.05-4.57,1.81-9.13,6.39-10.18,4.59-1.03,9.13,1.82,10.17,6.39l.35,1.52c1.03,4.58-1.84,9.13-6.41,10.16-.63,.14-1.26,.21-1.88,.21Zm-9.83-62.18s-.07,0-.1,0c-4.69-.05-8.45-3.9-8.39-8.59l.02-1.63c.11-4.62,3.89-8.3,8.49-8.3,.07,0,.14,0,.2,0,4.69,.11,8.41,4,8.29,8.69l-.02,1.44c-.05,4.66-3.85,8.4-8.49,8.4Zm23.22-56.72c-2.22,0-4.44-.87-6.11-2.59-3.26-3.37-3.17-8.75,.2-12.01l1.17-1.12c3.38-3.23,8.77-3.1,12.01,.3,3.23,3.4,3.1,8.77-.3,12.01l-1.06,1.02c-1.65,1.59-3.78,2.39-5.91,2.39Zm52-35.48c-2.85,0-5.64-1.44-7.24-4.04-2.46-4-1.21-9.23,2.78-11.69l.9-.57c3.95-2.49,9.36-1.42,11.86,2.54,2.51,3.95,1.5,9.09-2.44,11.61-.02,0-.35,.22-.37,.23-.06,.04-.99,.63-1.05,.67-1.39,.85-2.93,1.26-4.45,1.26Zm48.05-40.49c-1.94,0-3.89-.66-5.48-2.01-3.58-3.03-4.03-8.39-1-11.97l.99-1.17c3.02-3.58,8.39-4.04,11.97-1,3.58,3.03,4.03,8.39,1,11.97l-.99,1.17c-1.68,1.99-4.07,3.01-6.49,3.01Zm28.47-55.52c-.55,0-1.12-.05-1.69-.17-4.6-.93-7.57-5.41-6.64-10.01l.28-1.42c.88-4.62,5.36-7.63,9.93-6.76,4.61,.88,7.64,5.33,6.76,9.93l-.32,1.61c-.81,4.03-4.36,6.82-8.32,6.82Zm-9.38-61.13c-3.03,0-5.97-1.63-7.5-4.5l-.63-1.15c-2.32-4.08-.89-9.27,3.19-11.58,4.09-2.31,9.27-.89,11.58,3.19l.85,1.54c2.21,4.14,.64,9.29-3.5,11.49-1.27,.68-2.64,1-3.99,1Zm-48.08-37.4c-.47,0-.94-.04-1.41-.12l-1.41-.23c-4.63-.71-7.82-5.04-7.11-9.68,.71-4.64,4.99-7.84,9.68-7.11l1.63,.26c4.63,.77,7.76,5.14,6.98,9.77-.69,4.16-4.29,7.1-8.37,7.1Z"/></g></g></svg>