<?xml version="1.0" encoding="UTF-8"?><svg id="Layer_2" xmlns="http://www.w3.org/2000/svg" viewBox="0 0 201.64 213.71"><defs><style>.cls-1{fill:#a4a3a3;}</style></defs><g id="Layer_1-2"><g><rect class="cls-1" x="90.77" y="102.84" width="20.1" height="201.64" transform="translate(304.48 102.84) rotate(90)"/><g><path class="cls-1" d="M102.06,0C56.86,0,20.08,36.78,20.08,81.98s36.78,81.98,81.98,81.98,81.98-36.78,81.98-81.98S147.27,0,102.06,0Zm0,159.56c-42.78,0-77.58-34.8-77.58-77.58S59.29,4.4,102.06,4.4s77.58,34.8,77.58,77.58-34.8,77.58-77.58,77.58Z"/><g><circle class="cls-1" cx="169.63" cy="82.4" r="3.23"/><path class="cls-1" d="M168.94,88.96c-1.74,0-3.16,1.42-3.16,3.16s1.42,3.16,3.16,3.16,3.16-1.42,3.16-3.16-1.42-3.16-3.16-3.16Z"/><path class="cls-1" d="M166.92,98.33c-1.71,0-3.1,1.39-3.1,3.1s1.39,3.1,3.1,3.1,3.1-1.39,3.1-3.1-1.39-3.1-3.1-3.1Z"/><path class="cls-1" d="M163.68,107.18c-1.67,0-3.03,1.36-3.03,3.03s1.36,3.03,3.03,3.03,3.03-1.36,3.03-3.03-1.36-3.03-3.03-3.03Z"/><path class="cls-1" d="M159.31,115.41c-1.64,0-2.96,1.33-2.96,2.97s1.33,2.96,2.96,2.96,2.97-1.33,2.97-2.96-1.33-2.97-2.97-2.97Z"/><path class="cls-1" d="M153.9,122.92c-1.6,0-2.9,1.3-2.9,2.9s1.3,2.9,2.9,2.9,2.9-1.3,2.9-2.9-1.3-2.9-2.9-2.9Z"/><path class="cls-1" d="M147.56,129.62c-1.56,0-2.83,1.27-2.83,2.83s1.27,2.83,2.83,2.83,2.83-1.27,2.83-2.83-1.27-2.83-2.83-2.83Z"/><path class="cls-1" d="M140.37,135.42c-1.53,0-2.77,1.24-2.77,2.77s1.24,2.77,2.77,2.77,2.77-1.24,2.77-2.77-1.24-2.77-2.77-2.77Z"/><circle class="cls-1" cx="132.44" cy="142.92" r="2.7"/><path class="cls-1" d="M123.85,143.91c-1.45,0-2.64,1.18-2.64,2.64s1.18,2.64,2.64,2.64,2.64-1.18,2.64-2.64-1.18-2.64-2.64-2.64Z"/><path class="cls-1" d="M114.71,146.41c-1.42,0-2.57,1.15-2.57,2.57s1.15,2.57,2.57,2.57,2.57-1.15,2.57-2.57-1.15-2.57-2.57-2.57Z"/><circle class="cls-1" cx="105.11" cy="150.12" r="2.5"/><path class="cls-1" d="M95.3,147.45c-1.34,0-2.44,1.09-2.44,2.44s1.09,2.44,2.44,2.44,2.44-1.09,2.44-2.44-1.09-2.44-2.44-2.44Z"/><path class="cls-1" d="M85.84,145.93c-1.31,0-2.37,1.06-2.37,2.37s1.06,2.37,2.37,2.37,2.37-1.06,2.37-2.37-1.06-2.37-2.37-2.37Z"/><path class="cls-1" d="M76.87,143.16c-1.27,0-2.31,1.03-2.31,2.31s1.03,2.31,2.31,2.31,2.31-1.04,2.31-2.31-1.03-2.31-2.31-2.31Z"/><circle class="cls-1" cx="68.49" cy="141.46" r="2.24"/><circle class="cls-1" cx="60.8" cy="136.38" r="2.17"/><path class="cls-1" d="M53.88,128.23c-1.16,0-2.11,.95-2.11,2.11s.95,2.11,2.11,2.11,2.11-.95,2.11-2.11-.95-2.11-2.11-2.11Z"/><circle class="cls-1" cx="47.84" cy="123.42" r="2.04"/><path class="cls-1" d="M42.76,113.75c-1.09,0-1.98,.89-1.98,1.98s.89,1.98,1.98,1.98,1.98-.89,1.98-1.98-.89-1.98-1.98-1.98Z"/><path class="cls-1" d="M38.76,105.44c-1.05,0-1.91,.86-1.91,1.91s.86,1.91,1.91,1.91,1.91-.86,1.91-1.91-.86-1.91-1.91-1.91Z"/><path class="cls-1" d="M35.92,96.54c-1.02,0-1.85,.83-1.85,1.84s.83,1.85,1.85,1.85,1.85-.83,1.85-1.85-.83-1.84-1.85-1.84Z"/><circle class="cls-1" cx="34.33" cy="88.93" r="1.78"/><path class="cls-1" d="M34.1,80.82c.94,0,1.71-.77,1.71-1.71s-.77-1.71-1.71-1.71-1.71,.77-1.71,1.71,.77,1.71,1.71,1.71Z"/><path class="cls-1" d="M35.24,71.16c.91,0,1.65-.74,1.65-1.65s-.74-1.65-1.65-1.65-1.65,.74-1.65,1.65,.74,1.65,1.65,1.65Z"/><circle class="cls-1" cx="37.68" cy="60.37" r="1.58"/><path class="cls-1" d="M41.31,53.3c.84,0,1.52-.68,1.52-1.52s-.68-1.52-1.52-1.52-1.52,.68-1.52,1.52,.68,1.52,1.52,1.52Z"/><path class="cls-1" d="M46.03,45.3c.8,0,1.45-.65,1.45-1.45s-.65-1.45-1.45-1.45-1.45,.65-1.45,1.45,.65,1.45,1.45,1.45Z"/><circle class="cls-1" cx="51.76" cy="36.66" r="1.38"/><path class="cls-1" d="M58.4,31.64c.73,0,1.32-.59,1.32-1.32s-.59-1.32-1.32-1.32-1.32,.59-1.32,1.32,.59,1.32,1.32,1.32Z"/><path class="cls-1" d="M65.85,26.16c.69,0,1.25-.56,1.25-1.25s-.56-1.25-1.25-1.25-1.25,.56-1.25,1.25,.56,1.25,1.25,1.25Z"/><path class="cls-1" d="M74.01,21.73c.65,0,1.19-.53,1.19-1.19s-.53-1.19-1.19-1.19-1.19,.53-1.19,1.19,.53,1.19,1.19,1.19Z"/><path class="cls-1" d="M82.79,18.42c.62,0,1.12-.5,1.12-1.12s-.5-1.12-1.12-1.12-1.12,.5-1.12,1.12,.5,1.12,1.12,1.12Z"/><path class="cls-1" d="M92.09,16.34c.58,0,1.05-.47,1.05-1.06s-.47-1.05-1.05-1.05-1.06,.47-1.06,1.05,.47,1.06,1.06,1.06Z"/><path class="cls-1" d="M101.83,15.58c.55,0,.99-.44,.99-.99s-.44-.99-.99-.99-.99,.44-.99,.99,.44,.99,.99,.99Z"/><circle class="cls-1" cx="151.23" cy="107.48" r="3.23"/><path class="cls-1" d="M146.14,118.82c1.74,0,3.15-1.41,3.15-3.15s-1.41-3.15-3.15-3.15-3.15,1.41-3.15,3.15,1.41,3.15,3.15,3.15Z"/><path class="cls-1" d="M139.89,125.75c1.69,0,3.07-1.38,3.07-3.07s-1.38-3.07-3.07-3.07-3.07,1.38-3.07,3.07,1.38,3.07,3.07,3.07Z"/><path class="cls-1" d="M132.68,125.44c-1.65,0-2.99,1.34-2.99,2.99s1.34,2.99,2.99,2.99,2.99-1.34,2.99-2.99-1.34-2.99-2.99-2.99Z"/><path class="cls-1" d="M124.69,129.96c-1.6,0-2.91,1.31-2.91,2.91s1.31,2.91,2.91,2.91,2.91-1.31,2.91-2.91-1.3-2.91-2.91-2.91Z"/><path class="cls-1" d="M116.11,133.1c-1.56,0-2.83,1.27-2.83,2.83s1.27,2.83,2.83,2.83,2.83-1.27,2.83-2.83-1.27-2.83-2.83-2.83Z"/><path class="cls-1" d="M107.13,134.81c-1.52,0-2.75,1.23-2.75,2.75s1.23,2.75,2.75,2.75,2.75-1.23,2.75-2.75-1.23-2.75-2.75-2.75Z"/><path class="cls-1" d="M97.94,135.01c-1.47,0-2.67,1.2-2.67,2.67s1.2,2.67,2.67,2.67,2.67-1.2,2.67-2.67-1.2-2.67-2.67-2.67Z"/><path class="cls-1" d="M88.73,133.66c-1.43,0-2.59,1.16-2.59,2.59s1.16,2.59,2.59,2.59,2.59-1.16,2.59-2.59-1.16-2.59-2.59-2.59Z"/><circle class="cls-1" cx="79.69" cy="133.19" r="2.51"/><path class="cls-1" d="M71.15,126.11c-1.34,0-2.43,1.09-2.43,2.43s1.09,2.43,2.43,2.43,2.43-1.09,2.43-2.43-1.09-2.43-2.43-2.43Z"/><path class="cls-1" d="M63.74,125.01c1.29,0,2.35-1.05,2.35-2.35s-1.05-2.35-2.35-2.35-2.35,1.05-2.35,2.35,1.05,2.35,2.35,2.35Z"/><path class="cls-1" d="M57.56,113.48c-1.25,0-2.27,1.02-2.27,2.27s1.02,2.27,2.27,2.27,2.27-1.02,2.27-2.27-1.02-2.27-2.27-2.27Z"/><path class="cls-1" d="M52.68,110.18c1.21,0,2.19-.98,2.19-2.19s-.98-2.19-2.19-2.19-2.19,.98-2.19,2.19,.98,2.19,2.19,2.19Z"/><path class="cls-1" d="M49.15,101.7c1.16,0,2.11-.95,2.11-2.11s-.95-2.11-2.11-2.11-2.11,.95-2.11,2.11,.95,2.11,2.11,2.11Z"/><circle class="cls-1" cx="47.04" cy="90.73" r="2.03"/><path class="cls-1" d="M46.41,83.53c1.07,0,1.95-.87,1.95-1.95s-.87-1.95-1.95-1.95-1.95,.87-1.95,1.95,.87,1.95,1.95,1.95Z"/><circle class="cls-1" cx="47.32" cy="72.36" r="1.87"/><path class="cls-1" d="M49.83,65.03c.99,0,1.79-.8,1.79-1.79s-.8-1.79-1.79-1.79-1.79,.8-1.79,1.79,.8,1.79,1.79,1.79Z"/><path class="cls-1" d="M52.27,54.45c0,.94,.77,1.71,1.71,1.71s1.71-.77,1.71-1.71-.77-1.71-1.71-1.71-1.71,.77-1.71,1.71Z"/><circle class="cls-1" cx="59.48" cy="46.65" r="1.63"/><circle class="cls-1" cx="66.07" cy="40.05" r="1.55"/><path class="cls-1" d="M73.56,36.2c.81,0,1.47-.66,1.47-1.47s-.66-1.47-1.47-1.47-1.47,.66-1.47,1.47,.66,1.47,1.47,1.47Z"/><path class="cls-1" d="M81.77,32.13c.77,0,1.39-.62,1.39-1.39s-.62-1.39-1.39-1.39-1.39,.62-1.39,1.39,.62,1.39,1.39,1.39Z"/><circle class="cls-1" cx="90.5" cy="28.16" r="1.31"/><circle class="cls-1" cx="99.57" cy="27.02" r="1.23"/><path class="cls-1" d="M108.79,28.56c.63,0,1.15-.52,1.15-1.15s-.52-1.15-1.15-1.15-1.15,.51-1.15,1.15,.52,1.15,1.15,1.15Z"/><circle class="cls-1" cx="117.96" cy="29.38" r="1.07"/><path class="cls-1" d="M126.91,33.98c.55,0,.99-.44,.99-.99s-.44-.99-.99-.99-.99,.44-.99,.99,.44,.99,.99,.99Z"/><circle class="cls-1" cx="114.99" cy="122.72" r="3.23"/><path class="cls-1" d="M105.83,127.76c1.72,0,3.13-1.4,3.13-3.13s-1.4-3.12-3.13-3.12-3.13,1.4-3.13,3.12,1.4,3.13,3.13,3.13Z"/><path class="cls-1" d="M96.77,127.55c1.67,0,3.02-1.36,3.02-3.03s-1.36-3.02-3.02-3.02-3.02,1.36-3.02,3.02,1.36,3.03,3.02,3.03Z"/><path class="cls-1" d="M88.07,119.61c-1.61,0-2.92,1.31-2.92,2.92s1.31,2.92,2.92,2.92,2.92-1.31,2.92-2.92-1.31-2.92-2.92-2.92Z"/><path class="cls-1" d="M80.03,121.61c1.56,0,2.82-1.27,2.82-2.82s-1.27-2.82-2.82-2.82-2.82,1.27-2.82,2.82,1.27,2.82,2.82,2.82Z"/><path class="cls-1" d="M72.91,116.17c1.5,0,2.72-1.22,2.72-2.72s-1.22-2.72-2.72-2.72-2.72,1.22-2.72,2.72,1.22,2.72,2.72,2.72Z"/><path class="cls-1" d="M67.01,104.03c-1.44,0-2.62,1.17-2.62,2.62s1.17,2.62,2.62,2.62,2.62-1.17,2.62-2.62-1.17-2.62-2.62-2.62Z"/><path class="cls-1" d="M62.59,101.05c1.39,0,2.52-1.13,2.52-2.51s-1.13-2.52-2.52-2.52-2.52,1.13-2.52,2.52,1.13,2.51,2.52,2.51Z"/><path class="cls-1" d="M59.99,91.87c1.33,0,2.41-1.08,2.41-2.41s-1.08-2.41-2.41-2.41-2.41,1.08-2.41,2.41,1.08,2.41,2.41,2.41Z"/><path class="cls-1" d="M59.44,82.64c1.27,0,2.31-1.04,2.31-2.31s-1.04-2.31-2.31-2.31-2.31,1.04-2.31,2.31,1.04,2.31,2.31,2.31Z"/><path class="cls-1" d="M60.82,73.69c1.22,0,2.21-.99,2.21-2.21s-.99-2.21-2.21-2.21-2.21,.99-2.21,2.21,.99,2.21,2.21,2.21Z"/><path class="cls-1" d="M66.11,63.19c0-1.16-.95-2.11-2.11-2.11s-2.11,.95-2.11,2.11,.95,2.11,2.11,2.11,2.11-.95,2.11-2.11Z"/><path class="cls-1" d="M68.82,57.74c1.11,0,2.01-.9,2.01-2.01s-.9-2.01-2.01-2.01-2.01,.9-2.01,2.01,.9,2.01,2.01,2.01Z"/><path class="cls-1" d="M75.15,51.3c1.05,0,1.91-.86,1.91-1.91s-.85-1.9-1.91-1.9-1.9,.85-1.9,1.9,.85,1.91,1.9,1.91Z"/><path class="cls-1" d="M82.84,42.65c-.99,0-1.8,.81-1.8,1.8s.81,1.8,1.8,1.8,1.8-.81,1.8-1.8-.81-1.8-1.8-1.8Z"/><path class="cls-1" d="M91.71,39.49c-.94,0-1.7,.76-1.7,1.7s.76,1.7,1.7,1.7,1.7-.76,1.7-1.7-.76-1.7-1.7-1.7Z"/><path class="cls-1" d="M100.86,41.57c.88,0,1.6-.72,1.6-1.6s-.72-1.6-1.6-1.6-1.6,.72-1.6,1.6,.72,1.6,1.6,1.6Z"/><circle class="cls-1" cx="109.84" cy="40.73" r="1.5"/><path class="cls-1" d="M116.95,43.32c0,.77,.63,1.4,1.4,1.4s1.4-.63,1.4-1.4-.63-1.39-1.4-1.39-1.4,.63-1.4,1.39Z"/><path class="cls-1" d="M126.11,48.9c.71,0,1.29-.58,1.29-1.29s-.58-1.29-1.29-1.29-1.29,.58-1.29,1.29,.58,1.29,1.29,1.29Z"/><path class="cls-1" d="M132.86,54.64c.66,0,1.19-.53,1.19-1.19s-.54-1.19-1.19-1.19-1.19,.54-1.19,1.19,.53,1.19,1.19,1.19Z"/><path class="cls-1" d="M138.3,61.8c.6,0,1.09-.49,1.09-1.09s-.49-1.09-1.09-1.09-1.09,.49-1.09,1.09,.49,1.09,1.09,1.09Z"/><path class="cls-1" d="M142.16,70.22c.55,0,.99-.44,.99-.99s-.44-.99-.99-.99-.99,.44-.99,.99,.44,.99,.99,.99Z"/><path class="cls-1" d="M88.24,112.37c1.78,0,3.23-1.45,3.23-3.23s-1.45-3.23-3.23-3.23-3.23,1.45-3.23,3.23,1.45,3.23,3.23,3.23Z"/><path class="cls-1" d="M80.9,100.81c-1.7,0-3.09,1.39-3.09,3.09s1.39,3.09,3.09,3.09,3.09-1.39,3.09-3.09-1.39-3.09-3.09-3.09Z"/><path class="cls-1" d="M75.61,99.93c1.63,0,2.95-1.32,2.95-2.95s-1.32-2.95-2.95-2.95-2.95,1.32-2.95,2.95,1.32,2.95,2.95,2.95Z"/><circle class="cls-1" cx="72.55" cy="88.93" r="2.81"/><path class="cls-1" d="M71.89,82.96c1.47,0,2.67-1.2,2.67-2.67s-1.2-2.67-2.67-2.67-2.67,1.2-2.67,2.67,1.2,2.67,2.67,2.67Z"/><circle class="cls-1" cx="73.83" cy="71.62" r="2.53"/><path class="cls-1" d="M78.36,66.09c1.32,0,2.39-1.07,2.39-2.39s-1.07-2.39-2.39-2.39-2.39,1.07-2.39,2.39,1.07,2.39,2.39,2.39Z"/><path class="cls-1" d="M82.53,57.7c0,1.24,1.01,2.25,2.25,2.25s2.25-1.01,2.25-2.25-1.01-2.25-2.25-2.25-2.25,1.01-2.25,2.25Z"/><circle class="cls-1" cx="92.52" cy="53.88" r="2.11"/><circle class="cls-1" cx="101.02" cy="52.4" r="1.97"/><circle class="cls-1" cx="109.74" cy="53.45" r="1.83"/><path class="cls-1" d="M118.07,55.49c-.93,0-1.69,.76-1.69,1.69s.76,1.69,1.69,1.69,1.69-.76,1.69-1.69-.76-1.69-1.69-1.69Z"/><path class="cls-1" d="M124.75,64.59c.85,0,1.55-.69,1.55-1.55s-.69-1.55-1.55-1.55-1.55,.69-1.55,1.55,.69,1.55,1.55,1.55Z"/><path class="cls-1" d="M129.32,71.8c.78,0,1.41-.63,1.41-1.41s-.63-1.41-1.41-1.41-1.41,.63-1.41,1.41,.63,1.41,1.41,1.41Z"/><path class="cls-1" d="M131.6,77.43c-.7,0-1.27,.57-1.27,1.27s.57,1.27,1.27,1.27,1.27-.57,1.27-1.27-.57-1.27-1.27-1.27Z"/><path class="cls-1" d="M131.41,86.28c-.62,0-1.13,.51-1.13,1.13s.51,1.13,1.13,1.13,1.13-.51,1.13-1.13-.51-1.13-1.13-1.13Z"/><circle class="cls-1" cx="128.57" cy="95.98" r=".99"/></g></g></g></g></svg>