<?xml version="1.0" encoding="UTF-8"?><svg id="Layer_2" xmlns="http://www.w3.org/2000/svg" viewBox="0 0 324.59 324.87"><defs><style>.cls-1{fill:#fff;}</style></defs><g id="Layer_1-2"><path class="cls-1" d="M0,145.05c1.04-4.65,2.23-9.27,3.09-13.96,5.46-29.58,18.75-55.16,38.8-77.48C64.26,28.74,91.67,12.36,124.07,4.51,143.13-.11,162.38-1.14,182.06,1.24c29.93,3.63,56.37,14.87,80.08,33.08,16.59,12.74,30.06,28.27,40.57,46.31,9.76,16.76,16.74,34.68,19.74,53.86,2.48,15.88,2.84,31.78,.91,47.96-3.64,30.6-15.23,57.71-34.32,81.37-24.41,30.26-55.85,49.67-94.26,57.6-14.78,3.05-29.63,4.13-44.5,2.99-30.4-2.33-58.33-12.3-82.97-30.36-32.21-23.6-53.36-54.9-62.93-93.78-1.36-5.53-1.84-11.28-2.86-16.9-.24-1.31-1-2.53-1.53-3.8v-34.53Zm167.83,60.15c5.93-5.62,12.11-11.47,18.4-17.43-3.93-22.03,1.93-40.42,21.06-53.87,10.82-7.61,36.59-9.77,46.81-1.51,.46,6.43,1.56,13.82,1.4,21.19-.54,24.96-22.83,43.78-43.84,43.45-6.29-.1-12.59-.01-17.66-.01-9.19,9.07-17.56,17.34-26.51,26.19-.05,7.19-.79,15.14,.62,23.87,33.69,2.15,65.3,10.01,91.56,32.09,68.76-56.97,72.52-160.21,12.27-222.5C209.64-7.71,104.22-5.8,45.36,64.78-11.7,133.2,3.94,230.53,65.15,278.88c23.64-18.77,50.66-28.63,80.75-30.47,3.6-.22,7.15-1.34,11.05-2.11,0-7.01,.23-13.33-.12-19.61-.14-2.42-.98-5.36-2.58-7.06-7.45-7.93-15.28-15.51-23.03-23.27-19.07,2.13-36.82,1.13-50.41-14.3-13.62-15.47-14.06-32.94-8.94-51.97,16.05-4.71,31.46-5.2,45.62,4.14,19.93,13.14,24.66,32.56,20.72,55.01,6.01,5.91,11.8,11.61,18.42,18.13v-51.2c-53.9-36.61-31.36-93.82,5.42-108.97,18,9.82,31.06,23.66,35.3,44.77,3.45,17.22-.56,32.55-11.53,45.87-5.4,6.55-11.99,12.13-18.02,18.13v49.22Zm-6.04-59.19c17.78-11.62,28.86-27.13,26.23-49.37-2.02-17.09-12.28-28.94-26.33-37.56-33.39,17.89-37.97,65.32,.1,86.93Zm-34.73,39.9c5.33-13,1.6-27.51-9.64-38.5-10.74-10.5-24.64-13.32-37.53-7.62-1.91,14.21-.59,27.63,10.77,37.93,10.3,9.33,22.53,11.47,36.4,8.2Zm117.57-46.67c-17.06-5.11-31.12-.6-42.21,13.18-4.47,5.56-6.4,12.18-7.04,19.02-.46,4.94-1.41,10.36,2.65,14.67,13.75,2.97,26.22,.86,36.59-9.03,10.84-10.33,11.95-23.48,10.02-37.84Z"/></g></svg>