<?xml version="1.0" encoding="UTF-8"?><svg id="Layer_2" xmlns="http://www.w3.org/2000/svg" viewBox="0 0 400 48.93"><defs><style>.cls-1,.cls-2{fill:#0079be;}.cls-3{fill:#f4f4f4;}.cls-4{fill:#0e4595;}.cls-5{fill:#2557d6;}.cls-6{fill:#f47216;}.cls-6,.cls-7,.cls-8,.cls-9,.cls-10,.cls-11,.cls-12,.cls-2,.cls-13{fill-rule:evenodd;}.cls-7{fill:#f79f1a;}.cls-8{fill:#4d4d4d;}.cls-9{fill:#ff5f01;}.cls-10{fill:#f2ae14;}.cls-11{fill:#fff;}.cls-12{fill:#ea001b;}</style></defs><g id="Layer_1-2"><g><g id="Page-1"><g id="amex"><rect id="Rectangle-1" class="cls-5" x="161.91" width="77.84" height="48.88" rx="4.15" ry="4.15"/><path id="Path" class="cls-11" d="M161.91,22.96h3.74l.84-2.02h1.89l.84,2.02h7.36v-1.55l.66,1.55h3.82l.66-1.58v1.57h18.28v-3.32s.35,0,.35,0c.25,0,.32,.03,.32,.44v2.89h9.46v-.77c.76,.41,1.95,.77,3.51,.77h3.98l.85-2.02h1.89l.83,2.02h7.67v-1.92l1.16,1.92h6.14V10.24h-6.08v1.5l-.85-1.5h-6.24v1.5l-.78-1.5h-8.43c-1.41,0-2.65,.2-3.65,.74v-.74h-5.81v.74c-.64-.56-1.51-.74-2.47-.74h-21.24l-1.43,3.28-1.46-3.28h-6.69v1.5l-.74-1.5h-5.71l-2.65,6.05v6.67h0Zm23.6-1.83h-2.24v-7.14s-3.18,7.14-3.18,7.14h-1.92l-3.18-7.15v7.15h-4.45l-.84-2.03h-4.56l-.85,2.03h-2.38l3.92-9.12h3.25l3.72,8.63V12.01h3.57l2.86,6.18,2.63-6.18h3.64v9.12h0Zm-16.57-3.93l-1.5-3.63-1.49,3.63h2.99Zm25.5,3.93h-7.31V12.01h7.31v1.9h-5.12v1.64h5v1.87h-5v1.82h5.12v1.89h0Zm10.3-6.66c0,1.45-.97,2.2-1.54,2.43,.48,.18,.89,.5,1.08,.77,.31,.45,.36,.86,.36,1.67v1.79h-2.21v-1.15c0-.55,.04-1.34-.35-1.78-.32-.32-.81-.39-1.59-.39h-2.35v3.32h-2.19V12.01h5.03c1.12,0,1.94,.03,2.65,.44,.69,.41,1.11,1,1.11,2.02h0Zm-2.77,1.35c-.3,.18-.66,.19-1.08,.19h-2.66v-2.02h2.69c.38,0,.78,.02,1.04,.16,.28,.13,.46,.42,.46,.81s-.17,.72-.45,.87h0Zm6.28,5.31h-2.23V12.01h2.23v9.12h0Zm25.92,0h-3.1l-4.15-6.84v6.84h-4.46l-.85-2.03h-4.55l-.83,2.03h-2.56c-1.06,0-2.41-.23-3.17-1.01-.77-.77-1.17-1.82-1.17-3.48,0-1.35,.24-2.59,1.18-3.56,.71-.73,1.82-1.06,3.32-1.06h2.12v1.95h-2.07c-.8,0-1.25,.12-1.68,.54-.37,.38-.63,1.11-.63,2.07s.19,1.68,.6,2.14c.34,.36,.95,.47,1.53,.47h.98l3.08-7.17h3.28l3.7,8.62V12.01h3.33l3.85,6.35v-6.35h2.24v9.12h0Zm-13.3-3.93l-1.51-3.63-1.51,3.63h3.02Z"/><path id="path13" class="cls-11" d="M239.75,35.68c-.53,.77-1.57,1.17-2.97,1.17h-4.23v-1.96h4.21c.42,0,.71-.05,.89-.23,.15-.14,.26-.35,.26-.59,0-.27-.11-.48-.27-.6-.16-.14-.39-.2-.77-.2-2.05-.07-4.62,.06-4.62-2.82,0-1.32,.84-2.71,3.14-2.71h4.36v-1.81h-4.05c-1.22,0-2.11,.29-2.74,.74v-.74h-5.99c-.96,0-2.08,.24-2.61,.74v-.74h-10.7v.74c-.85-.61-2.29-.74-2.95-.74h-7.06v.74c-.67-.65-2.17-.74-3.08-.74h-7.9l-1.81,1.95-1.69-1.95h-11.8v12.72h11.57l1.86-1.98,1.75,1.98h7.13s0-2.99,0-2.99h.7c.95,.01,2.06-.02,3.05-.45v3.43h5.88v-3.32h.28c.36,0,.4,.01,.4,.38v2.94h17.88c1.13,0,2.32-.29,2.98-.81v.81h5.67c1.18,0,2.33-.16,3.21-.59v-2.37h0Zm-35.44-4.89c0,2.53-1.9,3.06-3.81,3.06h-2.73v3.06h-4.25l-2.69-3.02-2.8,3.02h-8.67v-9.12h8.8l2.69,2.99,2.78-2.99h6.99c1.74,0,3.69,.48,3.69,3h0Zm-17.4,4.2h-5.38v-1.81h4.8v-1.86h-4.8v-1.66h5.49l2.39,2.66-2.5,2.68h0Zm8.67,1.04l-3.36-3.71,3.36-3.6v7.31h0Zm4.97-4.05h-2.83v-2.32h2.85c.79,0,1.34,.32,1.34,1.12s-.52,1.2-1.36,1.2h0Zm14.82-4.19h7.3v1.89h-5.12v1.66h5v1.86h-5v1.81h5.12v1.9h-7.3v-9.12h0Zm-2.81,4.88c.49,.18,.89,.5,1.07,.77,.31,.45,.35,.86,.36,1.66v1.81h-2.2v-1.14c0-.55,.05-1.36-.35-1.78-.32-.33-.81-.4-1.61-.4h-2.34v3.33h-2.2v-9.12h5.05c1.11,0,1.91,.05,2.63,.43,.69,.42,1.12,.98,1.12,2.02,0,1.46-.98,2.2-1.55,2.43h0Zm-1.24-1.15c-.29,.17-.65,.19-1.08,.19h-2.66v-2.05h2.69c.39,0,.78,0,1.04,.16,.28,.15,.45,.43,.45,.82s-.17,.7-.45,.88h0Zm19.75,.58c.43,.44,.65,.99,.65,1.93,0,1.96-1.23,2.88-3.44,2.88h-4.26v-1.96h4.25c.42,0,.71-.05,.89-.23,.15-.14,.26-.35,.26-.59,0-.27-.12-.48-.27-.6-.17-.14-.4-.2-.78-.2-2.05-.07-4.61,.06-4.61-2.82,0-1.32,.83-2.71,3.13-2.71h4.39v1.94h-4.01c-.4,0-.66,.01-.88,.16-.24,.15-.33,.37-.33,.66,0,.34,.2,.58,.48,.68,.23,.08,.48,.1,.85,.1l1.18,.03c1.19,.03,2,.23,2.5,.73h0Zm8.68-2.44h-3.99c-.4,0-.66,.01-.89,.16-.23,.15-.32,.37-.32,.66,0,.34,.19,.58,.48,.68,.23,.08,.48,.1,.84,.1l1.19,.03c1.2,.03,2,.23,2.48,.73,.09,.07,.14,.15,.2,.23v-2.59h0Z"/></g></g><g id="Page-1-2"><g id="diners"><rect id="rectangle" class="cls-1" x="322.16" width="77.84" height="48.88" rx="4.15" ry="4.15"/><path id="Shape-path" class="cls-11" d="M382.87,24.7c0-10.32-8.61-17.45-18.05-17.45h-8.12c-9.55,0-17.41,7.13-17.41,17.45,0,9.44,7.86,17.19,17.41,17.15h8.12c9.44,.05,18.05-7.71,18.05-17.15h0Z"/><path id="Shape-path-2" class="cls-2" d="M356.75,8.71c-8.73,0-15.8,7.09-15.8,15.84,0,8.75,7.07,15.83,15.8,15.83,8.73,0,15.8-7.09,15.8-15.83,0-8.75-7.07-15.83-15.8-15.84h0Z"/><path id="Path-2" class="cls-11" d="M346.76,24.5c0-4.27,2.67-7.92,6.43-9.37v18.73c-3.76-1.45-6.42-5.09-6.43-9.36Zm13.6,9.37V15.14c3.76,1.44,6.43,5.09,6.43,9.37,0,4.28-2.67,7.92-6.43,9.37Z"/></g></g><g id="Page-1-3"><g id="discover"><path id="rectangle-2" class="cls-8" d="M248.24,0c-2.97,0-5.37,2.41-5.37,5.37V43.56c0,2.97,2.4,5.37,5.37,5.37h65.44c2.97,0,5.37-2.41,5.37-5.37V5.37c0-2.97-2.4-5.37-5.37-5.37h-65.44Z"/><path class="cls-11" d="M283.41,15.74c3.02,0,5.47,2.3,5.47,5.15h0c0,2.85-2.45,5.15-5.47,5.15s-5.47-2.31-5.47-5.15h0c0-2.85,2.45-5.15,5.47-5.15h0Zm-8.59,.07c.86,0,1.59,.17,2.47,.59v2.22c-.83-.77-1.56-1.09-2.52-1.09-1.88,0-3.36,1.47-3.36,3.33,0,1.96,1.43,3.34,3.45,3.34,.91,0,1.62-.3,2.42-1.06v2.22c-.91,.4-1.65,.56-2.52,.56-3.05,0-5.43-2.21-5.43-5.05s2.44-5.07,5.48-5.07h0Zm-9.48,.06c1.13,0,2.16,.36,3.02,1.07l-1.05,1.29c-.52-.55-1.02-.78-1.62-.78-.86,0-1.49,.46-1.49,1.07,0,.52,.35,.8,1.56,1.22,2.28,.79,2.96,1.48,2.96,3.02,0,1.87-1.46,3.18-3.55,3.18-1.53,0-2.64-.57-3.56-1.84l1.3-1.17c.46,.84,1.23,1.29,2.19,1.29,.89,0,1.56-.58,1.56-1.37,0-.41-.2-.76-.6-1-.2-.12-.6-.29-1.39-.55-1.88-.64-2.53-1.32-2.53-2.65,0-1.58,1.39-2.77,3.21-2.77h0Zm22.92,.17h2.19l2.74,6.5,2.78-6.5h2.17l-4.44,9.93h-1.08l-4.36-9.93h0Zm-38.81,.01h2.94c3.25,0,5.52,1.99,5.52,4.85,0,1.42-.69,2.8-1.87,3.72-.99,.77-2.11,1.12-3.67,1.12h-2.93v-9.68h0Zm9.39,0h2.01v9.68h-2.01v-9.68h0Zm40.21,0h5.69v1.64h-3.68v2.15h3.55v1.64h-3.55v2.61h3.68v1.64h-5.69v-9.68h0Zm7.02,0h2.97c2.31,0,3.64,1.05,3.64,2.86,0,1.48-.83,2.46-2.34,2.74l3.24,4.08h-2.47l-2.78-3.89h-.26v3.89h-2v-9.68h0Zm2,1.53v2.93h.59c1.28,0,1.96-.52,1.96-1.5s-.68-1.44-1.93-1.44h-.62Zm-56.62,.12v6.4h.54c1.3,0,2.11-.23,2.75-.77,.69-.58,1.11-1.51,1.11-2.44s-.42-1.83-1.11-2.41c-.66-.56-1.45-.78-2.75-.78h-.54Z"/><path id="Shape-9" class="cls-6" d="M319.04,28.16c-2.54,1.79-21.59,14.58-54.57,20.77h49.2c2.97,0,5.37-2.41,5.37-5.37v-15.39h0Z"/></g></g><g id="Page-1-4"><g id="mastercard"><rect id="Rectangle-1-2" class="cls-3" x="80.96" width="77.84" height="48.88" rx="4.15" ry="4.15"/><g id="mark"><g id="text"><path id="path3078" class="cls-13" d="M145.16,43.81c-.13,0-.23,.04-.31,.13-.08,.08-.12,.18-.13,.3,0,.12,.05,.22,.13,.3,.08,.08,.19,.12,.31,.13,.12,0,.23-.05,.31-.13,.08-.08,.12-.18,.13-.3,0-.12-.05-.22-.13-.3-.08-.08-.18-.12-.31-.13h0Zm0,.76c-.1,0-.18-.03-.24-.1-.06-.06-.09-.14-.1-.24,0-.09,.03-.17,.1-.24,.06-.06,.14-.09,.24-.1,.09,0,.17,.03,.23,.1,.06,.06,.09,.14,.1,.24,0,.09-.03,.17-.1,.24-.06,.06-.14,.1-.23,.1h0Zm.03-.53h-.18v.4h.08v-.15h.04l.12,.15h.1l-.13-.15s.07-.02,.09-.04c.02-.02,.03-.05,.03-.08,0-.04-.01-.07-.04-.09-.03-.02-.07-.03-.12-.03h0Zm0,.07s.04,0,.05,.01c.01,0,.02,.02,.02,.04,0,.02,0,.03-.02,.04-.01,0-.03,.01-.05,.01h-.1v-.11h.1Z"/><path id="path3006" class="cls-13" d="M97.58,44.4h-.91v-4.24h.89v.52s.78-.63,1.25-.62c.9,.02,1.44,.78,1.44,.78,0,0,.44-.78,1.43-.78,1.46,0,1.67,1.34,1.67,1.34v3h-.87v-2.64s0-.8-.94-.8-1.07,.8-1.07,.8v2.64h-.91v-2.66s-.09-.84-.91-.84c-1.07,0-1.09,.86-1.09,.86l.02,2.66h0Z"/><path id="path3008" class="cls-13" d="M125.22,40.05c-.46,0-1.25,.62-1.25,.62v-.52h-.89v4.24h.91l-.02-2.66s.02-.85,1.09-.85c.2,0,.35,.05,.47,.12h0s.3-.83,.3-.83c-.18-.08-.38-.13-.61-.13h0Z"/><path id="path3013" class="cls-13" d="M138.02,40.05c-.46,0-1.25,.62-1.25,.62v-.52h-.89v4.24h.91l-.02-2.66s.02-.85,1.09-.85c.2,0,.35,.05,.47,.12h0s.3-.83,.3-.83c-.18-.08-.38-.13-.61-.13h0Z"/><path id="path3015" class="cls-13" d="M106.29,40.03c-1.36,0-2.08,1.22-2.08,2.24,0,1.05,.82,2.26,2.12,2.26,.76,0,1.38-.56,1.38-.56v.43s.89,0,.89,0v-4.25h-.9v.54s-.59-.66-1.42-.66h0Zm.17,.86c.73,0,1.32,.64,1.32,1.42s-.59,1.42-1.32,1.42-1.32-.63-1.32-1.42,.59-1.42,1.32-1.42h0Z"/><path id="path3020" class="cls-13" d="M132.38,40.03c-1.36,0-2.08,1.22-2.08,2.24,0,1.05,.82,2.26,2.12,2.26,.76,0,1.38-.56,1.38-.56v.43s.89,0,.89,0v-4.25h-.9v.54s-.59-.66-1.42-.66h0Zm.17,.86c.73,0,1.32,.64,1.32,1.42s-.59,1.42-1.32,1.42-1.32-.63-1.32-1.42,.59-1.42,1.32-1.42h0Z"/><path id="path3022" class="cls-13" d="M140.97,40.03c-1.36,0-2.08,1.22-2.08,2.24,0,1.05,.82,2.26,2.12,2.26,.76,0,1.38-.56,1.38-.56v.43s.89,0,.89,0v-5.92h-.9v2.21s-.59-.66-1.42-.66h0Zm.17,.86c.73,0,1.32,.64,1.32,1.42s-.59,1.42-1.32,1.42-1.32-.63-1.32-1.42,.59-1.42,1.32-1.42h0Z"/><path id="path3024" class="cls-13" d="M111.34,44.54c-.93,0-1.78-.57-1.78-.57l.39-.61s.81,.37,1.39,.37c.38,0,1.01-.12,1.02-.5,0-.4-1.06-.52-1.06-.52,0,0-1.59-.02-1.59-1.34,0-.83,.8-1.35,1.82-1.35,.59,0,1.69,.52,1.69,.52l-.45,.7s-.85-.34-1.3-.36c-.38-.01-.84,.17-.84,.5,0,.9,2.65-.07,2.65,1.75,0,1.19-1.08,1.41-1.94,1.41h0Z"/><path id="path3026" class="cls-13" d="M114.76,38.92v1.23h-.79v.89h.79v2.13s-.07,1.44,1.48,1.44c.43,0,1.27-.32,1.27-.32l-.36-.93s-.33,.28-.71,.28c-.72-.02-.7-.48-.7-.48v-2.13h1.48v-.89h-1.48v-1.23h-.98Z"/><path id="path3034" class="cls-13" d="M120.14,40.08c-1.46,0-2.19,1.2-2.18,2.24,0,1.07,.66,2.28,2.27,2.28,.69,0,1.65-.6,1.65-.6l-.41-.72s-.66,.47-1.24,.47c-1.16,0-1.23-1.13-1.23-1.13h3.1s.23-2.53-1.95-2.53h0Zm-.13,.83s.07,0,.11,0c1.09,0,1.08,1.03,1.08,1.03h-2.21s-.05-.97,1.01-1.03h0Z"/><path id="path3037" class="cls-13" d="M129.36,43.27l.42,.83s-.66,.43-1.4,.43c-1.53,0-2.38-1.15-2.38-2.24,0-1.71,1.35-2.22,2.27-2.22,.83,0,1.55,.48,1.55,.48l-.47,.83s-.28-.44-1.11-.44-1.26,.71-1.26,1.39c0,.76,.51,1.4,1.27,1.4,.6,0,1.11-.45,1.11-.45h0Z"/></g><path id="path3057" class="cls-7" d="M145.77,28.92v-.57h-.15l-.17,.39-.17-.39h-.15v.57h.11v-.43l.16,.37h.11l.16-.37v.43h.11Zm-.95,0v-.48h.19v-.1h-.49v.1h.19v.48h.1Z"/><path id="path2997" class="cls-7" d="M145.8,20.4c0,8.87-7.17,16.05-16.01,16.05s-16.01-7.19-16.01-16.05,7.17-16.05,16.01-16.05,16.01,7.19,16.01,16.05h0Z"/><path id="path2995" class="cls-12" d="M126.05,20.4c0,8.87-7.17,16.05-16.01,16.05s-16.01-7.19-16.01-16.05,7.17-16.05,16.01-16.05,16.01,7.19,16.01,16.05h0Z"/><path id="path2999" class="cls-9" d="M119.91,7.76c-3.74,2.94-6.13,7.51-6.13,12.64s2.4,9.7,6.13,12.64c3.74-2.94,6.13-7.51,6.13-12.64s-2.4-9.7-6.13-12.64h0Z"/></g></g></g><g id="Page-1-5"><g id="visa"><rect id="Rectangle-1-3" class="cls-4" width="77.84" height="48.88" rx="4.15" ry="4.15"/><path id="Shape" class="cls-11" d="M28.87,34.69l3.46-20.32h5.54l-3.46,20.32h-5.54Z"/><path id="path13-2" class="cls-11" d="M54.42,14.81c-1.1-.41-2.82-.85-4.96-.85-5.47,0-9.33,2.76-9.36,6.71-.03,2.92,2.75,4.55,4.85,5.52,2.16,1,2.88,1.63,2.87,2.52-.01,1.36-1.72,1.98-3.31,1.98-2.22,0-3.39-.31-5.21-1.07l-.71-.32-.78,4.55c1.29,.57,3.69,1.06,6.17,1.08,5.82,0,9.6-2.72,9.64-6.94,.02-2.31-1.45-4.07-4.65-5.52-1.94-.94-3.12-1.57-3.11-2.52,0-.84,1-1.75,3.17-1.75,1.81-.03,3.12,.37,4.14,.78l.5,.23,.75-4.4"/><path id="Path-3" class="cls-11" d="M68.67,14.37h-4.28c-1.33,0-2.32,.36-2.9,1.68l-8.22,18.62h5.82s.95-2.5,1.17-3.05c.64,0,6.28,0,7.09,0,.17,.71,.67,3.04,.67,3.04h5.14l-4.48-20.31h0Zm-6.79,13.12c.46-1.17,2.21-5.68,2.21-5.68-.03,.05,.45-1.18,.73-1.94l.37,1.75s1.06,4.85,1.28,5.87h-4.6Z"/><path id="path16" class="cls-11" d="M24.17,14.37l-5.42,13.86-.58-2.82c-1.01-3.25-4.15-6.76-7.67-8.52l4.96,17.77h5.86S30.04,14.37,30.04,14.37h-5.87"/><path id="path18" class="cls-10" d="M13.69,14.37H4.76l-.07,.42c6.95,1.68,11.54,5.75,13.45,10.63l-1.94-9.34c-.34-1.29-1.31-1.67-2.51-1.72"/></g></g></g></g></svg>