<?xml version="1.0" encoding="UTF-8"?><svg id="Layer_2" xmlns="http://www.w3.org/2000/svg" xmlns:xlink="http://www.w3.org/1999/xlink" viewBox="0 0 938.59 1244.45"><defs><style>.cls-1{fill:none;}.cls-2{clip-path:url(#clippath);}.cls-3{fill:#a4a3a3;}.cls-4{opacity:.24;}</style><clipPath id="clippath"><rect class="cls-1" width="938.59" height="1244.45"/></clipPath></defs><g id="Layer_1-2"><g class="cls-2"><g class="cls-4"><circle class="cls-3" cx="50.59" cy="854.22" r="24.77"/><path class="cls-3" d="M43.86,803.99c12.99-3.16,21-16.31,17.84-29.31-3.16-12.99-16.31-21-29.3-17.84s-21.01,16.31-17.86,29.3c3.16,13.01,16.31,21.01,29.32,17.85Z"/><path class="cls-3" d="M41.91,730.49c12.72-3.09,20.56-15.97,17.46-28.7s-15.97-20.57-28.69-17.48c-12.73,3.09-20.57,15.97-17.48,28.7,3.09,12.73,15.97,20.57,28.7,17.48Z"/><path class="cls-3" d="M50.03,658.65c12.46-3.03,20.14-15.63,17.11-28.09s-15.63-20.13-28.09-17.1c-12.46,3.03-20.13,15.63-17.1,28.08,3.03,12.46,15.63,20.13,28.08,17.1Z"/><path class="cls-3" d="M67.72,589.39c12.19-2.96,19.69-15.29,16.73-27.48-2.96-12.18-15.28-19.69-27.47-16.73-12.19,2.96-19.7,15.29-16.74,27.47s15.29,19.7,27.48,16.74Z"/><path class="cls-3" d="M94.42,523.58c11.92-2.9,19.25-14.94,16.35-26.87s-14.95-19.26-26.86-16.36-19.26,14.95-16.36,26.87,14.95,19.26,26.87,16.36Z"/><path class="cls-3" d="M129.57,462.12c11.65-2.83,18.82-14.6,15.99-26.25-2.83-11.65-14.61-18.82-26.26-15.98s-18.82,14.6-15.99,26.25c2.83,11.65,14.61,18.82,26.25,15.99Z"/><path class="cls-3" d="M172.66,405.89c11.37-2.76,18.38-14.28,15.61-25.65s-14.27-18.37-25.64-15.61c-11.37,2.76-18.38,14.26-15.62,25.64,2.76,11.37,14.27,18.39,25.65,15.62Z"/><circle class="cls-3" cx="218.23" cy="335.63" r="20.73"/><path class="cls-3" d="M280.44,312.68c10.83-2.63,17.51-13.59,14.87-24.43-2.63-10.83-13.59-17.5-24.43-14.87-10.83,2.63-17.5,13.59-14.87,24.42,2.63,10.84,13.59,17.52,24.42,14.88Z"/><path class="cls-3" d="M344.05,277.46c10.57-2.57,17.07-13.25,14.51-23.81-2.57-10.57-13.25-17.07-23.82-14.5-10.56,2.57-17.07,13.25-14.5,23.82,2.56,10.55,13.25,17.06,23.81,14.49Z"/><circle class="cls-3" cx="408.89" cy="232.39" r="19.21"/><path class="cls-3" d="M486.9,234.51c10.02-2.44,16.2-12.57,13.76-22.6-2.43-10.02-12.57-16.19-22.59-13.75-10.02,2.43-16.19,12.57-13.75,22.59,2.44,10.03,12.57,16.2,22.59,13.77Z"/><path class="cls-3" d="M560.16,228.7c9.75-2.37,15.76-12.23,13.39-21.99-2.37-9.74-12.23-15.75-21.98-13.38s-15.75,12.23-13.39,21.97c2.37,9.76,12.23,15.76,21.98,13.39Z"/><path class="cls-3" d="M632.04,233.16c9.48-2.3,15.32-11.89,13.01-21.37s-11.9-15.33-21.37-13.03c-9.48,2.3-15.32,11.9-13.01,21.38s11.89,15.32,21.37,13.01Z"/><ellipse class="cls-3" cx="697.58" cy="230.65" rx="17.19" ry="17.18" transform="translate(-34.74 171.27) rotate(-13.66)"/><circle class="cls-3" cx="764.15" cy="254.52" r="16.69"/><path class="cls-3" d="M830.49,302.76c8.67-2.11,14-10.88,11.9-19.54s-10.87-14.02-19.54-11.91c-8.67,2.11-14,10.88-11.9,19.55,2.11,8.66,10.87,14,19.54,11.9Z"/><ellipse class="cls-3" cx="884.25" cy="327.66" rx="15.67" ry="15.67" transform="translate(-52.37 218.1) rotate(-13.66)"/><path class="cls-3" d="M939.6,390.57c8.13-1.98,13.14-10.18,11.16-18.31-1.98-8.13-10.2-13.13-18.32-11.16s-13.13,10.2-11.16,18.32c1.98,8.13,10.19,13.12,18.32,11.14Z"/><path class="cls-3" d="M926.21,1085.39c-5.15,1.25-8.32,6.46-7.06,11.61,1.25,5.14,6.45,8.31,11.6,7.06s8.32-6.46,7.07-11.6c-1.25-5.15-6.46-8.32-11.61-7.07Z"/><path class="cls-3" d="M873.41,1133.26c-4.88,1.19-7.89,6.12-6.7,11,1.19,4.88,6.12,7.88,11,6.69,4.88-1.19,7.88-6.11,6.69-10.99-1.19-4.88-6.11-7.88-10.99-6.69Z"/><path class="cls-3" d="M813.93,1173.82c-4.6,1.12-7.44,5.79-6.32,10.39s5.77,7.44,10.38,6.32,7.45-5.77,6.33-10.38-5.78-7.45-10.39-6.33Z"/><path class="cls-3" d="M748.34,1206.21c-4.33,1.05-7,5.45-5.95,9.78,1.05,4.33,5.44,7,9.77,5.94s7.01-5.43,5.96-9.76c-1.05-4.33-5.44-7.01-9.78-5.95Z"/><path class="cls-3" d="M677.17,1229.5c-4.06,.99-6.57,5.09-5.58,9.16,.99,4.07,5.1,6.57,9.16,5.58s6.57-5.09,5.59-9.16-5.1-6.57-9.17-5.58Z"/><circle class="cls-3" cx="142.33" cy="633.86" r="24.77"/><path class="cls-3" d="M159.75,540.06c-12.94,3.14-20.91,16.23-17.77,29.17,3.15,12.95,16.24,20.92,29.18,17.77,12.94-3.14,20.91-16.23,17.77-29.18-3.14-12.94-16.24-20.91-29.18-17.76Z"/><path class="cls-3" d="M193.78,477.12c-12.61,3.07-20.38,15.81-17.32,28.43,3.07,12.61,15.82,20.39,28.43,17.32,12.61-3.07,20.38-15.83,17.31-28.44-3.07-12.61-15.82-20.37-28.43-17.31Z"/><path class="cls-3" d="M248.1,466.32c12.28-2.98,19.84-15.41,16.86-27.69-2.99-12.29-15.41-19.85-27.69-16.87s-19.85,15.41-16.86,27.69,15.41,19.85,27.69,16.86Z"/><path class="cls-3" d="M299.48,418.17c11.96-2.91,19.32-15,16.42-26.95-2.9-11.95-15-19.31-26.96-16.41s-19.31,15-16.41,26.95c2.9,11.95,14.99,19.32,26.95,16.41Z"/><path class="cls-3" d="M357.74,379.21c11.63-2.83,18.79-14.58,15.97-26.22-2.83-11.64-14.59-18.79-26.22-15.97-11.63,2.83-18.79,14.58-15.96,26.22s14.58,18.79,26.21,15.97Z"/><path class="cls-3" d="M421.58,350.23c11.3-2.75,18.26-14.16,15.52-25.46s-14.17-18.26-25.47-15.51c-11.3,2.75-18.25,14.18-15.51,25.47,2.75,11.3,14.17,18.25,25.46,15.5Z"/><path class="cls-3" d="M489.72,332.05c10.97-2.67,17.72-13.76,15.06-24.73-2.67-10.97-13.76-17.72-24.73-15.06-10.97,2.67-17.73,13.76-15.06,24.73,2.67,10.97,13.76,17.72,24.73,15.06Z"/><path class="cls-3" d="M560.84,325.46c10.64-2.59,17.2-13.34,14.61-23.98-2.59-10.64-13.34-17.19-23.99-14.6-10.64,2.59-17.19,13.34-14.6,23.98s13.34,17.19,23.98,14.6Z"/><ellipse class="cls-3" cx="629.12" cy="312.56" rx="19.24" ry="19.25" transform="translate(-56.02 157.42) rotate(-13.66)"/><path class="cls-3" d="M705.6,349.84c9.99-2.43,16.13-12.53,13.71-22.51-2.43-9.98-12.52-16.12-22.5-13.69-9.99,2.43-16.13,12.51-13.71,22.49,2.43,9.98,12.52,16.13,22.51,13.71Z"/><path class="cls-3" d="M762.83,344.68c-9.65,2.35-15.6,12.11-13.25,21.76s12.11,15.6,21.76,13.25,15.6-12.11,13.26-21.76-12.11-15.6-21.77-13.25Z"/><path class="cls-3" d="M829.76,419.44c9.33-2.27,15.07-11.7,12.8-21.03-2.27-9.33-11.69-15.06-21.02-12.8-9.33,2.27-15.07,11.69-12.8,21.02,2.27,9.33,11.7,15.08,21.02,12.81Z"/><path class="cls-3" d="M872.13,435.15c-9,2.19-14.54,11.28-12.35,20.28,2.19,9,11.28,14.54,20.28,12.35,8.99-2.19,14.53-11.28,12.35-20.28-2.19-9-11.28-14.54-20.28-12.35Z"/><path class="cls-3" d="M913.8,492c-8.67,2.11-14.01,10.88-11.9,19.54s10.88,14,19.55,11.9c8.67-2.11,14-10.88,11.9-19.54s-10.87-14-19.54-11.9Z"/><ellipse class="cls-3" cx="949.42" cy="569.99" rx="15.57" ry="15.56" transform="translate(-107.76 240.35) rotate(-13.66)"/><circle class="cls-3" cx="936.58" cy="921.15" r="12.5"/><circle class="cls-3" cx="899.4" cy="982.26" r="11.88"/><path class="cls-3" d="M850.51,1024.54c-6.03,1.47-9.75,7.56-8.28,13.6s7.57,9.76,13.61,8.3,9.76-7.58,8.29-13.62-7.57-9.75-13.61-8.28Z"/><path class="cls-3" d="M796.7,1069.73c-5.71,1.39-9.23,7.16-7.84,12.86,1.39,5.71,7.16,9.23,12.87,7.84s9.22-7.16,7.83-12.87c-1.39-5.7-7.16-9.22-12.86-7.83Z"/><circle class="cls-3" cx="738.81" cy="1115.2" r="10.04"/><ellipse class="cls-3" cx="673.25" cy="1140.07" rx="9.43" ry="9.42" transform="translate(-250.2 191.25) rotate(-13.66)"/><path class="cls-3" d="M601.75,1145.32c-4.72,1.15-7.63,5.93-6.48,10.65s5.92,7.62,10.64,6.48c4.73-1.15,7.64-5.92,6.49-10.64-1.15-4.72-5.92-7.64-10.65-6.49Z"/><circle class="cls-3" cx="531.85" cy="1155.83" r="8.2"/><path class="cls-3" d="M456.8,1137.75c-4.06,.99-6.57,5.09-5.58,9.16,.99,4.07,5.1,6.58,9.16,5.59s6.57-5.11,5.58-9.18c-.99-4.07-5.1-6.57-9.17-5.58Z"/><circle class="cls-3" cx="384.87" cy="454.55" r="24.77"/><path class="cls-3" d="M444.01,400.38c-12.85,3.12-20.76,16.13-17.64,28.97s16.12,20.76,28.97,17.63c12.86-3.12,20.77-16.11,17.65-28.96s-16.12-20.77-28.98-17.64Z"/><path class="cls-3" d="M512,385.54c-12.43,3.02-20.09,15.6-17.07,28.03,3.02,12.43,15.59,20.08,28.03,17.06,12.43-3.02,20.09-15.59,17.07-28.02-3.02-12.43-15.6-20.1-28.03-17.07Z"/><path class="cls-3" d="M591.21,429.01c12.01-2.92,19.42-15.07,16.5-27.08-2.92-12.01-15.07-19.42-27.09-16.5-12.01,2.92-19.41,15.08-16.49,27.09,2.92,12.01,15.07,19.41,27.09,16.49Z"/><path class="cls-3" d="M647.56,399.48c-11.6,2.82-18.74,14.56-15.92,26.15,2.82,11.6,14.55,18.73,26.14,15.92,11.6-2.82,18.74-14.54,15.92-26.14-2.82-11.6-14.55-18.75-26.15-15.93Z"/><path class="cls-3" d="M710.46,427.17c-11.18,2.72-18.06,14.02-15.34,25.2,2.72,11.18,14.02,18.06,25.2,15.34,11.18-2.72,18.07-14.02,15.35-25.2-2.72-11.18-14.03-18.06-25.2-15.34Z"/><path class="cls-3" d="M776.47,506.95c10.76-2.62,17.39-13.5,14.78-24.26-2.62-10.76-13.5-17.39-24.26-14.77-10.76,2.62-17.39,13.5-14.77,24.26,2.62,10.76,13.5,17.39,24.26,14.77Z"/><path class="cls-3" d="M814.81,521.19c-10.34,2.51-16.71,12.97-14.2,23.3,2.51,10.34,12.97,16.71,23.31,14.2,10.34-2.51,16.71-12.97,14.2-23.32-2.51-10.33-12.97-16.7-23.31-14.19Z"/><path class="cls-3" d="M850.84,584.89c-9.92,2.41-16.03,12.45-13.62,22.37,2.41,9.91,12.45,16.03,22.37,13.61,9.92-2.41,16.03-12.45,13.62-22.36-2.41-9.93-12.45-16.04-22.37-13.63Z"/><path class="cls-3" d="M871.64,652.71c-9.5,2.31-15.36,11.92-13.05,21.43,2.31,9.5,11.92,15.35,21.43,13.04,9.5-2.31,15.36-11.92,13.05-21.42s-11.93-15.36-21.43-13.06Z"/><path class="cls-3" d="M877.55,721.96c-9.09,2.21-14.68,11.4-12.48,20.48,2.21,9.08,11.4,14.68,20.49,12.47,9.09-2.21,14.68-11.4,12.47-20.48-2.21-9.08-11.39-14.68-20.48-12.47Z"/><path class="cls-3" d="M857.19,809.83c2.11,8.66,10.88,14,19.55,11.9,8.67-2.11,14-10.88,11.9-19.54-2.11-8.66-10.87-14-19.54-11.9-8.67,2.11-14.01,10.88-11.9,19.54Z"/><path class="cls-3" d="M846.83,855.38c-8.24,2-13.32,10.35-11.32,18.6s10.34,13.32,18.59,11.31c8.25-2.01,13.33-10.34,11.33-18.59-2-8.24-10.35-13.33-18.6-11.33Z"/><path class="cls-3" d="M811.33,914.86c-7.83,1.9-12.66,9.83-10.75,17.66s9.82,12.64,17.65,10.74c7.83-1.9,12.65-9.82,10.75-17.64-1.9-7.83-9.82-12.66-17.65-10.75Z"/><path class="cls-3" d="M769.65,993.3c7.41-1.8,11.97-9.31,10.17-16.72-1.8-7.41-9.3-11.97-16.71-10.17-7.41,1.8-11.98,9.29-10.18,16.7s9.3,11.98,16.71,10.18Z"/><path class="cls-3" d="M709.28,1032.87c6.99-1.7,11.3-8.77,9.6-15.76-1.7-7-8.78-11.31-15.77-9.61-6.99,1.7-11.3,8.77-9.6,15.78,1.7,6.99,8.78,11.3,15.77,9.6Z"/><path class="cls-3" d="M637.24,1033.97c-6.58,1.6-10.63,8.25-9.03,14.83,1.6,6.57,8.25,10.62,14.83,9.02s10.62-8.25,9.02-14.82c-1.6-6.59-8.25-10.64-14.82-9.04Z"/><circle class="cls-3" cx="571.86" cy="1056.53" r="11.49"/><path class="cls-3" d="M514.13,1050.09c-1.39-5.74-7.2-9.27-12.94-7.88-5.73,1.39-9.27,7.2-7.87,12.94,1.39,5.73,7.2,9.26,12.93,7.87,5.74-1.39,9.27-7.2,7.88-12.93Z"/><path class="cls-3" d="M435.71,1025.06c-5.32,1.29-8.6,6.68-7.31,11.99,1.29,5.32,6.68,8.6,12,7.31s8.59-6.68,7.3-12c-1.29-5.31-6.67-8.59-11.99-7.3Z"/><path class="cls-3" d="M375.05,994.48c-4.9,1.19-7.93,6.14-6.74,11.05,1.19,4.9,6.15,7.93,11.06,6.73s7.92-6.15,6.73-11.06c-1.19-4.9-6.14-7.91-11.05-6.72Z"/><path class="cls-3" d="M321.52,951.01c-4.49,1.09-7.25,5.63-6.15,10.12,1.09,4.49,5.62,7.24,10.11,6.15s7.25-5.62,6.16-10.1c-1.09-4.49-5.62-7.25-10.11-6.16Z"/><path class="cls-3" d="M277.5,895.22c-4.06,.99-6.57,5.09-5.58,9.16,.99,4.07,5.1,6.57,9.16,5.58,4.07-.99,6.57-5.09,5.59-9.16s-5.1-6.57-9.17-5.58Z"/><path class="cls-3" d="M603.04,483.27c-13.27,3.23-21.45,16.65-18.22,29.92s16.65,21.44,29.92,18.22c13.27-3.23,21.44-16.65,18.22-29.92s-16.64-21.44-29.92-18.22Z"/><path class="cls-3" d="M678.73,556.12c12.69-3.08,20.51-15.93,17.43-28.62s-15.93-20.51-28.62-17.43c-12.7,3.09-20.52,15.93-17.43,28.62,3.08,12.69,15.93,20.51,28.63,17.43Z"/><path class="cls-3" d="M719.78,553.12c-12.12,2.95-19.59,15.21-16.64,27.34,2.95,12.12,15.2,19.58,27.33,16.64,12.12-2.95,19.58-15.2,16.64-27.32-2.95-12.13-15.21-19.6-27.33-16.65Z"/><circle class="cls-3" cx="762.54" cy="629.6" r="21.55"/><path class="cls-3" d="M778.22,672.91c-10.97,2.67-17.72,13.76-15.06,24.73,2.67,10.97,13.76,17.72,24.73,15.06,10.97-2.67,17.73-13.76,15.06-24.73-2.67-10.97-13.76-17.72-24.73-15.06Z"/><circle class="cls-3" cx="784.36" cy="760.97" r="19.4"/><path class="cls-3" d="M760.6,810.41c-9.82,2.39-15.87,12.31-13.48,22.13s12.32,15.86,22.13,13.48c9.82-2.39,15.87-12.31,13.48-22.13s-12.32-15.86-22.14-13.48Z"/><path class="cls-3" d="M744.68,880.48c-2.25-9.25-11.59-14.93-20.84-12.69s-14.94,11.59-12.69,20.84c2.25,9.25,11.59,14.93,20.84,12.69,9.25-2.25,14.94-11.59,12.69-20.84Z"/><circle class="cls-3" cx="677.18" cy="927.09" r="16.18"/><circle class="cls-3" cx="616.46" cy="953.5" r="15.1"/><circle class="cls-3" cx="549.53" cy="961.47" r="14.03"/><path class="cls-3" d="M483.74,961.42c6.94-1.69,11.22-8.71,9.53-15.66-1.69-6.94-8.71-11.22-15.65-9.53-6.94,1.69-11.22,8.71-9.53,15.65,1.69,6.95,8.71,11.23,15.65,9.54Z"/><path class="cls-3" d="M417.45,905.68c-6.37,1.55-10.29,7.99-8.75,14.35,1.55,6.37,7.98,10.29,14.36,8.74,6.37-1.55,10.29-7.98,8.74-14.35-1.55-6.37-7.98-10.29-14.35-8.74Z"/><path class="cls-3" d="M370.32,860.15c-5.79,1.41-9.36,7.26-7.96,13.05,1.41,5.79,7.27,9.35,13.06,7.95s9.36-7.26,7.95-13.05c-1.41-5.79-7.26-9.36-13.05-7.95Z"/><path class="cls-3" d="M343.13,822.3c5.22-1.27,8.43-6.54,7.16-11.76s-6.54-8.44-11.76-7.17-8.43,6.55-7.16,11.77,6.54,8.43,11.76,7.16Z"/><path class="cls-3" d="M328.5,755.98c4.64-1.13,7.5-5.81,6.37-10.46-1.13-4.64-5.82-7.51-10.46-6.38-4.64,1.13-7.49,5.83-6.37,10.47s5.82,7.5,10.46,6.37Z"/><circle class="cls-3" cx="332.08" cy="678.57" r="7.58"/></g></g></g></svg>