<?xml version="1.0" encoding="UTF-8"?><svg id="Layer_2" xmlns="http://www.w3.org/2000/svg" viewBox="0 0 201.64 213.71"><defs><style>.cls-1{fill:#2586b1;}</style></defs><g id="Layer_1-2"><g><rect class="cls-1" x="90.77" y="102.84" width="20.1" height="201.64" transform="translate(304.48 102.84) rotate(90)"/><g><path class="cls-1" d="M101.16,163.96c-45.2,0-81.98-36.78-81.98-81.98S55.96,0,101.16,0s81.98,36.78,81.98,81.98-36.78,81.98-81.98,81.98Zm0-159.32C58.52,4.64,23.82,39.33,23.82,81.98s34.69,77.34,77.34,77.34,77.34-34.69,77.34-77.34S143.81,4.64,101.16,4.64Z"/><g><path class="cls-1" d="M61.14,127c-.06,0-.12,0-.18-.02-17.51-4.53-27.55-11.58-27.55-19.35,0-9.3,14.58-17.57,38.04-21.58,.39-.07,.76,.2,.83,.59,.07,.39-.2,.76-.59,.83-22.38,3.82-36.85,11.74-36.85,20.16,0,6.96,9.9,13.67,26.47,17.96,.39,.1,.62,.49,.52,.88-.08,.33-.38,.54-.7,.54Z"/><path class="cls-1" d="M101.23,131.61c-7.78,0-15.41-.46-22.67-1.36-.39-.05-.68-.41-.63-.8s.4-.68,.8-.63c7.2,.89,14.77,1.34,22.49,1.34,17.84,0,34.61-2.41,47.21-6.77,12.18-4.22,19.16-9.97,19.16-15.77,0-8.42-14.46-16.33-36.85-20.16-.39-.07-.66-.44-.59-.83,.07-.39,.44-.65,.83-.59,23.47,4.02,38.04,12.29,38.04,21.58,0,13.45-29.79,23.98-67.81,23.98Z"/><path class="cls-1" d="M101.23,120.88c-24.45,0-49.75-5.43-49.75-14.52,0-4.72,7.27-8.99,19.94-11.7,.4-.09,.77,.16,.86,.55,.08,.39-.16,.77-.55,.86-11.78,2.52-18.81,6.37-18.81,10.3,0,6.32,19.41,13.08,48.31,13.08,.4,0,.72,.32,.72,.72s-.32,.72-.72,.72Z"/><path class="cls-1" d="M125.2,119.12c-.35,0-.66-.25-.71-.61-.06-.39,.21-.76,.6-.82,14.85-2.35,24.44-6.8,24.44-11.33,0-3.92-7.03-7.77-18.81-10.3-.39-.08-.64-.47-.55-.86,.08-.39,.47-.64,.86-.55,12.68,2.72,19.94,6.99,19.94,11.71,0,5.45-9.59,10.21-25.66,12.75-.04,0-.08,0-.11,0Z"/><g><path class="cls-1" d="M116.14,108.35c-3.03,0-5.49-2.46-5.49-5.49v-6.92c0-.4,.32-.72,.72-.72s.72,.32,.72,.72v6.92c0,2.23,1.82,4.05,4.05,4.05,.4,0,.72,.32,.72,.72s-.32,.72-.72,.72Zm-4.77-16.01c-.4,0-.72-.32-.72-.72v-14.42c0-.4,.32-.72,.72-.72s.72,.32,.72,.72v14.42c0,.4-.32,.72-.72,.72Zm0-20.18c-.4,0-.72-.32-.72-.72v-14.42c0-.4,.32-.72,.72-.72s.72,.32,.72,.72v14.42c0,.4-.32,.72-.72,.72Zm0-18.74c-.4,0-.72-.32-.72-.72v-14.42c0-.4,.32-.72,.72-.72s.72,.32,.72,.72v14.42c0,.4-.32,.72-.72,.72Zm0-20.18c-.4,0-.72-.32-.72-.72v-14.42c0-.4,.32-.72,.72-.72s.72,.32,.72,.72v14.42c0,.4-.32,.72-.72,.72Zm0-18.74c-.4,0-.72-.32-.72-.72v-4.01c0-.4,.32-.72,.72-.72s.72,.32,.72,.72v4.01c0,.4-.32,.72-.72,.72Z"/><path class="cls-1" d="M126.47,108.35c-1.56,0-3.05-.67-4.09-1.83-.27-.3-.24-.75,.06-1.02,.3-.26,.75-.24,1.02,.06,.77,.86,1.87,1.35,3.02,1.35,.14,.01,3.65-.04,3.65-2.95,0-.4,.32-.72,.72-.72s.72,.32,.72,.72c0,3.47-3.33,4.39-5.09,4.39h0Zm-4.77-5.61c-.4,0-.72-.32-.72-.72v-14.42c0-.4,.32-.72,.72-.72s.72,.32,.72,.72v14.42c0,.4-.32,.72-.72,.72Zm0-20.18c-.4,0-.72-.32-.72-.72v-14.42c0-.4,.32-.72,.72-.72s.72,.32,.72,.72v14.42c0,.4-.32,.72-.72,.72Zm0-18.74c-.4,0-.72-.32-.72-.72v-14.42c0-.4,.32-.72,.72-.72s.72,.32,.72,.72v14.42c0,.4-.32,.72-.72,.72Zm0-20.18c-.4,0-.72-.32-.72-.72v-14.42c0-.4,.32-.72,.72-.72s.72,.32,.72,.72v14.42c0,.4-.32,.72-.72,.72Zm0-18.74c-.4,0-.72-.32-.72-.72V12.13c0-.4,.32-.72,.72-.72s.72,.32,.72,.72v12.05c0,.4-.32,.72-.72,.72Z"/><path class="cls-1" d="M75.98,108.35h0c-1.76,0-5.09-.92-5.09-4.39,0-.4,.32-.72,.72-.72s.72,.32,.72,.72c0,2.89,3.5,2.95,3.65,2.95h0c1.15,0,2.25-.49,3.01-1.35,.27-.3,.72-.32,1.02-.06,.3,.27,.32,.72,.06,1.02-1.04,1.16-2.53,1.83-4.09,1.83Zm4.77-5.61c-.4,0-.72-.32-.72-.72v-14.42c0-.4,.32-.72,.72-.72s.72,.32,.72,.72v14.42c0,.4-.32,.72-.72,.72Zm0-20.18c-.4,0-.72-.32-.72-.72v-14.42c0-.4,.32-.72,.72-.72s.72,.32,.72,.72v14.42c0,.4-.32,.72-.72,.72Zm0-18.74c-.4,0-.72-.32-.72-.72v-14.42c0-.4,.32-.72,.72-.72s.72,.32,.72,.72v14.42c0,.4-.32,.72-.72,.72Zm0-20.18c-.4,0-.72-.32-.72-.72v-14.42c0-.4,.32-.72,.72-.72s.72,.32,.72,.72v14.42c0,.4-.32,.72-.72,.72Zm0-18.74c-.4,0-.72-.32-.72-.72V12.13c0-.4,.32-.72,.72-.72s.72,.32,.72,.72v12.05c0,.4-.32,.72-.72,.72Z"/><path class="cls-1" d="M86.32,108.35c-.4,0-.72-.32-.72-.72s.32-.72,.72-.72c2.23,0,4.05-1.82,4.05-4.05v-6.92c0-.4,.32-.72,.72-.72s.72,.32,.72,.72v6.92c0,3.03-2.46,5.49-5.49,5.49Zm4.77-16.01c-.4,0-.72-.32-.72-.72v-14.42c0-.4,.32-.72,.72-.72s.72,.32,.72,.72v14.42c0,.4-.32,.72-.72,.72Zm0-20.18c-.4,0-.72-.32-.72-.72v-14.42c0-.4,.32-.72,.72-.72s.72,.32,.72,.72v14.42c0,.4-.32,.72-.72,.72Zm0-18.74c-.4,0-.72-.32-.72-.72v-14.42c0-.4,.32-.72,.72-.72s.72,.32,.72,.72v14.42c0,.4-.32,.72-.72,.72Zm0-20.18c-.4,0-.72-.32-.72-.72v-14.42c0-.4,.32-.72,.72-.72s.72,.32,.72,.72v14.42c0,.4-.32,.72-.72,.72Zm0-18.74c-.4,0-.72-.32-.72-.72v-4.01c0-.4,.32-.72,.72-.72s.72,.32,.72,.72v4.01c0,.4-.32,.72-.72,.72Z"/><path class="cls-1" d="M101.23,108.35c-.4,0-.72-.32-.72-.72v-1.29c0-.4,.32-.72,.72-.72s.72,.32,.72,.72v1.29c0,.4-.32,.72-.72,.72Zm0-5.61c-.4,0-.72-.32-.72-.72v-14.42c0-.4,.32-.72,.72-.72s.72,.32,.72,.72v14.42c0,.4-.32,.72-.72,.72Zm0-20.18c-.4,0-.72-.32-.72-.72v-14.42c0-.4,.32-.72,.72-.72s.72,.32,.72,.72v14.42c0,.4-.32,.72-.72,.72Zm0-18.74c-.4,0-.72-.32-.72-.72v-14.42c0-.4,.32-.72,.72-.72s.72,.32,.72,.72v14.42c0,.4-.32,.72-.72,.72Zm0-20.18c-.4,0-.72-.32-.72-.72v-14.42c0-.4,.32-.72,.72-.72s.72,.32,.72,.72v14.42c0,.4-.32,.72-.72,.72Zm0-18.74c-.4,0-.72-.32-.72-.72V9.76c0-.4,.32-.72,.72-.72s.72,.32,.72,.72v14.42c0,.4-.32,.72-.72,.72Z"/></g></g></g></g></g></svg>