<?xml version="1.0" encoding="UTF-8"?><svg id="Layer_2" xmlns="http://www.w3.org/2000/svg" viewBox="0 0 905.3 349.16"><defs><style>.cls-1{fill:#82b673;}.cls-2{opacity:.23;}</style></defs><g id="Layer_1-2"><g class="cls-2"><rect class="cls-1" x="194.79" y="124.63" width="28.76" height="43.47"/><rect class="cls-1" x="243.48" y="90.24" width="28.76" height="77.87"/><rect class="cls-1" x="292.18" y="64.01" width="28.76" height="104.09"/><rect class="cls-1" x="340.88" y="90.24" width="28.76" height="77.87"/><rect class="cls-1" x="389.57" y="124.63" width="28.76" height="43.47"/><rect class="cls-1" x="438.27" y="84.06" width="28.76" height="84.05"/><rect class="cls-1" x="486.97" y="29.31" width="28.76" height="138.8"/><rect class="cls-1" x="535.66" width="28.76" height="168.11"/><rect class="cls-1" x="584.36" y="29.31" width="28.76" height="138.8"/><rect class="cls-1" x="633.05" y="64.01" width="28.76" height="104.09"/><rect class="cls-1" x="681.75" y="124.63" width="28.76" height="43.47"/><rect class="cls-1" x="730.45" y="124.63" width="28.76" height="43.47"/><rect class="cls-1" x="146.09" y="124.63" width="28.76" height="43.47"/><g><rect class="cls-1" x="194.79" y="218.78" width="28.76" height="5.75"/><rect class="cls-1" x="194.79" y="197.46" width="28.76" height="10.66"/><rect class="cls-1" x="194.79" y="181.05" width="28.76" height="5.75"/></g><g><rect class="cls-1" x="243.48" y="253.17" width="28.76" height="5.75"/><path class="cls-1" d="M272.24,239.9h-28.76v-13.27h28.76v13.27Zm0-26.55h-28.76v-13.27h28.76v13.27Z"/><rect class="cls-1" x="243.48" y="181.05" width="28.76" height="5.75"/></g><g><rect class="cls-1" x="292.18" y="279.39" width="28.76" height="5.75"/><path class="cls-1" d="M320.94,269.11h-28.76v-10.29h28.76v10.29Zm0-20.57h-28.76v-10.29h28.76v10.29Zm0-20.57h-28.76v-10.29h28.76v10.29Zm0-20.57h-28.76v-10.29h28.76v10.29Z"/><rect class="cls-1" x="292.18" y="181.05" width="28.76" height="5.75"/></g><g><rect class="cls-1" x="340.88" y="253.17" width="28.76" height="5.75"/><path class="cls-1" d="M369.64,239.9h-28.76v-13.27h28.76v13.27Zm0-26.55h-28.76v-13.27h28.76v13.27Z"/><rect class="cls-1" x="340.88" y="181.05" width="28.76" height="5.75"/></g><g><rect class="cls-1" x="389.57" y="218.78" width="28.76" height="5.75"/><rect class="cls-1" x="389.57" y="197.46" width="28.76" height="10.66"/><rect class="cls-1" x="389.57" y="181.05" width="28.76" height="5.75"/></g><g><rect class="cls-1" x="438.27" y="259.36" width="28.76" height="5.75"/><path class="cls-1" d="M467.03,248.99h-28.76v-10.36h28.76v10.36Zm0-20.73h-28.76v-10.37h28.76v10.37Zm0-20.73h-28.76v-10.36h28.76v10.36Z"/><rect class="cls-1" x="438.27" y="181.05" width="28.76" height="5.75"/></g><g><rect class="cls-1" x="486.97" y="314.1" width="28.76" height="5.75"/><path class="cls-1" d="M515.73,302.53h-28.76v-11.57h28.76v11.57Zm0-23.15h-28.76v-11.57h28.76v11.57Zm0-23.14h-28.76v-11.57h28.76v11.57Zm0-23.15h-28.76v-11.57h28.76v11.57Zm0-23.14h-28.76v-11.58h28.76v11.58Z"/><rect class="cls-1" x="486.97" y="181.05" width="28.76" height="5.75"/></g><g><rect class="cls-1" x="535.66" y="343.41" width="28.76" height="5.75"/><path class="cls-1" d="M564.42,331.36h-28.76v-12.05h28.76v12.05Zm0-24.09h-28.76v-12.05h28.76v12.05Zm0-24.1h-28.76v-12.05h28.76v12.05Zm0-24.09h-28.76v-12.05h28.76v12.05Zm0-24.1h-28.76v-12.04h28.76v12.04Zm0-24.09h-28.76v-12.05h28.76v12.05Z"/><rect class="cls-1" x="535.66" y="181.05" width="28.76" height="5.75"/></g><g><rect class="cls-1" x="584.36" y="314.1" width="28.76" height="5.75"/><path class="cls-1" d="M613.12,302.53h-28.76v-11.57h28.76v11.57Zm0-23.15h-28.76v-11.57h28.76v11.57Zm0-23.14h-28.76v-11.57h28.76v11.57Zm0-23.15h-28.76v-11.57h28.76v11.57Zm0-23.14h-28.76v-11.58h28.76v11.58Z"/><rect class="cls-1" x="584.36" y="181.05" width="28.76" height="5.75"/></g><g><rect class="cls-1" x="633.06" y="279.39" width="28.76" height="5.75"/><path class="cls-1" d="M661.82,269.11h-28.76v-10.29h28.76v10.29Zm0-20.57h-28.76v-10.29h28.76v10.29Zm0-20.57h-28.76v-10.29h28.76v10.29Zm0-20.57h-28.76v-10.29h28.76v10.29Z"/><rect class="cls-1" x="633.06" y="181.05" width="28.76" height="5.75"/></g><g><rect class="cls-1" x="681.75" y="218.78" width="28.76" height="5.75"/><rect class="cls-1" x="681.75" y="197.46" width="28.76" height="10.66"/><rect class="cls-1" x="681.75" y="181.05" width="28.76" height="5.75"/></g><g><rect class="cls-1" x="730.45" y="218.78" width="28.76" height="5.75"/><rect class="cls-1" x="730.45" y="197.46" width="28.76" height="10.66"/><rect class="cls-1" x="730.45" y="181.05" width="28.76" height="5.75"/></g><rect class="cls-1" x="779.15" y="153.18" width="28.76" height="14.92"/><g><rect class="cls-1" x="779.15" y="190.9" width="28.76" height="5.75"/><rect class="cls-1" x="779.15" y="181.05" width="28.76" height="5.75"/></g><rect class="cls-1" x="827.85" y="153.18" width="28.76" height="14.92"/><g><rect class="cls-1" x="827.85" y="190.9" width="28.76" height="5.75"/><rect class="cls-1" x="827.85" y="181.05" width="28.76" height="5.75"/></g><rect class="cls-1" x="876.54" y="153.18" width="28.76" height="14.92"/><g><rect class="cls-1" x="876.54" y="190.9" width="28.76" height="5.75"/><rect class="cls-1" x="876.54" y="181.05" width="28.76" height="5.75"/></g><rect class="cls-1" x="97.4" y="153.18" width="28.76" height="14.92"/><g><rect class="cls-1" x="97.4" y="190.9" width="28.76" height="5.75"/><rect class="cls-1" x="97.4" y="181.05" width="28.76" height="5.75"/></g><rect class="cls-1" x="48.7" y="153.18" width="28.76" height="14.92"/><g><rect class="cls-1" x="48.7" y="190.9" width="28.76" height="5.75"/><rect class="cls-1" x="48.7" y="181.05" width="28.76" height="5.75"/></g><rect class="cls-1" y="153.18" width="28.76" height="14.92"/><g><rect class="cls-1" y="190.9" width="28.76" height="5.75"/><rect class="cls-1" y="181.05" width="28.76" height="5.75"/></g><g><rect class="cls-1" x="146.09" y="218.78" width="28.76" height="5.75"/><rect class="cls-1" x="146.09" y="197.46" width="28.76" height="10.66"/><rect class="cls-1" x="146.09" y="181.05" width="28.76" height="5.75"/></g></g></g></svg>