<?xml version="1.0" encoding="UTF-8"?><svg id="Layer_2" xmlns="http://www.w3.org/2000/svg" viewBox="0 0 201.55 213.65"><defs><style>.cls-1{fill:#231f20;}</style></defs><g id="Layer_1-2"><g><rect class="cls-1" x="90.73" y="102.83" width="20.09" height="201.55" transform="translate(304.37 102.83) rotate(90)"/><g><path class="cls-1" d="M85.1,162.42c-.22-.04-.45-.07-.67-.11,1.42,.28,2.85,.52,4.3,.73-.03,0-.06-.01-.09-.01-1.19-.17-2.37-.38-3.55-.6Z"/><path class="cls-1" d="M180.76,65.72c.01,.05,.02,.1,.03,.15-.17-.86-.37-1.72-.57-2.57,.07,.31,.14,.62,.21,.93,.11,.5,.23,.99,.33,1.49Z"/><path class="cls-1" d="M173.85,118.28c-.32,.64-.64,1.28-.98,1.91-.29,.54-.58,1.07-.87,1.6-.16,.29-.31,.58-.47,.86,1.28-2.23,2.46-4.52,3.53-6.87-.13,.28-.27,.55-.4,.83-.26,.56-.53,1.12-.81,1.67Z"/><path class="cls-1" d="M161.15,136.91s0,0,0,0c-.01,.01-.03,.03-.04,.04-.91,1-1.83,1.97-2.79,2.93-.38,.38-.77,.73-1.15,1.1-.59,.56-1.17,1.13-1.77,1.68-.49,.45-1.01,.87-1.51,1.31-.52,.45-1.03,.9-1.56,1.33-.54,.44-1.09,.86-1.64,1.29-.52,.4-1.03,.81-1.56,1.2-.56,.42-1.14,.82-1.72,1.22-.53,.37-1.06,.75-1.6,1.11,10.51-7.01,19.32-16.37,25.64-27.35,0,0-.02,0-.03,0-2.93,5.07-6.37,9.81-10.27,14.12Z"/><path class="cls-1" d="M138.8,154.32c1.18-.63,2.34-1.28,3.49-1.96-.57,.34-1.15,.67-1.74,1-.58,.33-1.16,.65-1.75,.97Z"/><path class="cls-1" d="M142.41,152.28c1.14-.68,2.27-1.39,3.38-2.13-.58,.38-1.16,.75-1.75,1.12-.54,.34-1.08,.68-1.63,1.01Z"/><path class="cls-1" d="M135.08,156.18c-.26,.12-.51,.26-.78,.38,1.51-.69,2.99-1.44,4.45-2.21-.59,.32-1.19,.62-1.8,.92-.62,.31-1.25,.62-1.88,.91Z"/><path class="cls-1" d="M89.08,163.08h0c1.03,.15,2.07,.29,3.11,.39,0,0,0,0,0,0-1.05-.1-2.08-.25-3.11-.39Z"/><path class="cls-1" d="M182.21,86.96s0,.02,0,.02c.09-1.43,.14-2.87,.15-4.32,0,0,0,0,0,0-.01,1.44-.06,2.87-.15,4.29Z"/><path class="cls-1" d="M97.51,163.82c-.38-.02-.76-.04-1.15-.06,.38,.02,.76,.05,1.15,.06Z"/><path class="cls-1" d="M79.76,161.23c-.31-.08-.61-.18-.92-.26-1.12-.31-2.24-.63-3.34-.98-.12-.04-.24-.07-.36-.1,2.98,.96,6.02,1.77,9.13,2.4-.04,0-.08-.02-.12-.03-1.48-.3-2.94-.64-4.39-1.02Z"/><path class="cls-1" d="M71.46,158.57c-.18-.07-.37-.13-.55-.2,1.28,.5,2.57,.96,3.89,1.39-.29-.09-.57-.21-.85-.31-.83-.29-1.66-.58-2.48-.89Z"/><path class="cls-1" d="M178.05,108.16s0,0,.01,0c.42-1.25,.82-2.52,1.18-3.79,0,0,0,0,0,0-.36,1.28-.76,2.54-1.18,3.79Z"/><path class="cls-1" d="M177.03,111.03c-.09,.24-.17,.48-.26,.72,.42-1.08,.82-2.17,1.2-3.28-.07,.21-.15,.41-.23,.62-.23,.65-.47,1.3-.71,1.94Z"/><path class="cls-1" d="M105.53,.16c.34,.02,.68,.04,1.02,.07-.34-.03-.68-.05-1.02-.07Z"/><path class="cls-1" d="M103,.04c.29,0,.57,.02,.85,.03-.28-.01-.57-.02-.85-.03Z"/><path class="cls-1" d="M111.21,.71c.6,.08,1.19,.17,1.78,.26-.59-.09-1.18-.18-1.78-.26Z"/><path class="cls-1" d="M108.05,.36c.83,.08,1.66,.17,2.49,.27-.83-.1-1.65-.19-2.49-.27Z"/><path class="cls-1" d="M133.22,6.84c.86,.38,1.72,.78,2.56,1.18,.06,.03,.12,.05,.17,.08,1.1,.53,2.18,1.09,3.25,1.67,.29,.16,.58,.32,.87,.49,.77,.43,1.54,.87,2.29,1.32,.34,.2,.68,.41,1.02,.62,.74,.46,1.48,.93,2.21,1.42,.28,.19,.57,.37,.85,.56,.99,.67,1.97,1.37,2.92,2.08,.12,.09,.24,.19,.36,.28,.84,.63,1.66,1.28,2.47,1.94,.29,.24,.57,.48,.86,.72,.66,.55,1.3,1.11,1.94,1.68,.28,.25,.57,.51,.85,.76,.71,.66,1.41,1.32,2.1,2,.16,.16,.33,.32,.5,.48,.85,.85,1.68,1.72,2.49,2.61,.19,.2,.36,.41,.55,.62,.62,.69,1.23,1.39,1.82,2.1,.25,.3,.49,.6,.74,.9,.54,.66,1.06,1.33,1.58,2.01,.23,.3,.45,.59,.67,.89,.65,.88,1.28,1.77,1.9,2.67,.06,.09,.13,.18,.19,.27,.58,.86,1.14,1.73,1.69,2.61,0,0-.01,0-.02,0,.57,.92,1.12,1.85,1.65,2.79,.01,0,.02,0,.03,0C159.7,20.35,138.45,5.03,113.42,1.04c6.91,1.11,13.53,3.09,19.75,5.81,.02,0,.03,0,.05,0Z"/><path class="cls-1" d="M175.53,114.68c-.13,.29-.24,.58-.37,.86,.5-1.11,.97-2.23,1.43-3.37-.1,.25-.21,.49-.31,.73-.24,.59-.49,1.18-.75,1.77Z"/><path class="cls-1" d="M67.47,156.93s-.01,0-.01,0c1.03,.45,2.07,.89,3.12,1.31,0,0,.01,0,.02-.01-1.05-.41-2.1-.84-3.13-1.3Z"/><path class="cls-1" d="M18.66,86.81c-.04-.59-.08-1.18-.1-1.77,.02,.59,.06,1.18,.1,1.77Z"/><path class="cls-1" d="M64.45,155.53c-.63-.31-1.26-.64-1.88-.97-.49-.26-.98-.51-1.46-.77,1.99,1.09,4.03,2.11,6.12,3.04-.28-.13-.56-.27-.85-.4-.64-.3-1.29-.59-1.92-.9Z"/><path class="cls-1" d="M18.96,90.52c-.09-.82-.17-1.64-.23-2.47,.06,.83,.14,1.65,.23,2.47Z"/><path class="cls-1" d="M57.75,151.85c-.81-.5-1.61-1.02-2.41-1.54-.27-.18-.55-.35-.82-.54-.13-.09-.26-.17-.39-.25,2.22,1.52,4.53,2.94,6.9,4.24-.72-.39-1.42-.81-2.12-1.22-.39-.23-.78-.45-1.16-.68Z"/><path class="cls-1" d="M49.79,146.28c-.27-.21-.54-.42-.81-.63-.59-.48-1.17-.97-1.74-1.46-.37-.32-.74-.63-1.1-.95-.53-.47-1.05-.95-1.57-1.43-.37-.34-.73-.69-1.09-1.04-.53-.52-1.06-1.04-1.58-1.57-.09-.09-.18-.17-.26-.26,0,0,0-.01,0-.02-2.14-2.21-4.17-4.55-6.05-6.99,0,0,0,0-.01,.01-.1-.13-.19-.26-.29-.39-.46-.6-.91-1.22-1.35-1.83-.3-.41-.6-.83-.89-1.25-.44-.63-.86-1.27-1.28-1.92-.28-.43-.56-.86-.83-1.29-.4-.65-.8-1.3-1.18-1.96-.27-.45-.53-.9-.78-1.36-.37-.66-.73-1.32-1.08-1.99-.25-.47-.49-.95-.73-1.42-.34-.67-.67-1.35-.99-2.03-.22-.48-.44-.96-.66-1.45-.31-.7-.62-1.41-.91-2.12-.19-.46-.37-.93-.55-1.4-.29-.76-.58-1.52-.86-2.28-.14-.41-.28-.82-.42-1.22-.29-.85-.57-1.71-.83-2.58-.02-.08-.05-.16-.08-.24v-.03c-1.36-4.59-2.33-9.34-2.87-14.22,2.66,24.3,15.95,45.39,35.12,58.55,0,0,0,0,.02-.01-1.49-1.02-2.94-2.11-4.36-3.22Z"/><path class="cls-1" d="M93.82,147.98c2.99-2.73,4.81-6.48,6.37-10.22,1.91-4.55,3.55-9.72,1.8-14.35-.18-.49-.42-1.02-.38-1.55,.07-1.02,1.09-1.73,2.09-1.93,1-.18,2.04,0,3.06-.05,2.55-.15,4.95-1.86,5.9-4.22,.95-2.37,.4-5.28-1.37-7.14,10.21-3.51,21.39-.18,31.68,3.15,1.57,.49,3.15,1.02,4.5,1.97,2.22,1.53,3.53,4.02,4.77,6.43,.53,1.02,1.07,2.09,1.15,3.24,.09,1.51-.62,2.95-.95,4.42-.33,1.47-.09,3.33,1.26,4.02,1.37,.69,3.06-.16,4.53,.29,.26,.08,.48,.2,.69,.34,2.47-2.85,4.72-5.89,6.76-9.08-3.55,.03-6.95-.67-9.51-3.04-2.86-2.66-4.02-6.92-7.27-9.07-1.04-.67-2.26-1.13-3-2.11-1.51-2-.27-4.79,.49-7.19,1.11-3.42,1.04-7.21-.07-10.63-1.2-3.68-2.04-6.14-3.28-9.63-.51-1.4,.15-1.89,1.35-1.84,2.73,.07,5.77,3.75,6.74,4.28,4.28,2.26,8.19,5.21,11.54,8.69,3.9,4.05,7.27,8.93,11.44,12.57,.47-1.48,.9-2.98,1.28-4.5-.97-.91-1.94-1.83-2.89-2.78-4.61-4.61-9.67-8.76-15.09-12.38-3.04-2.02-6.26-3.95-8.45-6.9-3.86-5.21-1.49-8.56,1.66-12.84,3.28-4.44,6.54-9.03,12.14-10.62,2.15-.58,4.41-.66,6.55-1.26,.95-.26,1.87-.63,2.78-1.01-.18-.44-.34-.88-.53-1.31-3.25,.68-6.54,1.11-9.78,.54-3.46-.62-6.52-2.57-8.39-5.54-2.18-3.48,.04-5.19,3.73-5.17,3.06,.01,6.12,.02,9.19,.02-.66-1.07-1.34-2.11-2.04-3.15-.3,.05-.6,.07-.9,.16-5.03,1.37-10.05,2.73-15.22,3.31-2.26,.25-4.61,.38-6.68,1.35-1.24,.56-2.35,1.44-3.66,1.84-1.33,.4-2.75,.31-4.13,.31-2.79,.04-5.57,.53-8.19,1.47-1.35,.49-2.71,1.11-4.15,1.17-2.09,.07-4.01-1.06-5.79-2.15-2.31-1.42-4.66-2.86-6.63-4.73-1.97-1.88-3.57-4.24-4.04-6.92-.36-2-.07-4.08,.33-6.08,.56-2.73,1.35-5.44,2.59-7.94,.55-1.09,1.22-2.19,2.24-2.82,.71-.44,1.51-.64,2.31-.82,1.98-.42,4.01-.71,6.05-.84,1.24-.07,2.49-.09,3.71-.35,1.22-.27,2.37-.76,3.5-1.27,2.08-.89,4.13-1.8,6.19-2.69-3.06-.6-6.14,.67-9.09,1.75-2.93,1.07-6.26,1.97-9.1,.66,1.69-2.04,2.93-4.48,3.55-7.07,.02-.09,.12-.15,.25-.22-.78-.18-1.57-.34-2.36-.5,.29,.91,.3,1.93-.01,2.84-.56,1.6-1.8,2.86-3.13,3.93-1.31,1.06-2.75,2-3.88,3.26-1.64,1.84-2.51,4.22-3.33,6.56-1.15,3.19-2.29,6.39-3.44,9.58-.46,1.27-.96,2.62-2.02,3.48-1.09,.89-2.6,1.07-3.99,.93-1.4-.16-2.75-.62-4.12-.93-2.84-.64-5.83-.58-8.63,.15-2.82,.75-5.77,2.15-8.5,1.15-.44-.16-.87-.4-1.13-.78-.42-.64-.27-1.46-.09-2.19,1.04-4.32,2.77-8.7,1.97-13.07-.33-1.82-1.09-3.55-1.38-5.39-.22-1.49-.13-3.02-.36-4.52-.07-.41-.18-.82-.32-1.22-1.15,.44-2.28,.91-3.4,1.41,.15,1.62-.09,3.28-.4,4.89-1.73,9.01-5.23,17.66-10.12,25.42-5.11,8.11-21.95,30.11-33.99,24.64-.23,1.11-.43,2.23-.61,3.36,5.7,1.36,11.75,3.21,14.85,8.11,1.57,2.48,2.17,5.43,2.66,8.32,1.04,5.86,1.8,12.25-1.07,17.48-.27,.53-.6,1.07-.51,1.66,.09,.47,.47,.86,.82,1.2,3.3,3.24,6.35,7.74,5.1,12.2-.58,2-1.95,3.68-3.3,5.28-1.31,1.55-2.63,3.11-3.97,4.64,1.21,1.61,2.49,3.15,3.82,4.66,.57-1.5,1.34-2.95,2.17-4.3,.82-1.31,1.73-2.66,2.04-4.19,.25-1.33,.05-2.71,.29-4.06,.87-5.1,4.33-1.15,5.79,1.17,1.75,2.8,3.57,5.77,3.75,9.07,.13,2.35-.58,4.64-.91,6.97-.31,2.15-.32,4.39-.99,6.45,.72,.53,1.45,1.05,2.19,1.56,.09-.31,.18-.61,.26-.93,.86-3.64,1.38-7.36,1.57-11.11,.24-5.34-.8-10.01-4.3-14.09,2.24-1.66,5.21-2.99,7.65-4.59,4.28-2.82,9.03-4.9,14-6.14,5.79-1.46,12.75-1.42,16.77,2.99,.89,.97,1.58,2.09,2.55,2.99,.89,.8,2,1.37,2.88,2.2,2.4,2.33,2.51,6.1,2.09,9.41-.93,7.48-3.97,15.02-9.85,19.77-4.95,3.98-11.38,5.63-17.34,7.98,1.23,.46,2.47,.9,3.72,1.3,2.39-.74,4.79-1.35,6.64-2.06,3.66-1.4,7.41-2.88,10.31-5.52Zm62.11-22.63c.47-.46,.95-.8,1.4-1.04,4.28-2.13,7.79,4.64,2.22,5.52-2.95,.46-6.83-1.33-3.62-4.48Zm-11.02-31.05c-2.84,4.48-.69,11.23-4.48,14.95-8.7-4.12-18.54-5.81-28.11-4.88-2.24,.22-4.66,.53-6.59-.62-1.8-1.07-2.73-3.24-2.77-5.32-.05-2.09,.66-4.12,1.49-6.03,3.06-7.01,7.87-15.62,15.93-17.37,5.7-1.24,11.87,.75,16.1,4.75,4.1,3.88,6.32,9.27,8.43,14.51Zm-39.17-17.88c-1.69-3.48-8.59-4.02-9.16-7.87-.78-5.35,9.65-3.42,12.36-2.86,.64,.15,1.27,.29,1.84,.64,.71,.42,1.22,1.09,1.86,1.64,1.55,1.33,3.7,1.75,5.33,2.97,.22,.16,.46,.36,.53,.64,.18,.56-.38,1.15-.97,1.29-.58,.15-1.2,.04-1.8,.13-1.26,.22-2.19,1.31-2.8,2.44-.6,1.13-1.04,2.39-1.89,3.33-.87,.97-2.35,1.53-3.44,.87-1.09-.64-1.31-2.09-1.86-3.22Zm31.65-26.49c2.18-3.31,5.66-5.86,9.58-6.48,.76-.11,1.55-.16,2.28,.07,1.27,.4,2.13,1.57,2.69,2.75,1.51,3.19,1.46,6.86,1,10.34-.2,1.47-.49,3-1.31,4.26-.6,.91-1.46,1.64-2.09,2.53-.64,.93-1.15,2.13-2.22,2.51-1.17,.4-2.4-.4-3.39-1.17-1.06-.8-2.09-1.6-3.15-2.4-1.78-1.37-4.12-2.91-4.88-5.12-.84-2.46,.13-5.23,1.49-7.3Zm-2.06,10.42c1.55-.31,2.97,.35,4.66,1.64,1.68,1.26,3.08,3.35,3.95,5.23,1.09,2.35,1.44,5.12,.47,7.52-.97,2.39-3.4,4.26-5.97,4.1-2.46-.16-4.55-2.06-5.63-4.3-1.06-2.22-1.31-4.73-1.51-7.19-.18-2.02-.2-4.41,1.4-5.64,.96-.75,1.8-1.18,2.62-1.35Zm-9.3-10.65c1.04-1.51,2.99-2.33,4.79-2,1.07,.2,2.09,.8,2.6,1.75,.87,1.62,.09,5.1-1.22,6.37-1.42,1.38-3.97-1.69-5.17-2.66-.69-.55-1.44-1.2-1.47-2.08-.02-.51,.2-.98,.47-1.38Zm-52.71-2.84c.11-1.07,.33-2.13,.66-3.15,.24-.75,.55-1.51,1.07-2.11,.56-.64,1.33-1.07,2.09-1.46,1.47-.75,2.79-1.91,4.33-2.48,1.58-.56,3.3-.33,4.95-.36,1.93-.05,3.86,.02,5.66,.75,3.28,1.35,6.08,3.61,8.69,6.01,1.71,1.58,3.68,3.37,6.01,3.2,1.13-.07,2.18-.6,3.31-.64,1.86-.07,3.46,1.18,4.79,2.44,1.35,1.27,2.71,2.68,4.52,3.08,.96,.2,1.95,.09,2.93,.18,3.15,.31,5.97,2.9,6.52,6.03,.66,3.71-1.86,7.57-5.33,9.03-3.5,1.46-7.65,.76-10.85-1.24-.93-.58-1.82-1.27-2.84-1.68-.76-.33-1.6-.46-2.44-.56-3.93-.46-7.88,.13-11.82,.6-1.38,.16-2.8,.33-4.12-.09-1.88-.6-3.2-2.2-4.57-3.61-1.88-1.95-4.02-3.64-6.37-5.03-1.2-.71-2.46-1.37-3.42-2.39-1.06-1.11-1.66-2.59-2.68-3.73-.35-.4-.76-.76-.96-1.26-.2-.49-.18-1.04-.13-1.55Zm21.58,21.18c-.13,.51-.67,.78-1.18,.95-4.19,1.27-8.98-1.75-12.96,.07-3.19,1.46-5.66,2.22-3.53-2.11,.91-1.88,2.04-5.24,3.59-6.65,3.4-3.1,8.43,4.92,12.07,5.97,.49,.15,.98,.24,1.4,.51,.42,.27,.73,.76,.62,1.26Zm-33.54-26.37c.42-.93,1.07-1.73,1.53-2.66,.27-.56,.47-1.17,.67-1.78,.25-.75,.51-2.8,1.47-2.99,.93-.16,2.26,1.53,2.66,2.19,.75,1.24,.98,2.73,.84,4.17-.07,.69-.25,1.42-.75,1.93-.25,.25-.58,.46-.89,.64-.76,.49-1.46,1.07-2.26,1.49-.8,.42-1.73,.67-2.6,.44-.15-.04-.27-.07-.4-.16-.11-.07-.2-.18-.27-.31-.58-.86-.44-2,0-2.95Zm-1.26,72.03c-.84,.98-2,1.62-3.17,2.15-1.11,.51-2.29,.95-3.51,.91-1.22-.04-2.49-.66-2.99-1.78-1.47-3.3,3.9-5.9,6.63-6.43,.15-.02,.27-.04,.4-.05,3.64-.46,4.88,2.59,2.64,5.21Zm-11.02-5.92c-1.22-.22-2.44-.64-3.33-1.47-2.2-2.04-1.8-5.55-1.42-8.52,1.06-8.3,.44-16.79-1.84-24.84-.82-2.9-1.78-6.25-.07-8.74,1.55-2.28,4.7-2.8,6.85-4.52,2.66-2.11,3.53-5.72,5.54-8.47,4.41-6.05,11.76-6.46,16.62-1.42,2.77,2.86,5.68,6.01,6.19,9.96,.71,5.41-3.28,10.23-7.16,14.08-1.06,1.06-2.15,2.15-2.73,3.53-1,2.37-.25,5.1-.75,7.61-.53,2.79-2.49,5.1-3.13,7.87-.33,1.49-.25,3.06-.47,4.57-.91,6.52-7.83,11.53-14.29,10.36Zm38.51-2.59c-4.21,.2-8.58-1.93-12.51-.38-2.04,.82-3.59,2.49-5.41,3.73-1.82,1.22-4.33,1.95-6.14,.67,1.98-3.93,4.01-7.98,4.57-12.36,.53-4.08-.24-8.27,.4-12.33,2.93-18.76,28.53-18.66,36.14-3.41,.86,1.71,1.47,3.64,1.22,5.54-.24,1.73-1.17,3.28-2.06,4.77-1.91,3.17-3.86,6.37-6.48,8.98-2.62,2.62-6.05,4.61-9.74,4.79Zm10.78,9.25c-2.13-1.46-4.41-3.06-5.3-5.48-.15-.4-.25-.82-.25-1.26,.02-.55,.24-1.07,.51-1.55,3.46-6.92,9.96-2.4,13.73,.75,1.51,1.27,3.1,2.66,3.7,4.53,.55,1.78,.07,3.82-1.2,5.17-1.27,1.35-3.3,1.93-5.1,1.47-1.17-.31-2.18-.98-3.19-1.68-.96-.66-1.93-1.31-2.9-1.97Z"/><path class="cls-1" d="M117.49,162.08c.07-.02,.15-.03,.22-.04-.07,.01-.14,.02-.2,.04,0,0,0,0-.01,0Z"/><path class="cls-1" d="M180.65,98.68s-.02,.1-.03,.15c.35-1.65,.64-3.32,.88-5.01,0,.03,0,.05-.01,.08-.24,1.61-.51,3.21-.84,4.78Z"/><path class="cls-1" d="M179.44,103.63c-.03,.11-.05,.23-.09,.34,.42-1.52,.81-3.06,1.15-4.62-.04,.16-.08,.32-.12,.48-.29,1.28-.6,2.54-.94,3.79Z"/><path class="cls-1" d="M107.21,163.57c.66-.05,1.33-.09,1.99-.16-.02,0-.04,0-.05,0-.64,.07-1.29,.11-1.94,.16Z"/><path class="cls-1" d="M102.66,163.85c.74-.02,1.48-.05,2.22-.09,0,0-.01,0-.02,0-.73,.04-1.46,.07-2.2,.09Z"/><path class="cls-1" d="M173.38,44.68c.21,.41,.42,.82,.63,1.23-.69-1.4-1.4-2.79-2.17-4.15,.12,.22,.23,.46,.36,.68,.41,.74,.79,1.49,1.18,2.24Z"/><path class="cls-1" d="M174.44,46.8c.47,.98,.92,1.98,1.35,2.98-.43-1-.88-2-1.35-2.98Z"/><path class="cls-1" d="M176.45,51.35c.14,.36,.27,.72,.41,1.08,.26,.66,.51,1.33,.76,2,.05,.15,.12,.3,.17,.45-.49-1.4-1.03-2.78-1.59-4.15,.08,.21,.16,.42,.25,.63,0,0,.01,0,.02,0Z"/><path class="cls-1" d="M181.7,92.3s0,.1-.02,.14c.16-1.22,.29-2.45,.39-3.69,0,.02,0,.03,0,.05-.1,1.17-.22,2.34-.37,3.5Z"/><path class="cls-1" d="M128.61,158.86c.49-.18,.99-.35,1.48-.53-.21,.08-.42,.15-.63,.23-.28,.11-.56,.2-.85,.31Z"/><path class="cls-1" d="M178.94,58.44c-.14-.47-.3-.93-.45-1.4,.12,.36,.24,.71,.35,1.07,.03,.11,.07,.22,.11,.33Z"/><path class="cls-1" d="M91.84,.45c.23-.02,.46-.04,.69-.06-.23,.02-.46,.04-.69,.06Z"/><path class="cls-1" d="M96.14,.11c.09,0,.19,0,.28-.01-.09,0-.19,0-.28,.01Z"/><path class="cls-1" d="M18.87,74.25c.05-.53,.11-1.07,.17-1.6-.06,.53-.12,1.06-.17,1.6Z"/><path class="cls-1" d="M87.37,1.05c.44-.07,.89-.14,1.34-.2-.45,.06-.89,.13-1.34,.2Z"/><path class="cls-1" d="M19.23,71.18c.16-1.21,.34-2.41,.55-3.6-.21,1.19-.4,2.39-.55,3.6Z"/><path class="cls-1" d="M20.75,62.91c.02-.07,.04-.14,.06-.21,.36-1.48,.75-2.94,1.18-4.39,0-.03,.01-.05,.02-.08,.91-3.01,1.99-5.94,3.23-8.79,.09-.21,.19-.41,.28-.62,.51-1.15,1.04-2.29,1.61-3.41,.17-.34,.34-.67,.52-1,.52-1,1.06-1.99,1.61-2.97,.2-.35,.39-.69,.6-1.04,.6-1.01,1.22-2,1.85-2.98,.17-.26,.33-.53,.51-.79,1.65-2.48,3.43-4.86,5.34-7.14,.22-.26,.45-.52,.68-.78,.73-.85,1.47-1.69,2.23-2.51,.31-.33,.63-.66,.95-.99,.71-.74,1.44-1.47,2.17-2.18,.34-.33,.67-.65,1.02-.97,.79-.73,1.59-1.45,2.41-2.15,.3-.26,.59-.52,.89-.77,2.27-1.91,4.65-3.69,7.12-5.34,.22-.15,.46-.29,.68-.44,1.01-.66,2.03-1.3,3.07-1.92,.34-.2,.69-.4,1.04-.6,.96-.55,1.93-1.08,2.92-1.6,.36-.19,.72-.37,1.08-.55,1.05-.53,2.12-1.03,3.2-1.52,.2-.09,.38-.19,.58-.28,0,0,0,0,0,0,4.36-1.91,8.91-3.46,13.62-4.6C49.84,9.83,25.5,35.44,19.8,67.51c.28-1.55,.6-3.08,.96-4.6,0,0,0,0,0,0Z"/><path class="cls-1" d="M82.14,2.08c.93-.21,1.86-.41,2.8-.59-.94,.18-1.87,.38-2.8,.59Z"/><path class="cls-1" d="M18.6,78.25c.01-.29,.02-.58,.04-.86-.02,.29-.03,.58-.04,.86Z"/><path class="cls-1" d="M179.88,61.88c.02,.08,.04,.16,.06,.24-.25-1.01-.53-2.01-.82-3,.1,.35,.19,.7,.29,1.05,.16,.57,.32,1.14,.47,1.72Z"/><path class="cls-1" d="M149.13,147.8c.53-.39,1.04-.8,1.56-1.2,.55-.43,1.1-.85,1.64-1.29,.53-.43,1.04-.89,1.56-1.33,.5-.44,1.02-.86,1.51-1.31,.6-.55,1.19-1.12,1.77-1.68,.38-.37,.78-.72,1.15-1.1,.95-.95,1.88-1.93,2.79-2.93,.01-.01,.03-.03,.04-.04,3.91-4.31,7.35-9.05,10.27-14.12,.19-.33,.39-.66,.57-.99,.3-.53,.59-1.07,.87-1.6,.33-.63,.66-1.27,.98-1.91,.27-.55,.54-1.11,.81-1.67,.3-.64,.59-1.28,.87-1.93,.26-.59,.51-1.18,.75-1.77,.26-.63,.5-1.25,.75-1.89,.25-.64,.48-1.29,.71-1.94,.11-.31,.21-.61,.31-.92,.42-1.25,.82-2.52,1.18-3.79,.07-.24,.14-.49,.21-.74,.34-1.25,.66-2.52,.94-3.79,.09-.39,.19-.77,.27-1.16,.33-1.58,.61-3.17,.84-4.78,.08-.53,.14-1.07,.2-1.6,.15-1.16,.27-2.33,.37-3.5,.05-.61,.1-1.22,.14-1.83,.09-1.42,.14-2.85,.15-4.29,0-.25,.02-.49,.02-.74,0-2.81-.14-5.58-.42-8.32-.02-.16-.04-.32-.06-.49-.13-1.17-.27-2.34-.45-3.5-.06-.38-.13-.75-.19-1.13-.15-.93-.31-1.86-.5-2.79-.1-.5-.22-.99-.33-1.49-.17-.79-.35-1.58-.54-2.36-.15-.58-.31-1.14-.47-1.72-.19-.69-.38-1.37-.58-2.05-.11-.36-.23-.71-.35-1.07-.09-.27-.17-.54-.26-.8-.2-.61-.4-1.21-.61-1.81-.24-.67-.5-1.34-.76-2-.14-.36-.28-.72-.42-1.07-.08-.21-.16-.42-.25-.63,0-.02-.02-.04-.03-.07-.05-.11-.09-.23-.14-.34-.08-.18-.16-.35-.24-.53-.43-1-.88-2-1.35-2.98-.07-.16-.14-.32-.21-.47-.07-.14-.14-.28-.21-.42-.21-.41-.42-.82-.63-1.23-.39-.75-.77-1.5-1.18-2.24-.16-.29-.33-.57-.49-.86-.53-.94-1.08-1.87-1.65-2.79-.54-.88-1.09-1.75-1.67-2.6-.06-.09-.13-.18-.19-.27-.62-.9-1.25-1.79-1.9-2.67-.22-.3-.45-.59-.67-.89-.52-.68-1.04-1.35-1.58-2.01-.24-.3-.49-.6-.74-.9-.6-.71-1.2-1.41-1.82-2.1-.18-.2-.36-.41-.55-.62-.81-.89-1.64-1.76-2.49-2.61-.16-.16-.33-.32-.5-.48-.69-.68-1.39-1.35-2.1-2-.28-.26-.56-.51-.85-.76-.64-.57-1.28-1.13-1.94-1.68-.28-.24-.57-.48-.86-.72-.81-.66-1.63-1.31-2.47-1.94-.12-.09-.24-.19-.36-.28-.96-.72-1.93-1.41-2.92-2.08-.28-.19-.57-.37-.85-.56-.73-.48-1.46-.96-2.21-1.42-.34-.21-.68-.42-1.02-.62-.76-.45-1.52-.89-2.29-1.32-.29-.16-.58-.33-.87-.49-1.07-.58-2.15-1.14-3.25-1.67-.06-.03-.12-.05-.17-.08-.86-.41-1.73-.8-2.61-1.18-6.22-2.72-12.84-4.7-19.75-5.81-.15-.02-.29-.05-.44-.07-.59-.09-1.18-.18-1.78-.26-.22-.03-.45-.05-.68-.08-.82-.1-1.65-.19-2.49-.27-.5-.05-.99-.09-1.49-.13-.34-.03-.68-.05-1.02-.07-.56-.03-1.12-.06-1.68-.09-.28-.01-.57-.02-.85-.03-.85-.03-1.7-.04-2.56-.04-1.35,0-2.68,.04-4.01,.1-.09,0-.19,0-.28,.01-1.21,.06-2.42,.16-3.62,.28-.23,.02-.46,.04-.69,.06-1.05,.11-2.09,.25-3.13,.4-.45,.06-.89,.13-1.34,.2-.81,.13-1.62,.28-2.42,.43-.94,.18-1.87,.38-2.8,.59-.31,.07-.61,.14-.92,.21-4.71,1.14-9.26,2.69-13.62,4.6-.2,.09-.39,.18-.59,.27-1.08,.48-2.15,.99-3.2,1.52-.36,.18-.72,.37-1.08,.55-.99,.51-1.96,1.05-2.92,1.6-.35,.2-.7,.4-1.04,.6-1.04,.62-2.06,1.26-3.07,1.92-.23,.15-.46,.29-.68,.44-2.47,1.65-4.85,3.44-7.12,5.34-.3,.25-.59,.51-.89,.77-.82,.7-1.62,1.42-2.41,2.15-.34,.32-.68,.64-1.02,.97-.74,.71-1.46,1.44-2.17,2.18-.32,.33-.63,.66-.95,.99-.76,.82-1.5,1.66-2.23,2.51-.22,.26-.46,.52-.68,.78-1.91,2.28-3.69,4.67-5.34,7.14-.17,.26-.34,.53-.51,.79-.64,.98-1.26,1.97-1.85,2.98-.2,.34-.4,.69-.6,1.04-.56,.98-1.1,1.96-1.61,2.97-.17,.33-.35,.67-.52,1-.56,1.12-1.09,2.26-1.61,3.41-.09,.21-.19,.41-.28,.62-1.24,2.85-2.32,5.78-3.23,8.79,0,.03-.01,.05-.02,.08-.44,1.45-.83,2.91-1.18,4.39-.02,.07-.03,.15-.05,.22-.36,1.52-.68,3.05-.96,4.6,0,.02,0,.05-.01,.07-.21,1.19-.39,2.39-.55,3.6-.07,.49-.13,.98-.19,1.47-.06,.53-.12,1.07-.17,1.6-.1,1.04-.18,2.08-.24,3.13-.02,.29-.03,.58-.04,.86-.06,1.22-.09,2.45-.09,3.69,0,1.04,.02,2.07,.06,3.1,.02,.59,.06,1.18,.1,1.77,.02,.41,.04,.83,.07,1.24,.06,.83,.14,1.65,.23,2.47,.02,.15,.03,.3,.04,.45,.54,4.88,1.52,9.63,2.88,14.22,.03,.09,.05,.18,.08,.27,.26,.87,.54,1.72,.83,2.58,.14,.41,.27,.82,.42,1.22,.27,.77,.56,1.53,.86,2.28,.18,.47,.36,.93,.55,1.4,.29,.71,.6,1.42,.91,2.12,.22,.49,.43,.97,.66,1.45,.32,.68,.65,1.36,.99,2.03,.24,.48,.48,.95,.73,1.42,.35,.67,.71,1.33,1.08,1.99,.26,.46,.52,.91,.78,1.36,.39,.66,.78,1.31,1.18,1.96,.27,.43,.55,.86,.83,1.29,.42,.64,.84,1.28,1.28,1.92,.29,.42,.59,.83,.89,1.25,.44,.62,.89,1.23,1.35,1.83,.1,.13,.2,.25,.3,.38,1.89,2.44,3.91,4.77,6.05,6.99,.09,.09,.17,.18,.26,.27,.52,.53,1.05,1.05,1.58,1.57,.36,.35,.72,.7,1.09,1.04,.52,.48,1.04,.96,1.57,1.43,.36,.32,.73,.64,1.1,.95,.58,.49,1.15,.98,1.74,1.46,.27,.21,.54,.42,.81,.63,1.42,1.12,2.86,2.2,4.36,3.22,.13,.09,.25,.18,.38,.27,.27,.18,.55,.36,.82,.54,.79,.53,1.59,1.05,2.41,1.54,.38,.23,.78,.46,1.16,.68,.7,.41,1.41,.83,2.12,1.22,.01,0,.02,.01,.03,.02,.01,0,.02,.01,.03,.02,.48,.27,.98,.52,1.46,.77,.63,.33,1.25,.66,1.88,.97,.63,.31,1.28,.61,1.92,.9,.37,.17,.73,.33,1.1,.5,1.03,.46,2.08,.89,3.13,1.3,.29,.11,.57,.23,.86,.34,.82,.31,1.65,.6,2.48,.89,.52,.18,1.04,.36,1.56,.53,1.1,.35,2.22,.68,3.34,.98,.31,.08,.61,.18,.92,.26,1.45,.38,2.91,.72,4.39,1.02,.31,.06,.63,.11,.95,.17,1.18,.22,2.36,.43,3.55,.6,.14,.02,.29,.03,.43,.05,1.03,.14,2.07,.29,3.11,.39,.84,.08,1.7,.14,2.55,.19,.54,.04,1.08,.06,1.62,.09,.38,.02,.76,.05,1.15,.06,.97,.04,1.95,.07,2.93,.07,.74,0,1.48-.01,2.22-.03,.74-.02,1.47-.05,2.2-.09,.27-.01,.53-.04,.79-.06,.52-.03,1.04-.09,1.55-.13,.65-.05,1.3-.09,1.94-.16,.46-.05,.91-.12,1.36-.17,.96-.12,1.91-.24,2.86-.39,.53-.08,1.06-.19,1.59-.28,.85-.15,1.7-.31,2.54-.48,0,0,0,0,.01,0,.57-.12,1.14-.26,1.7-.39,.79-.19,1.58-.37,2.37-.58,.59-.16,1.18-.33,1.76-.5,.74-.22,1.49-.44,2.22-.67,.6-.2,1.2-.4,1.8-.61,.42-.15,.83-.3,1.24-.45,.28-.1,.57-.2,.85-.31,.61-.23,1.22-.47,1.82-.72,.66-.27,1.32-.55,1.98-.84,.61-.27,1.22-.54,1.82-.83,.63-.3,1.26-.6,1.88-.91,.6-.3,1.2-.61,1.8-.92,0,0,0,0,.01,0,.01,0,.02-.01,.03-.02,.59-.31,1.17-.64,1.75-.97,.58-.33,1.16-.66,1.74-1,.02-.01,.04-.02,.06-.03,.02-.01,.04-.03,.06-.04,.55-.33,1.09-.67,1.63-1.01,.59-.37,1.17-.74,1.75-1.12,0,0,.01,0,.02-.01,0,0,0,0,.01,0,.54-.36,1.07-.74,1.6-1.11,.58-.4,1.15-.8,1.72-1.22Zm-48.69,11.45c-8.22,0-16.13-1.3-23.57-3.69-1.26-.4-2.5-.84-3.72-1.3-5.79-2.19-11.24-5.05-16.28-8.5-.74-.51-1.47-1.03-2.19-1.56-4.43-3.27-8.5-7-12.14-11.11-1.33-1.5-2.61-3.05-3.82-4.66-9.78-12.95-15.58-29.05-15.58-46.49,0-4.22,.35-8.36,1.01-12.41,.18-1.13,.38-2.25,.61-3.36,5.13-24.64,22.02-45,44.51-54.95,1.12-.5,2.25-.96,3.4-1.41,8.62-3.33,17.98-5.18,27.77-5.18,4.99,0,9.87,.49,14.61,1.4,.79,.15,1.58,.32,2.36,.5,19.37,4.36,36.01,15.99,46.88,31.89,.71,1.03,1.39,2.08,2.04,3.15,1.99,3.23,3.75,6.62,5.25,10.15,.18,.43,.35,.87,.53,1.31,3.62,8.94,5.63,18.69,5.63,28.91,0,6.51-.82,12.83-2.34,18.87-.38,1.52-.81,3.02-1.28,4.5-2.03,6.4-4.89,12.43-8.43,17.99-2.03,3.2-4.29,6.23-6.76,9.08-14.19,16.43-35.14,26.85-58.49,26.85Z"/></g></g></g></svg>