<?xml version="1.0" encoding="UTF-8"?><svg id="Layer_2" xmlns="http://www.w3.org/2000/svg" viewBox="0 0 658.83 258.12"><defs><style>.cls-1{fill:#729cb5;}</style></defs><g id="Layer_1-2"><g><path class="cls-1" d="M148.03,253.05c-7.09,.23-12.94,.42-18.78,.62-35.06,1.15-67,2.17-95.88,2.99,197.47,.49,394.93,.98,592.4,1.46-35.68-2.06-73.42-3.98-114.54-5.97-121.07,.3-242.13,.6-363.2,.9Z"/><path class="cls-1" d="M135.71,227.82c-43.44,1.32-85.23,2.52-126.51,3.6,213.63,.49,427.25,.99,640.88,1.48-41.29-2.1-83.09-4.04-126.57-5.98-129.26,.3-258.53,.6-387.79,.9Z"/><path class="cls-1" d="M527.2,201.69c-131.93,.3-263.87,.6-395.8,.9-11.84,.35-25.03,.73-36.86,1.07-31.57,.9-63.1,1.74-94.54,2.53,219.61,.5,439.22,1,658.83,1.49-43.32-2.07-86.77-4.05-131.64-5.98Z"/><path class="cls-1" d="M524.27,176.46c-130.38,.3-260.76,.59-391.13,.89-43.4,1.3-87.02,2.47-131.93,3.59,218.39,.5,436.79,1,655.18,1.5-43.72-2.07-88.68-4.13-132.11-5.98Z"/><path class="cls-1" d="M513.24,151.28c-123.85,.3-247.71,.59-371.56,.89-40.52,1.28-83.99,2.48-127.89,3.6,209.32,.5,418.63,1,627.95,1.5-44.21-2.14-87.9-4.22-128.5-5.98Z"/><path class="cls-1" d="M505.23,127.23c-11.18-.5-21.06-.92-27.64-1.16-4.74,.01-9.48,.03-14.22,.04,5.97,.39,15.16,.96,23.64,1.63,7.78,.6,24.65,1.91,37.24,3.35-14.14-1.22-23.43-1.88-29.91-2.35-14.65-1.05-29.45-1.92-44.36-2.6-95.58,.26-191.16,.51-286.74,.77-33.32,1.24-73.23,2.41-117.94,3.61,185.74,.5,371.47,1,557.21,1.5-41.62-2.1-72.62-3.68-97.26-4.79Z"/><path class="cls-1" d="M455.02,100.8c-81.35,.3-162.7,.6-244.05,.9-26.89,1.28-54.57,2.51-81.43,3.59,135.64,.5,271.28,1,406.92,1.5-26.79-2.07-54.54-4.11-81.45-5.99Z"/><path class="cls-1" d="M449.61,75.63c-79.23,.3-158.46,.59-237.69,.89-26.54,1.3-53.19,2.48-80.62,3.59,133.29,.5,266.57,1,399.86,1.5-27.97-2.14-54.94-4.15-81.55-5.98Z"/><path class="cls-1" d="M358.49,50.7c-47.07,.19-94.13,.38-141.2,.58-24.52,1.33-49.36,2.48-75.11,3.6,80.32,.33,160.64,.65,240.96,.98-8.69-2.34-16.85-4.01-24.65-5.15Z"/><path class="cls-1" d="M509.48,56.37c-28.96-2.28-54.08-4.29-76.87-5.86-.74-.05-.77-.05-1.51-.1-16.08,.07-32.15,.13-48.23,.2,9.24,.94,19.36,2.61,29.53,5.37,32.36,.13,64.72,.26,97.08,.4Z"/><path class="cls-1" d="M333.13,25.18c-38.5,.28-76.99,.57-115.49,.85-13.78,1.44-28.24,2.51-43.64,3.61,67.59,.5,135.18,1,202.77,1.5-15.41-2.15-30.25-4.32-43.64-5.96Z"/><path class="cls-1" d="M306.87,0c-21.19,.25-42.37,.49-63.56,.74-8.5,1.57-19.41,2.55-32.67,3.67,42.95,.5,85.91,1,128.86,1.5-13.24-2.42-23.94-4.72-32.63-5.91Z"/></g></g></svg>