<?xml version="1.0" encoding="utf-8"?>
<!-- Generator: Adobe Illustrator 24.0.1, SVG Export Plug-In . SVG Version: 6.00 Build 0)  -->
<svg version="1.1" id="Layer_1" xmlns="http://www.w3.org/2000/svg" xmlns:xlink="http://www.w3.org/1999/xlink" x="0px" y="0px"
	 viewBox="0 0 167.4 167.4" style="enable-background:new 0 0 167.4 167.4;" xml:space="preserve">
<style type="text/css">
	.st0{fill:#FFFFFF;}
	.st1{fill:#CA973C;}
	.st2{fill:#164F63;}
</style>
<g>
	<circle class="st0" cx="83.7" cy="83.7" r="83.2"/>
	<g>
		<g>
			<path class="st1" d="M156.3,42.1l-0.7-1.2C141,16.4,114.2,0,83.7,0C70.3,0,57.6,3.2,46.3,8.8L45,9.5c-5,2.6-9.6,5.7-13.9,9.2
				c-0.4,0.3-0.8,0.7-1.2,1c-8,6.8-14.8,15-19.8,24.3c-0.3,0.5-0.5,1-0.8,1.5C3.3,56.9,0,69.9,0,83.7c0,9.8,1.7,19.3,4.8,28.1
				c0.2,0.5,0.3,0.9,0.5,1.4c1,2.7,2.2,5.4,3.5,8c0.2,0.5,0.5,1,0.7,1.5c14,26.6,42,44.8,74.1,44.8c46.1,0,83.7-37.5,83.7-83.7
				C167.4,68.5,163.3,54.3,156.3,42.1z M140.4,136.9c-0.2,0.3-0.5,0.5-0.8,0.8c-0.2,0.2-0.4,0.4-0.5,0.6c-0.4,0.4-0.9,0.9-1.3,1.3
				c-14,13.6-33.1,21.9-54.1,21.9c-23.5,0-44.6-10.5-58.9-27c-0.3-0.3-0.6-0.7-0.8-1c-5.2-6.2-9.5-13.3-12.5-21
				c-0.2-0.4-0.4-0.9-0.5-1.4c-2.9-7.6-4.6-15.9-5-24.4c0-0.6,0-1.2-0.1-1.8c0-0.4,0-0.9,0-1.3c0-32.3,19.8-60,47.8-71.8
				c0.4-0.2,0.8-0.3,1.2-0.5c8.9-3.6,18.6-5.5,28.8-5.5c9.2,0,18,1.6,26.2,4.5c0.6,0.2,1.1,0.4,1.7,0.6
				c15.1,5.8,27.9,16.1,36.7,29.3c0.1,0.1,0.2,0.3,0.3,0.4l0,0c2.7,4.1,5.1,8.5,7,13.2c0.2,0.6,0.5,1.2,0.7,1.8
				c3.4,8.7,5.2,18.1,5.2,27.9c0,0.6,0,1.3,0,1.9c0,0.5,0,1.1-0.1,1.6c-0.2,5.1-0.9,10-2.1,14.8c-0.1,0.5-0.3,1-0.4,1.6
				C155.6,116.2,149.1,127.6,140.4,136.9z"/>
		</g>
		<g>
			<path class="st1" d="M155.6,40.9c0,0.1,0,0.1-0.1,0.2c-0.1,0.5,0.2,0.9,0.7,1h0L155.6,40.9z M114.7,36.4h-0.3
				c-0.5,0-0.9,0.4-0.9,0.9c0,0.5,0.4,0.9,0.9,0.9h0.3c0.5,0,0.9-0.4,0.9-0.9C115.6,36.8,115.2,36.4,114.7,36.4z M112.1,36.4h-0.3
				c-0.5,0-0.9,0.4-0.9,0.9c0,0.5,0.4,0.9,0.9,0.9c0,0,0,0,0,0h0.3c0.5,0,0.9-0.4,0.9-0.9C112.9,36.8,112.5,36.4,112.1,36.4z
				 M119.7,36.5l-0.3,0c-0.5,0-0.9,0.4-0.9,0.8c0,0.5,0.4,0.9,0.8,0.9l0.3,0c0,0,0,0,0,0c0.5,0,0.9-0.4,0.9-0.9
				C120.6,36.9,120.2,36.5,119.7,36.5z M104.7,36.6l-0.3,0c-0.5,0-0.9,0.4-0.8,0.9c0,0.5,0.4,0.8,0.9,0.8h0l0.3,0
				c0.5,0,0.8-0.4,0.8-0.9C105.6,37,105.2,36.6,104.7,36.6z M127,36.9l-0.3,0c-0.5,0-0.9,0.3-0.9,0.8c0,0.5,0.3,0.9,0.8,0.9l0.3,0
				c0,0,0,0,0.1,0c0.5,0,0.8-0.4,0.9-0.8C127.9,37.3,127.5,36.9,127,36.9z M99.7,36.9l-0.3,0c-0.5,0-0.8,0.5-0.8,0.9
				c0,0.5,0.4,0.8,0.9,0.8h0.1l0.3,0c0.5,0,0.9-0.5,0.8-0.9C100.6,37.3,100.2,36.9,99.7,36.9z M129.7,37.1l-0.3,0
				c-0.5,0-0.9,0.3-0.9,0.8c0,0.5,0.3,0.9,0.8,0.9l0.3,0h0.1c0.5,0,0.8-0.3,0.9-0.8C130.5,37.5,130.2,37.1,129.7,37.1z M97,37.2
				l-0.3,0c-0.5,0-0.8,0.5-0.8,0.9c0,0.5,0.4,0.8,0.9,0.8h0.1l0.3,0c0.5,0,0.8-0.5,0.8-1C97.9,37.5,97.5,37.1,97,37.2z M134.7,37.5
				l-0.3,0c-0.5,0-0.9,0.3-1,0.8c0,0.5,0.3,0.9,0.8,1l0.3,0c0,0,0,0,0.1,0c0.4,0,0.8-0.3,0.9-0.8C135.5,38,135.2,37.5,134.7,37.5z
				 M89.7,38l-0.3,0c-0.5,0.1-0.8,0.5-0.7,1c0.1,0.4,0.4,0.7,0.9,0.7h0.1l0.3,0c0.5-0.1,0.8-0.5,0.7-1C90.6,38.3,90.2,38,89.7,38z
				 M142,38.3l-0.3,0c-0.5,0-0.9,0.3-1,0.8c0,0.5,0.3,0.9,0.8,1l0.3,0h0.1c0.4,0,0.8-0.3,0.9-0.8C142.8,38.8,142.5,38.4,142,38.3z
				 M144.6,38.6l-0.3,0c-0.5-0.1-0.9,0.3-1,0.8c-0.1,0.5,0.3,0.9,0.8,1l0.3,0h0.1c0.4,0,0.8-0.3,0.9-0.8
				C145.4,39.1,145.1,38.7,144.6,38.6z M84.8,38.9l-0.3,0.1c-0.5,0.1-0.8,0.6-0.7,1c0.1,0.4,0.4,0.7,0.9,0.7c0,0,0.1,0,0.2,0l0.3,0
				c0.5-0.1,0.8-0.5,0.7-1C85.7,39.1,85.3,38.8,84.8,38.9z M149.5,39.3l-0.3,0c-0.5-0.1-0.9,0.3-1,0.7c0,0.1,0,0.3,0,0.4
				c0,0.2,0.1,0.3,0.3,0.4l0,0c0.1,0.1,0.3,0.2,0.4,0.2l0.3,0h0.1c0.4,0,0.8-0.3,0.9-0.8C150.4,39.8,150,39.4,149.5,39.3z M83.2,40
				c-0.1-0.5-0.6-0.8-1.1-0.7l-0.3,0c-0.5,0.1-0.8,0.6-0.7,1c0.1,0.4,0.5,0.7,0.9,0.7c0.1,0,0.1,0,0.2,0l0.3-0.1
				C83,41,83.3,40.5,83.2,40z M76,41.7c-0.1-0.5-0.6-0.7-1.1-0.6l-0.3,0.1c-0.5,0.1-0.7,0.6-0.6,1.1c0.1,0.4,0.5,0.6,0.9,0.6
				c0.1,0,0.2,0,0.2,0l0.3-0.1C75.9,42.6,76.2,42.1,76,41.7z M71.3,43c-0.2-0.5-0.6-0.7-1.1-0.6l-0.3,0.1c-0.5,0.2-0.7,0.6-0.6,1.1
				c0.1,0.4,0.5,0.6,0.8,0.6c0.1,0,0.2,0,0.3,0l0.3-0.1C71.1,44,71.4,43.5,71.3,43z M68.7,43.8c-0.2-0.5-0.7-0.7-1.1-0.5l-0.3,0.1
				c-0.5,0.2-0.7,0.7-0.6,1.1c0.1,0.4,0.5,0.6,0.8,0.6c0.1,0,0.2,0,0.3,0l0.3-0.1C68.6,44.8,68.9,44.3,68.7,43.8z M10,43.9
				c-0.3,0.5-0.5,1-0.8,1.5l0,0c0.1,0,0.2,0,0.2,0c0.4,0,0.8-0.3,0.9-0.6C10.5,44.5,10.3,44.2,10,43.9z M12.3,44.4L12,44.4
				c-0.5-0.1-0.9,0.2-1.1,0.6c-0.1,0.5,0.2,0.9,0.6,1.1l0.3,0.1c0.1,0,0.1,0,0.2,0c0.4,0,0.8-0.3,0.9-0.7C13,45,12.7,44.6,12.3,44.4
				z M17.1,45.6l-0.3-0.1c-0.5-0.1-0.9,0.2-1.1,0.7c-0.1,0.5,0.2,0.9,0.6,1.1l0.3,0.1c0.1,0,0.1,0,0.2,0c0.4,0,0.8-0.3,0.9-0.7
				C17.9,46.2,17.6,45.7,17.1,45.6z M61.8,46.2c-0.2-0.5-0.6-0.7-1.1-0.6l-0.1,0l-0.2,0c-0.5,0.2-0.7,0.7-0.6,1.1
				c0.1,0.4,0.5,0.6,0.8,0.6c0.1,0,0.2,0,0.3,0l0.3-0.1C61.7,47.2,62,46.7,61.8,46.2z M24.2,47.2l-0.3-0.1c-0.5-0.1-0.9,0.2-1,0.7
				c-0.1,0.5,0.2,0.9,0.7,1l0.3,0.1c0.1,0,0.1,0,0.2,0c0.4,0,0.8-0.3,0.9-0.7C25,47.7,24.7,47.3,24.2,47.2z M57.1,47.8
				c-0.1-0.5-0.6-0.7-1.1-0.6l-0.3,0.1c-0.5,0.1-0.7,0.6-0.6,1.1c0.1,0.4,0.5,0.6,0.8,0.6c0.1,0,0.2,0,0.2,0l0.3-0.1
				C56.9,48.7,57.2,48.2,57.1,47.8z M26.8,47.7l-0.2,0l-0.1,0c-0.5-0.1-0.9,0.2-1,0.7c-0.1,0.5,0.2,0.9,0.7,1l0.3,0
				c0.1,0,0.1,0,0.2,0c0.3,0,0.6-0.2,0.7-0.4c0.1-0.1,0.1-0.2,0.1-0.3C27.6,48.2,27.3,47.8,26.8,47.7z M54.5,48.5
				c-0.1-0.5-0.6-0.8-1.1-0.6l-0.3,0.1c-0.5,0.1-0.8,0.6-0.6,1.1c0.1,0.4,0.5,0.7,0.9,0.7c0.1,0,0.1,0,0.2,0l0.3-0.1
				C54.4,49.4,54.7,49,54.5,48.5z M31.7,48.5l-0.3,0c-0.5-0.1-0.9,0.3-1,0.7c-0.1,0.5,0.3,0.9,0.7,1l0.3,0c0,0,0.1,0,0.1,0
				c0.4,0,0.8-0.3,0.9-0.8C32.5,49,32.2,48.6,31.7,48.5z M46.4,49.1l-0.3,0c-0.5,0-0.8,0.5-0.8,0.9c0,0.5,0.4,0.8,0.9,0.8h0.1l0.3,0
				c0.5,0,0.8-0.5,0.8-1C47.3,49.4,46.9,49.1,46.4,49.1z M38.9,49.2l-0.3,0c-0.5,0-0.9,0.3-0.9,0.8c0,0.5,0.3,0.9,0.8,0.9l0.3,0
				c0,0,0,0,0,0c0.5,0,0.9-0.4,0.9-0.8C39.8,49.7,39.4,49.3,38.9,49.2z M41.5,49.3h-0.3c-0.5,0-0.9,0.4-0.9,0.9
				c0,0.5,0.4,0.9,0.9,0.9h0.3c0.5,0,0.9-0.4,0.9-0.9C42.4,49.7,42,49.3,41.5,49.3z"/>
		</g>
		<g>
			<path class="st1" d="M28.3,47.7l-0.1-0.2c-0.2-0.4-0.8-0.6-1.2-0.3c-0.2,0.1-0.3,0.3-0.4,0.5c-0.1,0.2,0,0.5,0.1,0.7l0.2,0.3
				c0.1,0.2,0.3,0.3,0.5,0.4c0.1,0,0.1,0,0.2,0c0.2,0,0.3,0,0.5-0.1C28.5,48.7,28.6,48.1,28.3,47.7z M139,50.8h-0.3
				c-0.5,0-0.9,0.4-0.9,0.9c0,0.5,0.4,0.9,0.9,0.9c0,0,0,0,0,0h0.3c0.5,0,0.9-0.4,0.9-0.9C139.9,51.2,139.5,50.8,139,50.8z
				 M141.7,50.9l-0.3,0c-0.5,0-0.9,0.4-0.9,0.8c0,0.5,0.4,0.9,0.9,0.9l0.3,0h0c0.5,0,0.9-0.4,0.9-0.8
				C142.6,51.3,142.2,50.9,141.7,50.9z M31.3,51.5l-0.2-0.2c-0.3-0.4-0.9-0.4-1.2,0c-0.4,0.3-0.4,0.9,0,1.2l0.2,0.2
				c0.2,0.2,0.4,0.3,0.6,0.3c0.2,0,0.4-0.1,0.6-0.3C31.6,52.4,31.6,51.8,31.3,51.5z M146.8,51.4l-0.3,0c-0.5-0.1-0.9,0.2-1,0.7
				c-0.1,0.5,0.2,0.9,0.7,1l0.3,0c0,0,0.1,0,0.2,0c0.4,0,0.8-0.3,0.9-0.7C147.6,51.9,147.2,51.5,146.8,51.4z M131.6,51.5l-0.3,0
				c-0.5,0.1-0.8,0.5-0.7,1c0.1,0.4,0.4,0.7,0.9,0.7c0,0,0.1,0,0.1,0l0.3,0c0.5-0.1,0.8-0.5,0.7-1C132.5,51.8,132.1,51.5,131.6,51.5
				z M126.7,52.5l-0.3,0.1c-0.5,0.1-0.8,0.6-0.7,1.1c0.1,0.4,0.5,0.7,0.9,0.7c0.1,0,0.1,0,0.2,0l0.3-0.1c0.5-0.1,0.8-0.6,0.7-1
				C127.6,52.7,127.1,52.4,126.7,52.5z M125.1,53.7c-0.1-0.5-0.6-0.8-1-0.7l-0.3,0.1c-0.5,0.1-0.8,0.6-0.7,1.1
				c0.1,0.4,0.5,0.7,0.9,0.7c0.1,0,0.1,0,0.2,0l0.3-0.1C124.9,54.7,125.2,54.2,125.1,53.7z M154,53.2l-0.3-0.1
				c-0.5-0.1-1,0.1-1.1,0.6c-0.1,0.5,0.1,1,0.6,1.1l0.3,0.1c0.1,0,0.2,0,0.3,0c0.4,0,0.7-0.2,0.8-0.6
				C154.7,53.8,154.5,53.3,154,53.2z M156.5,54l-0.3-0.1c-0.2-0.1-0.4-0.1-0.6,0c-0.2,0.1-0.4,0.3-0.5,0.5c-0.2,0.5,0.1,1,0.5,1.1
				l0.3,0.1c0.1,0,0.2,0,0.3,0c0,0,0.1,0,0.1,0c0.3,0,0.6-0.2,0.8-0.6C157.2,54.7,157,54.2,156.5,54z M118,55.3
				c-0.1-0.5-0.6-0.8-1.1-0.7l-0.3,0.1c-0.5,0.1-0.8,0.6-0.7,1.1c0.1,0.4,0.4,0.7,0.9,0.7c0.1,0,0.1,0,0.2,0l0.3-0.1
				C117.8,56.3,118.1,55.8,118,55.3z M36.9,55.7l-0.3-0.2c-0.4-0.2-0.9-0.1-1.2,0.3c-0.2,0.4-0.1,1,0.3,1.2l0.3,0.2
				c0.1,0.1,0.3,0.1,0.4,0.1c0.3,0,0.6-0.2,0.8-0.4C37.5,56.5,37.4,56,36.9,55.7z M161.2,55.8l-0.3-0.1c-0.4-0.2-1,0-1.1,0.5
				c-0.2,0.5,0,1,0.5,1.1l0.3,0.1c0.1,0,0.2,0.1,0.3,0.1c0.3,0,0.7-0.2,0.8-0.6C161.9,56.5,161.7,56,161.2,55.8z M113.1,56.5
				c-0.1-0.5-0.6-0.8-1.1-0.7l-0.3,0.1c-0.5,0.1-0.8,0.6-0.7,1c0.1,0.4,0.5,0.7,0.9,0.7c0.1,0,0.1,0,0.2,0l0.3-0.1
				C112.9,57.4,113.2,56.9,113.1,56.5z M110.5,57.1c-0.1-0.5-0.6-0.8-1.1-0.7l-0.3,0.1c-0.5,0.1-0.8,0.6-0.7,1.1
				c0.1,0.4,0.5,0.7,0.9,0.7c0.1,0,0.1,0,0.2,0l0.3-0.1C110.4,58,110.6,57.5,110.5,57.1z M39.2,56.9L39,56.8c-0.4-0.2-1,0-1.2,0.4
				c-0.2,0.4,0,1,0.4,1.2l0.3,0.1c0.1,0.1,0.3,0.1,0.4,0.1c0.3,0,0.6-0.2,0.8-0.5C39.8,57.7,39.7,57.1,39.2,56.9z M103.4,58.7
				c-0.1-0.5-0.6-0.8-1-0.7L102,58c-0.5,0.1-0.8,0.6-0.7,1.1c0.1,0.4,0.4,0.7,0.9,0.7c0.1,0,0.1,0,0.2,0l0.3-0.1
				C103.2,59.6,103.5,59.1,103.4,58.7z M43.7,58.8l-0.3-0.1c-0.5-0.2-1,0.1-1.1,0.5c-0.2,0.5,0.1,1,0.5,1.1l0.3,0.1
				c0.1,0,0.2,0,0.3,0c0.4,0,0.7-0.2,0.8-0.6C44.4,59.4,44.2,58.9,43.7,58.8z M97.5,59l-0.3,0.1c-0.5,0.1-0.8,0.6-0.7,1
				c0.1,0.4,0.5,0.7,0.9,0.7c0.1,0,0.1,0,0.2,0l0.3,0c0.5-0.1,0.8-0.6,0.7-1C98.4,59.2,98,58.9,97.5,59z M94.9,59.5l-0.3,0.1
				c-0.5,0.1-0.8,0.6-0.7,1c0.1,0.4,0.5,0.7,0.9,0.7c0.1,0,0.1,0,0.2,0l0.3,0c0.5-0.1,0.8-0.6,0.7-1C95.8,59.7,95.4,59.4,94.9,59.5z
				 M50.7,60.7l-0.3-0.1c-0.5-0.1-0.9,0.2-1,0.7c-0.1,0.5,0.2,0.9,0.7,1l0.3,0.1c0.1,0,0.1,0,0.2,0c0.4,0,0.8-0.3,0.9-0.7
				C51.5,61.2,51.2,60.8,50.7,60.7z M87.7,60.7l-0.3,0c-0.5,0.1-0.8,0.5-0.7,1c0.1,0.4,0.4,0.8,0.9,0.8c0,0,0.1,0,0.1,0l0.3,0
				c0.5-0.1,0.8-0.5,0.8-1C88.6,61,88.2,60.7,87.7,60.7z M53.3,61.2L53,61.1c-0.5-0.1-0.9,0.2-1,0.7c-0.1,0.5,0.2,0.9,0.7,1l0.3,0.1
				c0,0,0.1,0,0.2,0c0.4,0,0.8-0.3,0.9-0.7C54.1,61.7,53.7,61.2,53.3,61.2z M82.8,61.4l-0.3,0c-0.5,0.1-0.8,0.5-0.8,1
				c0,0.4,0.4,0.8,0.9,0.8c0,0,0.1,0,0.1,0l0.3,0c0.5-0.1,0.8-0.5,0.8-1C83.7,61.7,83.3,61.4,82.8,61.4z M80.2,61.7l-0.3,0
				c-0.5,0.1-0.8,0.5-0.8,1c0,0.4,0.4,0.8,0.9,0.8h0.1l0.3,0c0.5,0,0.8-0.5,0.8-1C81.1,62,80.7,61.7,80.2,61.7z M58.1,61.9l-0.3,0
				c-0.5,0-0.9,0.3-1,0.8c-0.1,0.5,0.3,0.9,0.8,1l0.3,0H58c0.4,0,0.8-0.3,0.9-0.8C59,62.3,58.6,61.9,58.1,61.9z M72.9,62.3l-0.3,0
				c-0.5,0-0.9,0.4-0.8,0.9c0,0.5,0.4,0.8,0.9,0.8h0l0.3,0c0.5,0,0.9-0.4,0.8-0.9C73.8,62.6,73.4,62.3,72.9,62.3z M65.4,62.4l-0.3,0
				c-0.4,0-0.9,0.4-0.9,0.8c0,0.5,0.4,0.9,0.8,0.9l0.3,0c0,0,0,0,0,0c0.5,0,0.9-0.4,0.9-0.9C66.2,62.8,65.9,62.4,65.4,62.4z
				 M68,62.4h-0.3c-0.5,0-0.9,0.4-0.9,0.9c0,0.5,0.4,0.9,0.9,0.9H68c0.5,0,0.9-0.4,0.9-0.9C68.9,62.8,68.5,62.4,68,62.4z"/>
		</g>
		<g>
			<path class="st1" d="M8,63.2c-0.5,0-0.9,0.3-1,0.8c-0.1,0.5,0.3,0.9,0.8,1L8,65l0.2-0.9l0.1-0.9L8,63.2z M10.9,63.6l-0.3,0
				c-0.5-0.1-0.9,0.3-1,0.7c-0.1,0.5,0.3,0.9,0.8,1l0.3,0h0.1c0.4,0,0.8-0.3,0.9-0.8C11.8,64.1,11.4,63.7,10.9,63.6z M15.9,64.4
				l-0.3,0c-0.5-0.1-0.9,0.2-1,0.7c-0.1,0.5,0.2,0.9,0.7,1l0.3,0.1c0.1,0,0.1,0,0.2,0c0.4,0,0.8-0.3,0.9-0.7
				C16.7,65,16.4,64.5,15.9,64.4z M23.1,65.9l-0.3-0.1c-0.5-0.1-0.9,0.2-1,0.7c-0.1,0.5,0.2,0.9,0.7,1l0.3,0.1c0.1,0,0.1,0,0.2,0
				c0.4,0,0.8-0.3,0.9-0.7C23.9,66.5,23.6,66,23.1,65.9z M129.6,66.3C129.6,66.3,129.6,66.3,129.6,66.3h-0.3c-0.5,0-0.9,0.4-0.9,0.9
				c0,0.5,0.4,0.9,0.9,0.9h0.3c0.5,0,0.9-0.4,0.9-0.9C130.4,66.7,130.1,66.3,129.6,66.3z M126.9,66.3h-0.3c-0.5,0-0.9,0.4-0.9,0.9
				c0,0.5,0.4,0.9,0.9,0.9h0.3c0.5,0,0.9-0.4,0.9-0.9C127.8,66.7,127.4,66.3,126.9,66.3z M134.6,66.3l-0.3,0c-0.5,0-0.9,0.4-0.9,0.9
				c0,0.5,0.4,0.9,0.8,0.9l0.3,0h0c0.5,0,0.9-0.4,0.9-0.8C135.5,66.8,135.1,66.4,134.6,66.3z M25.7,66.5l-0.3-0.1
				c-0.5-0.1-0.9,0.2-1.1,0.7c-0.1,0.5,0.2,0.9,0.7,1.1l0.3,0.1c0.1,0,0.1,0,0.2,0c0.4,0,0.8-0.3,0.9-0.7
				C26.4,67.1,26.2,66.6,25.7,66.5z M119.5,66.7l-0.3,0c-0.5,0-0.8,0.5-0.8,0.9c0,0.5,0.4,0.8,0.9,0.8h0.1l0.3,0
				c0.5,0,0.8-0.5,0.8-0.9C120.5,67,120,66.6,119.5,66.7z M142,66.9l-0.3,0c-0.5,0-0.9,0.3-1,0.8c0,0.5,0.3,0.9,0.8,1l0.3,0
				c0,0,0.1,0,0.1,0c0.4,0,0.8-0.3,0.9-0.8C142.8,67.4,142.5,67,142,66.9z M114.6,67.1l-0.3,0c-0.5,0-0.8,0.5-0.8,1
				c0,0.4,0.4,0.8,0.9,0.8h0.1l0.3,0c0.5,0,0.8-0.5,0.8-1C115.5,67.4,115,67,114.6,67.1z M144.6,67.2l-0.3,0c-0.5-0.1-0.9,0.3-1,0.8
				c-0.1,0.5,0.3,0.9,0.8,1l0.3,0c0,0,0.1,0,0.1,0c0.4,0,0.8-0.3,0.9-0.8C145.4,67.7,145.1,67.3,144.6,67.2z M111.9,67.3l-0.3,0
				c-0.5,0-0.8,0.5-0.8,1c0,0.4,0.4,0.8,0.9,0.8c0,0,0.1,0,0.1,0l0.3,0c0.5,0,0.8-0.5,0.8-1C112.9,67.6,112.4,67.3,111.9,67.3z
				 M30.5,67.5l-0.3-0.1c-0.5-0.1-1,0.2-1,0.7c-0.1,0.5,0.2,0.9,0.7,1l0.3,0.1c0.1,0,0.1,0,0.2,0c0.4,0,0.8-0.3,0.9-0.7
				C31.3,68.1,31,67.6,30.5,67.5z M149.5,68l-0.3,0c-0.5-0.1-0.9,0.2-1,0.7c-0.1,0.5,0.2,0.9,0.7,1l0.3,0c0,0,0.1,0,0.2,0
				c0.4,0,0.8-0.3,0.9-0.7C150.3,68.6,150,68.1,149.5,68z M104.6,68.2l-0.3,0c-0.5,0.1-0.8,0.5-0.8,1c0.1,0.5,0.4,0.8,0.9,0.8
				c0,0,0.1,0,0.1,0l0.3,0c0.5-0.1,0.8-0.5,0.8-1C105.5,68.4,105.1,68.1,104.6,68.2z M99.7,68.8l-0.3,0c-0.5,0.1-0.8,0.5-0.8,1
				c0,0.4,0.4,0.8,0.9,0.8c0,0,0.1,0,0.1,0l0.3,0c0.5-0.1,0.8-0.5,0.8-1C100.6,69,100.1,68.7,99.7,68.8z M37.7,68.8l-0.3,0
				c-0.5-0.1-0.9,0.2-1,0.7c-0.1,0.5,0.2,0.9,0.7,1l0.3,0c0,0,0.1,0,0.1,0c0.4,0,0.8-0.3,0.9-0.8C38.5,69.3,38.2,68.9,37.7,68.8z
				 M97.1,69.1l-0.3,0c-0.5,0.1-0.8,0.5-0.8,1c0.1,0.4,0.4,0.8,0.9,0.8c0,0,0.1,0,0.1,0l0.3,0c0.5-0.1,0.8-0.5,0.8-1
				C98,69.4,97.5,69,97.1,69.1z M40.3,69.2l-0.3,0c-0.5-0.1-0.9,0.3-1,0.7c-0.1,0.5,0.3,0.9,0.7,1l0.3,0c0,0,0.1,0,0.1,0
				c0.4,0,0.8-0.3,0.9-0.8C41.1,69.7,40.8,69.3,40.3,69.2z M156.8,69.5l-0.3-0.1c-0.5-0.1-0.9,0.2-1,0.7c-0.1,0.5,0.2,0.9,0.7,1.1
				l0.3,0.1c0.1,0,0.1,0,0.2,0c0.4,0,0.8-0.3,0.9-0.7C157.6,70.1,157.3,69.6,156.8,69.5z M45.2,69.9l-0.3,0c-0.5,0-0.9,0.3-1,0.8
				c-0.1,0.5,0.3,0.9,0.8,1l0.3,0h0.1c0.4,0,0.8-0.3,0.9-0.8C46.1,70.4,45.7,69.9,45.2,69.9z M89.8,69.9l-0.3,0
				c-0.5,0-0.8,0.5-0.8,1c0,0.5,0.4,0.8,0.9,0.8h0.1l0.3,0c0.5,0,0.8-0.5,0.8-1C90.7,70.2,90.3,69.9,89.8,69.9z M159.4,70.1
				l-0.3-0.1c-0.5-0.1-0.9,0.2-1.1,0.7c-0.1,0.5,0.2,0.9,0.7,1.1l0.3,0.1c0.1,0,0.1,0,0.2,0c0.4,0,0.8-0.3,0.9-0.7
				C160.1,70.7,159.8,70.2,159.4,70.1z M84.9,70.4l-0.3,0c-0.5,0-0.8,0.5-0.8,1c0,0.5,0.4,0.8,0.9,0.8h0.1l0.3,0
				c0.5,0,0.8-0.5,0.8-0.9C85.8,70.7,85.3,70.4,84.9,70.4z M52.5,70.6l-0.3,0c-0.5,0-0.9,0.3-0.9,0.8c0,0.5,0.3,0.9,0.8,0.9l0.3,0
				h0.1c0.5,0,0.8-0.4,0.9-0.8C53.3,71.1,53,70.7,52.5,70.6z M82.2,70.6l-0.3,0c-0.5,0-0.8,0.5-0.8,0.9c0,0.5,0.4,0.8,0.9,0.8
				c0,0,0,0,0.1,0l0.3,0c0.5,0,0.8-0.4,0.8-0.9C83.1,71,82.7,70.6,82.2,70.6z M55.1,70.8l-0.3,0c-0.5,0-0.9,0.3-0.9,0.8
				c0,0.5,0.3,0.9,0.8,0.9l0.3,0h0.1c0.5,0,0.8-0.4,0.9-0.8C56,71.3,55.6,70.8,55.1,70.8z M60.1,71.1l-0.3,0c-0.4,0-0.9,0.4-0.9,0.8
				c0,0.5,0.4,0.9,0.8,0.9l0.3,0h0c0.5,0,0.9-0.4,0.9-0.8C60.9,71.5,60.6,71.1,60.1,71.1z M74.9,71.1l-0.3,0c-0.5,0-0.9,0.4-0.8,0.9
				c0,0.5,0.4,0.8,0.9,0.8c0,0,0,0,0,0l0.3,0c0.5,0,0.9-0.4,0.8-0.9C75.8,71.4,75.4,71,74.9,71.1z M164.2,71.2l-0.3-0.1
				c-0.5-0.1-0.9,0.2-1.1,0.7c-0.1,0.5,0.2,0.9,0.6,1.1l0.3,0.1c0.1,0,0.1,0,0.2,0c0.4,0,0.8-0.3,0.9-0.7
				C165,71.8,164.7,71.3,164.2,71.2z M70,71.2h-0.3c-0.5,0-0.9,0.4-0.9,0.9c0,0.5,0.4,0.9,0.9,0.9H70c0.5,0,0.9-0.4,0.9-0.9
				C70.9,71.6,70.5,71.2,70,71.2z M67.4,71.2h-0.3c-0.5,0-0.9,0.4-0.9,0.9c0,0.5,0.4,0.9,0.9,0.9h0.3c0.5,0,0.9-0.4,0.9-0.9
				C68.2,71.6,67.8,71.2,67.4,71.2z"/>
		</g>
		<g>
			<path class="st1" d="M28.4,82.8h-0.3c-0.5,0-0.9,0.4-0.9,0.9c0,0.5,0.4,0.9,0.9,0.9h0.3c0.5,0,0.9-0.4,0.9-0.9
				C29.3,83.2,28.9,82.8,28.4,82.8z M31,82.9l-0.3,0c-0.5,0-0.9,0.4-0.9,0.8c0,0.5,0.4,0.9,0.9,0.9l0.3,0c0,0,0,0,0,0
				c0.5,0,0.9-0.4,0.9-0.9C31.9,83.3,31.5,82.9,31,82.9z M21,83l-0.3,0c-0.5,0-0.9,0.4-0.8,0.9c0,0.5,0.4,0.8,0.9,0.8h0l0.3,0
				c0.5,0,0.8-0.4,0.8-0.9C21.9,83.3,21.5,83,21,83z M36.1,83.2l-0.3,0c-0.5,0-0.9,0.3-0.9,0.8c0,0.5,0.3,0.9,0.8,0.9l0.3,0H36
				c0.5,0,0.8-0.4,0.9-0.8C36.9,83.6,36.5,83.2,36.1,83.2z M16,83.4l-0.3,0c-0.5,0.1-0.8,0.5-0.8,1c0,0.4,0.4,0.8,0.9,0.8h0.1l0.3,0
				c0.5-0.1,0.8-0.5,0.8-1C16.9,83.7,16.5,83.4,16,83.4z M13.3,83.7l-0.3,0c-0.5,0.1-0.8,0.5-0.8,1c0,0.4,0.4,0.8,0.9,0.8
				c0,0,0.1,0,0.1,0l0.3,0c0.5-0.1,0.8-0.5,0.8-1C14.3,84,13.8,83.6,13.3,83.7z M43.4,84l-0.3,0c-0.5-0.1-0.9,0.2-1,0.7
				c-0.1,0.5,0.3,0.9,0.7,1l0.3,0h0.1c0.4,0,0.8-0.3,0.9-0.8C44.2,84.5,43.9,84.1,43.4,84z M46,84.4l-0.3-0.1
				c-0.5-0.1-0.9,0.2-1,0.7c-0.1,0.5,0.2,0.9,0.7,1l0.3,0c0,0,0.1,0,0.2,0c0.4,0,0.8-0.3,0.9-0.7C46.8,85,46.5,84.5,46,84.4z
				 M7.1,85.6c-0.1-0.5-0.6-0.8-1-0.7l-0.2,0l-0.1,0c-0.5,0.1-0.8,0.6-0.7,1c0.1,0.4,0.4,0.7,0.8,0.7h0c0.1,0,0.1,0,0.2,0l0.3-0.1
				C6.9,86.6,7.2,86.1,7.1,85.6z M50.9,85.4l-0.3-0.1c-0.5-0.1-0.9,0.2-1,0.7c-0.1,0.5,0.2,0.9,0.7,1l0.3,0.1c0.1,0,0.1,0,0.2,0
				c0.4,0,0.8-0.3,0.9-0.7C51.7,85.9,51.4,85.5,50.9,85.4z M163.7,85.4h-0.3c-0.5,0-0.9,0.4-0.9,0.9c0,0.5,0.4,0.9,0.9,0.9h0.3
				c0.5,0,0.9-0.4,0.9-0.9C164.6,85.8,164.2,85.4,163.7,85.4z M161.5,85.6c-0.1-0.1-0.3-0.1-0.4-0.1l-0.3,0c-0.5,0-0.9,0.4-0.8,0.9
				c0,0.5,0.4,0.8,0.9,0.8h0l0.3,0c0.1,0,0.2,0,0.3-0.1c0.3-0.1,0.6-0.5,0.6-0.8C162,86,161.8,85.7,161.5,85.6z M153.7,86.1l-0.3,0
				c-0.5,0.1-0.8,0.5-0.8,1c0.1,0.4,0.4,0.8,0.9,0.8h0.1l0.3,0c0.5-0.1,0.8-0.5,0.8-1C154.6,86.4,154.2,86,153.7,86.1z M2.2,86.7
				c-0.1-0.5-0.6-0.8-1.1-0.6l-0.3,0.1c-0.5,0.1-0.8,0.6-0.6,1.1c0.1,0.4,0.5,0.7,0.9,0.7c0.1,0,0.1,0,0.2,0l0.3-0.1
				C2.1,87.7,2.3,87.2,2.2,86.7z M148.7,86.8l-0.3,0c-0.5,0.1-0.8,0.5-0.7,1c0.1,0.4,0.4,0.8,0.9,0.8c0,0,0.1,0,0.1,0l0.3,0
				c0.5-0.1,0.8-0.5,0.7-1C149.6,87,149.2,86.7,148.7,86.8z M58.1,87l-0.3-0.1c-0.5-0.1-0.9,0.2-1.1,0.6c-0.1,0.5,0.2,0.9,0.6,1.1
				l0.3,0.1c0.1,0,0.1,0,0.2,0c0.4,0,0.8-0.3,0.9-0.7C58.9,87.6,58.6,87.1,58.1,87z M146.1,87.2l-0.3,0c-0.5,0.1-0.8,0.5-0.7,1
				c0.1,0.4,0.4,0.7,0.9,0.7c0.1,0,0.1,0,0.2,0l0.3,0c0.5-0.1,0.8-0.6,0.7-1C147,87.4,146.6,87.1,146.1,87.2z M60.7,87.6l-0.3-0.1
				c-0.5-0.1-0.9,0.2-1.1,0.6c-0.1,0.5,0.2,0.9,0.6,1.1l0.3,0.1c0.1,0,0.1,0,0.2,0c0.4,0,0.8-0.3,0.9-0.7
				C61.5,88.2,61.2,87.7,60.7,87.6z M139.9,89.2c-0.1-0.5-0.6-0.8-1-0.7l-0.3,0.1c-0.5,0.1-0.8,0.6-0.7,1c0.1,0.4,0.4,0.7,0.9,0.7
				c0.1,0,0.1,0,0.2,0l0.3-0.1C139.7,90.2,140,89.7,139.9,89.2z M65.5,88.8l-0.3-0.1c-0.5-0.1-0.9,0.2-1.1,0.6
				c-0.1,0.5,0.2,0.9,0.6,1.1l0.3,0.1c0.1,0,0.1,0,0.2,0c0.4,0,0.8-0.3,0.9-0.7C66.3,89.4,66,88.9,65.5,88.8z M135,90.2
				c-0.1-0.5-0.6-0.8-1-0.7l-0.3,0.1c-0.5,0.1-0.8,0.6-0.7,1.1c0.1,0.4,0.4,0.7,0.9,0.7c0.1,0,0.1,0,0.2,0l0.3-0.1
				C134.8,91.2,135.1,90.7,135,90.2z M131.4,90.1l-0.3,0.1c-0.5,0.1-0.8,0.6-0.7,1c0.1,0.4,0.4,0.7,0.9,0.7c0.1,0,0.1,0,0.2,0
				l0.3-0.1c0.5-0.1,0.8-0.6,0.7-1C132.3,90.3,131.9,90,131.4,90.1z M72.6,90.5l-0.3-0.1c-0.5-0.1-0.9,0.2-1.1,0.6
				c-0.1,0.5,0.2,0.9,0.6,1.1l0.3,0.1c0.1,0,0.1,0,0.2,0c0.4,0,0.8-0.3,0.9-0.7C73.4,91.1,73.1,90.6,72.6,90.5z M75.2,91.1l-0.3-0.1
				c-0.5-0.1-0.9,0.2-1.1,0.7c-0.1,0.5,0.2,0.9,0.7,1.1l0.3,0.1c0.1,0,0.1,0,0.2,0c0.4,0,0.8-0.3,0.9-0.7
				C76,91.7,75.7,91.2,75.2,91.1z M125.2,92.2c-0.1-0.5-0.6-0.8-1-0.7l-0.3,0.1c-0.5,0.1-0.8,0.6-0.7,1c0.1,0.4,0.4,0.7,0.9,0.7
				c0.1,0,0.1,0,0.2,0l0.3-0.1C125,93.2,125.3,92.7,125.2,92.2z M80.1,92.2l-0.3-0.1c-0.5-0.1-0.9,0.2-1,0.7c-0.1,0.5,0.2,0.9,0.7,1
				l0.3,0.1c0.1,0,0.1,0,0.2,0c0.4,0,0.8-0.3,0.9-0.7C80.9,92.7,80.6,92.3,80.1,92.2z M119.3,92.5l-0.3,0c-0.5,0.1-0.8,0.5-0.7,1
				c0.1,0.4,0.4,0.7,0.9,0.7c0,0,0.1,0,0.2,0l0.3,0c0.5-0.1,0.8-0.5,0.7-1C120.3,92.7,119.8,92.4,119.3,92.5z M116.7,92.9l-0.3,0
				c-0.5,0.1-0.8,0.5-0.7,1c0.1,0.4,0.4,0.7,0.9,0.7c0,0,0.1,0,0.1,0l0.3,0c0.5-0.1,0.8-0.5,0.7-1C117.7,93.1,117.2,92.8,116.7,92.9
				z M87.2,93.4l-0.3,0c-0.5-0.1-0.9,0.3-1,0.7c-0.1,0.5,0.3,0.9,0.8,1l0.3,0c0,0,0.1,0,0.1,0c0.4,0,0.8-0.3,0.9-0.8
				C88.1,93.9,87.7,93.5,87.2,93.4z M89.8,93.8l-0.3,0c-0.5,0-0.9,0.3-1,0.8c-0.1,0.5,0.3,0.9,0.8,1l0.3,0h0.1
				c0.4,0,0.8-0.3,0.9-0.8C90.7,94.3,90.3,93.8,89.8,93.8z M109.5,93.9l-0.3,0c-0.5,0-0.8,0.5-0.8,1c0,0.5,0.4,0.8,0.9,0.8h0.1
				l0.3,0c0.5,0,0.8-0.5,0.8-1C110.4,94.2,110,93.8,109.5,93.9z M94.8,94.2l-0.3,0c-0.5,0-0.9,0.3-0.9,0.8c0,0.5,0.3,0.9,0.8,0.9
				l0.3,0h0.1c0.5,0,0.8-0.4,0.9-0.8C95.6,94.7,95.2,94.3,94.8,94.2z M104.6,94.3l-0.3,0c-0.5,0-0.9,0.4-0.8,0.9
				c0,0.5,0.4,0.8,0.9,0.8h0l0.3,0c0.5,0,0.9-0.4,0.8-0.9C105.5,94.6,105.1,94.2,104.6,94.3z M102,94.4h-0.3c-0.5,0-0.9,0.4-0.9,0.9
				c0,0.5,0.4,0.9,0.9,0.9c0,0,0,0,0,0h0.3c0.5,0,0.9-0.4,0.9-0.9C102.9,94.8,102.5,94.4,102,94.4z"/>
		</g>
		<g>
			<path class="st1" d="M36.1,18.9l-0.3,0c-0.5,0-0.9,0.3-0.9,0.8c0,0.5,0.3,0.9,0.8,0.9l0.3,0c0,0,0,0,0.1,0c0.5,0,0.8-0.4,0.9-0.8
				C36.9,19.4,36.5,19,36.1,18.9z M43.4,19.8l-0.3,0c-0.5-0.1-0.9,0.3-1,0.7c-0.1,0.5,0.3,0.9,0.7,1l0.3,0c0,0,0.1,0,0.1,0
				c0.4,0,0.8-0.3,0.9-0.8C44.2,20.3,43.9,19.9,43.4,19.8z M46,20.2l-0.3,0c-0.5-0.1-0.9,0.2-1,0.7c-0.1,0.5,0.2,0.9,0.7,1l0.3,0
				c0,0,0.1,0,0.2,0c0.4,0,0.8-0.3,0.9-0.7C46.8,20.8,46.5,20.3,46,20.2z M50.9,21.2l-0.3-0.1c-0.5-0.1-0.9,0.2-1,0.7
				c-0.1,0.5,0.2,0.9,0.7,1l0.3,0.1c0.1,0,0.1,0,0.2,0c0.4,0,0.8-0.3,0.9-0.7C51.7,21.7,51.4,21.3,50.9,21.2z M58.1,22.8l-0.3-0.1
				c-0.5-0.1-0.9,0.2-1.1,0.7c-0.1,0.5,0.2,0.9,0.6,1.1l0.3,0.1c0.1,0,0.1,0,0.2,0c0.4,0,0.8-0.3,0.9-0.7
				C58.9,23.3,58.6,22.9,58.1,22.8z M60.7,23.4l-0.3-0.1c-0.5-0.1-0.9,0.2-1.1,0.6c-0.1,0.5,0.2,0.9,0.6,1.1l0.3,0.1
				c0.1,0,0.1,0,0.2,0c0.4,0,0.8-0.3,0.9-0.7C61.5,24,61.2,23.5,60.7,23.4z M139.9,25c-0.1-0.5-0.6-0.8-1-0.7l-0.3,0.1
				c-0.5,0.1-0.8,0.6-0.7,1c0.1,0.4,0.4,0.7,0.9,0.7c0.1,0,0.1,0,0.2,0l0.3-0.1C139.7,25.9,140,25.5,139.9,25z M65.5,24.6l-0.3-0.1
				c-0.5-0.1-0.9,0.2-1.1,0.6c-0.1,0.5,0.2,0.9,0.6,1.1l0.3,0.1c0.1,0,0.1,0,0.2,0c0.4,0,0.8-0.3,0.9-0.7
				C66.3,25.2,66,24.7,65.5,24.6z M135,26c-0.1-0.5-0.6-0.8-1-0.7l-0.3,0.1c-0.5,0.1-0.8,0.6-0.7,1c0.1,0.4,0.4,0.7,0.9,0.7
				c0.1,0,0.1,0,0.2,0l0.3-0.1C134.8,26.9,135.1,26.5,135,26z M131.4,25.9l-0.3,0.1c-0.5,0.1-0.8,0.6-0.7,1c0.1,0.4,0.4,0.7,0.9,0.7
				c0.1,0,0.1,0,0.2,0l0.3-0.1c0.5-0.1,0.8-0.6,0.7-1C132.3,26.1,131.9,25.8,131.4,25.9z M72.6,26.3l-0.3-0.1
				c-0.5-0.1-0.9,0.2-1.1,0.6c-0.1,0.5,0.2,0.9,0.6,1.1l0.3,0.1c0.1,0,0.1,0,0.2,0c0.4,0,0.8-0.3,0.9-0.7
				C73.4,26.9,73.1,26.4,72.6,26.3z M75.2,26.9l-0.3-0.1c-0.5-0.1-0.9,0.2-1.1,0.7c-0.1,0.5,0.2,0.9,0.7,1.1l0.3,0.1
				c0.1,0,0.1,0,0.2,0c0.4,0,0.8-0.3,0.9-0.7C76,27.5,75.7,27,75.2,26.9z M125.2,28c-0.1-0.5-0.6-0.8-1-0.7l-0.3,0.1
				c-0.5,0.1-0.8,0.6-0.7,1c0.1,0.4,0.4,0.7,0.9,0.7c0.1,0,0.1,0,0.2,0l0.3-0.1C125,29,125.3,28.5,125.2,28z M80.1,27.9l-0.3-0.1
				c-0.5-0.1-0.9,0.2-1,0.7c-0.1,0.5,0.2,0.9,0.7,1l0.3,0.1c0.1,0,0.1,0,0.2,0c0.4,0,0.8-0.3,0.9-0.7C80.9,28.5,80.6,28,80.1,27.9z
				 M119.3,28.2l-0.3,0.1c-0.5,0.1-0.8,0.5-0.7,1c0.1,0.4,0.4,0.7,0.9,0.7c0,0,0.1,0,0.2,0l0.3,0c0.5-0.1,0.8-0.5,0.7-1
				C120.3,28.5,119.8,28.2,119.3,28.2z M116.7,28.7l-0.3,0c-0.5,0.1-0.8,0.5-0.7,1c0.1,0.4,0.4,0.7,0.9,0.7h0.1l0.3,0
				c0.5-0.1,0.8-0.5,0.7-1C117.7,28.9,117.2,28.6,116.7,28.7z M87.2,29.2l-0.3,0c-0.5-0.1-0.9,0.3-1,0.8c-0.1,0.5,0.3,0.9,0.8,1
				l0.3,0c0,0,0.1,0,0.1,0c0.4,0,0.8-0.3,0.9-0.8C88.1,29.7,87.7,29.3,87.2,29.2z M89.8,29.5l-0.3,0c-0.5,0-0.9,0.3-1,0.8
				c-0.1,0.5,0.3,0.9,0.8,1l0.3,0c0,0,0.1,0,0.1,0c0.4,0,0.8-0.3,0.9-0.8C90.7,30,90.3,29.6,89.8,29.5z M109.5,29.6l-0.3,0
				c-0.5,0-0.8,0.5-0.8,1c0,0.5,0.4,0.8,0.9,0.8c0,0,0.1,0,0.1,0l0.3,0c0.5,0,0.8-0.5,0.8-1C110.4,30,110,29.6,109.5,29.6z M94.8,30
				l-0.3,0c-0.5,0-0.9,0.3-0.9,0.8c0,0.5,0.3,0.9,0.8,0.9l0.3,0h0.1c0.5,0,0.8-0.4,0.9-0.8C95.6,30.5,95.2,30,94.8,30z M104.6,30
				l-0.3,0c-0.5,0-0.9,0.4-0.8,0.9c0,0.5,0.4,0.8,0.9,0.8c0,0,0,0,0,0l0.3,0c0.5,0,0.9-0.4,0.8-0.9C105.5,30.4,105.1,30,104.6,30z
				 M102,30.2l-0.3,0c-0.5,0-0.9,0.4-0.9,0.9c0,0.5,0.4,0.9,0.9,0.9c0,0,0,0,0,0l0.3,0c0.5,0,0.9-0.4,0.9-0.9
				C102.9,30.5,102.5,30.2,102,30.2z"/>
		</g>
		<g>
			<path class="st1" d="M85.7,99.3h-0.3c0,0,0,0,0,0c-0.5,0-0.9,0.4-0.9,0.9c0,0.5,0.4,0.9,0.9,0.9h0.3c0.5,0,0.9-0.4,0.9-0.9
				C86.5,99.7,86.1,99.3,85.7,99.3z M88.3,99.4l-0.3,0c-0.4,0-0.9,0.4-0.9,0.9c0,0.5,0.4,0.9,0.8,0.9l0.3,0h0c0.5,0,0.9-0.4,0.9-0.8
				C89.2,99.8,88.8,99.4,88.3,99.4z M78.3,99.5l-0.3,0c-0.5,0-0.9,0.4-0.8,0.9c0,0.5,0.4,0.8,0.9,0.8h0l0.3,0c0.5,0,0.9-0.4,0.8-0.9
				C79.2,99.8,78.8,99.4,78.3,99.5z M93.3,99.7l-0.3,0c-0.5,0-0.9,0.3-0.9,0.8c0,0.5,0.3,0.9,0.8,1l0.3,0h0.1c0.4,0,0.8-0.4,0.9-0.8
				C94.2,100.2,93.8,99.8,93.3,99.7z M73.3,99.9l-0.3,0c-0.5,0-0.8,0.5-0.8,1c0,0.5,0.4,0.8,0.9,0.8c0,0,0.1,0,0.1,0l0.3,0
				c0.5,0,0.8-0.5,0.8-1C74.2,100.2,73.8,99.8,73.3,99.9z M70.6,100.1l-0.3,0c-0.5,0-0.8,0.5-0.8,1c0.1,0.4,0.4,0.8,0.9,0.8h0.1
				l0.3,0c0.5-0.1,0.8-0.5,0.8-1C71.6,100.4,71.1,100.1,70.6,100.1z M100.7,100.6l-0.3,0c-0.5-0.1-0.9,0.3-1,0.7
				c-0.1,0.5,0.3,0.9,0.8,1l0.3,0h0.1c0.4,0,0.8-0.3,0.9-0.8C101.5,101.1,101.1,100.6,100.7,100.6z M103.3,101l-0.3,0
				c-0.5-0.1-0.9,0.3-1,0.7c-0.1,0.5,0.3,0.9,0.7,1l0.3,0c0,0,0.1,0,0.1,0c0.4,0,0.8-0.3,0.9-0.8C104.1,101.5,103.8,101,103.3,101z
				 M63.3,101.1l-0.3,0c-0.5,0.1-0.8,0.5-0.7,1c0.1,0.4,0.4,0.7,0.9,0.7h0.1l0.3,0c0.5-0.1,0.8-0.5,0.7-1
				C64.3,101.4,63.8,101,63.3,101.1z M163.2,102c-0.1-0.5-0.6-0.8-1.1-0.6l-0.3,0.1c-0.5,0.1-0.8,0.6-0.7,1.1
				c0.1,0.4,0.5,0.7,0.9,0.7c0.1,0,0.1,0,0.2,0l0.3-0.1C163,102.9,163.3,102.5,163.2,102z M108.2,101.8l-0.3,0
				c-0.5-0.1-0.9,0.2-1,0.7c-0.1,0.5,0.2,0.9,0.7,1l0.3,0c0,0,0.1,0,0.1,0c0.4,0,0.8-0.3,0.9-0.7C109,102.3,108.7,101.8,108.2,101.8
				z M58.4,101.9l-0.3,0c-0.5,0.1-0.8,0.5-0.7,1c0.1,0.4,0.4,0.7,0.9,0.7c0,0,0.1,0,0.1,0l0.3,0c0.5-0.1,0.8-0.6,0.7-1
				C59.3,102.1,58.9,101.8,58.4,101.9z M160.6,102.6c-0.1-0.5-0.6-0.8-1.1-0.7l-0.2,0.1l-0.1,0c-0.5,0.1-0.8,0.6-0.7,1.1
				c0,0.2,0.2,0.4,0.3,0.5c0.2,0.1,0.3,0.2,0.5,0.2c0.1,0,0.1,0,0.2,0l0.3-0.1C160.4,103.6,160.7,103.1,160.6,102.6z M55.8,102.4
				l-0.3,0c-0.5,0.1-0.8,0.5-0.7,1c0.1,0.4,0.4,0.7,0.9,0.7c0,0,0.1,0,0.2,0l0.3-0.1c0.5-0.1,0.8-0.5,0.7-1
				C56.7,102.6,56.3,102.3,55.8,102.4z M115.5,103l-0.3,0c-0.5-0.1-0.9,0.2-1,0.7s0.2,0.9,0.7,1l0.3,0c0,0,0.1,0,0.1,0
				c0.4,0,0.8-0.3,0.9-0.7C116.3,103.5,115.9,103.1,115.5,103z M118.1,103.4l-0.3,0c-0.5-0.1-0.9,0.3-1,0.7c-0.1,0.5,0.3,0.9,0.7,1
				l0.3,0c0,0,0.1,0,0.1,0c0.4,0,0.8-0.3,0.9-0.7C118.9,103.9,118.5,103.5,118.1,103.4z M152.4,103.5l-0.3,0.1
				c-0.5,0.1-0.8,0.6-0.7,1c0.1,0.4,0.4,0.7,0.9,0.7c0,0,0.1,0,0.2,0l0.3-0.1c0.5-0.1,0.8-0.6,0.7-1
				C153.3,103.7,152.9,103.4,152.4,103.5z M48.6,103.7l-0.3,0c-0.5,0.1-0.8,0.6-0.7,1c0.1,0.4,0.4,0.7,0.9,0.7c0,0,0.1,0,0.2,0
				l0.3-0.1c0.5-0.1,0.8-0.6,0.7-1C49.5,103.9,49.1,103.6,48.6,103.7z M123,104.1l-0.3,0c-0.5-0.1-0.9,0.3-1,0.8
				c-0.1,0.5,0.3,0.9,0.8,1l0.3,0c0,0,0.1,0,0.1,0c0.4,0,0.8-0.3,0.9-0.8C123.8,104.6,123.5,104.2,123,104.1z M147.5,104.4l-0.3,0
				c-0.5,0.1-0.8,0.5-0.7,1c0.1,0.4,0.4,0.8,0.9,0.8c0,0,0.1,0,0.1,0l0.3,0c0.5-0.1,0.8-0.5,0.7-1
				C148.5,104.6,148,104.3,147.5,104.4z M43.7,104.6l-0.3,0.1c-0.5,0.1-0.8,0.6-0.7,1c0.1,0.4,0.5,0.7,0.9,0.7c0.1,0,0.1,0,0.2,0
				l0.3,0c0.5-0.1,0.8-0.6,0.7-1C44.6,104.9,44.2,104.5,43.7,104.6z M145,104.7l-0.3,0c-0.5,0-0.8,0.5-0.8,1c0,0.4,0.4,0.8,0.9,0.8
				c0,0,0.1,0,0.1,0l0.3,0c0.5,0,0.8-0.5,0.8-1C145.9,105,145.5,104.7,145,104.7z M130.2,104.9l-0.3,0c-0.5,0-0.9,0.3-0.9,0.8
				c0,0.5,0.3,0.9,0.8,0.9l0.3,0h0.1c0.5,0,0.8-0.4,0.9-0.8C131.1,105.3,130.7,104.9,130.2,104.9z M132.8,105.1l-0.3,0
				c-0.4,0-0.9,0.4-0.9,0.8c0,0.5,0.4,0.9,0.8,0.9l0.3,0h0.1c0.5,0,0.8-0.4,0.9-0.8C133.7,105.5,133.3,105.1,132.8,105.1z
				 M41.1,105.1l-0.3,0.1c-0.5,0.1-0.8,0.6-0.7,1c0.1,0.4,0.5,0.7,0.9,0.7c0.1,0,0.1,0,0.2,0l0.3,0c0.5-0.1,0.8-0.5,0.7-1
				C42,105.3,41.6,105,41.1,105.1z M137.8,105.2h-0.3c-0.5,0-0.9,0.4-0.9,0.9c0,0.5,0.4,0.9,0.9,0.9c0,0,0,0,0,0h0.3
				c0.5,0,0.9-0.4,0.9-0.9C138.6,105.6,138.2,105.2,137.8,105.2z M33.9,106.5l-0.3,0.1c-0.5,0.1-0.8,0.6-0.7,1
				c0.1,0.4,0.5,0.7,0.9,0.7c0.1,0,0.1,0,0.2,0l0.3-0.1c0.5-0.1,0.8-0.6,0.7-1C34.8,106.7,34.4,106.4,33.9,106.5z M30,108.1
				c-0.1-0.5-0.6-0.8-1-0.7l-0.3,0.1c-0.5,0.1-0.8,0.6-0.7,1c0.1,0.4,0.4,0.7,0.9,0.7c0.1,0,0.1,0,0.2,0l0.3-0.1
				C29.8,109.1,30.1,108.6,30,108.1z M27.4,108.7c-0.1-0.5-0.6-0.8-1-0.7l-0.3,0.1c-0.5,0.1-0.8,0.6-0.7,1c0.1,0.4,0.5,0.7,0.9,0.7
				c0.1,0,0.1,0,0.2,0l0.3-0.1C27.2,109.6,27.5,109.1,27.4,108.7z M20.3,110.1c-0.1-0.5-0.6-0.8-1-0.7l-0.3,0
				c-0.5,0.1-0.8,0.6-0.7,1c0.1,0.4,0.4,0.7,0.9,0.7c0.1,0,0.1,0,0.2,0l0.3-0.1C20,111.1,20.4,110.6,20.3,110.1z M14.4,110.4l-0.3,0
				c-0.5,0.1-0.8,0.5-0.7,1c0.1,0.4,0.4,0.7,0.9,0.7c0.1,0,0.1,0,0.2,0l0.3,0c0.5-0.1,0.8-0.5,0.7-1
				C15.3,110.6,14.8,110.3,14.4,110.4z M11.8,110.8l-0.3,0c-0.2,0-0.4,0.2-0.6,0.4c-0.1,0.2-0.2,0.4-0.2,0.6
				c0.1,0.4,0.3,0.6,0.7,0.7c0.1,0,0.1,0,0.2,0h0.1l0.3,0c0.5-0.1,0.8-0.5,0.7-1C12.7,111,12.2,110.7,11.8,110.8z M4.8,111.7
				c0.2,0.5,0.3,0.9,0.5,1.4c0.1-0.2,0.2-0.4,0.2-0.6C5.5,112.1,5.2,111.8,4.8,111.7z"/>
		</g>
		<g>
			<path class="st1" d="M58.6,116.4l-0.3,0c-0.5,0-0.9,0.4-0.9,0.9c0,0.5,0.4,0.8,0.9,0.8h0l0.3,0c0.5,0,0.9-0.4,0.8-0.9
				C59.5,116.8,59,116.4,58.6,116.4z M65.9,116.5l-0.3,0c-0.4,0-0.9,0.4-0.9,0.8c0,0.5,0.4,0.9,0.8,0.9l0.3,0c0,0,0,0,0,0
				c0.5,0,0.9-0.4,0.9-0.9C66.8,116.9,66.4,116.5,65.9,116.5z M68.6,116.6l-0.3,0c-0.5,0-0.9,0.3-0.9,0.8c0,0.5,0.3,0.9,0.8,0.9
				l0.3,0h0.1c0.4,0,0.8-0.4,0.9-0.8C69.5,117.1,69.1,116.7,68.6,116.6z M53.5,116.7l-0.3,0c-0.5,0-0.9,0.5-0.8,0.9
				c0,0.5,0.4,0.8,0.9,0.8h0.1l0.3,0c0.5,0,0.8-0.5,0.8-0.9C54.5,117,54,116.6,53.5,116.7z M50.9,116.9l-0.3,0
				c-0.5,0-0.8,0.5-0.8,0.9c0,0.5,0.4,0.8,0.9,0.8h0.1l0.3,0c0.5,0,0.8-0.5,0.8-0.9C51.8,117.2,51.4,116.8,50.9,116.9z M73.6,117.2
				l-0.3,0c-0.5-0.1-0.9,0.2-1,0.7c-0.1,0.5,0.2,0.9,0.7,1l0.3,0c0,0,0.1,0,0.2,0c0.4,0,0.8-0.3,0.9-0.7
				C74.4,117.8,74.1,117.3,73.6,117.2z M43.6,117.5l-0.3,0c-0.5,0-0.8,0.5-0.8,1c0,0.5,0.4,0.8,0.9,0.8h0.1l0.3,0
				c0.5,0,0.8-0.5,0.8-0.9C44.5,117.8,44.1,117.5,43.6,117.5z M38.6,118.1l-0.3,0c-0.5,0.1-0.8,0.5-0.8,1c0,0.4,0.4,0.8,0.9,0.8
				c0,0,0.1,0,0.1,0l0.3,0c0.5,0,0.8-0.5,0.8-1C39.5,118.4,39.1,118,38.6,118.1z M36,118.3l-0.3,0c-0.5,0.1-0.8,0.5-0.8,1
				c0,0.4,0.4,0.8,0.9,0.8h0.1l0.3,0c0.5,0,0.8-0.5,0.8-1C36.9,118.6,36.5,118.3,36,118.3z M80.9,118.8l-0.3-0.1
				c-0.5-0.1-0.9,0.2-1.1,0.6c-0.1,0.5,0.2,0.9,0.6,1.1l0.3,0.1c0.1,0,0.2,0,0.2,0c0.4,0,0.7-0.3,0.8-0.6
				C81.6,119.4,81.3,118.9,80.9,118.8z M28.7,119.1l-0.3,0c-0.5,0.1-0.8,0.5-0.8,1c0.1,0.4,0.4,0.8,0.9,0.8h0.1l0.3,0
				c0.5,0,0.8-0.5,0.8-0.9C29.6,119.4,29.2,119,28.7,119.1z M83.3,119.5l-0.2,0c-0.5-0.1-1,0.1-1.1,0.6c-0.1,0.5,0.1,0.9,0.6,1.1
				l0.3,0.1c0.1,0,0.2,0,0.2,0c0.4,0,0.7-0.3,0.8-0.6C84.1,120.2,83.8,119.7,83.3,119.5z M23.8,119.6l-0.3,0c-0.5,0.1-0.8,0.5-0.8,1
				c0,0.4,0.4,0.8,0.9,0.8c0,0,0.1,0,0.1,0l0.3,0c0.5,0,0.8-0.5,0.8-1C24.7,119.9,24.2,119.5,23.8,119.6z M21.1,119.9l-0.3,0
				c-0.5,0.1-0.8,0.5-0.8,1c0,0.4,0.4,0.8,0.9,0.8H21l0.3,0c0.5,0,0.8-0.5,0.8-1C22,120.2,21.6,119.8,21.1,119.9z M13.9,120.6
				l-0.3,0c-0.5,0-0.8,0.5-0.8,1c0,0.5,0.4,0.8,0.9,0.8h0.1l0.3,0c0.5,0,0.8-0.5,0.8-0.9C14.8,120.9,14.3,120.6,13.9,120.6z
				 M157,121.2c-0.1-0.5-0.6-0.7-1.1-0.6l-0.3,0.1c-0.5,0.1-0.7,0.6-0.6,1.1c0.1,0.4,0.5,0.6,0.8,0.6c0.1,0,0.2,0,0.2,0l0.3-0.1
				C156.8,122.2,157.1,121.7,157,121.2z M88.2,121.1l-0.3-0.1c-0.5-0.2-1,0.1-1.1,0.6c-0.2,0.5,0.1,1,0.6,1.1l0.3,0.1
				c0.1,0,0.2,0,0.3,0c0.4,0,0.7-0.2,0.8-0.6C88.9,121.7,88.7,121.2,88.2,121.1z M8.9,121.1L8.9,121.1c0.2,0.5,0.5,1,0.7,1.5
				c0.2-0.2,0.3-0.4,0.2-0.7C9.8,121.4,9.4,121.1,8.9,121.1z M154.4,122c-0.1-0.5-0.6-0.7-1.1-0.6l-0.3,0.1
				c-0.5,0.1-0.7,0.6-0.6,1.1c0.1,0.4,0.5,0.6,0.8,0.6c0.1,0,0.2,0,0.2,0l0.3-0.1C154.3,122.9,154.6,122.4,154.4,122z M147.4,123.9
				c-0.1-0.5-0.6-0.7-1.1-0.6l-0.3,0.1c-0.5,0.1-0.8,0.6-0.6,1.1c0.1,0.4,0.5,0.7,0.8,0.7c0.1,0,0.2,0,0.2,0l0.3-0.1
				C147.2,124.9,147.5,124.4,147.4,123.9z M95.2,123.4l-0.3-0.1c-0.5-0.2-1,0.1-1.1,0.6c-0.1,0.5,0.1,1,0.6,1.1l0.3,0.1
				c0.1,0,0.2,0,0.3,0c0.4,0,0.7-0.2,0.8-0.6C95.9,124,95.6,123.5,95.2,123.4z M97.7,124.2l-0.3-0.1c-0.5-0.1-0.9,0.1-1.1,0.6
				c-0.1,0.5,0.1,1,0.6,1.1l0.3,0.1c0.1,0,0.2,0,0.3,0c0.4,0,0.7-0.2,0.8-0.6C98.4,124.8,98.1,124.3,97.7,124.2z M142.5,125.1
				c-0.1-0.5-0.6-0.8-1.1-0.7l-0.3,0.1c-0.5,0.1-0.8,0.6-0.7,1.1c0.1,0.4,0.5,0.7,0.9,0.7c0.1,0,0.1,0,0.2,0l0.3-0.1
				C142.4,126.1,142.7,125.6,142.5,125.1z M138.9,125l-0.3,0.1c-0.5,0.1-0.8,0.6-0.7,1c0.1,0.4,0.5,0.7,0.9,0.7c0.1,0,0.1,0,0.2,0
				l0.3-0.1c0.5-0.1,0.8-0.6,0.7-1C139.9,125.2,139.4,124.9,138.9,125z M102.4,125.5l-0.3-0.1c-0.5-0.1-0.9,0.2-1.1,0.6
				c-0.1,0.5,0.2,0.9,0.6,1.1l0.3,0.1c0.1,0,0.1,0,0.2,0c0.4,0,0.7-0.3,0.8-0.7C103.2,126.1,102.9,125.6,102.4,125.5z M131.8,126.3
				l-0.3,0c-0.5,0.1-0.8,0.5-0.8,1c0.1,0.4,0.4,0.8,0.9,0.8c0,0,0.1,0,0.1,0l0.3,0c0.5-0.1,0.8-0.5,0.7-1
				C132.7,126.6,132.2,126.3,131.8,126.3z M109.5,126.9l-0.3,0c-0.5-0.1-0.9,0.3-1,0.8c-0.1,0.5,0.3,0.9,0.8,1l0.3,0h0.1
				c0.4,0,0.8-0.3,0.9-0.8C110.3,127.4,110,126.9,109.5,126.9z M126.9,127l-0.3,0c-0.5,0-0.8,0.5-0.8,1c0,0.5,0.4,0.8,0.9,0.8h0.1
				l0.3,0c0.5,0,0.8-0.5,0.8-1C127.8,127.3,127.4,126.9,126.9,127z M112.1,127.1l-0.3,0c-0.5,0-0.9,0.3-1,0.8c0,0.5,0.3,0.9,0.8,1
				l0.3,0c0,0,0,0,0.1,0c0.4,0,0.8-0.4,0.9-0.8C112.9,127.6,112.6,127.2,112.1,127.1z M124.3,127.2l-0.3,0c-0.5,0-0.8,0.5-0.8,0.9
				c0,0.5,0.4,0.8,0.9,0.8h0.1l0.3,0c0.5,0,0.8-0.5,0.8-0.9C125.2,127.5,124.7,127.1,124.3,127.2z M117,127.4h-0.3
				c-0.5,0-0.9,0.4-0.9,0.9c0,0.5,0.4,0.9,0.9,0.9h0.3c0,0,0,0,0,0c0.5,0,0.9-0.4,0.9-0.9C117.9,127.8,117.5,127.4,117,127.4z"/>
		</g>
		<g>
			<path class="st1" d="M22.5,132.6l-0.3,0c-0.5,0-0.9,0.4-0.9,0.8c0,0.5,0.4,0.9,0.9,0.9l0.3,0h0c0.5,0,0.9-0.4,0.9-0.8
				C23.4,133.1,23,132.6,22.5,132.6z M25.2,132.8l-0.3,0c-0.5,0-0.9,0.3-0.9,0.8c0,0,0,0,0,0.1c0,0.5,0.3,0.9,0.8,0.9h0l0.3,0h0
				c0.5,0,0.9-0.4,0.9-0.8C26,133.2,25.7,132.8,25.2,132.8z M30.2,133.2l-0.3,0c-0.5,0-0.9,0.3-1,0.8c0,0.5,0.3,0.9,0.8,1l0.3,0h0.1
				c0.4,0,0.8-0.3,0.9-0.8C31,133.6,30.7,133.2,30.2,133.2z M37.5,134.2l-0.3,0c-0.5-0.1-0.9,0.2-1,0.7c-0.1,0.5,0.2,0.9,0.7,1
				l0.3,0c0.1,0,0.1,0,0.2,0c0.4,0,0.8-0.3,0.9-0.7C38.3,134.7,38,134.3,37.5,134.2z M40.1,134.7l-0.3-0.1c-0.5-0.1-0.9,0.2-1,0.7
				c-0.1,0.5,0.2,0.9,0.7,1l0.3,0.1c0.1,0,0.1,0,0.2,0c0.4,0,0.8-0.3,0.9-0.7C40.9,135.2,40.6,134.8,40.1,134.7z M146.3,135.6
				c-0.2-0.5-0.7-0.7-1.1-0.5l-0.3,0.1c-0.4,0.2-0.7,0.7-0.5,1.1c0.1,0.4,0.5,0.6,0.8,0.6c0.1,0,0.2,0,0.3-0.1l0.3-0.1
				C146.2,136.6,146.5,136.1,146.3,135.6z M45,135.8l-0.3-0.1c-0.5-0.1-0.9,0.2-1.1,0.6c-0.1,0.5,0.2,0.9,0.6,1.1l0.3,0.1
				c0.1,0,0.1,0,0.2,0c0.4,0,0.8-0.3,0.9-0.7C45.8,136.4,45.5,135.9,45,135.8z M141.6,137.4c-0.2-0.4-0.7-0.7-1.1-0.5l-0.1,0
				l-0.2,0.1c-0.3,0.1-0.5,0.4-0.6,0.7c0,0.1,0,0.3,0,0.4c0.1,0.4,0.5,0.6,0.8,0.6c0.1,0,0.2,0,0.3-0.1l0.3-0.1
				C141.6,138.3,141.8,137.8,141.6,137.4z M52.1,137.9l-0.3-0.1c-0.5-0.1-0.9,0.1-1.1,0.6c-0.2,0.5,0.1,1,0.6,1.1l0.3,0.1
				c0.1,0,0.2,0,0.3,0c0.4,0,0.7-0.2,0.8-0.6C52.8,138.5,52.6,138,52.1,137.9z M139.1,138.3C139.1,138.3,139.1,138.2,139.1,138.3
				c-0.2-0.5-0.7-0.7-1.1-0.5l-0.3,0.1c-0.4,0.2-0.7,0.7-0.5,1.1c0.1,0.3,0.3,0.4,0.6,0.5c0.1,0,0.2,0,0.3,0c0.1,0,0.2,0,0.3,0
				l0.3-0.1C139.1,139.3,139.3,138.7,139.1,138.3z M54.6,138.7l-0.3-0.1c-0.5-0.2-1,0.1-1.1,0.5c-0.2,0.4,0.1,0.9,0.5,1.1l0.3,0.1
				c0.1,0,0.2,0,0.3,0c0.4,0,0.7-0.2,0.8-0.6C55.3,139.4,55.1,138.9,54.6,138.7z M132.3,140.9c-0.2-0.5-0.7-0.7-1.1-0.6l-0.3,0.1
				c-0.5,0.2-0.7,0.7-0.5,1.1c0.1,0.4,0.5,0.6,0.8,0.6c0.1,0,0.2,0,0.3-0.1l0.3-0.1C132.2,141.8,132.4,141.3,132.3,140.9z
				 M59.3,140.5l-0.3-0.1c-0.5-0.2-1,0-1.1,0.5c-0.2,0.5,0,1,0.5,1.1l0.3,0.1c0.1,0,0.2,0.1,0.3,0.1c0.4,0,0.7-0.2,0.8-0.6
				C60,141.2,59.8,140.7,59.3,140.5z M127.6,142.5c-0.1-0.5-0.6-0.7-1.1-0.6l-0.3,0.1c-0.5,0.2-0.7,0.6-0.6,1.1
				c0.1,0.4,0.5,0.6,0.8,0.6c0.1,0,0.2,0,0.3,0l0.3-0.1C127.5,143.5,127.7,143,127.6,142.5z M125.1,143.3c-0.1-0.5-0.6-0.7-1.1-0.6
				l-0.3,0.1c-0.5,0.1-0.7,0.6-0.6,1.1c0.1,0.4,0.5,0.6,0.8,0.6c0.1,0,0.2,0,0.3,0l0.3-0.1C124.9,144.3,125.2,143.8,125.1,143.3z
				 M66.1,143.1l-0.3-0.1c-0.5-0.2-1,0.1-1.1,0.5c-0.2,0.5,0.1,1,0.5,1.1l0.3,0.1c0.1,0,0.2,0.1,0.3,0.1c0.4,0,0.7-0.2,0.8-0.6
				C66.8,143.8,66.6,143.3,66.1,143.1z M68.6,144.1l-0.3-0.1c-0.5-0.2-1,0.1-1.1,0.5c-0.2,0.5,0.1,1,0.5,1.1l0.3,0.1
				c0.1,0,0.2,0.1,0.3,0.1c0.4,0,0.7-0.2,0.8-0.6C69.3,144.7,69.1,144.2,68.6,144.1z M118,145.3c-0.1-0.5-0.6-0.8-1.1-0.6l-0.3,0.1
				c-0.5,0.1-0.8,0.6-0.6,1.1c0.1,0.4,0.5,0.7,0.8,0.7c0.1,0,0.2,0,0.2,0l0.3-0.1C117.9,146.3,118.1,145.8,118,145.3z M73.3,145.7
				l-0.3-0.1c-0.5-0.1-0.9,0.1-1.1,0.6c-0.2,0.5,0.1,0.9,0.6,1.1l0.3,0.1c0.1,0,0.2,0,0.3,0c0.4,0,0.7-0.2,0.8-0.6
				C74,146.3,73.7,145.8,73.3,145.7z M113.2,146.5c-0.1-0.5-0.6-0.8-1-0.7l-0.3,0.1c-0.5,0.1-0.8,0.6-0.7,1.1
				c0.1,0.4,0.5,0.7,0.9,0.7c0.1,0,0.1,0,0.2,0l0.3-0.1C113,147.5,113.3,147,113.2,146.5z M110.6,147.1c-0.1-0.5-0.6-0.8-1-0.7
				l-0.3,0.1c-0.5,0.1-0.8,0.6-0.7,1c0.1,0.4,0.5,0.7,0.9,0.7c0.1,0,0.1,0,0.2,0l0.3-0.1C110.4,148,110.7,147.6,110.6,147.1z
				 M80.3,147.6l-0.3-0.1c-0.5-0.1-0.9,0.2-1,0.7c-0.1,0.5,0.2,0.9,0.7,1l0.3,0.1c0.1,0,0.1,0,0.2,0c0.4,0,0.8-0.3,0.9-0.7
				C81,148.1,80.7,147.6,80.3,147.6z M102.4,147.7l-0.3,0c-0.5,0.1-0.8,0.5-0.7,1c0.1,0.4,0.4,0.7,0.9,0.7h0.1l0.3,0
				c0.5-0.1,0.8-0.5,0.8-1C103.3,148,102.9,147.7,102.4,147.7z M82.8,148l-0.3,0c-0.5-0.1-0.9,0.2-1,0.7c-0.1,0.5,0.2,0.9,0.7,1
				l0.3,0c0,0,0.1,0,0.1,0c0.4,0,0.8-0.3,0.9-0.7C83.6,148.6,83.3,148.1,82.8,148z M97.5,148.4l-0.3,0c-0.5,0-0.8,0.5-0.8,1
				c0,0.5,0.4,0.8,0.9,0.8c0,0,0,0,0.1,0l0.3,0c0.5,0,0.8-0.5,0.8-0.9C98.4,148.7,98,148.3,97.5,148.4z M87.7,148.6l-0.3,0
				c-0.5,0-0.9,0.3-0.9,0.8c0,0.5,0.3,0.9,0.8,0.9l0.3,0h0.1c0.5,0,0.8-0.4,0.9-0.8C88.5,149,88.2,148.6,87.7,148.6z M94.9,148.6
				l-0.3,0c-0.5,0-0.9,0.4-0.8,0.9c0,0.5,0.4,0.8,0.9,0.8h0.1l0.3,0c0.5,0,0.9-0.4,0.8-0.9C95.8,148.9,95.4,148.5,94.9,148.6z"/>
		</g>
		<g>
			<path class="st1" d="M45,9.5l0.2,0.1c0.1,0,0.2,0,0.3,0c0.4,0,0.7-0.2,0.8-0.6c0-0.1,0-0.2,0-0.2L45,9.5z M118.8,8.3
				c-0.2-0.5-0.7-0.7-1.1-0.6l-0.3,0.1c-0.5,0.2-0.7,0.7-0.5,1.1c0.1,0.4,0.5,0.6,0.8,0.6c0.1,0,0.2,0,0.3-0.1l0.3-0.1
				C118.7,9.2,118.9,8.7,118.8,8.3z M114.1,9.9c-0.2-0.5-0.6-0.7-1.1-0.6l-0.3,0.1c-0.5,0.2-0.7,0.6-0.6,1.1
				c0.1,0.4,0.5,0.6,0.8,0.6c0.1,0,0.2,0,0.3,0l0.3-0.1C113.9,10.9,114.2,10.4,114.1,9.9z M111.5,10.7c-0.1-0.5-0.6-0.7-1.1-0.6
				l-0.3,0.1c-0.1,0-0.2,0.1-0.3,0.2c-0.3,0.2-0.4,0.6-0.3,0.9c0.1,0.4,0.5,0.6,0.8,0.6c0.1,0,0.2,0,0.2,0l0.3-0.1
				c0.4-0.1,0.6-0.4,0.6-0.8C111.6,10.9,111.6,10.8,111.5,10.7z M52.6,10.6l-0.3-0.1c-0.5-0.2-1,0.1-1.1,0.5c-0.2,0.5,0.1,1,0.5,1.1
				l0.3,0.1c0.1,0,0.2,0.1,0.3,0.1c0.4,0,0.7-0.2,0.8-0.6C53.3,11.2,53.1,10.7,52.6,10.6z M55.1,11.5l-0.2-0.1l-0.1,0
				c-0.4-0.2-0.9,0.1-1.1,0.5c0,0,0,0,0,0c-0.2,0.5,0.1,1,0.5,1.1l0.3,0.1c0.1,0,0.2,0.1,0.3,0.1c0.4,0,0.7-0.2,0.8-0.6
				C55.8,12.2,55.5,11.6,55.1,11.5z M104.5,12.7c-0.1-0.5-0.6-0.8-1.1-0.6l-0.3,0.1c-0.5,0.1-0.8,0.6-0.6,1.1
				c0.1,0.4,0.5,0.7,0.9,0.7c0.1,0,0.1,0,0.2,0l0.3-0.1C104.3,13.7,104.6,13.2,104.5,12.7z M59.8,13.1L59.5,13
				c-0.5-0.1-1,0.1-1.1,0.6c-0.1,0.5,0.1,0.9,0.6,1.1l0.3,0.1c0.1,0,0.2,0,0.3,0c0.4,0,0.7-0.2,0.8-0.6
				C60.5,13.7,60.2,13.2,59.8,13.1z M99.7,14c-0.1-0.5-0.6-0.8-1-0.7l-0.3,0.1c-0.5,0.1-0.8,0.6-0.7,1.1c0.1,0.4,0.4,0.7,0.9,0.7
				c0.1,0,0.1,0,0.2,0L99,15C99.5,14.9,99.8,14.4,99.7,14z M97.1,14.5C97,14,96.5,13.8,96,13.8l-0.3,0.1c-0.5,0.1-0.8,0.6-0.7,1
				c0.1,0.4,0.5,0.7,0.9,0.7c0.1,0,0.1,0,0.2,0l0.3-0.1C96.9,15.5,97.2,15,97.1,14.5z M66.7,15l-0.3-0.1c-0.5-0.1-0.9,0.2-1,0.7
				c-0.1,0.5,0.2,0.9,0.7,1l0.3,0.1c0.1,0,0.1,0,0.2,0c0.4,0,0.8-0.3,0.9-0.7C67.5,15.5,67.2,15.1,66.7,15z M88.9,15.2l-0.3,0
				c-0.5,0.1-0.8,0.5-0.7,1c0.1,0.4,0.4,0.7,0.9,0.7h0.1l0.3,0c0.5-0.1,0.8-0.5,0.8-1C89.8,15.4,89.4,15.1,88.9,15.2z M69.3,15.4
				l-0.3,0c-0.5-0.1-0.9,0.2-1,0.7c-0.1,0.5,0.2,0.9,0.7,1l0.3,0c0,0,0.1,0,0.1,0c0.4,0,0.8-0.3,0.9-0.8
				C70.1,16,69.8,15.5,69.3,15.4z M84,15.8l-0.3,0c-0.5,0-0.8,0.5-0.8,1c0,0.5,0.4,0.8,0.9,0.8c0,0,0.1,0,0.1,0l0.3,0
				c0.5,0,0.8-0.5,0.8-0.9C84.9,16.1,84.5,15.7,84,15.8z M74.2,16l-0.3,0c-0.5,0-0.9,0.3-0.9,0.8c0,0.5,0.3,0.9,0.8,0.9l0.3,0h0
				c0.5,0,0.9-0.4,0.9-0.8C75,16.4,74.6,16,74.2,16z M81.4,16l-0.3,0c-0.5,0-0.9,0.4-0.8,0.9c0,0.5,0.4,0.8,0.9,0.8h0l0.3,0
				c0.5,0,0.9-0.4,0.8-0.9C82.3,16.3,81.9,16,81.4,16z"/>
		</g>
	</g>
	<g>
		<path class="st2" d="M61.7,89.2c-0.7-0.1-1.3-0.3-1.7-0.6v-2.9c0.6,0.3,1.2,0.6,1.8,0.7c0.6,0.2,1.2,0.2,1.8,0.2
			c0.8,0,1.2-0.2,1.2-0.7c0-0.2-0.1-0.3-0.2-0.5c-0.1-0.1-0.3-0.3-0.5-0.4c-0.2-0.1-0.6-0.3-1.2-0.5c-1-0.4-1.8-0.9-2.2-1.5
			c-0.5-0.5-0.7-1.2-0.7-2c0-0.7,0.2-1.2,0.5-1.8s0.9-0.9,1.5-1.2c0.7-0.3,1.4-0.4,2.3-0.4c0.7,0,1.3,0.1,1.9,0.2
			c0.5,0.1,1.1,0.3,1.6,0.5v2.8c-0.9-0.5-1.9-0.8-2.8-0.8c-0.4,0-0.8,0.1-1,0.2c-0.3,0.1-0.4,0.3-0.4,0.5s0.1,0.4,0.3,0.6
			c0.2,0.1,0.7,0.3,1.3,0.6l0.3,0.1c0.8,0.3,1.3,0.6,1.7,0.9c0.4,0.3,0.7,0.6,0.9,1c0.2,0.4,0.3,0.9,0.3,1.5c0,1-0.4,1.9-1.1,2.5
			c-0.8,0.6-1.9,0.9-3.4,0.9C63.1,89.5,62.4,89.4,61.7,89.2z"/>
		<path class="st2" d="M74.3,78.1h3.2l4.4,11.1h-3.4l-0.8-2.1h-3.6l-0.8,2.1h-3.4L74.3,78.1z M77,84.6l-1.1-3.1l-1.1,3.1H77z"/>
		<path class="st2" d="M84.5,78.1h3.2l3.5,5.8v-5.8h3.3v11.1h-3.2l-3.5-5.8v5.8h-3.3V78.1z"/>
		<path class="st2" d="M97.2,78.1h4.1c1.2,0,2.3,0.2,3.2,0.7c0.9,0.4,1.6,1.1,2.1,1.9s0.8,1.8,0.8,2.9c0,1.8-0.5,3.2-1.6,4.2
			s-2.6,1.4-4.5,1.4h-4.1V78.1z M101.6,86.5c0.8,0,1.4-0.3,1.9-0.8c0.4-0.5,0.7-1.2,0.7-2.1c0-0.8-0.2-1.4-0.7-2
			c-0.4-0.5-1.1-0.8-1.8-0.8h-1.1v5.6H101.6z"/>
	</g>
</g>
</svg>
