<?xml version="1.0" encoding="UTF-8"?><svg id="Layer_2" xmlns="http://www.w3.org/2000/svg" viewBox="0 0 201.64 213.71"><defs><style>.cls-1{fill:#729cb5;}</style></defs><g id="Layer_1-2"><g><rect class="cls-1" x="90.77" y="102.84" width="20.1" height="201.64" transform="translate(304.48 102.84) rotate(90)"/><g><path class="cls-1" d="M102.96,0C57.76,0,20.98,36.78,20.98,81.98s36.77,81.98,81.98,81.98,81.98-36.78,81.98-81.98S148.17,0,102.96,0Zm0,159.32c-42.65,0-77.34-34.69-77.34-77.34S60.32,4.64,102.96,4.64s77.34,34.69,77.34,77.34-34.69,77.34-77.34,77.34Z"/><path class="cls-1" d="M67.1,105.2c-1.37,.05-2.51,.08-3.64,.12-6.79,.22-12.98,.42-18.58,.58,38.26,.09,76.52,.19,114.78,.28-6.91-.4-14.23-.77-22.19-1.16-23.46,.06-46.91,.12-70.37,.17Z"/><path class="cls-1" d="M64.71,100.31c-8.42,.26-16.51,.49-24.51,.7,41.39,.1,82.78,.19,124.17,.29-8-.41-16.1-.78-24.52-1.16-25.05,.06-50.09,.12-75.14,.17Z"/><path class="cls-1" d="M140.56,95.25c-25.56,.06-51.13,.12-76.69,.17-2.29,.07-4.85,.14-7.14,.21-6.12,.17-12.23,.34-18.32,.49,42.55,.1,85.1,.19,127.65,.29-8.39-.4-16.81-.78-25.5-1.16Z"/><path class="cls-1" d="M139.99,90.36c-25.26,.06-50.52,.12-75.78,.17-8.41,.25-16.86,.48-25.56,.7,42.31,.1,84.63,.19,126.94,.29-8.47-.4-17.18-.8-25.6-1.16Z"/><path class="cls-1" d="M137.86,85.48c-24,.06-47.99,.11-71.99,.17-7.85,.25-16.27,.48-24.78,.7,40.56,.1,81.11,.19,121.67,.29-8.57-.42-17.03-.82-24.9-1.16Z"/><path class="cls-1" d="M136.3,80.82c-2.17-.1-4.08-.18-5.36-.22-.92,0-1.84,0-2.76,0,1.16,.08,2.94,.19,4.58,.32,1.51,.12,4.78,.37,7.21,.65-2.74-.24-4.54-.36-5.8-.45-2.84-.2-5.71-.37-8.6-.5-18.52,.05-37.04,.1-55.56,.15-6.46,.24-14.19,.47-22.85,.7,35.99,.1,71.97,.19,107.96,.29-8.06-.41-14.07-.71-18.85-.93Z"/><path class="cls-1" d="M126.58,75.7c-15.76,.06-31.52,.12-47.28,.17-5.21,.25-10.57,.49-15.78,.7,26.28,.1,52.56,.19,78.84,.29-5.19-.4-10.57-.8-15.78-1.16Z"/><path class="cls-1" d="M125.53,70.82c-15.35,.06-30.7,.11-46.05,.17-5.14,.25-10.31,.48-15.62,.7,25.82,.1,51.65,.19,77.47,.29-5.42-.41-10.64-.8-15.8-1.16Z"/><path class="cls-1" d="M107.87,66c-9.12,.04-18.24,.07-27.36,.11-4.75,.26-9.56,.48-14.55,.7,15.56,.06,31.12,.13,46.69,.19-1.68-.45-3.27-.78-4.78-1Z"/><path class="cls-1" d="M137.13,67.09c-5.61-.44-10.48-.83-14.89-1.14-.14-.01-.15,0-.29-.02-3.11,.01-6.23,.03-9.34,.04,1.79,.18,3.75,.51,5.72,1.04,6.27,.03,12.54,.05,18.81,.08Z"/><path class="cls-1" d="M102.96,61.05c-7.46,.05-14.92,.11-22.38,.17-2.67,.28-5.47,.49-8.46,.7,13.1,.1,26.19,.19,39.29,.29-2.99-.42-5.86-.84-8.46-1.16Z"/><path class="cls-1" d="M97.87,56.17c-4.11,.05-8.21,.1-12.32,.14-1.65,.3-3.76,.49-6.33,.71,8.32,.1,16.64,.19,24.97,.29-2.57-.47-4.64-.91-6.32-1.14Z"/></g></g></g></svg>