<?xml version="1.0" encoding="UTF-8"?><svg id="Layer_2" xmlns="http://www.w3.org/2000/svg" viewBox="0 0 94.65 94.73"><defs><style>.cls-1{fill:#fff;}</style></defs><g id="Layer_1-2"><g id="dEnlCB.tif"><g><path class="cls-1" d="M47.26,94.73C21.25,94.73-.19,73.24,0,47.23,.19,20.93,21.37-.3,48.12,0c25.18,.29,46.86,21.07,46.53,47.44,.33,26.24-21.51,47.28-47.38,47.28Zm.2-86.67c-22.23,.07-39.89,17.67-39.57,39.84,.31,21.63,17.83,39.09,40.05,38.95,21.35-.14,38.92-18.08,38.94-39.49-.12-21.52-17.71-39.37-39.43-39.3Z"/><path class="cls-1" d="M57.57,69.67c.69-1.45,.3-2.95-.83-4.13-1.88-1.98-3.8-3.92-5.72-5.86-3.45-3.48-6.93-6.94-10.38-10.42-1.43-1.45-1.4-2.53,.05-3.95,5.03-4.94,10.08-9.86,15.06-14.85,.85-.85,1.68-1.92,2-3.04,.48-1.65-.04-3.2-1.73-4.1-1.55-.83-3.81-.6-5.04,.62-4.93,4.94-9.85,9.9-14.75,14.86-1.99,2.02-3.99,4.04-5.88,6.15-1.44,1.6-1.52,3.26-.07,4.83,3.36,3.64,6.83,7.18,10.32,10.7,3.45,3.48,6.94,6.92,10.49,10.29,.8,.76,1.95,1.15,2.94,1.71,1.97-.21,2.91-1.47,3.54-2.8Z"/><path class="cls-1" d="M54.03,72.47c1.97-.21,2.91-1.47,3.54-2.8,.69-1.45,.3-2.95-.83-4.13-1.88-1.98-3.8-3.92-5.72-5.86-3.45-3.48-6.93-6.94-10.38-10.42-1.43-1.45-1.4-2.53,.05-3.95,5.03-4.94,10.08-9.86,15.06-14.85,.85-.85,1.68-1.92,2-3.04,.48-1.65-.04-3.2-1.73-4.1-1.55-.83-3.81-.6-5.04,.62-4.93,4.94-9.85,9.9-14.75,14.86-1.99,2.02-3.99,4.04-5.88,6.15-1.44,1.6-1.52,3.26-.07,4.83,3.36,3.64,6.83,7.18,10.32,10.7,3.45,3.48,6.94,6.92,10.49,10.29,.8,.76,1.95,1.15,2.94,1.71Z"/></g></g></g></svg>