<?xml version="1.0" encoding="UTF-8"?><svg id="Layer_2" xmlns="http://www.w3.org/2000/svg" viewBox="0 0 94.65 94.73"><defs><style>.cls-1{fill:#fff;}</style></defs><g id="Layer_1-2"><g id="dEnlCB.tif"><g><path class="cls-1" d="M0,47.45C-.33,21.07,21.35,.29,46.53,0c26.76-.3,47.93,20.93,48.12,47.22,.19,26.02-21.25,47.5-47.26,47.5-25.88,0-47.71-21.04-47.38-47.28Zm7.75-.09c.02,21.41,17.6,39.36,38.94,39.49,22.23,.14,39.74-17.32,40.05-38.95,.32-22.17-17.34-39.77-39.57-39.84C25.47,7.98,7.87,25.83,7.75,47.35Z"/><path class="cls-1" d="M40.62,72.47c.99-.56,2.14-.95,2.94-1.71,3.55-3.37,7.04-6.81,10.49-10.29,3.49-3.52,6.95-7.06,10.32-10.7,1.45-1.57,1.37-3.22-.07-4.83-1.9-2.11-3.89-4.13-5.88-6.15-4.9-4.97-9.82-9.92-14.75-14.86-1.22-1.22-3.48-1.45-5.04-.62-1.69,.9-2.21,2.45-1.73,4.1,.32,1.12,1.16,2.19,2,3.04,4.98,4.99,10.04,9.91,15.06,14.85,1.45,1.42,1.48,2.51,.05,3.95-3.45,3.49-6.92,6.94-10.38,10.42-1.92,1.94-3.84,3.88-5.72,5.86-1.12,1.18-1.51,2.68-.83,4.13,.63,1.33,1.57,2.59,3.54,2.8Z"/><path class="cls-1" d="M40.62,72.47c-1.97-.21-2.91-1.47-3.54-2.8-.69-1.45-.3-2.95,.83-4.13,1.88-1.98,3.8-3.92,5.72-5.86,3.45-3.48,6.93-6.94,10.38-10.42,1.43-1.45,1.4-2.53-.05-3.95-5.03-4.94-10.08-9.86-15.06-14.85-.85-.85-1.68-1.92-2-3.04-.48-1.65,.04-3.2,1.73-4.1,1.55-.83,3.81-.6,5.04,.62,4.93,4.94,9.85,9.9,14.75,14.86,1.99,2.02,3.99,4.04,5.88,6.15,1.44,1.6,1.52,3.26,.07,4.83-3.36,3.64-6.83,7.18-10.32,10.7-3.45,3.48-6.94,6.92-10.49,10.29-.8,.76-1.95,1.15-2.94,1.71Z"/></g></g></g></svg>