<?xml version="1.0" encoding="UTF-8"?><svg id="Layer_2" xmlns="http://www.w3.org/2000/svg" xmlns:xlink="http://www.w3.org/1999/xlink" viewBox="0 0 1351.96 1792.52"><defs><style>.cls-1{fill:none;}.cls-2{clip-path:url(#clippath);}.cls-3{fill:#a4a3a3;}.cls-4{opacity:.24;}</style><clipPath id="clippath"><rect class="cls-1" width="1351.96" height="1792.52"/></clipPath></defs><g id="Layer_1-2"><g class="cls-2"><g class="cls-4"><circle class="cls-3" cx="72.88" cy="1230.42" r="35.68"/><path class="cls-3" d="M63.17,1158.08c18.71-4.55,30.25-23.49,25.7-42.22-4.55-18.71-23.49-30.25-42.2-25.7-18.73,4.55-30.27,23.49-25.72,42.21,4.55,18.73,23.49,30.27,42.23,25.71Z"/><path class="cls-3" d="M60.36,1052.2c18.32-4.45,29.61-23,25.16-41.34-4.46-18.34-23-29.63-41.32-25.18-18.34,4.46-29.63,23-25.17,41.34,4.46,18.34,23,29.63,41.34,25.17Z"/><path class="cls-3" d="M72.07,948.73c17.95-4.36,29-22.51,24.64-40.45s-22.51-28.99-40.46-24.63c-17.94,4.36-28.99,22.51-24.63,40.45,4.36,17.94,22.51,28.99,40.45,24.63Z"/><path class="cls-3" d="M97.55,848.97c17.56-4.27,28.37-22.02,24.1-39.59-4.27-17.55-22.02-28.36-39.57-24.09-17.56,4.27-28.38,22.02-24.11,39.57,4.27,17.57,22.03,28.37,39.59,24.11Z"/><path class="cls-3" d="M136,754.18c17.16-4.17,27.73-21.53,23.56-38.7-4.17-17.17-21.53-27.74-38.69-23.57-17.16,4.17-27.74,21.53-23.57,38.7s21.54,27.74,38.7,23.57Z"/><path class="cls-3" d="M186.64,665.64c16.78-4.08,27.11-21.04,23.04-37.82-4.08-16.78-21.04-27.1-37.82-23.02-16.77,4.08-27.1,21.03-23.03,37.81,4.08,16.78,21.04,27.1,37.81,23.03Z"/><path class="cls-3" d="M248.7,584.65c16.38-3.98,26.47-20.56,22.49-36.95-3.98-16.38-20.55-26.47-36.94-22.48-16.38,3.98-26.48,20.54-22.5,36.93,3.98,16.38,20.56,26.48,36.94,22.5Z"/><circle class="cls-3" cx="314.34" cy="483.44" r="29.86"/><path class="cls-3" d="M403.95,450.38c15.6-3.79,25.22-19.58,21.42-35.2-3.79-15.6-19.58-25.21-35.18-21.42-15.6,3.79-25.21,19.58-21.42,35.17,3.79,15.61,19.57,25.23,35.18,21.44Z"/><path class="cls-3" d="M495.57,399.66c15.22-3.7,24.59-19.09,20.9-34.29-3.7-15.22-19.09-24.59-34.31-20.89-15.21,3.7-24.58,19.09-20.88,34.31,3.69,15.2,19.09,24.57,34.3,20.88Z"/><circle class="cls-3" cx="588.97" cy="334.73" r="27.67"/><path class="cls-3" d="M701.33,337.79c14.44-3.51,23.33-18.11,19.82-32.56-3.51-14.43-18.1-23.32-32.54-19.81-14.43,3.51-23.32,18.1-19.81,32.53,3.51,14.45,18.11,23.34,32.54,19.83Z"/><path class="cls-3" d="M806.85,329.42c14.04-3.41,22.7-17.62,19.29-31.67-3.41-14.04-17.62-22.68-31.67-19.27s-22.69,17.61-19.28,31.65c3.42,14.05,17.62,22.7,31.66,19.29Z"/><path class="cls-3" d="M910.39,335.85c13.65-3.32,22.07-17.12,18.75-30.78-3.32-13.66-17.14-22.08-30.79-18.76-13.65,3.32-22.06,17.14-18.74,30.8,3.32,13.66,17.13,22.06,30.78,18.75Z"/><ellipse class="cls-3" cx="1004.81" cy="332.23" rx="24.76" ry="24.75" transform="translate(-50.04 246.7) rotate(-13.66)"/><circle class="cls-3" cx="1100.69" cy="366.61" r="24.03"/><path class="cls-3" d="M1196.25,436.1c12.49-3.03,20.17-15.67,17.14-28.14-3.04-12.49-15.66-20.19-28.15-17.16-12.49,3.03-20.17,15.67-17.13,28.16,3.03,12.48,15.66,20.17,28.14,17.14Z"/><ellipse class="cls-3" cx="1273.69" cy="471.96" rx="22.58" ry="22.57" transform="translate(-75.43 314.15) rotate(-13.66)"/><path class="cls-3" d="M1353.4,562.59c11.71-2.84,18.92-14.67,16.08-26.37-2.84-11.71-14.69-18.92-26.39-16.07s-18.92,14.69-16.07,26.39c2.84,11.71,14.68,18.9,26.39,16.05Z"/><path class="cls-3" d="M1334.12,1563.4c-7.41,1.8-11.98,9.3-10.17,16.72,1.8,7.4,9.3,11.97,16.71,10.17,7.42-1.8,11.99-9.3,10.19-16.7-1.8-7.42-9.3-11.99-16.72-10.18Z"/><path class="cls-3" d="M1258.06,1632.36c-7.03,1.71-11.36,8.81-9.65,15.84,1.71,7.03,8.82,11.35,15.84,9.64,7.03-1.71,11.35-8.81,9.64-15.84-1.71-7.03-8.81-11.35-15.84-9.64Z"/><path class="cls-3" d="M1172.39,1690.79c-6.63,1.61-10.71,8.33-9.1,14.97s8.32,10.71,14.95,9.1c6.63-1.61,10.72-8.32,9.11-14.95-1.61-6.63-8.33-10.73-14.96-9.12Z"/><path class="cls-3" d="M1077.91,1737.43c-6.24,1.52-10.08,7.84-8.57,14.08,1.52,6.24,7.83,10.08,14.07,8.56,6.25-1.52,10.1-7.83,8.58-14.06-1.52-6.24-7.84-10.09-14.08-8.58Z"/><path class="cls-3" d="M975.4,1770.98c-5.85,1.42-9.46,7.33-8.04,13.2,1.42,5.86,7.34,9.46,13.2,8.04s9.47-7.34,8.05-13.2c-1.42-5.86-7.34-9.46-13.21-8.03Z"/><circle class="cls-3" cx="205.01" cy="913.01" r="35.68"/><path class="cls-3" d="M230.1,777.91c-18.64,4.53-30.13,23.38-25.6,42.02,4.53,18.66,23.39,30.13,42.03,25.6,18.64-4.53,30.13-23.38,25.59-42.04s-23.39-30.11-42.03-25.58Z"/><path class="cls-3" d="M279.12,687.26c-18.17,4.42-29.36,22.78-24.94,40.95,4.42,18.17,22.79,29.36,40.96,24.95,18.17-4.42,29.35-22.79,24.94-40.96s-22.78-29.35-40.95-24.93Z"/><path class="cls-3" d="M357.37,671.7c17.69-4.3,28.58-22.19,24.28-39.89-4.3-17.7-22.19-28.59-39.88-24.29-17.7,4.3-28.59,22.19-24.29,39.89s22.19,28.59,39.89,24.29Z"/><path class="cls-3" d="M431.37,602.33c17.22-4.19,27.83-21.61,23.65-38.82-4.18-17.21-21.61-27.82-38.83-23.64-17.22,4.19-27.82,21.61-23.64,38.82,4.18,17.21,21.6,27.82,38.82,23.64Z"/><path class="cls-3" d="M515.29,546.22c16.75-4.07,27.07-21.01,23-37.77-4.07-16.76-21.02-27.07-37.77-23-16.75,4.07-27.06,21-22.99,37.76,4.07,16.76,21.01,27.07,37.76,23Z"/><path class="cls-3" d="M607.25,504.47c16.28-3.96,26.3-20.4,22.35-36.67-3.95-16.27-20.41-26.3-36.69-22.34-16.27,3.95-26.29,20.42-22.33,36.69,3.95,16.27,20.41,26.28,36.68,22.33Z"/><path class="cls-3" d="M705.39,478.29c15.8-3.84,25.53-19.82,21.69-35.62-3.84-15.8-19.82-25.53-35.62-21.69s-25.54,19.82-21.7,35.62c3.84,15.8,19.83,25.53,35.63,21.69Z"/><path class="cls-3" d="M807.83,468.79c15.33-3.73,24.77-19.21,21.04-34.55-3.73-15.33-19.22-24.76-34.55-21.03-15.32,3.72-24.76,19.21-21.04,34.54,3.73,15.33,19.22,24.76,34.54,21.04Z"/><ellipse class="cls-3" cx="906.19" cy="450.22" rx="27.72" ry="27.73" transform="translate(-80.69 226.75) rotate(-13.66)"/><path class="cls-3" d="M1016.35,503.92c14.38-3.5,23.23-18.04,19.74-32.42-3.49-14.37-18.03-23.22-32.41-19.72-14.38,3.5-23.24,18.03-19.75,32.4,3.49,14.37,18.03,23.24,32.42,19.74Z"/><path class="cls-3" d="M1098.78,496.48c-13.9,3.38-22.47,17.44-19.09,31.34,3.38,13.9,17.44,22.47,31.34,19.09,13.91-3.38,22.48-17.44,19.1-31.35-3.38-13.9-17.44-22.47-31.35-19.08Z"/><path class="cls-3" d="M1195.2,604.16c13.43-3.27,21.7-16.86,18.44-30.29-3.27-13.43-16.84-21.7-30.28-18.43-13.43,3.27-21.71,16.84-18.44,30.27,3.27,13.43,16.85,21.71,30.28,18.45Z"/><path class="cls-3" d="M1256.23,626.8c-12.96,3.15-20.94,16.25-17.79,29.22,3.15,12.96,16.25,20.94,29.22,17.79,12.96-3.15,20.93-16.25,17.78-29.22-3.15-12.96-16.25-20.94-29.21-17.79Z"/><path class="cls-3" d="M1316.25,708.68c-12.49,3.03-20.18,15.67-17.15,28.15,3.03,12.48,15.67,20.17,28.15,17.14,12.49-3.03,20.17-15.67,17.14-28.14s-15.66-20.17-28.14-17.14Z"/><ellipse class="cls-3" cx="1367.55" cy="821.02" rx="22.42" ry="22.41" transform="translate(-155.21 346.2) rotate(-13.66)"/><circle class="cls-3" cx="1349.06" cy="1326.84" r="18"/><circle class="cls-3" cx="1295.5" cy="1414.85" r="17.11"/><path class="cls-3" d="M1225.09,1475.76c-8.69,2.11-14.05,10.9-11.93,19.6s10.91,14.06,19.6,11.95c8.7-2.11,14.05-10.92,11.94-19.62s-10.91-14.04-19.6-11.93Z"/><path class="cls-3" d="M1147.58,1540.85c-8.23,2-13.29,10.31-11.3,18.53,2,8.23,10.31,13.29,18.54,11.29s13.28-10.31,11.28-18.54c-2-8.21-10.31-13.27-18.53-11.28Z"/><circle class="cls-3" cx="1064.18" cy="1606.35" r="14.46"/><ellipse class="cls-3" cx="969.75" cy="1642.17" rx="13.58" ry="13.57" transform="translate(-360.4 275.48) rotate(-13.66)"/><path class="cls-3" d="M866.76,1649.73c-6.8,1.65-10.99,8.54-9.33,15.34s8.53,10.98,15.33,9.33,11-8.52,9.35-15.33c-1.65-6.8-8.53-11-15.34-9.34Z"/><circle class="cls-3" cx="766.08" cy="1664.87" r="11.81"/><path class="cls-3" d="M657.98,1638.83c-5.85,1.42-9.46,7.33-8.04,13.2,1.42,5.86,7.35,9.48,13.2,8.05s9.47-7.35,8.04-13.22c-1.42-5.86-7.34-9.46-13.21-8.03Z"/><circle class="cls-3" cx="554.36" cy="654.74" r="35.68"/><path class="cls-3" d="M639.56,576.71c-18.51,4.5-29.9,23.23-25.41,41.73,4.5,18.51,23.22,29.9,41.72,25.4,18.52-4.5,29.92-23.21,25.42-41.72-4.5-18.51-23.22-29.92-41.74-25.42Z"/><path class="cls-3" d="M737.48,555.34c-17.91,4.35-28.93,22.47-24.58,40.38,4.35,17.91,22.46,28.93,40.37,24.57,17.91-4.35,28.94-22.46,24.59-40.36-4.35-17.91-22.47-28.95-40.37-24.59Z"/><path class="cls-3" d="M851.59,617.95c17.3-4.21,27.97-21.7,23.76-39.01-4.21-17.3-21.71-27.97-39.02-23.77-17.3,4.21-27.96,21.72-23.76,39.03,4.21,17.3,21.71,27.96,39.01,23.75Z"/><path class="cls-3" d="M932.75,575.42c-16.7,4.06-26.99,20.97-22.93,37.67,4.06,16.7,20.96,26.98,37.66,22.92,16.7-4.06,27-20.95,22.94-37.65-4.06-16.7-20.96-27-37.66-22.94Z"/><path class="cls-3" d="M1023.35,615.3c-16.1,3.91-26.02,20.19-22.1,36.3,3.91,16.1,20.19,26.02,36.3,22.1,16.1-3.91,26.03-20.19,22.11-36.3-3.91-16.1-20.2-26.01-36.3-22.1Z"/><path class="cls-3" d="M1118.44,730.21c15.5-3.77,25.05-19.44,21.29-34.94-3.77-15.5-19.45-25.04-34.95-21.27-15.5,3.77-25.04,19.44-21.28,34.94,3.77,15.5,19.44,25.04,34.94,21.28Z"/><path class="cls-3" d="M1173.66,750.72c-14.89,3.62-24.06,18.68-20.45,33.56,3.62,14.9,18.69,24.07,33.58,20.45s24.07-18.69,20.45-33.59c-3.62-14.88-18.68-24.05-33.58-20.43Z"/><path class="cls-3" d="M1225.55,842.48c-14.29,3.47-23.09,17.93-19.62,32.23,3.47,14.28,17.93,23.08,32.22,19.61,14.29-3.47,23.09-17.93,19.62-32.21-3.48-14.3-17.93-23.1-32.22-19.63Z"/><path class="cls-3" d="M1255.52,940.16c-13.69,3.33-22.12,17.18-18.79,30.87,3.32,13.68,17.17,22.11,30.86,18.79s22.12-17.18,18.8-30.86c-3.33-13.7-17.18-22.13-30.87-18.8Z"/><path class="cls-3" d="M1264.03,1039.92c-13.09,3.18-21.15,16.42-17.97,29.5,3.18,13.08,16.42,21.14,29.51,17.96s21.14-16.42,17.96-29.5c-3.18-13.08-16.41-21.14-29.5-17.96Z"/><path class="cls-3" d="M1234.7,1166.48c3.03,12.48,15.67,20.17,28.15,17.14,12.49-3.03,20.17-15.67,17.14-28.14-3.03-12.48-15.66-20.17-28.14-17.14-12.49,3.03-20.18,15.67-17.15,28.15Z"/><path class="cls-3" d="M1219.78,1232.09c-11.87,2.89-19.19,14.91-16.3,26.79s14.9,19.18,26.78,16.3c11.88-2.89,19.2-14.9,16.32-26.77s-14.9-19.2-26.79-16.31Z"/><path class="cls-3" d="M1168.64,1317.77c-11.28,2.74-18.23,14.16-15.49,25.43,2.74,11.27,14.15,18.21,25.43,15.47s18.22-14.14,15.48-25.41-14.15-18.23-25.43-15.49Z"/><path class="cls-3" d="M1108.61,1430.77c10.67-2.59,17.25-13.41,14.65-24.08-2.59-10.67-13.39-17.24-24.07-14.65-10.67,2.59-17.25,13.39-14.66,24.06,2.59,10.67,13.4,17.26,24.07,14.67Z"/><path class="cls-3" d="M1021.66,1487.76c10.07-2.45,16.28-12.63,13.83-22.7-2.45-10.09-12.64-16.29-22.72-13.84s-16.28,12.63-13.83,22.72,12.64,16.27,22.71,13.82Z"/><path class="cls-3" d="M917.88,1489.34c-9.48,2.3-15.31,11.88-13,21.37,2.3,9.47,11.88,15.3,21.36,13,9.47-2.3,15.3-11.88,13-21.35-2.31-9.49-11.88-15.32-21.35-13.02Z"/><circle class="cls-3" cx="823.72" cy="1521.84" r="16.55"/><path class="cls-3" d="M740.56,1512.55c-2.01-8.27-10.37-13.36-18.64-11.35-8.26,2.01-13.35,10.37-11.34,18.64,2,8.25,10.37,13.34,18.62,11.33,8.27-2.01,13.36-10.37,11.35-18.62Z"/><path class="cls-3" d="M627.61,1476.51c-7.67,1.86-12.39,9.62-10.53,17.26s9.62,12.39,17.28,10.52c7.67-1.86,12.38-9.62,10.52-17.28-1.86-7.65-9.6-12.37-17.27-10.51Z"/><path class="cls-3" d="M540.22,1432.46c-7.06,1.72-11.42,8.85-9.7,15.91,1.72,7.06,8.86,11.42,15.93,9.7s11.41-8.86,9.69-15.93c-1.72-7.06-8.85-11.4-15.91-9.68Z"/><path class="cls-3" d="M463.13,1369.85c-6.46,1.57-10.44,8.11-8.87,14.57,1.57,6.46,8.1,10.43,14.56,8.86,6.46-1.57,10.44-8.09,8.87-14.55-1.57-6.46-8.1-10.45-14.56-8.88Z"/><path class="cls-3" d="M399.71,1289.49c-5.85,1.42-9.46,7.33-8.04,13.2,1.42,5.86,7.34,9.46,13.2,8.04,5.86-1.42,9.47-7.34,8.05-13.2-1.42-5.86-7.34-9.46-13.21-8.03Z"/><path class="cls-3" d="M868.62,696.11c-19.12,4.65-30.89,23.99-26.25,43.09,4.64,19.11,23.98,30.89,43.1,26.24s30.89-23.98,26.24-43.09c-4.64-19.11-23.97-30.89-43.09-26.24Z"/><path class="cls-3" d="M977.65,801.05c18.28-4.44,29.55-22.94,25.1-41.22-4.44-18.28-22.94-29.55-41.22-25.1-18.29,4.45-29.56,22.94-25.11,41.23,4.44,18.28,22.94,29.55,41.23,25.1Z"/><path class="cls-3" d="M1036.78,796.72c-17.46,4.24-28.22,21.9-23.97,39.38,4.24,17.46,21.9,28.21,39.36,23.96,17.46-4.24,28.21-21.9,23.97-39.35-4.25-17.47-21.9-28.23-39.36-23.98Z"/><circle class="cls-3" cx="1098.38" cy="906.88" r="31.03"/><path class="cls-3" d="M1120.96,969.27c-15.8,3.84-25.53,19.82-21.69,35.62,3.84,15.8,19.82,25.53,35.62,21.69,15.8-3.84,25.54-19.82,21.7-35.62-3.84-15.8-19.83-25.53-35.63-21.69Z"/><circle class="cls-3" cx="1129.8" cy="1096.1" r="27.94"/><path class="cls-3" d="M1095.57,1167.32c-14.14,3.44-22.85,17.73-19.41,31.88,3.44,14.15,17.74,22.85,31.88,19.41s22.86-17.73,19.42-31.88c-3.44-14.15-17.74-22.85-31.89-19.41Z"/><path class="cls-3" d="M1072.65,1268.25c-3.24-13.32-16.7-21.51-30.02-18.27-13.31,3.24-21.51,16.69-18.28,30.01,3.24,13.32,16.7,21.51,30.01,18.28,13.32-3.24,21.52-16.69,18.29-30.01Z"/><circle class="cls-3" cx="975.41" cy="1335.38" r="23.3"/><circle class="cls-3" cx="887.96" cy="1373.43" r="21.75"/><circle class="cls-3" cx="791.55" cy="1384.91" r="20.21"/><path class="cls-3" d="M696.78,1384.84c10-2.43,16.15-12.54,13.72-22.56-2.43-10-12.54-16.15-22.54-13.72-10,2.43-16.15,12.54-13.72,22.54,2.43,10.01,12.55,16.17,22.54,13.74Z"/><path class="cls-3" d="M601.3,1304.55c-9.18,2.23-14.82,11.5-12.6,20.67,2.23,9.17,11.5,14.82,20.68,12.58s14.82-11.5,12.59-20.67c-2.23-9.17-11.5-14.82-20.67-12.59Z"/><path class="cls-3" d="M533.41,1238.96c-8.34,2.03-13.49,10.46-11.46,18.8,2.03,8.34,10.47,13.47,18.81,11.45,8.34-2.03,13.48-10.46,11.45-18.8-2.03-8.34-10.46-13.48-18.8-11.45Z"/><path class="cls-3" d="M494.24,1184.45c7.52-1.83,12.14-9.42,10.31-16.93s-9.42-12.16-16.94-10.33c-7.52,1.83-12.14,9.44-10.32,16.95s9.43,12.14,16.94,10.31Z"/><path class="cls-3" d="M473.17,1088.92c6.68-1.62,10.8-8.38,9.17-15.06s-8.39-10.82-15.07-9.19c-6.68,1.62-10.79,8.39-9.17,15.08s8.38,10.8,15.06,9.17Z"/><circle class="cls-3" cx="478.33" cy="977.42" r="10.92"/></g></g></g></svg>