<?xml version="1.0" encoding="UTF-8"?><svg id="Layer_2" xmlns="http://www.w3.org/2000/svg" viewBox="0 0 324.33 324.42"><defs><style>.cls-1{fill:#fff;}</style></defs><g id="Layer_1-2"><g><path class="cls-1" d="M324.33,161.93c.59,89.35-73.02,162.57-162.27,162.49C73.07,324.35-.29,251.23,0,161.62,.29,72.99,73.09-.07,162.37,0c89.01,.07,162.26,73.03,161.96,161.93Zm-162.7,152.06c83.76,1.15,151.84-68.04,152.56-150.34,.74-84.5-68.47-153.17-151.4-153.44C78.99,9.95,10.51,78.7,10.23,161.62c-.29,83.8,68.47,152.99,151.4,152.37Z"/><path class="cls-1" d="M216.87,160.85c-7.23-17.73-20.64-28.2-37.64-34.62v-59.82c2.44-.23,4.84-.46,8.31-.79,.82,17.75-.01,34.87,.49,52.26,2.87,1.82,5.69,3.72,8.62,5.43,18.1,10.6,29.83,26.14,33.38,46.71,3.73,21.62-1.01,41.43-15.98,58.4-11.36,12.87-25.49,20.75-42.12,22.95-24.71,3.27-45.91-4.88-62.36-23.73-11.13-12.75-17.01-28.13-16.44-44.98,.89-26.49,12.51-47.19,36.22-60.3,1.99-1.1,3.98-2.22,6.73-3.75v-52.41h9c1.52,6.41,1.88,48.82,.5,59.71-26.53,10.3-41.52,29.19-42.5,58.51,2.13,.85,3.14,1.54,4.21,1.64,21.06,1.85,41.05-1.3,59.57-12.19,15.06-8.86,31.3-13.72,50.02-13.01Z"/></g></g></svg>