<?xml version="1.0" encoding="UTF-8"?><svg id="Layer_2" xmlns="http://www.w3.org/2000/svg" xmlns:xlink="http://www.w3.org/1999/xlink" viewBox="0 0 1271.44 1647.57"><defs><style>.cls-1{fill:none;}.cls-2{clip-path:url(#clippath);}.cls-3{fill:#a4a4a4;}.cls-4{opacity:.37;}</style><clipPath id="clippath"><rect class="cls-1" width="1271.44" height="1647.57"/></clipPath></defs><g id="Layer_1-2"><g class="cls-4"><g class="cls-2"><g><path class="cls-3" d="M.44,77.84c.59,.26,1.17,.53,1.88,.67,4.84,1.04,9.62-2.1,10.66-6.94v-.36S.44,77.84,.44,77.84ZM-62.24,490.69l-.12,2.86c.14,5.25,3.55,9.21,8.43,9.41,4.99,.33,9.2-3.43,9.41-8.43l.13-3.09c.2-4.88-3.55-9.09-8.55-9.3s-9.09,3.67-9.3,8.55Zm-1.12,26.77l-.13,3.09c-.09,5,3.79,9.1,8.67,9.18,4.88,.2,8.97-3.68,9.18-8.55v-.12s.12-2.86,.12-2.86c.2-4.88-3.67-9.09-8.55-9.3s-9.09,3.67-9.3,8.55Zm4.31-77.41l-.24,2.85c-.2,4.76,3.31,9.2,8.18,9.52,4.99,.45,9.31-3.3,9.64-8.18l.25-3.09v-.24c.21-4.76-3.55-8.97-8.3-9.29-4.99-.33-9.2,3.43-9.53,8.42Zm-5.42,152.33v2.86c.03,5.01,4.03,8.99,8.92,8.95,4.89-.03,8.74-3.81,8.94-8.56l.02-.48v-3.1c-.14-4.89-4.15-8.75-9.16-8.73-4.89,.03-8.98,3.8-8.72,9.05Zm12.23-226.77l-.36,2.96c-.68,4.86,3.07,9.3,8.05,9.75,4.86,.56,9.19-3.07,9.75-7.94l.24-2.97c.13-.23,.13-.35,.14-.59,.19-4.64-3.33-8.72-8.08-9.16-4.86-.56-9.3,3.07-9.75,7.94Zm-11.13,277.47l.11,3.1c.15,4.89,4.28,8.76,9.29,8.61,4.66-.28,8.27-3.94,8.46-8.58l.03-.71-.12-2.87c-.15-5.01-4.28-8.88-9.17-8.73-4.89,.15-8.76,4.4-8.61,9.18Zm14.16-304.28l-.37,3.08c-.44,4.75,2.95,9.3,7.81,9.86,4.98,.57,9.3-3.07,9.87-7.93l.36-2.85,.03-.71c.19-4.64-3.1-8.59-7.72-9.26-4.98-.57-9.42,2.94-9.98,7.81Zm-13.03,331.38l.24,2.87c.27,4.9,4.41,8.65,9.3,8.49,4.66-.28,8.27-4.06,8.46-8.58l.03-.83-.23-3.11c-.27-4.9-4.52-8.65-9.42-8.38-4.9,.39-8.65,4.52-8.38,9.54Zm19.43-381.77l-.36,2.96c-.69,5.1,2.71,9.41,7.56,10.09,4.98,.68,9.41-2.71,10.09-7.68l.36-2.96c.13-.23,.14-.47,.15-.83,.19-4.52-3.1-8.59-7.72-9.14-4.86-.68-9.41,2.71-10.09,7.56Zm-13.49,456.38l.23,2.99c.63,4.91,5.01,8.43,9.92,7.8,4.43-.41,7.68-4.09,7.86-8.49l.05-1.31-.35-2.99c-.51-4.91-5.01-8.43-9.92-7.92-4.91,.63-8.31,5.02-7.8,9.92ZM-31.62,214.64l-.48,2.96c-.68,4.98,2.46,9.52,7.32,10.32,4.98,.69,9.52-2.58,10.32-7.43l.48-2.96,.04-1.07c.18-4.4-2.98-8.47-7.48-9.13-4.85-.8-9.4,2.47-10.2,7.32Zm4.45-26.51l-.48,2.96c-.8,4.97,2.34,9.51,7.2,10.31,4.85,.92,9.51-2.34,10.31-7.2l.6-2.95,.05-1.19c.18-4.4-2.87-8.34-7.36-9.13-4.85-.92-9.51,2.34-10.31,7.2Zm-23.01,607.11l.47,3c.75,4.92,5.25,8.32,10.17,7.58,4.32-.65,7.45-4.22,7.63-8.5,.02-.48-.07-1.08-.17-1.68l-.36-2.76c-.75-4.92-5.13-8.32-10.05-7.69-4.91,.63-8.32,5.13-7.69,10.05ZM-18.3,138.32l-.48,2.84c-1.04,4.84,2.22,9.51,7.07,10.43,1.42,.3,2.73,.23,3.94-.19,1.69-.41,3.15-1.3,4.28-2.56l.12-.11c1.01-1.27,1.78-2.67,2.09-4.32l.6-2.95,.05-1.19c.18-4.4-2.87-8.34-7.25-9.12-4.85-.92-9.51,2.34-10.43,7.19Zm-20.54,673.36c-4.8,.87-7.98,5.51-7.23,10.42l.36,2.76c.87,4.92,5.38,8.21,10.3,7.46,4.2-.78,7.33-4.34,7.51-8.51,.02-.59-.07-1.19-.04-1.79l-.59-3c-.87-4.92-5.5-8.1-10.3-7.34Zm13.5,73.27c-4.69,1-7.75,5.75-6.76,10.56l.71,3.01c1.11,4.81,5.87,7.75,10.68,6.76,3.97-.91,6.74-4.49,6.91-8.41,.03-.71,.06-1.55-.14-2.27l-.71-2.89c-.99-4.81-5.87-7.87-10.68-6.76Zm11.53,49.23c-4.7,1.35-7.53,6.24-6.18,10.94l.71,2.89c1.35,4.7,6.24,7.53,10.94,6.3,3.86-1.03,6.5-4.5,6.66-8.3,.03-.83-.04-1.79-.37-2.64l-.71-3.01c-1.35-4.7-6.24-7.53-11.06-6.18Zm7.02,25.92c-4.7,1.35-7.42,6.36-5.95,11.07l.72,2.77c1.35,4.7,6.36,7.54,11.06,6.18,3.86-1.15,6.27-4.51,6.43-8.31,.03-.83-.04-1.79-.24-2.75l-.95-3.02c-1.35-4.7-6.36-7.42-11.07-5.95Zm-23.48,595.41c5,2.95,10.12,5.91,15.25,8.74l.13-.35c.27-.82,.3-1.54,.33-2.25,.17-4.04-2.3-7.72-6.18-8.96-3.53-1.1-7.27,.05-9.53,2.82Zm5.95-22.52l-.83,2.83c-1.39,4.83,1.26,9.71,6.09,11.22,4.71,1.39,9.71-1.26,11.1-6.09l.83-2.83c.27-.7,.3-1.42,.33-2.13,.17-4.04-2.3-7.72-6.3-8.96-4.83-1.39-9.71,1.26-11.21,5.97Zm14.06-48.4l-.83,2.71c-1.28,4.83,1.38,9.71,6.21,11.11,4.71,1.39,9.59-1.39,10.98-6.1l.84-3.06c.14-.59,.29-1.3,.32-1.89,.17-4.16-2.53-7.85-6.54-8.97-4.83-1.39-9.72,1.5-10.99,6.21Zm24.92-453.16c-4.82,1.35-7.41,6.24-6.07,11.07l.31,1.09,.41,1.69c1.47,4.71,6.36,7.54,11.07,6.06,3.86-1.03,6.38-4.38,6.54-8.19,.04-.95-.16-1.91-.36-2.76l-.83-2.9c-1.47-4.83-6.36-7.54-11.07-6.06Zm-6.06,381.37l-.72,2.95c-1.15,4.72,1.74,9.61,6.58,10.76,4.72,1.15,9.61-1.74,10.76-6.46l.72-2.95c.14-.59,.29-1.18,.31-1.77,.17-4.16-2.65-7.98-6.78-8.98-4.84-1.16-9.73,1.74-10.88,6.46Zm19.88-332.76c-4.82,1.23-7.76,5.99-6.53,10.81l.71,2.89c1.11,4.81,5.99,7.76,10.81,6.53,3.86-1.03,6.62-4.37,6.78-8.3,.03-.83-.05-1.67-.25-2.51l-.71-2.89c-1.23-4.82-6.11-7.76-10.81-6.53Zm-13.67,306.92l-.44,2.01-.27,.82c-1.16,4.84,1.86,9.61,6.7,10.77,4.84,1.04,9.61-1.86,10.77-6.7l.6-2.95c.14-.59,.28-1.06,.31-1.66,.12-2.97-1.42-5.9-3.86-7.55-.92-.75-1.98-1.15-3.16-1.44-4.84-1.16-9.61,1.86-10.65,6.71Zm19.97-280.91c-4.81,1.11-7.87,5.87-6.88,10.68l.6,2.77c.99,4.93,5.74,7.99,10.55,7,4.09-.9,6.98-4.36,7.14-8.4,.03-.71-.06-1.43-.27-2.16l-.59-3c-.99-4.81-5.75-7.87-10.56-6.88Zm-9.58,231.77l-.6,2.84c-.92,4.85,2.22,9.51,7.07,10.43,4.84,1.04,9.51-2.22,10.54-6.95l.49-3.08c.14-.47,.15-.83,.17-1.3,.18-4.28-2.87-8.22-7.25-9.12-4.85-.92-9.51,2.34-10.43,7.19Zm12.42-148.82l.24,2.87c.15,4.89,4.28,8.76,9.18,8.49,4.77-.16,8.39-3.94,8.58-8.46l.03-.83-.11-2.98c-.27-5.02-4.52-8.77-9.42-8.5-4.9,.27-8.77,4.52-8.5,9.42Zm-1.87,76.08l-.23,2.73c-.57,4.98,3.07,9.3,7.93,9.87,4.99,.45,9.31-3.07,9.87-8.05l.25-3.21v-.24c.21-4.76-3.43-8.96-8.18-9.28-4.99-.45-9.32,3.3-9.64,8.18Zm1.94-26.38l-.12,2.97c-.2,4.88,3.55,9.09,8.43,9.29,4.87,.32,9.09-3.55,9.41-8.43l.13-3.09c.2-4.88-3.67-9.09-8.55-9.3-5-.21-9.09,3.67-9.3,8.55Z"/><path class="cls-3" d="M15.58,1371.38l-2.44,1.33c-4.27,2.32-5.93,7.74-3.61,12.13,1.11,1.95,2.84,3.34,4.83,4.14,2.35,.81,4.86,.68,7.17-.53l2.8-1.43c2.08-1.22,3.59-3.19,4.27-5.3,.15-.71,.3-1.42,.33-2.13,.07-1.67-.34-3.23-1.11-4.81-2.44-4.27-7.86-5.81-12.25-3.37ZM94.3,250.06l-.13,3.09c-.09,5,3.91,9.1,8.79,9.19,4.88,.08,8.86-3.8,9.06-8.56v-.24s.13-2.97,.13-2.97c.09-5-3.92-8.98-8.8-9.07-4.88-.08-8.85,3.68-9.06,8.56Zm1.5-27.23l-.25,3.09c-.07,4.64,3.31,9.2,8.18,9.64,4.87,.32,9.2-3.31,9.64-8.3l.24-2.85,.02-.48c.19-4.64-3.44-8.84-8.2-9.16-4.87-.44-9.19,3.19-9.63,8.06ZM54.9,1342.99l-2.11,1.94c-3.71,3.3-4.07,8.89-.77,12.6,3.3,3.71,8.89,4.07,12.6,.77l2.35-2.05c1.74-1.72,2.79-3.94,2.89-6.32s-.64-4.56-2.36-6.3c-3.3-3.71-8.89-3.95-12.61-.65ZM103.54,171.78l-.6,2.95c-1.03,4.72,2.11,9.5,6.95,10.54,4.72,1.03,9.5-2.11,10.54-6.83l.6-2.95c.14-.47,.16-.95,.18-1.54,.18-4.28-2.76-8.1-7.13-9-4.84-1.04-9.5,2.1-10.54,6.83Zm-5.13,153.89l.35,2.99c.63,4.91,5.01,8.43,9.92,7.8,4.43-.53,7.68-4.21,7.86-8.49,.02-.48,.04-.95-.06-1.43l-.36-2.88c-.51-4.91-5.01-8.43-9.8-7.92-4.91,.51-8.43,5.01-7.92,9.92Zm7.3,50.48l.47,3c.87,4.92,5.5,8.1,10.42,7.35,4.2-.78,7.21-4.35,7.39-8.51,.02-.59-.07-1.19-.16-1.91l-.48-2.76c-.75-4.92-5.38-8.21-10.18-7.46-4.92,.87-8.21,5.5-7.46,10.3Zm11.96,16.11c-4.92,.87-8.21,5.5-7.34,10.3l.58,3.12c.87,4.8,5.51,7.98,10.43,7.11,4.09-.78,7.09-4.35,7.26-8.4,.02-.59-.06-1.31-.15-2.03l-.48-2.76c-.87-4.92-5.5-8.1-10.3-7.34Zm6.89-293.02l-1.07,2.82c-1.5,4.59,.9,9.81,5.48,11.43,4.7,1.63,9.81-.78,11.43-5.48l.95-2.7c.28-.94,.55-1.76,.59-2.72,.16-3.81-2.2-7.36-5.95-8.71-4.57-1.74-9.68,.67-11.43,5.36Zm9.64-25.22l-1.19,2.69c-.8,2.11-.78,4.5,.09,6.44,.74,2.3,2.45,4.15,4.91,5.09,4.69,1.86,9.79-.31,11.65-5l1.07-2.7c.4-.94,.56-2,.6-2.95,0-.24,.02-.59-.08-.84-.1-3.34-2.11-6.52-5.51-7.86-4.58-1.74-9.79,.42-11.54,5.12Zm-3.15,391.5c-4.93,.99-7.98,5.63-7.11,10.43l.48,2.88c.99,4.81,5.62,8.1,10.43,7.11,4.2-.78,7.21-4.23,7.38-8.39,.02-.59-.06-1.31-.16-1.91l-.59-3c-.99-4.93-5.62-8.1-10.43-7.11Zm-30.33,822.05l-1.66,2.55c-2.67,4.06-1.47,9.59,2.7,12.27,4.18,2.68,9.71,1.48,12.26-2.59l1.66-2.55c.89-1.39,1.31-2.92,1.38-4.47,.13-3.09-1.29-6.13-4.08-7.92-4.18-2.68-9.71-1.48-12.27,2.7ZM154.29,27.07l-1.19,2.69c-2.09,4.44-.05,9.77,4.39,11.86,4.56,1.98,9.89,.06,11.86-4.39l1.19-2.81c.52-1.05,.8-2.11,.85-3.3,.14-3.45-1.86-6.87-5.25-8.44-4.44-2.09-9.77-.05-11.86,4.39Zm-13.87,488.19c-4.93,.99-7.98,5.63-7.11,10.43l.59,2.89c.87,4.92,5.5,8.1,10.31,7.22,4.2-.78,7.21-4.35,7.38-8.39,.03-.71-.06-1.43-.15-2.03l-.59-3c-.99-4.93-5.63-7.98-10.43-7.11Zm4.98,26.31c-4.8,.87-8.1,5.5-7.11,10.43l.47,3c.87,4.8,5.63,7.98,10.43,7.11,4.2-.78,7.09-4.35,7.26-8.4,.03-.71,.05-1.31-.15-2.03l-.48-2.88c-.87-4.92-5.62-8.1-10.42-7.23Zm-31.58,723.55l-1.41,2.44c-2.33,4.31-.76,9.74,3.54,12.19,4.31,2.33,9.74,.77,12.07-3.55l1.54-2.68c.65-1.28,.94-2.58,1-3.89,.14-3.33-1.51-6.62-4.66-8.18-4.43-2.33-9.86-.77-12.07,3.67Zm44.84-650.3c-4.92,.87-8.1,5.5-7.34,10.3l.47,3c.87,4.8,5.5,8.1,10.42,7.23,4.2-.66,7.21-4.23,7.38-8.39,.02-.59-.06-1.31-.16-1.91l-.48-2.88c-.87-4.92-5.5-8.1-10.3-7.34Zm-24.24,605.15l-1.07,2.82c-1.86,4.57,.42,9.79,5,11.53,4.57,1.86,9.79-.42,11.53-5l1.19-2.69c.28-1.06,.56-2,.6-2.95,.15-3.69-2.08-7.24-5.6-8.7-4.69-1.86-9.79,.42-11.65,4.99Zm25.06-545.05l.47,3c.75,4.92,5.38,8.21,10.29,7.46,4.2-.78,7.33-4.34,7.51-8.51,.02-.59-.07-1.2-.16-1.79l-.36-2.76c-.75-4.92-5.37-8.33-10.17-7.58-4.92,.75-8.32,5.25-7.58,10.17Zm4.02,26.39l.47,3c.75,4.92,5.26,8.21,10.17,7.58,4.32-.65,7.45-4.34,7.63-8.5,.02-.59-.07-1.08-.17-1.68l-.36-2.88c-.75-4.92-5.25-8.32-10.05-7.57-4.91,.63-8.31,5.02-7.69,10.05Zm-6.98,448.91l-.71,2.83c-1.15,4.72,1.62,9.6,6.46,10.88,4.71,1.27,9.6-1.62,10.88-6.46l.72-2.95c.14-.59,.29-1.18,.31-1.77,.17-4.16-2.65-7.98-6.78-8.98-4.83-1.27-9.6,1.62-10.88,6.46Zm16.54-375.45l.35,2.99c.51,4.91,5.01,8.43,9.8,7.92,4.55-.52,7.8-4.2,7.98-8.49,.02-.48,.04-.95-.06-1.31l-.24-2.87c-.51-4.91-4.89-8.55-9.79-8.04-4.91,.51-8.67,4.88-8.04,9.79Zm-10.33,349.61l-.72,2.95c-1.03,4.72,1.99,9.5,6.82,10.65,4.84,1.04,9.62-1.98,10.65-6.82l.72-2.95c.02-.48,.16-.95,.18-1.54,.18-4.28-2.76-8.1-7.01-9.11-4.84-1.04-9.62,1.98-10.65,6.82Zm15.26-299.35l.12,2.87c.39,4.9,4.65,8.54,9.67,8.15,4.54-.29,8.04-4.07,8.22-8.48,.01-.36,.03-.71-.07-1.08l-.23-3.11c-.39-4.9-4.77-8.54-9.67-8.03-4.9,.39-8.66,4.64-8.03,9.68Zm1.87,26.42l.11,2.98c.39,4.9,4.64,8.66,9.54,8.38,4.54-.29,8.16-4.07,8.35-8.59l.04-.95-.24-2.87c-.27-4.9-4.52-8.65-9.42-8.38-4.9,.27-8.64,4.29-8.38,9.42Zm-7.93,223.73l-.48,2.84c-.69,4.98,2.46,9.52,7.43,10.32,4.85,.8,9.4-2.59,10.2-7.44l.49-3.08,.04-.95c.18-4.4-2.98-8.47-7.6-9.14-4.85-.8-9.4,2.59-10.08,7.44Zm10.45-149.97v3.1c.02,4.89,4.03,8.87,9.04,8.84,4.76,.08,8.62-3.81,8.82-8.45l.02-.48v-2.86c.09-4.88-3.91-8.98-8.8-8.95-5-.09-8.86,3.92-9.07,8.8Zm-2.38,76.77l-.24,2.97c-.18,4.4,3.31,9.2,8.18,9.52,4.99,.45,9.32-3.3,9.64-8.18l.25-3.09v-.24c.21-4.76-3.55-8.97-8.3-9.29-4.99-.33-9.2,3.43-9.52,8.3Zm1.47-26.64l-.13,3.09c-.21,5,3.67,9.09,8.55,9.3,4.88,.2,9.09-3.55,9.3-8.55l.12-2.97c.2-4.88-3.56-8.97-8.43-9.29-5-.21-9.09,3.55-9.41,8.43Z"/><path class="cls-3" d="M164.12,1584.13c-.68,4.86,2.46,9.52,7.32,10.32,4.85,.8,9.52-2.58,10.32-7.43l.33-2.25-8.73-2.15-8.89-1.09-.35,2.61Zm5.17-29.46l-.48,2.96c-1.04,4.84,2.22,9.51,7.07,10.43,4.85,.8,9.51-2.34,10.43-7.19l.6-2.95,.05-1.31c.18-4.28-2.87-8.22-7.25-9.12-4.85-.92-9.51,2.34-10.43,7.19Zm10.67-49.85l-.6,2.84c-1.28,4.83,1.86,9.61,6.7,10.77,4.72,1.15,9.61-1.86,10.65-6.71l.72-2.95c.14-.59,.16-1.07,.18-1.54,.18-4.28-2.64-8.21-7.01-9.11-4.72-1.15-9.5,1.99-10.65,6.71Zm18.17-72.42l-.71,2.83c-1.28,4.83,1.62,9.72,6.46,10.88,4.71,1.27,9.6-1.62,10.87-6.34l.71-2.83c.15-.71,.29-1.3,.32-1.89,.17-4.16-2.53-7.97-6.65-9.1-4.84-1.16-9.72,1.62-11,6.45ZM246.87,352.38v.12s-.13,2.97-.13,2.97c-.09,5,3.79,9.1,8.67,9.18,4.88,.2,8.97-3.68,9.18-8.55l.12-2.97c.21-5-3.67-9.09-8.67-9.3-4.88-.08-8.97,3.68-9.18,8.55Zm-.66,27.15l-.12,2.86c-.08,4.88,3.92,8.98,8.8,9.07,4.88,.09,8.85-3.68,9.06-8.56l.13-3.21c-.03-5.01-4.03-8.99-8.92-9.07-4.89,.03-8.87,4.16-8.95,8.92Zm3.62-77.91l-.24,2.97c.03,4.89,3.31,9.2,8.3,9.52,4.87,.44,9.2-3.31,9.52-8.18l.24-2.97v-.36c.21-4.76-3.43-8.84-8.18-9.28-4.99-.33-9.2,3.31-9.64,8.3Zm-44.91,1104.86l-.71,2.83c-1.27,4.71,1.62,9.72,6.33,10.99,4.84,1.16,9.73-1.74,11-6.45l.71-2.83c.15-.71,.29-1.3,.32-1.89,.17-4.16-2.65-7.98-6.77-9.1-4.72-1.15-9.6,1.62-10.88,6.46Zm41.74-952.2l.11,2.98c.15,4.89,4.28,8.76,9.18,8.61,4.77-.16,8.51-3.94,8.7-8.46l.03-.71-.11-2.98c-.15-4.89-4.28-8.76-9.18-8.61-4.89,.15-8.88,4.4-8.73,9.17Zm11.89-227.38l-.49,3.08c-.68,4.98,2.71,9.41,7.56,10.21,4.86,.68,9.41-2.71,10.21-7.56l.36-2.85c.13-.35,.15-.71,.16-1.07,.18-4.4-2.98-8.47-7.48-9.13-4.97-.8-9.52,2.46-10.32,7.31Zm-9.85,278.12l.23,2.99c.27,4.9,4.4,8.76,9.42,8.5,4.54-.29,8.16-4.07,8.35-8.59l.03-.83-.11-2.98c-.27-4.9-4.52-8.65-9.42-8.5-4.9,.27-8.66,4.64-8.5,9.42Zm14.29-304.63l-.48,2.96c-.8,4.97,2.46,9.52,7.32,10.32,4.85,.8,9.4-2.47,10.32-7.32l.48-2.84c.02-.48,.15-.83,.17-1.18,.18-4.4-2.98-8.47-7.48-9.13-4.85-.92-9.39,2.35-10.31,7.2Zm-12.79,331.39l.23,3.11c.27,4.9,4.53,8.65,9.55,8.27,4.54-.29,8.15-3.95,8.34-8.47,.01-.36,.02-.59-.08-.96l-.12-2.87c-.27-4.9-4.52-8.77-9.42-8.5-4.9,.27-8.77,4.52-8.5,9.42Zm-32.76,825.76l-.71,2.83c-1.16,4.84,1.74,9.73,6.46,10.88,4.84,1.16,9.73-1.74,10.88-6.58l.71-2.83c.14-.59,.17-1.19,.19-1.78,.17-4.16-2.53-7.97-6.77-9.1-4.72-1.15-9.61,1.74-10.76,6.58ZM273.07,150.51l-.6,2.84c-1.04,4.84,1.98,9.62,6.82,10.65,4.72,1.03,9.5-1.99,10.65-6.82l.6-2.95c.14-.47,.16-1.07,.18-1.54,.18-4.28-2.76-8.1-7.13-9.12-4.73-.91-9.5,2.1-10.54,6.95Zm-17.63,455.73l.23,2.99c.39,4.9,4.65,8.54,9.55,8.27,4.66-.4,8.16-4.07,8.34-8.59,.01-.36-.09-.72-.07-1.08l-.23-2.99c-.39-4.9-4.65-8.54-9.55-8.15-4.9,.39-8.53,4.53-8.27,9.55Zm3.96,50.58l.24,2.87c.39,4.9,4.65,8.54,9.67,8.15,4.54-.29,8.03-3.95,8.22-8.48,.01-.36,.03-.71-.07-1.08l-.23-3.11c-.39-4.9-4.77-8.54-9.67-8.03-4.9,.39-8.66,4.76-8.15,9.67Zm-25.7,628.57l-.59,2.72c-.92,4.97,2.1,9.62,6.94,10.66,4.84,1.04,9.62-2.1,10.66-6.94l.6-2.95c.02-.48,.16-.95,.18-1.42,.18-4.28-2.87-8.22-7.25-9.12-4.85-.92-9.51,2.22-10.55,7.07Zm27.8-601.9l.24,2.87c.39,4.9,4.64,8.66,9.67,8.27,4.55-.41,8.04-4.07,8.23-8.59,0-.24,.02-.59-.08-.96l-.23-3.11c-.39-4.9-4.77-8.54-9.67-8.15-4.91,.51-8.54,4.77-8.15,9.67Zm-22.53,575.67l-.6,2.84c-.91,4.73,2.22,9.51,7.07,10.55,4.85,.92,9.51-2.22,10.43-7.07l.61-3.07c.13-.35,.15-.83,.17-1.18,.18-4.4-2.87-8.34-7.25-9.12-4.85-.92-9.51,2.22-10.43,7.07ZM290.9,77.72l-.72,2.95c-1.16,4.84,1.62,9.72,6.34,10.87,4.83,1.28,9.72-1.62,10.99-6.33l.71-2.83c.14-.59,.29-1.3,.32-1.89,.17-4.16-2.53-7.97-6.66-8.98-4.71-1.39-9.6,1.51-10.99,6.21Zm-43.17,1131.75l-.49,3.08c-.68,4.86,2.59,9.4,7.44,10.2,4.85,.8,9.4-2.59,10.2-7.44l.48-2.84,.05-1.19c.18-4.4-2.87-8.34-7.37-9.13-4.85-.8-9.52,2.46-10.32,7.32Zm19.26-451.97l.23,2.99c.27,4.9,4.52,8.65,9.42,8.38,4.66-.28,8.16-4.07,8.34-8.59l.04-.95-.23-2.99c-.27-4.9-4.53-8.65-9.43-8.26-5.02,.27-8.65,4.52-8.38,9.42ZM298.06,51.8l-.84,2.94c-1.27,4.71,1.5,9.72,6.21,10.99,4.71,1.27,9.72-1.5,10.99-6.33l.71-2.71c.27-.7,.3-1.42,.33-2.13,.16-3.93-2.42-7.73-6.42-8.97-4.71-1.27-9.72,1.5-10.99,6.21Zm-28.17,755.99l.11,3.1c.27,4.9,4.52,8.77,9.42,8.5,4.66-.28,8.27-3.94,8.46-8.58l.03-.83-.24-2.87c-.15-4.89-4.28-8.76-9.18-8.49-5.01,.15-8.88,4.4-8.61,9.17Zm-11.71,328.46l-.36,2.85c-.56,4.86,2.94,9.42,7.81,9.98,4.86,.68,9.3-2.83,9.98-7.69l.36-2.96,.03-.71c.19-4.64-3.21-8.72-7.84-9.27-4.86-.56-9.3,2.83-9.98,7.81Zm12.86-301.71l.11,3.1c.15,4.89,4.29,8.64,9.3,8.49,4.66-.16,8.39-3.94,8.58-8.58,0-.24,.02-.48-.09-.72l-.12-2.87c-.03-4.89-4.16-8.75-9.17-8.61-4.89,.03-8.77,4.4-8.61,9.17Zm-9.73,275.26l-.36,2.85c-.44,4.87,2.95,9.3,7.93,9.87,4.86,.56,9.3-2.95,9.87-7.93l.36-2.96,.02-.59c.19-4.64-3.33-8.72-8.07-9.28-4.87-.44-9.31,3.19-9.75,8.05Zm4.73-50.34l-.24,2.97c-.3,4.4,3.19,9.31,8.17,9.76,4.87,.44,9.19-3.19,9.64-8.18l.24-2.97v-.36c.21-4.76-3.31-8.84-8.06-9.28-4.99-.45-9.31,3.19-9.75,8.05Zm6.31-150.74v2.86c.03,4.89,3.91,8.98,8.92,8.95,4.76,.08,8.74-3.69,8.94-8.56v-.24s.02-3.1,.02-3.1c-.03-5.01-4.03-8.99-8.92-8.95-5.01,.03-9.24,4.26-8.96,9.04ZM311.9,3.03l-.96,2.94c-1.27,4.71,1.38,9.71,6.21,10.99,4.71,1.39,9.71-1.38,10.98-6.1l.83-2.83c.27-.7,.3-1.42,.33-2.13,.17-4.04-2.3-7.72-6.3-8.96-4.71-1.39-9.71,1.26-11.1,6.09Zm-40.23,955.95l-.12,2.97c-.2,4.88,3.67,9.09,8.67,9.18,4.88,.2,8.97-3.68,9.18-8.55l.13-3.09c.08-4.88-3.8-8.98-8.67-9.18-5-.09-9.22,3.79-9.18,8.67Zm-.99,26.54l-.13,3.09c-.2,4.88,3.55,9.09,8.55,9.3,4.88,.2,9.09-3.67,9.3-8.55l.12-2.97c.2-4.88-3.56-8.97-8.43-9.29-5-.21-9.21,3.55-9.41,8.43Z"/><path class="cls-3" d="M371.68,1386.03l-.12,2.86c-.22,5.23,3.43,9.08,8.43,9.41,4.88,.2,9.09-3.55,9.41-8.43l.13-3.09c.21-5-3.67-9.09-8.55-9.3s-9.09,3.55-9.3,8.55Zm1.72-26.98l-.24,2.85c-.58,5.22,3.31,9.2,8.18,9.64,4.99,.33,9.2-3.31,9.64-8.3l.24-2.97v-.24c.21-4.88-3.55-8.97-8.42-9.29-4.87-.32-9.08,3.43-9.41,8.31Zm-2.96,102.02v2.86c.15,4.89,4.16,8.87,9.17,8.73,4.65-.04,8.5-3.82,8.7-8.57l.02-.48-.11-3.1c-.03-4.89-4.16-8.76-9.17-8.61-4.89,.15-8.76,4.16-8.61,9.17Zm8.06-152.81l-.36,2.85c-.68,4.98,2.82,9.41,7.69,9.98,4.98,.68,9.41-2.82,9.98-7.69l.37-3.08,.02-.59c.19-4.64-3.21-8.72-7.84-9.27-4.98-.57-9.42,2.94-9.86,7.81Zm-5.9,203.79l.12,2.87c.39,4.9,4.64,8.66,9.55,8.27,4.54-.29,8.15-3.95,8.34-8.47l.04-.95-.23-3.11c-.39-4.9-4.65-8.54-9.67-8.27-4.9,.39-8.42,4.65-8.15,9.67Zm2.09,26.9l.24,2.87c.51,4.91,4.77,8.54,9.68,8.03,4.54-.29,8.04-4.07,8.22-8.48,.01-.36-.09-.72-.07-1.19l-.23-2.99c-.51-4.91-4.89-8.55-9.79-8.04-4.91,.51-8.67,4.88-8.04,9.79Zm15.61-304.69l-.47,2.72c-1.03,4.72,2.1,9.62,6.95,10.54,4.85,.92,9.51-2.22,10.55-7.07l.6-2.95,.05-1.31c.18-4.4-2.87-8.34-7.25-9.12-4.85-.92-9.51,2.34-10.43,7.19Zm5.52-26.59l-.72,2.95c-1.04,4.84,2.1,9.62,6.94,10.66,4.85,.92,9.62-2.1,10.54-6.95l.6-2.84c.14-.47,.28-1.06,.3-1.54,.18-4.28-2.76-8.1-7.01-9.11-4.84-1.04-9.62,1.98-10.65,6.83Zm-4.5,395.38c-4.8,.87-8.1,5.5-7.22,10.31l.28,1.8,.19,1.08c.75,4.92,5.38,8.21,10.18,7.34,4.32-.65,7.32-4.1,7.5-8.27v-.12c.03-.59,.05-1.19-.04-1.79l-.59-3c-.75-4.92-5.38-8.21-10.3-7.34Zm16.1-444.83l-.71,2.83c-1.15,4.72,1.74,9.61,6.46,10.88,4.84,1.16,9.61-1.74,10.88-6.58l.71-2.83c.14-.59,.17-1.19,.19-1.78,.17-4.16-2.52-8.09-6.77-9.1-4.72-1.15-9.61,1.74-10.76,6.58ZM455.88,14.3l-.12,2.86c-.09,5,3.79,9.1,8.67,9.18,4.88,.2,8.97-3.68,9.18-8.55l.13-3.09c.09-5-3.8-8.98-8.79-9.19-4.88-.08-8.86,3.8-9.07,8.8Zm.72,22.68c-.89,1.27-1.31,2.81-1.14,4.36v2.98c.03,4.89,4.03,8.87,9.04,8.84,4.77-.04,8.62-3.81,8.82-8.57v-.36s.02-2.98,.02-2.98c.04-1.07-.15-2.03-.59-3-1.29-3.39-4.52-5.91-8.33-5.95-3.34-.02-6.39,1.88-7.82,4.68Zm1.69,79.21l.23,3.11c.39,4.9,4.64,8.66,9.55,8.27,4.55-.41,8.04-4.07,8.23-8.59l.04-1.07-.24-2.87c-.39-4.9-4.53-8.65-9.55-8.27-4.9,.27-8.65,4.53-8.26,9.43Zm-58.09,1536.7c-4.81,1.11-7.87,5.87-6.76,10.68l.6,2.77c.99,4.93,5.74,7.99,10.55,7,4.09-.9,6.86-4.48,7.03-8.41,.03-.71,.06-1.43-.14-2.27l-.59-3c-1.11-4.81-5.87-7.75-10.68-6.76ZM462.84,167.03l.35,2.99c.51,4.91,4.89,8.43,9.8,7.92,4.43-.53,7.8-4.2,7.98-8.49,.02-.48,.04-.95-.06-1.43l-.35-2.99c-.51-4.91-4.89-8.43-9.8-7.8-4.91,.51-8.43,5.01-7.92,9.8Zm-36.06,919.06l-.83,2.83c-1.27,4.71,1.39,9.59,6.1,10.98,4.83,1.39,9.71-1.38,11.1-6.09l.84-3.06c.14-.59,.29-1.3,.32-1.89,.17-4.16-2.53-7.85-6.66-8.98-4.71-1.39-9.6,1.51-10.87,6.22Zm39.23-892.23l.36,2.88c.63,4.91,5.13,8.32,9.92,7.8,4.44-.65,7.68-4.21,7.86-8.49,.02-.6,.04-1.07-.05-1.55l-.35-2.99c-.75-4.92-5.25-8.32-10.05-7.69-4.91,.63-8.32,5.13-7.69,10.05Zm-31.83,866.32l-.84,2.94c-1.39,4.71,1.38,9.71,6.1,10.98,4.71,1.39,9.71-1.38,11.1-6.09l.71-2.83c.27-.7,.42-1.41,.45-2.13,.17-4.05-2.42-7.73-6.42-8.97-4.71-1.39-9.71,1.26-11.1,6.09Zm49.9-802.64c-4.92,.75-8.21,5.38-7.46,10.18l.48,2.88c.87,4.92,5.38,8.21,10.29,7.46,4.2-.66,7.33-4.22,7.5-8.39,.02-.59-.07-1.19-.16-1.79l-.47-3c-.75-4.92-5.38-8.21-10.18-7.34Zm-35.84,754.12l-.71,2.71c-1.51,4.7,1.26,9.71,5.97,11.1,4.7,1.51,9.71-1.26,11.1-5.97l.84-2.94c.27-.7,.3-1.42,.33-2.13,.16-3.93-2.42-7.73-6.42-8.97-4.71-1.27-9.72,1.5-11.11,6.21Zm43.88-704.21c-4.92,.87-8.1,5.5-7.34,10.3l.47,3c.87,4.8,5.5,8.1,10.42,7.23,4.2-.66,7.21-4.23,7.38-8.39,.02-.59-.06-1.31-.16-1.91l-.47-3c-.87-4.8-5.5-8.1-10.31-7.22Zm-2.97,36.7l.59,3c.75,4.8,5.38,8.09,10.31,7.22,4.2-.66,7.21-4.23,7.38-8.39,.02-.6-.07-1.2-.16-1.91l-.48-2.76c-.75-4.92-5.38-8.21-10.18-7.46-4.92,.75-8.21,5.38-7.46,10.3Zm-20.28,596.02l-.71,2.83c-1.39,4.71,1.38,9.71,6.1,10.98,4.71,1.39,9.71-1.38,10.98-6.1l.84-2.94c.27-.7,.29-1.3,.32-2.01,.17-4.05-2.41-7.85-6.54-8.97-4.71-1.27-9.72,1.5-10.99,6.21Zm7.16-25.8l-.83,2.83c-1.15,4.72,1.5,9.72,6.33,10.99,4.71,1.27,9.6-1.51,10.99-6.22l.72-2.95c.14-.59,.29-1.3,.32-1.89,.17-4.16-2.53-7.97-6.54-8.97-4.83-1.39-9.72,1.5-10.99,6.21Zm32.53-506.96c-4.92,.75-8.21,5.26-7.46,10.18l.48,2.88c.63,4.79,5.26,8.21,10.06,7.45,4.32-.65,7.45-4.22,7.62-8.38,.02-.59,.05-1.19-.04-1.79l-.47-3c-.75-4.92-5.38-8.21-10.18-7.34Zm-19.88,458.14l-.72,2.95c-1.15,4.72,1.74,9.61,6.46,10.76,4.84,1.16,9.73-1.74,10.88-6.58l.71-2.83c.14-.59,.17-1.18,.19-1.78,.17-4.16-2.53-7.97-6.77-8.98-4.71-1.27-9.6,1.62-10.76,6.46Zm19.64-398.2l.35,2.99c.75,4.92,5.13,8.32,10.05,7.69,4.43-.53,7.57-4.21,7.74-8.5,.02-.48,.04-1.07-.05-1.55l-.36-2.88c-.63-4.91-5.13-8.32-10.05-7.69-4.91,.51-8.32,5.13-7.69,9.93Zm3.3,26.6l.36,2.88c.51,4.91,5.01,8.43,9.92,7.8,4.43-.53,7.68-4.09,7.86-8.49,.02-.48,.03-.83-.06-1.31l-.35-3.11c-.51-4.91-5.02-8.31-9.92-7.8-4.91,.63-8.44,5.13-7.81,10.04Zm-7.16,299.33l-.61,3.07c-1.04,4.84,2.22,9.51,7.07,10.43,4.85,.8,9.51-2.34,10.43-7.19l.6-2.84c.02-.48,.16-.95,.17-1.3,.18-4.4-2.87-8.34-7.24-9.24-4.85-.92-9.51,2.22-10.43,7.07Zm4.55-26.15l-.49,3.08c-.68,4.86,2.47,9.4,7.32,10.2,4.97,.8,9.52-2.58,10.32-7.43l.48-2.84,.04-1.07c.19-4.52-2.86-8.46-7.36-9.25-4.85-.8-9.52,2.46-10.32,7.31Zm9.43-199.71l.23,2.99c.27,5.02,4.52,8.65,9.42,8.38,4.66-.28,8.16-4.07,8.34-8.47l.04-.95-.24-2.87c-.15-5.01-4.4-8.76-9.3-8.49-5.02,.27-8.77,4.4-8.5,9.42Zm-2.7,150.06l-.24,2.97c-.44,4.87,2.95,9.3,7.81,9.86,4.86,.56,9.3-2.95,9.86-7.81l.36-2.96,.02-.6c.19-4.64-3.21-8.72-7.96-9.27-4.86-.56-9.3,2.95-9.86,7.81Zm4.66-99.92v2.98c.03,4.89,4.03,8.87,9.04,8.84,4.77-.04,8.62-3.81,8.82-8.57v-.36s.02-2.98,.02-2.98c-.03-5.01-4.03-8.99-9.04-8.96-4.89,.03-9.24,4.26-8.84,9.05Zm-.04,26.58l-.12,2.97c-.09,4.88,3.91,8.98,8.8,9.07,4.88,.09,8.85-3.68,9.06-8.56v-.24s.13-2.97,.13-2.97c.08-4.88-3.8-8.98-8.8-9.07-4.88-.08-8.85,3.68-9.07,8.8Z"/><path class="cls-3" d="M563.51,811.85l-.12,2.86v.12c-.21,4.88,3.55,9.09,8.43,9.29,4.87,.32,9.08-3.43,9.41-8.43l.13-3.09c.2-4.88-3.55-9.09-8.55-9.3-4.88-.2-9.09,3.67-9.3,8.55Zm1.84-26.98l-.24,2.97c-.18,4.4,3.31,9.2,8.3,9.52,4.87,.44,9.2-3.31,9.52-8.18l.24-2.97v-.36c.21-4.76-3.43-8.84-8.18-9.28-4.99-.33-9.32,3.3-9.64,8.3Zm-3.31,101.88l.11,2.98c.03,5.01,4.16,8.87,9.05,8.84,4.77-.04,8.63-3.93,8.82-8.57l.02-.48-.11-2.98c-.03-5.01-4.16-8.87-9.05-8.84-4.89,.15-9,4.27-8.84,9.05Zm8.77-152.66l-.36,2.96c-.56,4.86,2.94,9.42,7.81,9.98,4.86,.56,9.3-2.83,9.98-7.81l.36-2.85,.03-.83c.19-4.52-3.22-8.6-7.84-9.15-4.86-.68-9.3,2.83-9.98,7.69Zm-6.97,203.63l.11,2.98c.27,4.9,4.53,8.65,9.42,8.38,4.66-.16,8.27-3.95,8.46-8.47,.01-.36,.02-.59-.08-.84l-.11-2.98c-.27-5.02-4.4-8.77-9.42-8.5-4.9,.27-8.64,4.29-8.38,9.42Zm1.62,26.88l.23,2.99c.27,4.9,4.64,8.66,9.55,8.27,4.55-.41,8.04-4.07,8.23-8.59l.04-.95-.24-2.87c-.39-5.02-4.64-8.66-9.54-8.38-4.9,.27-8.65,4.52-8.27,9.55Zm17.26-304.39l-.48,2.84c-1.04,4.96,2.22,9.51,7.07,10.43,4.85,.92,9.51-2.34,10.43-7.19l.6-2.95,.05-1.19c.18-4.4-2.86-8.46-7.36-9.25-4.85-.8-9.52,2.46-10.32,7.32Zm5.04-26.49l-.6,2.84c-.92,4.85,2.22,9.63,7.07,10.55,4.85,.92,9.51-2.22,10.43-7.07l.6-2.95c.13-.35,.15-.83,.17-1.3,.18-4.28-2.76-8.22-7.25-9.12-4.73-.91-9.51,2.22-10.43,7.07Zm-15.52,405.29l.23,2.99c.63,4.91,5.01,8.43,9.92,7.92,4.43-.53,7.68-4.21,7.86-8.49l.06-1.43-.36-2.88c-.51-4.91-5.01-8.43-9.92-7.92-4.91,.51-8.31,5.02-7.8,9.8ZM623.4,26.79c-4.8,.87-7.86,5.63-6.99,10.43l.59,2.89c.99,4.93,5.62,8.1,10.43,7.11,4.2-.78,7.09-4.35,7.26-8.4,.03-.71-.06-1.43-.15-2.15l-.59-2.89c-.99-4.81-5.63-7.98-10.55-7Zm-25.45,557.19l-.6,2.95c-1.03,4.72,1.98,9.62,6.83,10.54,4.84,1.04,9.62-1.98,10.65-6.82l.6-2.95c.02-.48,.16-.95,.18-1.42,.18-4.4-2.76-8.22-7.13-9.12-4.84-1.04-9.62,2.1-10.54,6.83Zm-19.72,505.58l.36,2.76c.63,4.91,5.01,8.43,9.92,7.8,4.43-.53,7.68-4.21,7.86-8.49,.02-.48,.04-.95-.06-1.43l-.35-3.11c-.75-4.8-5.25-8.32-10.05-7.57-4.91,.63-8.32,5.13-7.69,10.05ZM628.74,53c-4.92,.87-8.1,5.62-7.23,10.42l.5,2.4,.09,.6c.99,4.81,5.74,7.99,10.55,7.12,2.04-.39,3.76-1.51,5.01-3.01,1.25-1.5,2.05-3.37,2.13-5.39,.03-.71,.06-1.43-.15-2.15l-.48-2.76c-.99-4.93-5.62-8.1-10.42-7.23Zm-46.97,1063.06l.35,2.99c.63,4.91,5.13,8.32,10.05,7.69,4.32-.65,7.57-4.21,7.74-8.5,.02-.48,.04-1.07-.05-1.55l-.47-3c-.63-4.91-5.13-8.32-10.05-7.69-4.8,.75-8.2,5.14-7.57,10.05Zm31.5-604.85l-.6,2.95c-.91,4.73,2.11,9.5,6.95,10.54,4.84,1.04,9.5-2.11,10.54-6.95l.6-2.95c.14-.47,.16-.95,.18-1.42,.18-4.28-2.75-8.22-7.01-9.11-4.84-1.04-9.62,2.1-10.66,6.94Zm5.39-26.23l-.6,2.95c-.91,4.73,2.22,9.63,7.07,10.55,4.85,.92,9.51-2.22,10.43-7.07l.6-2.84c.14-.47,.16-.95,.18-1.42,.18-4.28-2.76-8.22-7.13-9.12-4.84-1.04-9.5,2.11-10.54,6.95Zm15.77-348.43l.48,2.76c.63,4.91,5.25,8.32,10.05,7.57,4.32-.65,7.45-4.22,7.63-8.5,.02-.48,.04-1.07-.05-1.67l-.47-3c-.75-4.92-5.38-8.21-10.18-7.46-4.92,.87-8.33,5.37-7.46,10.3Zm-42.16,1053.37l.36,2.88c.75,4.92,5.25,8.32,10.17,7.58,4.32-.65,7.45-4.22,7.63-8.5,.02-.48,.04-1.07-.05-1.67l-.48-2.88c-.75-4.92-5.25-8.32-10.17-7.58-4.92,.75-8.32,5.25-7.46,10.18Zm35.73-754.48l-.48,2.96c-.8,4.97,2.46,9.52,7.31,10.44,4.85,.8,9.4-2.47,10.32-7.32l.48-2.84c.02-.48,.15-.83,.17-1.3,.18-4.28-2.87-8.34-7.37-9.13-4.85-.92-9.51,2.34-10.43,7.19Zm12.92-249.15l.36,2.88c.51,4.91,4.89,8.43,9.8,7.92,4.43-.41,7.8-4.08,7.98-8.49,.01-.36,.03-.83-.06-1.31l-.35-2.99c-.51-4.91-4.89-8.43-9.8-7.92-4.91,.51-8.43,5.01-7.92,9.92Zm-41.33,1053.64l.47,3c.63,4.91,5.26,8.21,10.05,7.57,4.32-.65,7.45-4.34,7.63-8.5,.02-.59,.04-1.07-.05-1.67l-.36-2.88c-.75-4.92-5.25-8.32-10.17-7.58-4.79,.63-8.2,5.02-7.57,10.05Zm43.69-1027.44l.23,2.99c.27,4.9,4.53,8.65,9.54,8.38,4.54-.29,8.16-4.07,8.34-8.59,0-.24-.09-.6-.08-.96l-.23-2.99c-.27-4.9-4.52-8.65-9.43-8.26-4.9,.27-8.65,4.41-8.38,9.42Zm-4.25,149.99l-.36,2.85c-.67,4.74,2.83,9.3,7.69,9.98,4.98,.57,9.42-2.94,9.98-7.81l.37-3.08,.02-.59c.19-4.64-3.21-8.72-7.84-9.27-4.98-.57-9.3,2.95-9.87,7.93Zm2.78-26.58l-.37,3.08c-.55,4.51,3.19,9.19,8.18,9.64,4.87,.44,9.19-3.19,9.63-8.06l.36-2.85,.02-.59c.19-4.64-3.33-8.72-8.07-9.28-4.87-.44-9.31,3.19-9.75,8.05Zm-38.45,930.52l.47,3c.75,4.92,5.25,8.32,10.17,7.58,4.32-.65,7.45-4.34,7.63-8.5,.02-.6-.07-1.08-.17-1.68l-.36-2.88c-.63-4.91-5.13-8.32-10.05-7.57-4.91,.63-8.32,5.13-7.69,10.05Zm41.49-980.45l-.13,3.09c-.09,4.88,3.8,8.98,8.67,9.18,4.88,.08,8.97-3.68,9.18-8.55v-.12s.12-2.86,.12-2.86c.21-5-3.55-9.09-8.55-9.3-4.88-.2-9.09,3.55-9.3,8.55Zm-30.87,1054.31l.48,2.88c.75,4.92,5.38,8.21,10.18,7.46,4.32-.65,7.33-4.34,7.51-8.51,.02-.59,.05-1.19-.04-1.79l-.48-2.88c-.75-4.92-5.38-8.21-10.18-7.46-4.92,.75-8.21,5.38-7.46,10.3Zm15.26,39.73c-4.8,.87-8.09,5.38-7.22,10.31l.48,2.88c.75,4.8,5.26,8.21,10.18,7.34,4.32-.65,7.33-4.22,7.5-8.39,.02-.6,.05-1.19-.04-1.79l-.59-3c-.75-4.92-5.38-8.21-10.3-7.34Zm4.38,26.4c-4.92,.87-8.09,5.38-7.34,10.3l.48,2.88c.87,4.92,5.38,8.21,10.3,7.46,4.2-.78,7.33-4.34,7.51-8.51,.02-.59-.07-1.19-.16-1.79l-.47-3c-.87-4.92-5.5-8.1-10.3-7.34Zm11.82,73.55c-4.8,.75-8.09,5.26-7.34,10.18l.36,2.88c.75,4.8,5.26,8.21,10.18,7.46,4.32-.65,7.45-4.22,7.62-8.38,.02-.59,.05-1.19-.04-1.79l-.47-3c-.75-4.8-5.38-8.21-10.3-7.34Zm-.24,59.94l.35,2.99c.63,4.91,5.13,8.32,9.93,7.69,4.43-.53,7.68-4.09,7.86-8.37,.02-.59,.04-1.07-.05-1.55l-.35-2.99c-.63-4.79-5.13-8.32-9.93-7.69-4.91,.63-8.43,5.01-7.8,9.92Zm3.3,26.48l.23,2.99c.25,2.51,1.6,4.6,3.44,5.98,1.73,1.5,4.08,2.2,6.47,1.94,3.83-.44,6.69-3.18,7.55-6.72,.14-.59,.29-1.18,.31-1.77l.06-1.43-.35-2.99c-.63-4.91-5.01-8.43-9.92-7.8-4.91,.51-8.31,4.9-7.8,9.8Zm6.7,70.6c4.71-1.47,9.42-2.94,14.13-4.53-1.62-1.26-3.85-1.95-6.12-1.81-3.82,.2-7.03,2.92-8.01,6.34Z"/><path class="cls-3" d="M725.35,1094.05v2.98c-.1,5,3.91,8.98,8.91,9.07,4.77-.04,8.74-3.81,8.94-8.56v-.36s.02-2.98,.02-2.98c.08-4.88-3.91-8.98-8.92-8.95-4.88-.08-8.86,3.92-8.95,8.8Zm3.61-74.93l-.24,2.85c-.54,4.39,3.19,9.31,8.05,9.75,4.87,.44,9.19-3.19,9.64-8.18l.37-3.08v-.24c.21-4.76-3.43-8.96-8.3-9.29-4.87-.44-9.2,3.31-9.52,8.18Zm2.8-27.06l-.36,2.96c-.56,4.86,2.94,9.42,7.81,9.98,4.86,.56,9.41-2.82,9.98-7.81l.36-2.85,.03-.83c.19-4.52-3.22-8.6-7.84-9.15-4.86-.68-9.29,2.83-9.98,7.69Zm-6.04,153.02l.12,2.87c.15,5.01,4.28,8.88,9.17,8.73,4.77-.16,8.51-3.93,8.7-8.57l.02-.59-.11-2.98c-.15-4.89-4.28-8.76-9.17-8.73-4.89,.15-8.65,4.41-8.73,9.29Zm.9,26.85l.23,2.99c.15,4.89,4.28,8.76,9.18,8.49,4.77-.16,8.39-3.94,8.58-8.46l.03-.83-.12-2.87c-.15-5.01-4.4-8.76-9.29-8.61-4.89,.15-8.76,4.4-8.61,9.29Zm13.46-230.53l-.61,3.07c-.91,4.73,2.1,9.5,6.95,10.42,4.84,1.04,9.5-2.11,10.54-6.95l.6-2.84c.02-.48,.16-1.07,.18-1.54,.18-4.28-2.87-8.22-7.13-9.12-4.85-.92-9.62,2.1-10.54,6.95Zm-9.54,304.95l.23,3.11c.27,4.9,4.53,8.65,9.43,8.26,4.66-.28,8.15-3.95,8.34-8.47l.04-.95-.24-2.87c-.27-5.02-4.4-8.77-9.3-8.49-5.02,.27-8.78,4.64-8.5,9.42Zm3.13,50.55l.11,2.98c.39,5.02,4.64,8.66,9.54,8.38,4.54-.29,8.16-4.07,8.34-8.47,.01-.36,.03-.71-.07-1.08l-.12-2.75c-.27-5.02-4.4-8.77-9.42-8.5-4.9,.27-8.65,4.52-8.38,9.42Zm1.63,26.65l.11,3.1c.39,4.9,4.64,8.66,9.54,8.38,4.54-.29,8.16-4.07,8.35-8.59l.04-.95-.24-2.87c-.27-4.9-4.41-8.65-9.42-8.38-4.9,.27-8.65,4.52-8.37,9.3Zm23.92-454.99l-.84,2.94c-1.51,4.82,1.14,9.7,5.85,11.21,4.7,1.51,9.7-1.14,11.21-5.85l.83-2.71c.27-.82,.43-1.65,.46-2.48,.16-3.81-2.3-7.6-6.19-8.84-4.7-1.51-9.7,1.14-11.32,5.72Zm-19.4,529.32l.11,3.1c.39,4.9,4.64,8.66,9.54,8.38,4.55-.41,8.16-4.07,8.34-8.59l.04-.95-.24-2.87c-.27-4.9-4.41-8.65-9.3-8.49-5.02,.27-8.78,4.64-8.5,9.42Zm27.57-553.65l-.55,1.65c-1.63,4.7,.9,9.81,5.6,11.32,4.58,1.62,9.69-.91,11.32-5.6l.95-2.7c.27-.82,.43-1.65,.46-2.48,.15-3.69-2.33-7.01-6.21-8.36-4.7-1.63-9.95,1.49-11.58,6.19Zm-24.56,604.19l.23,3.11c.39,4.9,4.53,8.65,9.55,8.27,4.54-.29,8.15-3.95,8.34-8.47,.01-.36,.03-.71-.08-.96l-.12-2.87c-.27-4.9-4.52-8.77-9.42-8.5-4.9,.27-8.66,4.64-8.5,9.42Zm1.74,26.77l.11,2.98c.39,5.02,4.64,8.66,9.54,8.38,4.54-.29,8.16-4.07,8.34-8.47l.04-.95-.24-2.87c-.27-5.02-4.4-8.76-9.42-8.5-4.9,.27-8.66,4.64-8.38,9.42Zm4.52,74.2l.23,3.11c.27,4.9,4.53,8.65,9.42,8.38,4.66-.28,8.16-4.07,8.34-8.59l.04-.95-.24-2.87c-.27-4.9-4.41-8.65-9.3-8.37-5.02,.27-8.77,4.52-8.49,9.3ZM815.77,97.77c-4.69,1.11-7.64,6-6.53,10.81l.83,2.9c1.11,4.81,6,7.64,10.81,6.53,3.86-1.03,6.62-4.49,6.78-8.3,.03-.83-.05-1.67-.37-2.52l-.71-2.89c-1.11-4.81-5.99-7.76-10.81-6.53Zm-30.49,697.5l-1.07,2.7c-1.75,4.69,.54,9.8,5.24,11.54,4.58,1.74,9.68-.55,11.54-5.12l1.08-2.93c.27-.82,.43-1.77,.47-2.72,.15-3.69-2.08-7.36-5.83-8.71-4.57-1.74-9.8,.66-11.42,5.24Zm-33.06,804.65v.12c5.09-2.17,10.19-4.46,15.18-6.87-1.72-1.74-4.17-2.8-6.8-2.67-4.9,.27-8.65,4.53-8.38,9.42ZM822.31,123.78c-4.69,1.11-7.75,5.87-6.64,10.69l.83,3.01c1.11,4.81,6,7.64,10.81,6.53,3.86-1.03,6.62-4.49,6.78-8.3,.03-.83-.05-1.67-.25-2.51l-.72-2.77c-1.11-4.81-5.99-7.88-10.81-6.65Zm16.87,72.45c-4.81,.99-7.75,5.75-6.76,10.68l.6,2.77c.99,4.81,5.75,7.87,10.56,6.88,4.08-.78,6.98-4.36,7.14-8.28,.03-.83-.05-1.55-.14-2.27l-.71-3.01c-1.11-4.81-5.87-7.87-10.68-6.76Zm-27.39,529.46l-1.07,2.82c-1.75,4.69,.66,9.8,5.24,11.54,4.7,1.63,9.8-.66,11.55-5.36l.95-2.7c.4-.94,.56-1.88,.6-2.84,.15-3.69-2.08-7.36-5.83-8.71-4.58-1.74-9.68,.67-11.42,5.24Zm9.03-25.01l-1.07,2.82c-1.51,4.7,.91,9.69,5.48,11.43,4.7,1.63,9.81-.9,11.43-5.48l.95-2.82c.27-.82,.43-1.77,.47-2.6,.16-3.81-2.07-7.48-5.83-8.82-4.7-1.63-9.81,.78-11.43,5.48Zm28.8-454.91c-4.92,.87-8.1,5.5-7.23,10.42l.48,2.88c.99,4.93,5.62,8.1,10.42,7.23,4.2-.78,7.21-4.35,7.38-8.39,.03-.71-.06-1.43-.15-2.03l-.59-2.89c-.87-4.92-5.5-8.1-10.31-7.22Zm-2.6,36.6l.48,2.88c.75,4.92,5.38,8.21,10.18,7.46,4.32-.65,7.45-4.34,7.63-8.5,.02-.6-.07-1.2-.16-1.79l-.48-2.88c-.75-4.92-5.38-8.21-10.18-7.46-4.92,.87-8.21,5.38-7.46,10.3Zm-10.73,370.57l-.83,2.83c-1.39,4.71,1.26,9.71,5.97,11.21,4.71,1.39,9.71-1.38,11.1-6.09l.83-2.83c.27-.7,.42-1.41,.45-2.25,.16-3.93-2.42-7.61-6.42-8.85-4.71-1.39-9.71,1.26-11.1,5.97Zm20.9-297.44l.35,2.99c.39,4.9,4.77,8.54,9.68,8.03,4.55-.52,7.92-4.2,8.1-8.48,.02-.48,.04-.95-.06-1.31l-.35-2.99c-.39-4.9-4.77-8.42-9.68-7.91-4.9,.39-8.55,4.89-8.03,9.67Zm-4.21,226.03l-.48,2.96c-.8,4.97,2.34,9.51,7.2,10.31,4.97,.8,9.52-2.46,10.44-7.31l.48-2.84,.05-1.19c.18-4.4-2.86-8.46-7.37-9.13-4.85-.92-9.51,2.34-10.31,7.2Zm8.43-175.92l.12,2.87c.27,4.9,4.52,8.77,9.42,8.5,4.66-.28,8.27-3.95,8.46-8.58l.03-.83-.23-3.11c-.27-4.9-4.52-8.65-9.43-8.26-5.02,.27-8.65,4.41-8.38,9.42Zm-4.48,149.86l-.36,2.85c-.68,4.98,2.71,9.41,7.56,10.09,4.98,.68,9.41-2.82,10.09-7.68l.37-3.08c.13-.23,.14-.47,.15-.71,.19-4.52-3.22-8.6-7.84-9.15-4.86-.68-9.41,2.82-9.98,7.69Zm5.64-123.36l.11,2.98c.15,4.89,4.28,8.76,9.17,8.61,4.77-.16,8.51-3.93,8.7-8.57l.02-.59-.11-2.98c-.15-4.89-4.28-8.76-9.17-8.61-5.01,.15-8.88,4.28-8.73,9.17Zm-.93,73.62l-.12,2.86c-.2,4.76,3.31,9.2,8.3,9.52,4.87,.32,9.2-3.43,9.52-8.3l.13-3.09v-.12c.21-4.88-3.55-9.09-8.43-9.29-4.99-.33-9.09,3.55-9.41,8.43Z"/><path class="cls-3" d="M874.61,1466.42l-.25,3.09c-.46,5.22,3.31,9.2,8.18,9.64,4.99,.33,9.2-3.31,9.64-8.3l.24-2.85v-.36c.21-4.76-3.43-8.84-8.18-9.28-4.87-.44-9.19,3.19-9.63,8.06Zm2.43-26.71l-.24,2.97c-.56,4.74,2.73,8.81,7.35,9.6,.23,.13,.35,.13,.59,.14,4.99,.45,9.31-3.07,9.87-8.05v-.24s.24-2.73,.24-2.73l.02-.48c.19-4.64-3.32-8.84-7.96-9.27-4.99-.45-9.3,3.07-9.87,8.05Zm6.41-50.62l-.48,2.84c-.69,4.98,2.7,9.53,7.56,10.21,4.86,.68,9.41-2.71,10.21-7.56l.36-2.96,.04-.95c.19-4.52-3.1-8.59-7.6-9.14-4.98-.68-9.41,2.71-10.09,7.56Zm13.34-73.93l-.61,3.07c-1.04,4.84,2.11,9.5,6.95,10.54,4.72,1.03,9.5-2.1,10.54-6.83l.6-2.84c.14-.59,.16-1.07,.18-1.54,.18-4.28-2.64-8.21-7.01-9.11-4.72-1.03-9.5,1.99-10.65,6.71Zm6.1-26.2l-.72,2.95c-1.28,4.83,1.86,9.61,6.7,10.77,4.72,1.03,9.49-1.87,10.65-6.71l.71-2.83c.14-.59,.17-1.18,.19-1.78,.17-4.16-2.65-7.98-6.77-8.98-4.84-1.16-9.61,1.86-10.76,6.58Zm54.69-1076.68c-4.71,1.59-7.31,6.61-5.71,11.2l.83,2.9c1.48,4.59,6.49,7.3,11.2,5.71,3.74-1.15,6.14-4.39,6.3-8.08,.04-1.07-.15-2.03-.47-3.12l-.95-2.9c-1.48-4.59-6.49-7.18-11.2-5.71Zm-41.43,1027.41l-.83,2.83c-1.39,4.71,1.38,9.71,6.09,11.1,4.71,1.39,9.71-1.26,11.1-5.97l.84-2.94c.27-.7,.3-1.42,.33-2.13,.17-4.05-2.41-7.85-6.42-8.97-4.71-1.39-9.71,1.38-11.1,6.09Zm56.93-979.21c-4.6,1.6-7.07,6.62-5.48,11.33l.21,.72,.63,1.93c1.17,3.27,3.94,5.53,7.14,6.02,1.42,.3,2.74,.11,4.18-.3,3.62-1.16,6.03-4.51,6.18-8.08,.04-1.07-.15-2.15-.47-3.12l-.95-3.02c-1.71-4.6-6.74-7.08-11.45-5.48Zm-32.74,908.12l-1.07,2.82c-1.62,4.58,.67,9.68,5.24,11.54,4.58,1.74,9.8-.66,11.54-5.24l1.07-2.82c.28-.94,.56-1.88,.59-2.72,.16-3.81-2.08-7.36-5.83-8.83-4.58-1.74-9.68,.67-11.54,5.24Zm41.22-882.73c-.24,.11-.49,.22-.61,.33-4.24,1.73-6.35,6.53-4.87,11l.84,2.78c1.6,4.6,6.61,7.19,11.32,5.72,2.66-.96,4.66-3.02,5.47-5.49,.39-.82,.55-1.76,.59-2.72s-.03-2.03-.35-3.11l-1.07-2.91c-1.59-4.71-6.61-7.19-11.33-5.6Zm-31.23,857.77l-1.06,2.58c-1.86,4.57,.31,9.79,4.88,11.65,4.45,1.85,9.67-.31,11.65-4.88l1.07-2.82c.4-.94,.56-2,.6-2.95,.15-3.69-1.96-7.23-5.6-8.7-4.58-1.74-9.8,.54-11.54,5.12Zm54.62-787.07c-4.71,1.47-7.42,6.36-6.06,11.07l.95,3.02c1.47,4.71,6.49,7.3,11.2,5.83,3.74-1.15,6.15-4.51,6.3-8.2,.04-.95-.15-2.03-.47-3l-.84-2.78c-1.35-4.7-6.36-7.42-11.07-5.95Zm-34.89,740.1l-1.07,2.7c-1.98,4.57,.07,9.78,4.51,11.75,4.57,1.98,9.9-.06,11.75-4.63l1.3-2.69c.4-1.06,.68-2.12,.73-3.19,.15-3.57-1.97-7.11-5.48-8.57-4.57-1.98-9.78,.19-11.75,4.63Zm49.43-691.58c-4.82,1.23-7.65,6.23-6.3,10.94l.71,2.89c1.35,4.7,6.24,7.53,11.06,6.18,3.86-1.03,6.38-4.38,6.54-8.19,.04-.95-.04-1.79-.36-2.76l-.72-2.77c-1.35-4.82-6.23-7.65-10.94-6.3Zm7.03,25.8c-4.82,1.23-7.65,6.12-6.42,10.93l.71,2.89c1.23,4.7,6.12,7.53,10.94,6.3,3.85-.91,6.5-4.38,6.66-8.18,.04-.95-.04-1.79-.25-2.63l-.83-2.9c-1.23-4.82-6.12-7.65-10.82-6.41Zm-26.66,597.54l-1.19,2.81c-1.86,4.57,.19,9.78,4.75,11.76,4.57,1.86,9.78-.19,11.76-4.75l1.06-2.58c.52-1.05,.69-2.24,.73-3.31,.15-3.57-1.85-6.99-5.24-8.56-4.57-1.98-9.78,.07-11.87,4.63Zm10.44-24.59l-1.19,2.81c-1.86,4.57,.31,9.79,4.88,11.65,4.57,1.98,9.79-.31,11.65-4.88l1.07-2.7c.4-.94,.68-2,.72-3.07,.15-3.57-1.97-7.11-5.48-8.57-4.57-1.86-9.78,.19-11.64,4.76Zm33.69-500.59c-4.81,.99-7.87,5.75-6.76,10.68l.6,2.77c.99,4.81,5.75,7.87,10.56,6.88,4.09-.9,6.98-4.36,7.14-8.28,.03-.83-.05-1.55-.14-2.27l-.71-3.01c-1.11-4.81-5.87-7.87-10.68-6.76Zm-15.41,453.8l-1.08,2.93c-1.62,4.58,.67,9.68,5.36,11.43,4.58,1.74,9.68-.67,11.43-5.36l1.07-2.7c.28-.94,.44-1.89,.47-2.72,.16-3.81-2.08-7.36-5.71-8.82-4.69-1.75-9.8,.66-11.54,5.24Zm25.73-404.27c-4.8,.75-8.1,5.5-7.22,10.3l.47,3c.87,4.92,5.62,8.1,10.42,7.23,4.2-.78,7.09-4.35,7.26-8.4,.03-.71,.06-1.43-.15-2.03l-.48-2.88c-.87-4.8-5.38-8.09-10.31-7.22Zm4.62,26.41c-4.92,.75-8.09,5.38-7.34,10.3l.48,2.76c.87,4.92,5.38,8.21,10.29,7.46,4.2-.66,7.33-4.34,7.5-8.39,.02-.59-.07-1.2-.16-1.79l-.47-3.12c-.87-4.8-5.5-8.1-10.31-7.22Zm-8.35,307.98l-.71,2.71c-1.15,4.72,1.62,9.6,6.46,10.88,4.71,1.27,9.6-1.62,10.87-6.34l.72-3.07c.14-.59,.29-1.18,.31-1.77,.17-4.16-2.65-7.98-6.77-8.98-4.84-1.16-9.73,1.74-10.88,6.58Zm11.31-224.66l.35,3.11c.63,4.91,5.01,8.43,9.92,7.8,4.43-.41,7.68-4.09,7.86-8.49l.05-1.31-.36-2.88c-.51-4.91-4.89-8.55-9.79-8.04-4.91,.51-8.55,5.01-8.04,9.79Zm-5.34,198.93l-.6,2.84c-1.03,4.72,2.11,9.5,6.95,10.54,4.84,1.04,9.5-2.11,10.54-6.95l.6-2.95c.14-.47,.16-.95,.18-1.42,.18-4.28-2.76-8.22-7.13-9.12-4.85-.92-9.63,2.22-10.55,7.07Zm9.57-149.06l.11,3.1c.27,4.9,4.52,8.77,9.42,8.5,4.66-.28,8.27-3.94,8.46-8.58,0-.24,.02-.48-.08-.84l-.12-2.87c-.15-4.89-4.28-8.76-9.3-8.49-4.89,.15-8.76,4.4-8.49,9.18Zm-2.03,99.91l-.24,2.85c-.56,4.86,2.95,9.3,7.81,9.86,4.98,.57,9.3-2.95,9.87-7.93l.36-2.96,.02-.59c.19-4.64-3.33-8.72-7.96-9.27-4.99-.45-9.3,3.07-9.87,8.05Zm2.95-73.29l.11,2.98c.03,4.89,4.16,8.87,9.05,8.72,4.77-.04,8.5-3.82,8.7-8.46l.02-.59v-2.98c-.15-4.89-4.15-8.87-9.05-8.72-5.01,.03-8.98,3.8-8.84,9.05Z"/></g></g></g></g></svg>