<?xml version="1.0" encoding="UTF-8"?><svg id="Layer_2" xmlns="http://www.w3.org/2000/svg" viewBox="0 0 201.64 213.71"><defs><style>.cls-1{fill:#c86928;}</style></defs><g id="Layer_1-2"><g><rect class="cls-1" x="90.77" y="102.83" width="20.1" height="201.64" transform="translate(304.47 102.83) rotate(90)"/><g><path class="cls-1" d="M57.89,147.2l1.52,6.3c1.24,.69,2.49,1.36,3.77,1.98l-1.45-5.99c-1.3-.73-2.58-1.49-3.84-2.29Z"/><path class="cls-1" d="M62.06,149.67l1.45,5.98c1.25,.61,2.52,1.18,3.8,1.73l-1.38-5.71c-1.31-.63-2.6-1.29-3.86-1.99Z"/><path class="cls-1" d="M53.61,144.29l1.63,6.72c1.22,.78,2.47,1.53,3.73,2.25l-1.54-6.35c-1.3-.84-2.58-1.7-3.82-2.62Z"/><path class="cls-1" d="M49.19,140.79l1.76,7.29c1.21,.89,2.45,1.73,3.71,2.55l-1.64-6.79c-1.31-.98-2.59-1.99-3.83-3.04Z"/><path class="cls-1" d="M107.95,158.83l1.1,4.55c.97-.12,1.93-.25,2.9-.41l-1.1-4.53c-.97,.15-1.94,.28-2.9,.39Z"/><path class="cls-1" d="M96.36,159.25c-.92-.04-1.83-.09-2.74-.16l1.14,4.72c.91,.05,1.82,.09,2.73,.11l-1.13-4.67Z"/><path class="cls-1" d="M78.27,156.36l1.24,5.12c1.08,.27,2.18,.52,3.27,.75l-1.21-5.02c-1.11-.26-2.21-.55-3.3-.86Z"/><path class="cls-1" d="M70.26,153.59l1.33,5.48c1.18,.43,2.37,.84,3.58,1.21l-1.29-5.32c-1.22-.43-2.42-.88-3.62-1.37Z"/><path class="cls-1" d="M111.42,158.36l1.09,4.52c.99-.16,1.98-.34,2.96-.54l-1.09-4.51c-.99,.2-1.98,.37-2.97,.53Z"/><path class="cls-1" d="M82.18,157.36l1.21,5.01c1.04,.21,2.08,.4,3.13,.56l-1.19-4.92c-1.06-.2-2.11-.41-3.15-.65Z"/><path class="cls-1" d="M89.86,158.73l1.16,4.79c.95,.1,1.9,.18,2.86,.25l-1.14-4.73c-.96-.08-1.92-.19-2.88-.31Z"/><path class="cls-1" d="M86.05,158.15l1.19,4.9c.99,.15,1.99,.28,2.99,.4l-1.17-4.83c-1.01-.14-2.01-.29-3.01-.47Z"/><path class="cls-1" d="M74.3,155.11l1.28,5.29c1.13,.34,2.27,.66,3.42,.96l-1.24-5.14c-1.16-.34-2.31-.72-3.46-1.11Z"/><path class="cls-1" d="M117.55,157.14c-.9,.22-1.8,.41-2.71,.6l1.09,4.51c.9-.19,1.8-.38,2.7-.6,.11-.03,.21-.06,.32-.08l-1.09-4.51c-.11,.03-.21,.06-.32,.08Z"/><path class="cls-1" d="M144.46,144.79l1.17,4.84c.81-.55,1.61-1.12,2.39-1.7l-1.19-4.92c-.78,.61-1.57,1.2-2.37,1.78Z"/><path class="cls-1" d="M33.42,122.38c-4.12-6.7-7.27-14.16-9.22-22.21C14.17,58.73,39.73,16.85,81.17,6.82c9.31-2.25,18.64-2.71,27.63-1.59,.39,.05,.78,.12,1.17,.17l-.37-1.51c.18-.28,.37-.55,.58-.81l.59,2.44c.98,.15,1.95,.31,2.92,.5l-1.18-4.88,.94,.3,1.15,4.76c.96,.19,1.91,.41,2.86,.64l-1.08-4.47,1.05,.33,1.06,4.39c.97,.25,1.94,.52,2.9,.81l-1.03-4.27,.94,.3,1.03,4.25c1.03,.32,2.04,.67,3.05,1.03l-1.04-4.32,.84,.26,1.05,4.35c1.08,.4,2.15,.83,3.21,1.28l-1.12-4.64,.73,.23,1.15,4.75c1.14,.5,2.26,1.02,3.38,1.58l-1.28-5.3,.63,.2,1.31,5.43c.45,.23,.91,.45,1.36,.69,18.87,10.01,33.53,27.74,38.94,50.08,7.1,29.34-3.63,58.9-25.22,77.21-.57,.49-1.15,.96-1.74,1.43l1.2,4.94c.77-.58,1.53-1.18,2.27-1.79l-.77-3.18c.43,.58,.88,1.14,1.37,1.68l.2,.84c.11-.09,.22-.18,.32-.27,22.97-19.41,34.4-50.8,26.86-81.95-5.96-24.65-22.56-44-43.73-54.35-7.26-3.56-15.08-6.06-23.19-7.34-10.36-1.65-21.21-1.32-32.03,1.3C36.15,12.94,9.06,57.33,19.69,101.26c2.39,9.89,6.5,18.92,11.92,26.86,.04-.13,.08-.26,.12-.4l.21,.85c1.26,1.82,2.59,3.57,3.98,5.27l-2.66-10.98c.06-.16,.11-.33,.16-.49Z"/><path class="cls-1" d="M100.91,159.29l1.12,4.61c.92-.03,1.84-.08,2.77-.14l-1.11-4.58c-.93,.05-1.85,.09-2.78,.11Z"/><path class="cls-1" d="M104.45,159.14l1.11,4.57c.94-.07,1.89-.17,2.83-.27l-1.1-4.55c-.95,.1-1.89,.18-2.84,.25Z"/><path class="cls-1" d="M34.37,123.86l2.77,11.46c1.22,1.42,2.49,2.78,3.8,4.11l-2.33-9.61c-1.51-1.91-2.92-3.9-4.24-5.96Z"/><path class="cls-1" d="M44.58,136.54l1.95,8.06c1.21,1.02,2.44,2,3.71,2.94l-1.79-7.4c-1.33-1.16-2.62-2.35-3.87-3.6Z"/><path class="cls-1" d="M138.11,148.9l1.13,4.69c.89-.49,1.76-1.01,2.63-1.53l-1.15-4.74c-.86,.54-1.73,1.07-2.61,1.58Z"/><path class="cls-1" d="M141.31,146.94l1.15,4.76c.85-.52,1.68-1.06,2.51-1.62l-1.17-4.82c-.82,.58-1.65,1.13-2.49,1.68Z"/><path class="cls-1" d="M134.87,150.68l1.12,4.63c.93-.46,1.84-.93,2.75-1.43l-1.13-4.69c-.9,.51-1.81,1.01-2.73,1.49Z"/><path class="cls-1" d="M39.71,131.16l2.25,9.29c1.21,1.18,2.45,2.33,3.73,3.44l-2-8.28c-1.38-1.43-2.7-2.91-3.97-4.45Z"/><path class="cls-1" d="M124.9,154.97l1.1,4.53c1.05-.36,2.08-.74,3.11-1.14l-1.1-4.55c-1.02,.41-2.06,.79-3.1,1.16Z"/><path class="cls-1" d="M121.58,156.04l1.09,4.51c1.06-.31,2.11-.64,3.14-.99l-1.1-4.53c-1.03,.36-2.08,.7-3.14,1.01Z"/><path class="cls-1" d="M128.26,153.71l1.1,4.55c1.01-.39,2-.8,2.99-1.23l-1.11-4.59c-.98,.44-1.97,.87-2.98,1.27Z"/><path class="cls-1" d="M131.59,152.27l1.11,4.59c.97-.43,1.92-.88,2.86-1.35l-1.12-4.62c-.94,.48-1.89,.93-2.86,1.37Z"/><path class="cls-1" d="M118.23,156.96l1.09,4.51c1.04-.26,2.06-.54,3.08-.84l-1.09-4.51c-1.02,.3-2.04,.58-3.08,.84Z"/><path class="cls-1" d="M97.34,159.28l1.13,4.66c.9,0,1.8,0,2.7-.02l-1.12-4.62c-.91,0-1.81,0-2.71-.02Z"/><path class="cls-1" d="M66.15,151.78l1.38,5.69c1.23,.52,2.48,1.01,3.74,1.48l-1.33-5.49c-1.28-.53-2.54-1.09-3.79-1.68Z"/><path class="cls-1" d="M157.79,82.47c0-.58-.01-1.17-.04-1.75l-3.39-14.02c-.24-.5-.48-.99-.74-1.47l4.17,17.24Z"/><path class="cls-1" d="M148.77,58.37c-.22-.24-.43-.48-.66-.71l7.28,30.07,.37-.09,.08-.02-7.08-29.25Z"/><path class="cls-1" d="M151.92,88.57l.55-.13-8.32-34.37c-.23-.18-.47-.36-.71-.54l8.48,35.04Z"/><path class="cls-1" d="M139.88,51.19c-.26-.15-.52-.29-.78-.43l9.35,38.65,.29-.07,.35-.08-9.21-38.06Z"/><path class="cls-1" d="M135.83,49.2c-.28-.12-.57-.23-.85-.34l10.01,41.39,.73-.18-9.89-40.87Z"/><path class="cls-1" d="M141.52,91.09l.82-.2-10.41-43.02c-.31-.08-.62-.16-.93-.23l10.52,43.45Z"/><path class="cls-1" d="M128.17,47.1c-.33-.05-.66-.09-1-.12l10.88,44.95,.46-.11,.15-.04,.3-.07-10.79-44.61Z"/><path class="cls-1" d="M155.76,87.64l-.37,.09,1.07,4.43c.09-.32,.17-.64,.25-.97l-.87-3.58-.08,.02Z"/><path class="cls-1" d="M151.92,88.57l2.3,9.49c.13-.27,.26-.53,.38-.8l-2.13-8.82-.55,.13Z"/><path class="cls-1" d="M148.75,89.34l-.29,.07,3.28,13.54c.15-.31,.3-.63,.45-.94l-3.09-12.76-.35,.08Z"/><path class="cls-1" d="M144.99,90.25l4.33,17.87c.16-.38,.33-.75,.5-1.13l-4.1-16.93-.73,.18Z"/><path class="cls-1" d="M141.52,91.09l5.61,23.16c.15-.54,.32-1.07,.48-1.59l-5.27-21.77-.82,.2Z"/><path class="cls-1" d="M138.66,91.78l-.61,.15,7.47,30.87c.08-.89,.19-1.78,.32-2.67l-6.88-28.42-.3,.07Z"/><path class="cls-1" d="M150.26,142.4l.77,3.18c.27-.22,.54-.44,.81-.66l-.2-.84c-.49-.54-.95-1.11-1.37-1.68Z"/><path class="cls-1" d="M111.03,98.47h.05s.13-.04,.13-.04l-9.17-37.88c-.04,.08-.09,.17-.13,.25l9.12,37.67Z"/><path class="cls-1" d="M99.65,66.6l7.66,31.66c.15,.23,.3,.45,.45,.68l-7.96-32.88c-.05,.18-.11,.36-.16,.54Z"/><path class="cls-1" d="M100.89,86.91c.27,.67,.56,1.34,.87,2l-3.18-13.13c.02,.7,.06,1.41,.13,2.12l2.18,9.01Z"/><path class="cls-1" d="M104.72,56.43c-.07,.09-.15,.18-.22,.28l9.91,40.95,.14-.03,.14-.03-9.96-41.16Z"/><path class="cls-1" d="M117.78,96.83l.37-.09-10.51-43.45c-.11,.1-.21,.19-.32,.29l10.47,43.25Z"/><path class="cls-1" d="M110.72,50.88c-.14,.09-.28,.18-.42,.27l10.86,44.86,.39-.09,.07-.02-10.89-45.02Z"/><path class="cls-1" d="M113.44,49.33l11.1,45.87,.55-.13-11.13-45.99c-.18,.08-.34,.17-.52,.26Z"/><path class="cls-1" d="M127.92,94.38l.64-.15-11.23-46.42c-.21,.06-.42,.12-.63,.19l11.22,46.38Z"/><path class="cls-1" d="M120.81,47.06c-.25,.03-.5,.08-.74,.12l11.23,46.39,.37-.09,.36-.09-11.21-46.33Z"/><path class="cls-1" d="M124.43,46.82c-.29,0-.58,0-.87,0l11.11,45.92,.09-.02,.73-.18-11.06-45.72Z"/><path class="cls-1" d="M116.95,122.13c-.01,.19-.03,.39-.05,.59l7.82,32.31,1.1,4.53c.06-.02,.12-.04,.18-.06l-1.1-4.53-7.95-32.84Z"/><path class="cls-1" d="M113.27,107.74c.12,.22,.24,.45,.36,.67l-2.42-9.99-.13,.03h-.05s2.24,9.29,2.24,9.29Z"/><path class="cls-1" d="M115.18,129.61c-.06,.14-.12,.28-.19,.42l6.31,26.09,1.09,4.51c.09-.03,.18-.05,.27-.08l-1.09-4.51-6.4-26.43Z"/><path class="cls-1" d="M112.67,133.98c-.1,.13-.19,.26-.29,.39l5.49,22.68,1.09,4.51c.12-.03,.24-.06,.36-.09l-1.09-4.51-5.56-22.99Z"/><path class="cls-1" d="M109.86,137.15c-.13,.12-.26,.24-.4,.36l4.92,20.33,1.09,4.51c.15-.03,.31-.07,.46-.1l-1.09-4.51-4.98-20.59Z"/><path class="cls-1" d="M106.84,139.44c-.17,.1-.34,.2-.51,.3l4.53,18.7,1.1,4.53c.19-.03,.37-.06,.56-.09l-1.09-4.52-4.58-18.92Z"/><path class="cls-1" d="M103.62,140.93c-.21,.07-.42,.13-.63,.18l4.3,17.79,1.1,4.55c.22-.02,.44-.04,.66-.07l-1.1-4.55-4.33-17.91Z"/><path class="cls-1" d="M100.19,141.52c-.26,0-.51,0-.77,0l4.27,17.66,1.11,4.58c.25-.02,.51-.03,.76-.05l-1.11-4.57-4.26-17.62Z"/><path class="cls-1" d="M96.52,141.11c-.32-.07-.62-.16-.93-.24l4.46,18.43,1.12,4.62c.29,0,.58,0,.87-.02l-1.12-4.61-4.4-18.18Z"/><path class="cls-1" d="M114.68,97.58l-.14,.03-.14,.03,13.59,56.16,1.1,4.55c.09-.03,.18-.07,.26-.1l-1.1-4.55-13.58-56.13Z"/><path class="cls-1" d="M118.15,96.74l-.37,.09,13.45,55.6,1.11,4.59c.12-.05,.23-.11,.35-.16l-1.11-4.59-13.44-55.53Z"/><path class="cls-1" d="M121.62,95.9l-.07,.02-.39,.09,13.28,54.89,1.12,4.62c.14-.07,.29-.14,.43-.21l-1.12-4.63-13.25-54.77Z"/><path class="cls-1" d="M125.09,95.06l-.55,.13,13.07,53.99,1.13,4.69c.17-.09,.34-.19,.51-.29l-1.13-4.69-13.03-53.84Z"/><path class="cls-1" d="M128.56,94.22l-.64,.15,12.81,52.94,1.15,4.74c.2-.12,.39-.24,.59-.36l-1.15-4.76-12.76-52.71Z"/><path class="cls-1" d="M132.02,93.39l-.36,.09-.37,.09,12.51,51.7,1.17,4.82c.22-.15,.44-.3,.66-.46l-1.17-4.84-12.44-51.4Z"/><path class="cls-1" d="M135.49,92.55l-.73,.18-.09,.02,12.16,50.26,1.19,4.92c.25-.18,.49-.36,.74-.55l-1.2-4.94-12.07-49.89Z"/><path class="cls-1" d="M92.63,139.81c-.37-.17-.74-.34-1.1-.53l4.83,19.97,1.13,4.67c.32,0,.65,.01,.97,.02l-1.13-4.66-4.71-19.46Z"/><path class="cls-1" d="M53.57,99.79c-.06,0-.12,.02-.19,.03l2.88,11.91h.01s.17-.04,.17-.04l-2.88-11.89Z"/><path class="cls-1" d="M50.2,100.64c-.09,.03-.18,.06-.27,.1l2.86,11.82h.04s.23-.07,.23-.07l-2.87-11.85Z"/><path class="cls-1" d="M49.32,113.4l.37-.09-2.69-11.1c-.11,.07-.22,.14-.33,.22l2.66,10.97Z"/><path class="cls-1" d="M43.59,104.88l2.27,9.36,.46-.11-2.33-9.62c-.13,.12-.26,.25-.39,.37Z"/><path class="cls-1" d="M40.7,108.11l1.69,6.97,.55-.13-1.79-7.39c-.15,.19-.3,.37-.44,.56Z"/><path class="cls-1" d="M38.49,111.36c-.16,.27-.32,.54-.48,.81l.91,3.75,.44-.11,.2-.05-1.07-4.41Z"/><path class="cls-1" d="M36.18,116.58l-.15-.62c-.11,.24-.23,.49-.34,.74l.49-.12Z"/><path class="cls-1" d="M57.2,99.64c-.1,0-.19,0-.29,0l2.73,11.27,.18-.04,.09-.02-2.71-11.2Z"/><path class="cls-1" d="M61.02,100.24c-.14-.03-.27-.06-.41-.09l2.41,9.94,.17-.04,.2-.05-2.36-9.76Z"/><path class="cls-1" d="M66.39,109.27l.46-.11-1.82-7.52c-.18-.09-.36-.17-.55-.26l1.91,7.89Z"/><path class="cls-1" d="M69.43,104.65c-.24-.22-.48-.43-.73-.63l1.07,4.44,.42-.1,.13-.03-.89-3.67Z"/><path class="cls-1" d="M56.44,111.68l-.17,.04h-.01s9.67,39.95,9.67,39.95l1.38,5.71c.07,.03,.14,.06,.22,.09l-1.38-5.69-9.7-40.1Z"/><path class="cls-1" d="M53.07,112.49l-.23,.06h-.04s8.94,36.94,8.94,36.94l1.45,5.99c.11,.05,.22,.11,.33,.17l-1.45-5.98-9-37.18Z"/><path class="cls-1" d="M49.69,113.31l-.37,.09,8.11,33.5,1.54,6.35c.15,.08,.3,.16,.45,.25l-1.52-6.3-8.2-33.89Z"/><path class="cls-1" d="M46.31,114.13l-.46,.11,7.16,29.6,1.64,6.79c.19,.12,.38,.25,.57,.38l-1.63-6.72-7.3-30.16Z"/><path class="cls-1" d="M42.93,114.95l-.55,.13,6.07,25.07,1.79,7.4c.24,.18,.47,.35,.71,.53l-1.76-7.29-6.25-25.85Z"/><path class="cls-1" d="M39.56,115.76l-.2,.05-.44,.11,4.76,19.69,2,8.28c.28,.24,.57,.48,.85,.72l-1.95-8.06-5.03-20.78Z"/><path class="cls-1" d="M36.18,116.58l-.49,.12c-.06,.12-.11,.25-.17,.37l3.09,12.76,2.33,9.61c.34,.34,.68,.68,1.02,1.01l-2.25-9.29-3.53-14.58Z"/><path class="cls-1" d="M33.77,121.41c-.12,.33-.24,.65-.35,.98-.06,.16-.11,.33-.16,.49l2.66,10.98c.41,.49,.81,.99,1.23,1.48l-2.77-11.46-.59-2.46Z"/><path class="cls-1" d="M59.91,110.84l-.09,.02-.18,.04,10.3,42.55,1.33,5.49c.11,.04,.21,.08,.32,.12l-1.33-5.48-10.34-42.75Z"/><path class="cls-1" d="M63.38,110l-.2,.05-.17,.04,10.86,44.87,1.29,5.32c.14,.04,.28,.08,.42,.12l-1.28-5.29-10.92-45.11Z"/><path class="cls-1" d="M66.85,109.16l-.46,.11,11.36,46.95,1.24,5.14c.17,.04,.34,.09,.51,.13l-1.24-5.12-11.42-47.2Z"/><path class="cls-1" d="M70.32,108.32l-.13,.03-.42,.1,11.8,48.77,1.21,5.02c.2,.04,.41,.09,.61,.13l-1.21-5.01-11.87-49.04Z"/><path class="cls-1" d="M74.7,111.24c-.35-.58-.71-1.15-1.09-1.7l11.73,48.48,1.19,4.92c.24,.04,.47,.08,.71,.12l-1.19-4.9-11.35-46.91Z"/><path class="cls-1" d="M83.21,131.23c-.57-.97-1.07-1.99-1.51-3.06l7.37,30.45,1.17,4.83c.26,.03,.53,.05,.79,.07l-1.16-4.79-6.65-27.5Z"/><path class="cls-1" d="M88.32,137.21c-.38-.3-.74-.62-1.1-.94l5.51,22.77,1.14,4.73c.29,.02,.59,.03,.88,.05l-1.14-4.72-5.3-21.89Z"/><path class="cls-1" d="M31.61,128.13c.1,.15,.22,.3,.32,.45l-.21-.85c-.04,.13-.08,.26-.12,.4Z"/><path class="cls-1" d="M135,16.22l-.77-3.2-1.31-5.43-.63-.2,1.28,5.3,1.08,4.48c.13-.31,.24-.63,.35-.95Z"/><path class="cls-1" d="M132.52,20.76l-2.33-9.64-1.15-4.75-.73-.23,1.12,4.64,2.57,10.6c.18-.2,.36-.41,.53-.62Z"/><path class="cls-1" d="M129.6,23.48l-3.38-13.98-1.05-4.35-.84-.26,1.04,4.32,3.56,14.72c.23-.14,.45-.29,.67-.44Z"/><path class="cls-1" d="M126.43,25.13l-4.11-16.97-1.03-4.25-.94-.3,1.03,4.27,4.24,17.51c.27-.08,.54-.18,.8-.27Z"/><path class="cls-1" d="M110.93,21.39l-3.23-13.33c-.13,.49-.24,.98-.32,1.48l2.59,10.68c.3,.41,.62,.79,.96,1.16Z"/><path class="cls-1" d="M115.4,24.67l-4.63-19.15-.59-2.44c-.2,.26-.39,.53-.58,.81l.37,1.51,4.55,18.81c.29,.16,.58,.32,.89,.46Z"/><path class="cls-1" d="M119.36,25.87l-4.76-19.68-1.15-4.76-.94-.3,1.18,4.88,4.76,19.68c.3,.07,.61,.13,.91,.18Z"/><path class="cls-1" d="M123.05,25.93l-4.56-18.85-1.06-4.39-1.05-.33,1.08,4.47,4.64,19.19c.31-.01,.63-.05,.95-.08Z"/><path class="cls-1" d="M75.24,38.41l-.61-2.53c-.28-.15-.57-.28-.87-.4l.75,3.11,.73-.18Z"/><path class="cls-1" d="M71.59,39.3l.28-.07-1.06-4.39c-.29-.02-.58-.02-.87,0l1.11,4.6,.55-.13Z"/><path class="cls-1" d="M78.36,39.35l1.36,5.64c.07-.96,0-1.94-.24-2.93-.24-.98-.63-1.89-1.13-2.71Z"/><path class="cls-1" d="M77.4,50.53c.21-.24,.41-.49,.59-.75l-2.75-11.36-.73,.18,2.89,11.94Z"/><path class="cls-1" d="M74.29,52.86c.27-.12,.52-.26,.77-.41l-3.2-13.23-.28,.07-.55,.13,3.25,13.43Z"/><path class="cls-1" d="M61.55,41.73l-.16-.65c-.09,.24-.17,.49-.24,.75l.39-.1Z"/><path class="cls-1" d="M65.02,40.89l-.91-3.76c-.25,.21-.48,.44-.71,.68l.79,3.28,.82-.2Z"/><path class="cls-1" d="M67.7,40.24l.78-.19-1.15-4.75c-.3,.1-.6,.21-.88,.34l1.12,4.63,.13-.03Z"/><path class="cls-1" d="M60.98,42.59l1.8,7.46c.32,.42,.67,.81,1.05,1.16l-2.29-9.48-.39,.1c-.07,.25-.12,.51-.17,.77Z"/><path class="cls-1" d="M65.02,40.89l-.82,.2,2.93,12.11c.31,.11,.62,.2,.94,.28l-3.05-12.59Z"/><path class="cls-1" d="M70.83,53.73c.31-.02,.63-.05,.94-.1l-3.29-13.58-.46,.11-.33,.08-.13,.03,3.26,13.46Z"/></g></g></g></svg>