<?xml version="1.0" encoding="UTF-8"?><svg id="Layer_2" xmlns="http://www.w3.org/2000/svg" xmlns:xlink="http://www.w3.org/1999/xlink" viewBox="0 0 984.97 1774.49"><defs><style>.cls-1{fill:none;}.cls-2{clip-path:url(#clippath);}.cls-3{fill:#fff;}.cls-4{opacity:.18;}</style><clipPath id="clippath"><rect class="cls-1" width="984.97" height="1774.49"/></clipPath></defs><g id="Layer_1-2"><g class="cls-4"><g class="cls-2"><g><path class="cls-3" d="M837.72,992.4c.02-5.61-.11-11.24-.33-16.88l-31.11-135.18c-2.16-4.81-4.44-9.54-6.82-14.21l38.27,166.26Z"/><path class="cls-3" d="M754.98,759.95c-1.98-2.31-3.97-4.61-6.01-6.86l66.75,289.99,3.41-.87,.77-.2-64.92-282.06Z"/><path class="cls-3" d="M783.9,1051.17l5.02-1.28-76.27-331.37c-2.15-1.77-4.32-3.51-6.51-5.22l77.77,337.87Z"/><path class="cls-3" d="M673.47,690.78c-2.37-1.43-4.77-2.79-7.16-4.16l85.77,372.65,2.69-.68,3.17-.81-84.47-367Z"/><path class="cls-3" d="M636.26,671.56c-2.6-1.13-5.22-2.2-7.84-3.25l91.85,399.05,6.7-1.7-90.71-394.1Z"/><path class="cls-3" d="M688.45,1075.46l7.54-1.92-95.49-414.85c-2.82-.81-5.66-1.51-8.49-2.22l96.44,418.99Z"/><path class="cls-3" d="M566.01,651.27c-3.05-.45-6.09-.85-9.14-1.18l99.77,433.46,4.19-1.06,1.4-.36,2.78-.71-99.01-430.15Z"/><path class="cls-3" d="M819.13,1042.21l-3.41,.87,9.83,42.71c.81-3.08,1.56-6.19,2.29-9.31l-7.93-34.47-.77,.2Z"/><path class="cls-3" d="M783.9,1051.17l21.06,91.52c1.21-2.56,2.38-5.15,3.53-7.76l-19.57-85.03-5.02,1.28Z"/><path class="cls-3" d="M754.77,1058.59l-2.69,.68,30.05,130.57c1.38-3.02,2.74-6.04,4.12-9.06l-28.31-123-3.17,.81Z"/><path class="cls-3" d="M720.27,1067.36l39.67,172.34c1.5-3.65,3.02-7.27,4.59-10.85l-37.56-163.2-6.7,1.7Z"/><path class="cls-3" d="M688.45,1075.46l51.41,223.35c1.4-5.16,2.89-10.28,4.45-15.36l-48.32-209.91-7.54,1.92Z"/><path class="cls-3" d="M662.24,1082.13l-5.59,1.42,68.5,297.61c.71-8.59,1.71-17.18,2.94-25.73l-63.07-274.01-2.78,.71Z"/><path class="cls-3" d="M768.67,1570.24l21.85,93.1c2.47-2.12,4.95-4.24,7.39-6.39l-16.65-70.48c-4.5-5.24-8.7-10.66-12.6-16.23Z"/><path class="cls-3" d="M408.85,1146.6l.49-.12,1.18-.3-84.08-365.28c-.41,.81-.81,1.63-1.21,2.44l83.62,363.26Z"/><path class="cls-3" d="M304.45,839.35l70.26,305.25c1.39,2.19,2.77,4.37,4.17,6.56l-72.97-317.04c-.49,1.74-1,3.48-1.45,5.24Z"/><path class="cls-3" d="M315.85,1035.2c2.46,6.49,5.13,12.9,7.98,19.25l-29.14-126.62c.2,6.8,.53,13.62,1.16,20.47l20,86.9Z"/><path class="cls-3" d="M350.98,741.24c-.67,.9-1.38,1.76-2.04,2.66l90.88,394.82,1.26-.32,1.25-.32-91.34-396.84Z"/><path class="cls-3" d="M470.78,1130.84l3.35-.85-96.43-418.97c-.97,.93-1.96,1.83-2.91,2.77l95.99,417.05Z"/><path class="cls-3" d="M406.03,687.79c-1.27,.88-2.57,1.72-3.83,2.63l99.56,432.53,3.58-.91,.6-.15-99.92-434.1Z"/><path class="cls-3" d="M430.94,672.79l101.8,442.29,5.02-1.28-102.07-443.47c-1.61,.78-3.16,1.64-4.75,2.46Z"/><path class="cls-3" d="M563.72,1107.19l5.86-1.49-103.01-447.56c-1.93,.6-3.86,1.18-5.78,1.84l102.93,447.21Z"/><path class="cls-3" d="M498.57,650.88c-2.28,.33-4.55,.73-6.83,1.14l102.95,447.29,3.37-.86,3.32-.84-102.82-446.72Z"/><path class="cls-3" d="M531.73,648.62c-2.66-.01-5.32,0-7.97,.07l101.9,442.74,.86-.22,6.68-1.7-101.48-440.89Z"/><path class="cls-3" d="M463.14,1374.76c-.11,1.87-.32,3.77-.47,5.66l71.72,311.58,10.06,43.69c.55-.19,1.09-.41,1.63-.61l-10.06-43.7-72.88-316.62Z"/><path class="cls-3" d="M429.43,1236.03c1.1,2.16,2.21,4.33,3.27,6.5l-22.18-96.36-1.18,.3-.49,.12,20.58,89.43Z"/><path class="cls-3" d="M446.95,1446.92c-.56,1.35-1.14,2.7-1.73,4.04l57.9,251.56,10.01,43.5c.83-.25,1.66-.5,2.48-.76l-10.01-43.51-58.66-254.84Z"/><path class="cls-3" d="M423.85,1489.01c-.88,1.27-1.76,2.55-2.67,3.81l50.35,218.73,10,43.47c1.12-.29,2.22-.61,3.34-.91l-10-43.47-51.01-221.63Z"/><path class="cls-3" d="M398.1,1519.59c-1.2,1.17-2.41,2.32-3.64,3.46l45.11,196.01,10.01,43.5c1.4-.3,2.8-.67,4.21-.98l-10.01-43.49-45.69-198.5Z"/><path class="cls-3" d="M370.39,1541.72c-1.54,.98-3.08,1.95-4.65,2.87l41.51,180.33,10.05,43.65c1.71-.28,3.41-.56,5.12-.85l-10.03-43.58-41.99-182.42Z"/><path class="cls-3" d="M340.89,1556c-1.92,.64-3.86,1.21-5.8,1.76l39.48,171.51,10.1,43.86c2.02-.24,4.04-.38,6.06-.64l-10.09-43.83-39.74-172.66Z"/><path class="cls-3" d="M309.42,1561.73c-2.35,.08-4.71,.07-7.09-.01l39.2,170.31,10.17,44.16c2.33-.17,4.65-.26,6.98-.45l-10.15-44.11-39.11-169.9Z"/><path class="cls-3" d="M275.73,1557.8c-2.9-.68-5.7-1.54-8.52-2.35l40.91,177.73,10.25,44.55c2.65-.06,5.29-.09,7.94-.18l-10.24-44.48-40.34-175.27Z"/><path class="cls-3" d="M442.32,1138.08l-1.25,.32-1.26,.32,124.64,541.52,10.09,43.85c.81-.33,1.62-.66,2.43-.99l-10.09-43.86-124.56-541.17Z"/><path class="cls-3" d="M474.14,1129.99l-3.35,.85,123.4,536.12,10.19,44.26c1.07-.5,2.13-1.03,3.2-1.53l-10.19-44.27-123.24-535.43Z"/><path class="cls-3" d="M505.95,1121.89l-.6,.15-3.58,.91,121.81,529.22,10.25,44.55c1.32-.68,2.64-1.36,3.96-2.05l-10.27-44.63-121.56-528.15Z"/><path class="cls-3" d="M537.76,1113.8l-5.02,1.28,119.83,520.61,10.4,45.2c1.57-.91,3.11-1.87,4.67-2.78l-10.41-45.21-119.48-519.1Z"/><path class="cls-3" d="M569.59,1105.7l-5.86,1.49,117.49,510.44,10.52,45.71c1.8-1.15,3.62-2.28,5.41-3.45l-10.57-45.92-116.99-508.27Z"/><path class="cls-3" d="M601.39,1097.61l-3.32,.84-3.37,.86,114.74,498.48,16.78,73.79c2.04-1.44,4.05-2.93,6.08-4.39l-16.82-73.93-114.09-495.65Z"/><path class="cls-3" d="M633.21,1089.51l-6.68,1.7-.86,.22,111.55,484.65,21.86,95.49c2.26-1.76,4.53-3.5,6.77-5.29l-21.91-95.7-110.73-481.08Z"/><path class="cls-3" d="M240.07,1545.28c-3.41-1.6-6.76-3.31-10.04-5.12l44.32,192.55,10.37,45.04c2.96,.07,5.93,.12,8.9,.16l-10.34-44.95-43.2-187.67Z"/><path class="cls-3" d="M-.55,1250.76l4.19-1.06-16.7-72.55c-1.65-.85-3.31-1.68-5-2.46L-.55,1250.76Z"/><path class="cls-3" d="M27.3,1206.18c-2.2-2.09-4.44-4.13-6.72-6.11l9.85,42.81,3.85-.98,1.17-.3-8.15-35.41Z"/><path class="cls-3" d="M-91.79,1273.98l-1.55,.39-.12,.03L-4.81,1659.57l12.68,55.07c.65,.29,1.32,.57,1.97,.86l-12.64-54.9-88.99-386.64Z"/><path class="cls-3" d="M-59.99,1265.88l-.83,.21-1.68,.43L31.94,1676.84l12.18,52.9c.98,.38,1.94,.78,2.92,1.15l-12.15-52.81-94.87-412.19Z"/><path class="cls-3" d="M-28.17,1257.79l-1.82,.46-1.54,.39,99.58,432.65,11.81,51.3c1.27,.41,2.55,.76,3.82,1.17l-11.74-51.01L-28.17,1257.79Z"/><path class="cls-3" d="M3.64,1249.69l-4.19,1.07,104.19,452.68,11.4,49.55c1.57,.43,3.15,.83,4.72,1.24l-11.37-49.4L3.64,1249.69Z"/><path class="cls-3" d="M35.45,1241.6l-1.17,.3-3.85,.98,108.23,470.23,11.14,48.38c1.87,.41,3.73,.85,5.6,1.24l-11.11-48.27-108.84-472.86Z"/><path class="cls-3" d="M75.61,1269.74c-3.2-5.59-6.53-11.06-9.98-16.41l107.59,467.43,10.91,47.4c2.16,.36,4.3,.78,6.47,1.13l-10.87-47.24-104.11-452.31Z"/><path class="cls-3" d="M153.66,1462.51c-5.22-9.35-9.84-19.22-13.88-29.51l67.57,293.57,10.71,46.54c2.41,.29,4.84,.45,7.25,.72l-10.63-46.19-61.02-265.13Z"/><path class="cls-3" d="M200.6,1520.14c-3.46-2.9-6.82-5.93-10.07-9.08l50.53,219.53,10.5,45.61c2.69,.19,5.39,.31,8.09,.47l-10.48-45.52-48.57-211.02Z"/><path class="cls-3" d="M628.64,353.6c-.94,3.1-2.01,6.13-3.2,9.1l-9.98-43.14-26.16-115.03c2.38,2.04,4.64,4.22,6.84,6.46l25.41,111.73,7.09,30.87Z"/><path class="cls-3" d="M605.93,397.33c-1.57,2.04-3.14,4.02-4.83,5.94l-23.53-102.23-28.23-120.7c2.32,.79,4.58,1.78,6.84,2.77l28.36,121.23,21.39,93Z"/><path class="cls-3" d="M579.14,423.52c-.31,.33-.63,.53-.94,.73-1.69,1.25-3.39,2.37-5.14,3.5l-32.69-141.94-25.35-113.18c2.45,.13,4.83,.4,7.21,.79l25.91,115.36,30.99,134.75Z"/><path class="cls-3" d="M550.03,439.41v.07c-1.19,.46-2.38,.92-3.64,1.38-1.19,.4-2.45,.86-3.7,1.25l-38.9-168.85-22.59-98.87c2.57-.53,5.14-.92,7.72-1.19l23.46,102.7,37.64,163.51Z"/><path class="cls-3" d="M407.94,403.39l-29.58-128.51c-1.21,4.68-2.19,9.44-2.92,14.27l23.71,103.02c2.75,3.92,5.69,7.66,8.79,11.23Z"/><path class="cls-3" d="M440.8,430.58v-.13h-.06l-41.72-181.19-3.33-14.58c1.69-2.7,3.45-5.28,5.27-7.85l5.4,23.55,42.47,184.42,.06,.26c-2.76-1.38-5.46-2.9-8.09-4.49Z"/><path class="cls-3" d="M476.88,444.96v-.13l-43.67-189.69-11.67-51.65c2.2-1.85,4.45-3.69,6.78-5.41l13.24,58.77,43.6,189.63,.06,.13c-2.82-.4-5.58-1.06-8.34-1.65Z"/><path class="cls-3" d="M519.04,447.2c-.25,0-.5,.07-.75,.07-2.63,.33-5.27,.59-7.9,.73v-.13h-.06l-42.54-184.88-18.07-78.09c2.64-1.25,5.27-2.44,8.03-3.56l19.45,84.1,41.85,181.78Z"/><path class="cls-3" d="M80.59,567.55l-5.62-24.43c-2.59-1.41-5.24-2.69-7.96-3.82l6.89,29.95,6.7-1.7Z"/><path class="cls-3" d="M47.08,576.07l2.54-.65-9.75-42.37c-2.65-.15-5.32-.19-8-.08l10.21,44.37,5-1.27Z"/><path class="cls-3" d="M109.25,576.55l12.51,54.37c.65-9.24,0-18.73-2.18-28.22-2.18-9.49-5.73-18.24-10.33-26.15Z"/><path class="cls-3" d="M100.38,684.35c1.93-2.31,3.73-4.73,5.42-7.22l-25.22-109.58-6.7,1.7,26.49,115.1Z"/><path class="cls-3" d="M71.89,706.87c2.44-1.19,4.79-2.51,7.08-3.92l-29.35-127.53-2.54,.65-5,1.27,29.81,129.53Z"/><path class="cls-3" d="M11.45,585.14l7.2-1.83-10.53-45.76c-2.78,.96-5.48,2.05-8.11,3.28l10.27,44.62,1.17-.3Z"/><path class="cls-3" d="M-13.16,591.4l-7.54,1.92,26.88,116.8c2.81,1.05,5.68,1.94,8.6,2.68l-27.94-121.4Z"/><path class="cls-3" d="M40.14,715.21c2.87-.17,5.75-.5,8.64-.99l-30.13-130.92-4.18,1.06-3.01,.77-1.17,.3,29.87,129.77Z"/><path class="cls-3" d="M406.36,250.38l42.47,184.42c-2.76-1.32-5.4-2.84-8.03-4.35h-.06l-41.72-181.19-3.33-14.58c1.69-2.7,3.45-5.28,5.27-7.85l5.4,23.55Z"/><path class="cls-3" d="M485.16,446.47c-2.76-.46-5.52-.99-8.28-1.65l-43.67-189.69-11.67-51.65c2.2-1.85,4.45-3.69,6.78-5.41l13.24,58.77,43.6,189.63Z"/><path class="cls-3" d="M519.04,447.2c-.25,0-.5,.07-.75,.07-2.63,.26-5.21,.46-7.9,.59h-.06l-42.54-184.88-18.07-78.09c2.64-1.25,5.27-2.44,8.03-3.56l19.45,84.1,41.85,181.78Z"/><path class="cls-3" d="M550.03,439.41v.07c-1.19,.46-2.38,.92-3.64,1.38-1.19,.4-2.45,.86-3.7,1.25l-38.9-168.85-22.59-98.87c2.57-.53,5.14-.92,7.72-1.19l23.46,102.7,37.64,163.51Z"/><path class="cls-3" d="M579.14,423.52c-.31,.33-.63,.53-.94,.73-1.69,1.25-3.39,2.37-5.14,3.5l-32.69-141.94-25.35-113.18c2.45,.13,4.83,.4,7.21,.79l25.91,115.36,30.99,134.75Z"/><path class="cls-3" d="M584.53,304.33l21.39,93c-1.57,2.04-3.14,4.02-4.83,5.94l-23.53-102.23-28.23-120.7c2.32,.79,4.58,1.78,6.84,2.77l28.36,121.23Z"/><path class="cls-3" d="M628.64,353.6c-.94,3.1-2.01,6.13-3.2,9.1l-9.98-43.14-26.16-115.03c2.38,2.04,4.64,4.22,6.84,6.46l25.41,111.73,7.09,30.87Z"/></g></g></g></g></svg>