<?xml version="1.0" encoding="UTF-8"?><svg id="Layer_2" xmlns="http://www.w3.org/2000/svg" viewBox="0 0 201.64 213.71"><defs><style>.cls-1{fill:#b54025;}</style></defs><g id="Layer_1-2"><g><rect class="cls-1" x="90.77" y="102.84" width="20.1" height="201.64" transform="translate(304.48 102.84) rotate(90)"/><g><path class="cls-1" d="M100.26,0C55.05,0,18.28,36.78,18.28,81.97c0,23,9.52,43.81,24.82,58.71,.94,.92,1.89,1.81,2.87,2.66,4.17,3.7,8.72,6.98,13.58,9.78,.15,.07,.29,.16,.43,.24,3.57,2.02,7.32,3.79,11.21,5.26,.82,.32,1.65,.62,2.49,.91,7.26,2.5,14.99,4,23.01,4.34,1.19,.06,2.38,.08,3.59,.08,.26,0,.51,0,.77,0,2.39-.02,4.75-.14,7.09-.37,2.08-.19,4.14-.47,6.17-.83,11.1-1.92,21.45-6.09,30.55-12,.47-.31,.95-.62,1.41-.94,2.2-1.49,4.32-3.09,6.35-4.79,.22-.19,.45-.37,.66-.57,1.69-1.42,3.32-2.92,4.89-4.49,.83-.83,1.65-1.68,2.43-2.54,13.45-14.6,21.66-34.09,21.66-55.45C182.24,36.78,145.46,0,100.26,0ZM57.97,146.69h0c-.3-.19-.58-.38-.87-.58-2.2-1.49-4.32-3.09-6.35-4.79-.66-.55-1.31-1.11-1.95-1.69-.37-.33-.74-.67-1.11-1.02-.26-.23-.51-.47-.77-.71-.1-.1-.2-.19-.31-.3-.12-.12-.24-.23-.36-.36-14.38-14.04-23.31-33.63-23.31-55.27C22.92,39.33,57.61,4.64,100.26,4.64s77.34,34.69,77.34,77.34c0,20.06-7.68,38.37-20.27,52.13-.11,.13-.23,.27-.36,.4-.36,.39-.72,.78-1.09,1.16-.14,.14-.27,.28-.42,.42-3.28,3.38-6.89,6.44-10.76,9.17,0,0-.03,.02-.04,.03-.22,.15-.45,.31-.67,.46-.02,0-.04,.03-.06,.04-2.54,1.74-5.2,3.35-7.96,4.79-.71,.38-1.43,.74-2.16,1.09-3.04,1.47-6.2,2.75-9.44,3.81-.69,.23-1.38,.45-2.08,.65-6.99,2.09-14.38,3.2-22.03,3.2-2.75,0-5.45-.14-8.13-.43-.72-.07-1.45-.16-2.16-.26-1.44-.19-2.87-.42-4.28-.7-1.72-.32-3.41-.71-5.08-1.15-6.26-1.64-12.21-4.05-17.75-7.12-.15-.08-.31-.17-.45-.26-.02,0-.04-.02-.06-.03-.13-.06-.25-.14-.38-.21-1.36-.78-2.7-1.6-4.01-2.47Z"/><g><path class="cls-1" d="M115.72,86.61c-.07-.26-.26-.51-.54-.73-.15-.11-.32-.22-.49-.33-.2-.14-.45-.29-.52-.37,0-.02,0-.07,0-.11,0-.11,0-.22-.03-.33-.09-.47-.43-.83-.78-1.2-.12-.12-.24-.25-.36-.39-.28-.32-.55-.6-.86-.9-.14-.12-.33-.31-.64-.44-.24-.11-.49-.17-.71-.21-.72-.16-1.35-.32-1.86-.49-.24-.08-.47-.18-.7-.26-.18-.06-.35-.14-.57-.21l-.19-.06c-.2-.06-.43-.13-.7-.17-.34-.05-.67-.06-.97-.02-.7,.08-1.17,.4-1.59,.67-.19,.12-.36,.25-.58,.34-.14,.06-.29,.13-.43,.19-.16,.06-.32,.12-.45,.19-.3,.15-.54,.31-.77,.45l-.14,.09c-.25,.17-.61,.33-1.12,.53-.48,.18-.92,.38-1.31,.56-.47,.22-.94,.49-1.09,.96-.1,.32,0,.59,.16,.82,.12,.17,.28,.31,.39,.41,.24,.21,.54,.47,.94,.7,.06,.04,.11,.07,.17,.1l.14,.06s.09,.06,.15,.08c-.12,.18-.25,.43-.19,.74,.05,.29,.24,.5,.37,.64l.22,.23s.05,.05,.07,.07c.46,.46,.94,.87,1.47,1.24,.14,.1,.28,.2,.43,.3,.11,.07,.16,.14,.26,.3,.04,.06,.07,.12,.12,.19,.29,.4,.71,.71,1.22,.93,.28,.15,.61,.21,.96,.21,.31,0,.61-.06,.86-.12,.45-.13,.81-.32,1.16-.49h.02s.16-.09,.16-.09c.76-.37,1.25-.26,1.84-.13l.11,.03c.63,.13,1.23,.17,2.07-.16,.03,0,.06-.02,.09-.03,.27-.1,.57-.2,.85-.3,.83-.28,1.68-.58,2.21-1.11,.26-.27,.34-.54,.41-.74,.03-.08,.05-.14,.07-.19,0-.03,.03-.06,.06-.07l.33-.33c.28-.29,.32-.59,.31-.8,0-.08-.02-.16-.05-.23Zm-1.83,1.27c-.06,.15-.07,.21-.14,.29-.33,.33-1.05,.58-1.74,.82-.31,.1-.62,.2-.91,.32-.62,.24-.98,.23-1.48,.12l-.11-.03c-.5-.11-1.09-.24-1.83-.05-.24,.05-.49,.14-.77,.28l-.19,.09c-.32,.16-.61,.31-.96,.41-.02,0-.03,0-.05,0-.37,.1-.76,.08-.89,0l-.08-.05c-.32-.13-.58-.31-.73-.52t-.02-.02l-.09-.14c-.12-.19-.28-.44-.6-.65-.38-.24-.72-.49-1.05-.77-.25-.2-.49-.43-.72-.67l-.2-.22h0c.36-.53,.35-.96-.03-1.32-.06-.05-.11-.09-.18-.13-.14-.1-.29-.19-.44-.26l-.12-.06c-.37-.19-.63-.43-.88-.64,0,0-.02-.02-.04-.04,0,0-.03-.03-.05-.05,.07-.04,.18-.1,.34-.18,.24-.11,.51-.23,.8-.35,.14-.06,.28-.12,.43-.18,.54-.2,.95-.39,1.25-.58,.04-.02,.06-.04,.09-.06l.15-.09c.2-.14,.39-.26,.63-.37,.12-.06,.25-.11,.39-.17,.16-.06,.32-.13,.48-.2,.28-.13,.5-.28,.72-.43,.37-.24,.66-.44,1.09-.48,.19-.03,.43-.02,.67,0,.19,.03,.35,.08,.5,.13l.19,.06c.17,.06,.33,.12,.5,.19,.24,.09,.48,.19,.74,.28,.56,.18,1.22,.36,1.98,.52,.18,.05,.36,.08,.5,.14,.11,.06,.19,.13,.32,.23,.28,.26,.52,.52,.77,.81,.13,.16,.27,.3,.4,.44,.21,.22,.45,.47,.48,.61v.11c0,.09,0,.2,.03,.33,.03,.14,.08,.31,.21,.46,.2,.27,.52,.46,.82,.67,.14,.08,.28,.18,.4,.27,.05,.04,.08,.06,.1,.09-.07,.07-.16,.16-.23,.23-.09,.09-.17,.19-.22,.28-.12,.18-.17,.34-.21,.48Z"/><path class="cls-1" d="M120.99,92.61c-.26-.18-.55-.35-.83-.52-.44-.25-.92-.54-1.09-.77,0-.04,0-.19,.02-.28,.03-.19,.05-.38,.04-.57-.06-1.06-.94-1.82-1.94-2.7l-.2-.19c-.42-.36-.84-.68-1.26-.97-.21-.15-.42-.29-.62-.42-.29-.19-.66-.44-1.16-.6-.3-.09-.6-.15-.91-.19-.1-.02-.2-.04-.3-.05l-.1-.02c-1.22-.18-2.43-.46-3.49-.83-.48-.16-.93-.34-1.37-.52-.31-.12-.61-.25-.93-.36-.14-.06-.27-.1-.41-.15-.34-.12-.76-.24-1.26-.32-.59-.08-1.2-.09-1.74-.04-.37,.04-.71,.11-1.03,.21-.65,.19-1.19,.48-1.68,.76-.05,.02-.08,.05-.12,.06-.3,.18-.6,.34-.93,.49-.02,0-.03,0-.05,.02-.15,.06-.31,.14-.45,.19-.23,.1-.45,.2-.67,.31-.13,.06-.25,.12-.36,.19-.41,.22-.72,.46-1.03,.7-.13,.1-.27,.2-.43,.32-.47,.33-1.22,.67-2.16,.97l-.76,.25c-.65,.2-1.28,.41-1.86,.61-1.28,.45-1.94,.88-2.19,1.48-.42,.96,.49,1.68,.97,2.07,.4,.32,.84,.66,1.41,.98,.23,.13,.48,.26,.76,.38l.3,.13c.18,.07,.38,.16,.54,.24-.02,.02-.03,.05-.05,.06-.04,.05-.08,.1-.13,.16-.23,.31-.49,.73-.4,1.25,.03,.16,.09,.3,.17,.43,.16,.27,.39,.48,.57,.64,.14,.12,.28,.25,.43,.37,.02,.02,.04,.03,.06,.05,.55,.45,1.15,.88,1.85,1.3,.48,.31,1.02,.6,1.6,.89,.32,.17,.65,.32,.99,.49,.35,.17,.52,.35,.75,.62,.1,.11,.19,.23,.31,.34,.63,.63,1.52,1.11,2.59,1.4,.39,.17,.85,.23,1.32,.23,.49,0,.97-.07,1.37-.18,.76-.19,1.39-.48,2.01-.76l.11-.06c.19-.08,.37-.16,.55-.21,.97-.32,1.76-.25,2.53-.18l.26,.02c.61,.06,1.22,.05,1.95-.12,.38-.08,.8-.2,1.27-.39,.66-.25,1.42-.45,2.16-.65,.9-.23,1.76-.45,2.49-.78,.43-.19,.8-.41,1.11-.68,.06-.06,.13-.11,.19-.17,0,0,0,0,0,0,.35-.38,.48-.76,.58-1.06,.1-.29,.15-.42,.33-.56l.3-.2c.07-.06,.16-.11,.23-.17,.06-.06,.13-.1,.19-.15,.55-.43,.66-.92,.65-1.25,0-.4-.2-.99-1.04-1.59Zm-.94,1.88c-.11,.07-.22,.16-.32,.23-.21,.16-.37,.32-.49,.49-.2,.29-.31,.57-.38,.8-.1,.29-.15,.42-.32,.57-.09,.08-.2,.16-.33,.23-.47,.28-1.14,.49-1.85,.69-.27,.07-.54,.14-.81,.21-.78,.21-1.59,.42-2.32,.71-1.11,.44-1.77,.47-2.53,.42l-.24-.03c-.85-.07-1.86-.17-3.13,.24-.24,.06-.48,.17-.74,.28l-.11,.06c-.29,.13-.58,.26-.85,.37-.3,.12-.59,.22-.91,.31-.65,.17-1.36,.17-1.72,0l-.13-.05c-1.04-.28-1.62-.71-1.94-1.01-.08-.09-.17-.19-.24-.27-.1-.11-.2-.23-.33-.36-.22-.22-.51-.45-.93-.65-.35-.17-.69-.33-1-.49-1.01-.52-1.86-1.04-2.58-1.58-.19-.14-.35-.27-.52-.41-.15-.12-.3-.24-.44-.37-.04-.03-.12-.11-.19-.16,.02-.02,.03-.04,.05-.06,.04-.05,.07-.09,.1-.13,.58-.73,.69-1.35,.29-1.86-.06-.08-.14-.17-.24-.25-.3-.24-.69-.41-1.07-.57-.03-.02-.06-.03-.08-.04l-.28-.12c-.77-.33-1.3-.75-1.82-1.15-.07-.06-.27-.22-.39-.34,.15-.11,.47-.3,1.15-.53,.58-.2,1.19-.4,1.83-.6l.77-.25c1.1-.35,1.97-.75,2.58-1.18,.17-.12,.32-.24,.47-.35,.28-.21,.53-.4,.83-.58,.27-.15,.58-.28,.9-.42,0,0,.03,0,.04-.02,.16-.06,.32-.14,.48-.21,.28-.12,.53-.26,.79-.4,.08-.05,.18-.09,.26-.14,.72-.41,1.35-.76,2.24-.85,.42-.05,.9-.04,1.35,.03,.38,.05,.7,.15,.98,.25,.13,.04,.25,.08,.36,.13,.31,.11,.6,.23,.9,.34,.46,.19,.94,.38,1.46,.56,1.14,.39,2.44,.7,3.76,.89l.1,.02c.35,.05,.68,.09,.96,.19,.24,.07,.45,.2,.64,.32,.05,.03,.09,.06,.14,.08,.27,.19,.55,.37,.83,.57,.3,.22,.59,.45,.88,.71l.2,.18c.69,.6,1.39,1.22,1.42,1.63,0,.08-.02,.18-.03,.26-.05,.33-.12,.89,.27,1.42,.11,.16,.25,.3,.41,.43,.32,.27,.71,.49,1.09,.72,.02,0,.04,.02,.06,.03,.25,.15,.5,.3,.73,.45,.19,.14,.3,.25,.34,.32,0,0,0,0-.02,.02-.03,.02-.05,.04-.07,.06-.1,.06-.2,.14-.3,.21Z"/><path class="cls-1" d="M123.63,99.04c-.31-.2-.65-.39-.99-.58-.57-.31-1.21-.66-1.42-.96-.06-.07-.05-.19,.02-.51,.04-.19,.08-.42,.08-.66s-.04-.5-.13-.75c-.14-.45-.42-.88-.83-1.32-.28-.3-.63-.59-1.04-.88-.21-.17-.44-.32-.69-.47-.13-.08-.27-.17-.4-.25-.68-.42-1.35-.83-2.09-1.21-.39-.21-.83-.45-1.43-.58-.45-.11-.92-.15-1.37-.19l-.23-.03c-.56-.06-1.11-.13-1.67-.24-.94-.16-1.86-.39-2.71-.68-.36-.12-.71-.25-1.05-.38-.23-.09-.46-.19-.7-.28-.38-.16-.75-.31-1.14-.45-.17-.06-.33-.12-.5-.19-.42-.14-.93-.3-1.55-.38-.51-.06-1.04-.08-1.55-.06-.19,0-.37,.03-.56,.05-.32,.04-.64,.09-.93,.17-.99,.23-1.8,.64-2.58,1.03-.31,.16-.61,.31-.93,.45l-.26,.11c-.56,.25-1.09,.49-1.53,.77-.43,.26-.74,.53-1.06,.8-.18,.15-.35,.31-.56,.45,0,0,0,0-.02,.02-.42,.31-1.01,.61-1.73,.89-.31,.12-.65,.23-1,.34-.6,.18-1.22,.35-1.81,.52-.56,.15-1.1,.3-1.61,.45-1.62,.48-2.49,1-2.8,1.66-.52,1.09,.59,1.89,1.19,2.34,.35,.25,.73,.53,1.17,.79,.45,.28,.97,.55,1.6,.79l.21,.07,.19,.06c.32,.12,.7,.24,.94,.39-.07,.09-.17,.2-.24,.29-.24,.3-.56,.67-.64,1.11-.03,.16-.04,.32,0,.5,.06,.32,.25,.58,.47,.82,.14,.13,.29,.26,.44,.38,.13,.1,.25,.19,.39,.3,.08,.06,.18,.13,.27,.19,.28,.19,.56,.39,.86,.57,.63,.4,1.33,.77,2.12,1.15,.51,.24,1.06,.48,1.66,.72,.44,.19,.9,.37,1.4,.56,.55,.21,.83,.46,1.17,.8,.14,.13,.28,.27,.45,.4,.05,.04,.09,.07,.15,.11,.83,.66,1.96,1.13,3.28,1.37,.37,.13,.82,.19,1.31,.19,.37,0,.76-.04,1.16-.11,.13-.03,.26-.06,.39-.08,.84-.2,1.57-.49,2.36-.83,.18-.07,.34-.14,.51-.19,1.06-.35,1.93-.38,2.78-.4h.57c1.11-.03,2.04-.24,3.41-.77,.87-.34,1.95-.58,2.98-.82,.48-.1,.95-.2,1.4-.32,.71-.18,1.37-.38,1.95-.65,.32-.15,.61-.32,.87-.52,.37-.29,.58-.6,.74-.89,0,0,0-.03,0-.04,.08-.18,.14-.34,.19-.48,.1-.3,.17-.48,.37-.65,.04-.04,.08-.07,.14-.11,.14-.09,.29-.18,.44-.27,.03-.02,.06-.04,.08-.05,.16-.1,.32-.19,.45-.29,.68-.45,.82-.99,.81-1.36,0-.63-.44-1.24-1.23-1.75Zm-.39,1.91c-.15,.09-.31,.19-.46,.29-.16,.09-.32,.19-.46,.29,0,0-.03,0-.04,.02-.32,.21-.54,.45-.69,.68-.2,.29-.31,.58-.39,.82-.05,.13-.08,.23-.13,.33-.07,.15-.17,.28-.33,.41-.57,.44-1.57,.74-2.64,1-.32,.07-.67,.15-1,.22-1.04,.23-2.11,.47-3.05,.83-.05,0-.09,.03-.14,.05-1.22,.47-1.98,.65-2.92,.67h-.39c-.96,.03-2.13,.04-3.54,.55-.15,.05-.3,.1-.45,.17-.37,.16-.72,.31-1.09,.44-.34,.12-.69,.23-1.05,.32-.79,.19-1.6,.2-2.08,.03l-.12-.03c-1.48-.27-2.35-.8-2.82-1.19-.13-.11-.25-.22-.37-.33-.19-.19-.4-.38-.65-.57-.27-.19-.58-.38-1-.54-.36-.14-.71-.27-1.04-.41-1.19-.47-2.18-.93-3.02-1.38-.45-.25-.85-.49-1.23-.74-.15-.09-.29-.19-.43-.29-.2-.15-.4-.3-.59-.45-.14-.11-.24-.2-.31-.27-.03-.02-.04-.04-.06-.06,.06-.11,.2-.3,.31-.41,.32-.37,.71-.84,.64-1.44,0-.06-.02-.14-.05-.21-.06-.21-.21-.46-.51-.69-.06-.06-.14-.1-.22-.14-.34-.21-.77-.37-1.2-.51l-.37-.14s-.1-.04-.15-.06c-.96-.37-1.62-.86-2.26-1.33-.15-.11-.55-.41-.69-.58,.12-.13,.55-.45,1.86-.84,.5-.15,1.04-.3,1.58-.45,.61-.17,1.24-.34,1.86-.53,.58-.18,1.31-.43,1.99-.76,.44-.2,.85-.45,1.22-.71,.14-.11,.28-.22,.41-.33,.07-.06,.14-.12,.21-.19,.28-.24,.55-.46,.87-.67,.37-.22,.85-.45,1.36-.67l.27-.12c.33-.15,.65-.32,.97-.47,.95-.48,1.84-.93,3.01-1.06,.13,0,.26-.03,.39-.04,.45-.02,.93,0,1.37,.06,.14,.02,.28,.04,.4,.06,.32,.07,.6,.16,.86,.25,.16,.06,.32,.11,.46,.17,.13,.05,.26,.09,.38,.15,.25,.09,.48,.19,.72,.28,.27,.11,.55,.22,.83,.33,.32,.12,.65,.25,1,.36,1.47,.48,3.09,.83,4.7,.99l.23,.02c.42,.04,.83,.08,1.17,.17,.42,.1,.75,.27,1.1,.45,.83,.44,1.6,.91,2.37,1.4,.64,.4,1.09,.76,1.39,1.06,.53,.54,.63,.91,.62,1.12,0,.13-.03,.25-.06,.38-.05,.23-.11,.53-.07,.85v.02c.03,.24,.1,.52,.3,.78,.41,.57,1.14,.96,1.91,1.38,.31,.17,.62,.34,.9,.52,.45,.29,.56,.51,.57,.53,0,.02-.05,.07-.17,.16Z"/><path class="cls-1" d="M126.46,105.12c-.35-.21-.75-.42-1.15-.62-.08-.05-.18-.08-.26-.13h0c-.63-.33-1.28-.69-1.5-1.01-.04-.05-.06-.11-.06-.18-.03-.13,0-.3,.07-.58,0-.06,.03-.1,.05-.16,.04-.19,.07-.38,.08-.59,.06-1.37-1.01-2.68-3.19-3.88-.25-.14-.5-.27-.75-.4,0,0,0,0,0,0-.5-.27-1.01-.52-1.53-.76-.29-.13-.58-.25-.86-.38-.47-.2-1.01-.43-1.68-.56-.51-.09-1.05-.12-1.57-.15l-.33-.02c-1.81-.11-3.64-.45-5.3-.99-.76-.24-1.46-.52-2.13-.79-.45-.18-.89-.35-1.35-.52-.19-.06-.4-.14-.6-.2-.52-.18-1.1-.35-1.82-.44-.79-.09-1.67-.09-2.49,0-1.73,.2-3.05,.83-4.32,1.44-.26,.12-.52,.24-.78,.36-.07,.04-.15,.06-.22,.1-.56,.25-1.05,.49-1.47,.73-.13,.07-.24,.15-.35,.22-.45,.31-.78,.62-1.1,.92-.2,.19-.42,.4-.66,.59-.47,.37-1.16,.74-1.99,1.08-.42,.17-.88,.32-1.37,.47-.19,.06-.39,.11-.58,.17-.59,.17-1.21,.32-1.81,.47-.63,.17-1.24,.32-1.84,.49-1.94,.54-3.01,1.14-3.4,1.87-.6,1.18,.71,2.08,1.42,2.56,.21,.15,.44,.3,.67,.45,.46,.3,.98,.6,1.6,.88,.33,.15,.71,.3,1.1,.43,.16,.06,.33,.11,.5,.17,.38,.11,.8,.24,1.11,.4,.07,.04,.14,.08,.2,.12-.07,.14-.27,.38-.4,.54-.36,.42-.79,.93-.79,1.54,0,.08,.02,.18,.04,.27,.03,.1,.06,.19,.1,.29,.15,.31,.41,.57,.7,.81,.09,.06,.19,.13,.28,.2,.18,.13,.35,.25,.54,.37,.09,.06,.19,.12,.29,.19,.22,.15,.45,.29,.7,.42,.41,.24,.83,.46,1.27,.67,.39,.19,.8,.38,1.21,.55,.49,.22,1,.42,1.51,.61h0c.5,.19,1.01,.37,1.52,.55h.02c.43,.15,.85,.29,1.28,.42,.06,.02,.11,.04,.17,.06,.45,.14,.78,.32,1.06,.52,.04,.03,.06,.05,.09,.07,0,0,.02,0,.03,.02,.14,.1,.27,.21,.41,.32,.05,.05,.1,.08,.16,.13,.06,.06,.14,.11,.21,.18,.06,.05,.13,.09,.2,.15,1.08,.78,2.56,1.32,4.3,1.56,.41,.1,.83,.14,1.25,.14,.52,0,1-.06,1.36-.12,.17-.03,.31-.06,.42-.08,.23-.06,.45-.11,.67-.18,.02,0,.04,0,.06-.02,.07-.02,.14-.04,.2-.06,.31-.08,.6-.19,.89-.29,.27-.09,.52-.19,.77-.29,.04-.02,.08-.03,.12-.05,.49-.19,.96-.32,1.4-.43,.8-.18,1.51-.25,2.19-.32,.22-.02,.44-.05,.65-.06,.23-.03,.45-.06,.68-.1,.72-.13,1.4-.34,2.23-.66,.22-.07,.46-.17,.71-.27,1.09-.43,2.44-.7,3.76-.96,.83-.17,1.63-.32,2.37-.53,.67-.18,1.29-.38,1.82-.65,.26-.12,.49-.26,.71-.42,.34-.25,.57-.52,.72-.78,.19-.29,.29-.58,.37-.83,.02-.06,.04-.1,.06-.15h0c.04-.09,.06-.17,.1-.24,.1-.22,.25-.4,.55-.58,.09-.06,.2-.13,.32-.19,.03-.02,.06-.04,.09-.05,.05-.03,.1-.06,.15-.08,.23-.13,.46-.25,.66-.37,.06-.05,.13-.08,.19-.13,.63-.46,.77-.99,.76-1.35,0-.69-.5-1.35-1.44-1.9Zm-1.8,3.16c-.53,.44-.72,.91-.87,1.32,0,.04-.03,.08-.04,.12-.12,.34-.2,.59-.49,.84-.04,.04-.08,.07-.13,.11-.7,.51-1.9,.83-3.19,1.11-.38,.08-.78,.17-1.16,.24-1.17,.24-2.37,.48-3.44,.84-.19,.06-.37,.12-.55,.19-1.35,.53-2.22,.82-3.27,.94-.2,.03-.42,.05-.63,.06-.06,0-.11,0-.17,.02-.67,.06-1.45,.15-2.31,.36-.5,.11-1.04,.27-1.6,.49-.11,.05-.22,.08-.33,.13-.38,.15-.79,.3-1.22,.43-.27,.08-.55,.16-.83,.22-.08,.02-.16,.04-.24,.05-.83,.16-1.64,.17-2.17,.02-.03,0-.06-.02-.09-.02-.06,0-.14-.02-.2-.04-.06,0-.12,0-.18-.03-.7-.1-1.27-.26-1.76-.45-.06,0-.11-.04-.17-.06,0,0-.03,0-.04-.02-.03,0-.05,0-.06-.03-.58-.22-1-.47-1.31-.7-.12-.08-.23-.18-.34-.28-.06-.04-.1-.08-.16-.13-.21-.18-.45-.37-.72-.56-.34-.23-.76-.45-1.32-.63-.1-.04-.21-.06-.32-.1-.77-.24-1.55-.5-2.31-.79-.5-.18-.99-.36-1.48-.57-.58-.24-1.16-.5-1.71-.78-.37-.19-.73-.38-1.09-.59-.17-.09-.32-.19-.48-.29-.24-.15-.47-.31-.7-.47-.02,0-.04-.03-.06-.04-.42-.31-.54-.45-.56-.47,.02-.13,.29-.45,.45-.64t.02-.02c.36-.44,.79-.93,.75-1.53,0-.03,0-.06,0-.08-.04-.25-.17-.62-.62-.94-.39-.27-.95-.45-1.49-.63-.06-.02-.12-.04-.18-.06-.17-.05-.33-.09-.48-.15-.46-.15-.88-.32-1.25-.51-.68-.34-1.23-.71-1.77-1.09-.61-.42-.95-.71-.98-.82,.04-.06,.35-.57,2.55-1.19,.58-.17,1.2-.32,1.81-.48,.82-.2,1.65-.42,2.45-.66,.26-.07,.54-.17,.83-.27,.6-.2,1.26-.47,1.86-.8,.4-.21,.78-.45,1.11-.71,.28-.22,.52-.45,.75-.67,.29-.28,.58-.54,.93-.78,.18-.12,.37-.23,.58-.34,.36-.19,.79-.39,1.26-.61l.31-.14c.17-.07,.32-.15,.49-.23,1.22-.58,2.38-1.13,3.9-1.31,.36-.05,.73-.06,1.1-.06s.72,.02,1.06,.06c.6,.07,1.1,.22,1.56,.37,.19,.06,.38,.13,.57,.19,.45,.17,.87,.33,1.31,.5,.7,.28,1.42,.57,2.22,.83,1.76,.57,3.71,.93,5.62,1.05l.35,.02c.49,.03,.96,.06,1.39,.14,.34,.06,.65,.16,.95,.28,.16,.06,.31,.13,.47,.19,.54,.23,1.08,.48,1.6,.74,.47,.23,.94,.48,1.4,.73,1.46,.81,2.33,1.63,2.48,2.37,.02,.08,.02,.18,.02,.26,0,.16-.06,.32-.09,.49-.02,.07-.04,.15-.06,.22-.09,.43-.15,.95,.14,1.47,0,.03,.02,.05,.05,.07,0,.04,.03,.06,.06,.1,.42,.58,1.18,1.01,2.01,1.44,.08,.04,.18,.08,.26,.13,.37,.19,.74,.37,1.07,.57,.19,.11,.33,.22,.45,.32,.23,.2,.32,.36,.32,.44,0,.05-.08,.17-.31,.32-.03,.02-.06,.04-.09,.05-.07,.05-.16,.09-.24,.14-.07,.05-.16,.09-.24,.13-.22,.12-.44,.24-.64,.36-.11,.06-.2,.14-.3,.2-.02,.02-.04,.04-.06,.05Z"/><path class="cls-1" d="M129.47,110.79c-.25-.14-.52-.27-.79-.41-.18-.08-.34-.17-.52-.25-.77-.36-1.61-.76-2.02-1.17-.05-.05-.09-.1-.13-.15-.16-.23-.11-.49,.03-1.02,0-.05,.03-.09,.04-.14,.02-.08,.04-.17,.06-.25,.04-.15,.06-.3,.07-.45,0-.11,0-.22,0-.34-.04-.64-.32-1.41-1.16-2.24h0c-.38-.39-.89-.79-1.56-1.19-.17-.1-.34-.2-.54-.31-.14-.07-.29-.15-.44-.22-.11-.06-.21-.1-.32-.15-.19-.1-.39-.19-.59-.28-.87-.4-1.83-.79-2.86-1.16-.57-.2-1.21-.44-1.98-.55-.58-.07-1.18-.09-1.75-.1h-.45c-.68-.03-1.35-.08-2.03-.17-1.44-.17-2.86-.46-4.19-.87-.34-.1-.67-.22-.99-.33-.53-.19-1.03-.38-1.52-.58-.51-.19-1.03-.39-1.56-.58-.23-.08-.46-.16-.7-.23-.6-.19-1.27-.39-2.11-.48-.87-.09-1.89-.07-2.86,.04-.06,0-.11,.02-.17,.03-.82,.1-1.56,.29-2.24,.52-1.04,.34-1.98,.78-2.89,1.21l-.47,.21c-.39,.19-.8,.37-1.18,.57-.4,.21-.77,.44-1.09,.68-.47,.35-.82,.71-1.16,1.05-.04,.04-.06,.07-.1,.1-.19,.21-.4,.42-.65,.62-.83,.69-2.23,1.35-3.95,1.86-.18,.06-.35,.1-.53,.16-.61,.17-1.24,.33-1.87,.49-.18,.05-.35,.08-.53,.13-.72,.18-1.43,.34-2.12,.54-2.24,.61-3.54,1.3-3.97,2.12-.68,1.27,.79,2.21,1.66,2.77,0,0,0,0,0,0,.44,.28,.89,.58,1.41,.85,.71,.4,1.53,.78,2.54,1.08,.19,.06,.41,.11,.61,.17,.1,.03,.21,.06,.32,.09,.51,.13,.99,.28,1.26,.46,0,0,.03,.02,.04,.02,.06,.04,.07,.06,.08,.06,0,.04-.02,.07-.05,.13-.11,.19-.35,.49-.51,.67-.45,.55-.97,1.16-.86,1.88,0,.04,0,.08,.02,.12,.02,.07,.05,.15,.07,.22,.07,.17,.19,.32,.32,.46,.02,.03,.05,.06,.07,.08,.18,.19,.39,.34,.59,.49,.02,.02,.04,.03,.06,.04,.06,.04,.1,.07,.15,.1,.05,.03,.08,.06,.13,.08,.06,.05,.12,.08,.19,.12,.07,.05,.14,.09,.21,.14s.15,.09,.22,.13c.08,.06,.16,.1,.24,.15,2.66,1.54,6.06,2.58,9.32,3.47,.94,.25,1.43,.62,1.99,1.06,.23,.18,.46,.35,.72,.52,1.3,.84,3.08,1.39,5.15,1.59,.35,.07,.76,.11,1.2,.11,.63,0,1.34-.07,2.03-.23,1.11-.24,2.1-.58,2.83-.86,1.44-.54,2.71-.74,3.82-.93,.35-.06,.68-.12,1-.18,1.21-.23,2.14-.61,3.56-1.18l.27-.11c1.29-.51,2.93-.83,4.52-1.13,1.41-.27,2.77-.54,3.91-.93,.46-.16,.89-.34,1.26-.56,.07-.05,.15-.08,.21-.14,.03,0,.06-.03,.09-.06,.04-.02,.06-.04,.1-.06,.18-.13,.33-.26,.45-.39l.08-.08s.06-.06,.07-.1c.2-.24,.34-.48,.44-.71,.07-.18,.13-.33,.19-.49,0-.04,.03-.08,.04-.12,.11-.31,.21-.56,.45-.79,.09-.09,.19-.18,.33-.26,.02-.02,.04-.03,.06-.05,.18-.1,.37-.2,.58-.31,.04-.02,.07-.04,.11-.06,.16-.07,.31-.16,.45-.23,.11-.06,.22-.12,.32-.19,.06-.04,.12-.07,.18-.12t.02,0c.38-.27,.6-.55,.72-.82,.12-.24,.15-.46,.15-.65,0-.75-.58-1.46-1.63-2.05Zm-2.99,5.22s0,0,0,.02c-.08,.25-.16,.46-.29,.66-.1,.17-.25,.33-.47,.49-.09,.06-.19,.13-.3,.19-.3,.17-.64,.32-1.02,.45-.64,.22-1.37,.4-2.14,.58h-.04c-.52,.11-1.06,.21-1.6,.32-.36,.07-.73,.14-1.09,.21-.03,0-.06,0-.07,.02-.25,.05-.5,.1-.75,.15-.57,.13-1.12,.26-1.65,.43-.41,.11-.8,.25-1.17,.4l-.27,.1c-1.35,.55-2.25,.9-3.34,1.11-.31,.06-.63,.11-.96,.17-1.18,.19-2.5,.42-4.06,1-.69,.26-1.61,.58-2.65,.81-1.01,.22-2.03,.26-2.74,.11h-.07c-2.37-.23-3.82-.89-4.61-1.41-.23-.15-.44-.31-.64-.45-.62-.47-1.25-.96-2.43-1.28-2.89-.78-5.88-1.69-8.3-2.95-.11-.06-.22-.11-.33-.18-.04-.02-.07-.04-.11-.06-.09-.04-.18-.09-.27-.14,0,0,0,0,0,0-.1-.06-.2-.12-.31-.19-.02,0-.04-.02-.06-.04-.03-.02-.06-.04-.09-.06-.16-.08-.32-.19-.46-.29-.12-.08-.21-.15-.3-.21-.12-.09-.21-.17-.28-.23-.12-.1-.15-.17-.16-.2-.04-.16,.38-.65,.58-.89,.1-.12,.2-.24,.3-.37,.23-.3,.44-.61,.51-.96,.04-.15,.05-.3,.03-.45-.03-.21-.12-.42-.27-.59,0-.02-.02-.04-.05-.05-.08-.12-.21-.23-.36-.32-.17-.11-.36-.2-.58-.3-.42-.17-.9-.3-1.37-.43-.19-.05-.39-.1-.58-.16-.35-.1-.68-.22-.98-.34-.6-.24-1.11-.51-1.6-.79-.37-.21-.71-.44-1.06-.66-.9-.58-1.31-.96-1.22-1.12,.06-.12,.52-.75,3.19-1.48,.68-.19,1.37-.35,2.08-.53,.6-.15,1.22-.3,1.83-.47,.39-.09,.79-.2,1.17-.32,.35-.1,.7-.22,1.02-.34,1.44-.51,2.59-1.11,3.38-1.77,.11-.09,.21-.19,.32-.27,.19-.19,.37-.36,.54-.54s.33-.34,.5-.49c.15-.15,.32-.29,.49-.42,.55-.39,1.32-.77,2.07-1.11l.46-.22c1.22-.57,2.49-1.15,3.96-1.46,.32-.08,.64-.14,.97-.18,.49-.06,.99-.09,1.48-.09h.13c.33,0,.66,.02,.96,.06,.72,.07,1.32,.25,1.86,.42,.22,.07,.45,.15,.66,.23,.52,.19,1.03,.38,1.53,.57,.09,.04,.18,.07,.27,.1,.68,.27,1.38,.54,2.15,.78,.06,.02,.12,.04,.18,.06,2.07,.64,4.33,1.02,6.55,1.09h.47c.57,.03,1.1,.04,1.6,.1,.64,.09,1.19,.3,1.73,.49,.99,.36,1.92,.73,2.76,1.11,.31,.13,.59,.27,.88,.41,.13,.06,.25,.13,.37,.19,.02,.02,.04,.03,.06,.04,.94,.5,1.63,1.04,2.06,1.58,.36,.44,.54,.86,.51,1.27,0,.06-.02,.11-.04,.18-.02,.14-.06,.28-.09,.44-.06,.22-.12,.47-.15,.74,0,.03,0,.05,0,.07-.04,.4,.03,.83,.32,1.25,.06,.08,.13,.17,.2,.24,.14,.16,.31,.31,.5,.44,.53,.39,1.22,.71,1.93,1.06,.03,0,.06,.03,.08,.04,.39,.19,.77,.37,1.11,.57,0,0,.03,0,.04,.02,.68,.38,.98,.77,.99,.96,0,.13-.17,.32-.45,.49h0c-.19,.12-.43,.24-.67,.35,0,0-.02,.02-.03,.02-.03,0-.05,.03-.07,.04-.23,.12-.47,.24-.69,.37-.12,.07-.22,.14-.32,.22,0,0,0,0-.02,0-.36,.27-.59,.57-.75,.84-.17,.29-.26,.56-.34,.81Z"/><path class="cls-1" d="M134.44,117.96c0-.07-.03-.15-.06-.21-.12-.39-.38-.75-.79-1.09-.26-.22-.58-.44-.96-.64-.31-.17-.65-.32-1-.48-.16-.07-.32-.15-.48-.22-.21-.09-.44-.19-.64-.3-.28-.12-.55-.25-.8-.39-.48-.26-.87-.52-1.08-.81,0-.02-.03-.04-.03-.06-.03-.04-.05-.07-.06-.11-.09-.24-.05-.52,.05-.9,.02-.07,.05-.15,.06-.22,.06-.2,.11-.42,.15-.65,0-.07,.03-.15,.03-.23,0-.02,0-.04,0-.06,.04-.41-.02-.81-.17-1.21-.25-.71-.77-1.37-1.55-2-.32-.25-.67-.49-1.06-.72-.06-.05-.12-.07-.19-.11-.31-.18-.63-.34-.98-.51-.08-.04-.17-.08-.26-.12-1.08-.48-2.36-.96-3.9-1.46-.17-.05-.34-.1-.52-.16-.61-.19-1.32-.42-2.14-.51-.04,0-.07-.02-.11-.02-.63-.06-1.29-.06-1.92-.06h-.59c-2.41,0-4.89-.37-7.15-1.05-1.03-.31-1.99-.66-2.91-1.01-.58-.21-1.16-.44-1.77-.64-.26-.09-.52-.18-.8-.27-.69-.21-1.45-.42-2.38-.5-.98-.09-2.1-.06-3.22,.08-1.97,.25-3.64,.87-5.11,1.53-.46,.2-.91,.41-1.35,.61-.06,.03-.13,.06-.19,.09-1.05,.5-1.76,.92-2.3,1.34-.28,.22-.52,.45-.72,.66-.18,.18-.33,.34-.48,.51-.17,.18-.32,.34-.48,.51-.11,.12-.24,.24-.37,.35-.94,.82-2.54,1.6-4.55,2.21-.84,.26-1.73,.49-2.62,.71-.27,.06-.54,.13-.81,.19-.31,.07-.61,.15-.92,.22-.51,.13-1.02,.26-1.51,.39-3.83,1.05-4.37,2.05-4.55,2.37-.57,1.05,.28,1.89,1.15,2.5,.26,.18,.52,.34,.75,.48,.16,.1,.32,.19,.49,.31,.9,.53,1.91,1.09,3.23,1.52,.27,.09,.56,.19,.85,.26,.23,.06,.47,.12,.71,.18,.4,.1,.81,.19,1.16,.31,.02,0,.04,0,.05,.02,.06,.02,.1,.04,.15,.06,.12,.04,.23,.08,.32,.13,.03,0,.06,.02,.07,.04,.03,0,.05,.02,.06,.04,.02,0,.03,0,.04,.02,.06,.05,.11,.08,.15,.11,.03,.03,.05,.06,.05,.06h0c0,.08-.05,.21-.15,.35-.02,.03-.04,.06-.06,.08-.14,.2-.32,.44-.46,.6-.54,.65-1.15,1.38-.94,2.2,.17,.66,.83,1.11,1.44,1.49,.37,.23,.75,.46,1.16,.68,2.89,1.55,6.47,2.57,10.96,3.63,1.14,.27,1.76,.71,2.43,1.17,.27,.19,.54,.39,.84,.57,1.53,.91,3.61,1.47,6.01,1.61,.36,.06,.73,.07,1.09,.07,.93,0,1.82-.15,2.35-.25,.96-.2,1.94-.49,3.07-.89,1.4-.5,2.67-.79,3.78-1.03,.53-.12,1.01-.23,1.47-.35,1-.26,1.83-.61,2.87-1.05,.37-.16,.76-.32,1.2-.5,1.48-.6,3.4-.96,5.25-1.32,2.5-.46,4.86-.91,6.3-1.92,.92-.65,1.17-1.38,1.36-1.97,.19-.59,.33-1.02,1.08-1.46,.25-.14,.53-.28,.82-.42,.02,0,.03-.02,.05-.03,.3-.15,.59-.29,.85-.44,.03-.02,.06-.04,.09-.06,.08-.05,.15-.09,.22-.15,.03-.02,.06-.05,.09-.07,.05-.03,.08-.06,.12-.1,.09-.08,.18-.17,.24-.25,.07-.07,.12-.15,.17-.22,0-.02,.03-.04,.03-.06,.05-.08,.08-.16,.11-.22,.03-.07,.05-.15,.06-.21,0-.03,0-.06,.02-.09h0c.02-.1,.02-.19,.02-.27,0-.07,0-.15-.03-.22Zm-3.46,1.82c-1.11,.66-1.38,1.45-1.6,2.09-.18,.54-.32,.96-.92,1.38-1.23,.86-3.47,1.29-5.84,1.73-1.91,.36-3.9,.73-5.48,1.38-.44,.18-.83,.34-1.21,.5-.99,.42-1.78,.75-2.71,1-.45,.11-.92,.22-1.43,.33-1.15,.25-2.46,.54-3.93,1.07-1.08,.39-1.99,.66-2.91,.84-1.12,.24-2.24,.3-3.04,.17h-.06c-2.82-.17-4.55-.89-5.51-1.46-.28-.17-.53-.34-.78-.52-.72-.5-1.47-1.03-2.83-1.35-4.4-1.04-7.9-2.04-10.68-3.53-.38-.2-.74-.42-1.09-.63-.21-.14-.86-.55-.93-.8-.06-.24,.4-.8,.71-1.16,.51-.61,1.03-1.24,.92-1.97,0-.04-.02-.07-.03-.11,0-.02,0-.04-.02-.06-.04-.14-.1-.26-.19-.38,0,0-.02-.03-.04-.04,0-.02-.02-.04-.04-.05-.03-.05-.06-.08-.11-.12l-.04-.04s-.1-.08-.17-.12c-.04-.04-.07-.06-.11-.08-.06-.04-.11-.06-.18-.09-.09-.06-.19-.11-.31-.16-.12-.05-.24-.09-.37-.13-.43-.14-.89-.25-1.35-.36-.02,0-.04,0-.06-.02-.21-.05-.43-.1-.63-.16-1.09-.28-1.96-.66-2.73-1.07-.47-.25-.92-.51-1.35-.77-.06-.04-.13-.08-.19-.12-.55-.33-1.69-1.03-1.48-1.43,.11-.2,.71-.95,3.82-1.8,.78-.21,1.59-.41,2.39-.6,.07-.02,.15-.04,.22-.06,.63-.16,1.28-.32,1.91-.48,.46-.12,.92-.24,1.36-.38,1.4-.43,2.63-.94,3.59-1.48,.54-.31,.99-.63,1.37-.96,.38-.32,.67-.65,.96-.96,.08-.09,.17-.19,.25-.28,.24-.26,.5-.51,.81-.75,.5-.39,1.21-.79,2.28-1.3,.14-.06,.29-.13,.44-.2,.52-.24,1.07-.49,1.64-.72,1.21-.49,2.53-.93,4.03-1.12,.64-.08,1.29-.12,1.9-.12,.37,0,.73,0,1.07,.05,.83,.07,1.52,.27,2.14,.46,.26,.07,.51,.16,.76,.25,.59,.2,1.17,.42,1.74,.63,.95,.35,1.91,.72,2.99,1.04,1.93,.58,4,.93,6.06,1.05,.47,.03,.95,.05,1.42,.05h.6c.64,0,1.23,0,1.8,.05,.33,.04,.65,.09,.95,.18,.38,.08,.73,.19,1.09,.31,1.73,.54,3.13,1.05,4.29,1.57,.17,.07,.33,.16,.49,.23,.02,0,.03,0,.05,.03,.51,.24,.96,.51,1.34,.77,.91,.65,1.47,1.34,1.61,2,.02,.1,.04,.2,.04,.3,0,.06,0,.12,0,.19-.02,.2-.07,.42-.14,.65,0,.02,0,.05-.02,.07-.08,.32-.19,.68-.19,1.04-.02,.36,.04,.73,.26,1.09t0,.02s.05,.08,.07,.12c.2,.29,.49,.54,.83,.77s.71,.44,1.13,.63c.25,.13,.52,.25,.79,.37,.08,.04,.17,.07,.25,.11,.25,.11,.5,.22,.74,.33,.23,.11,.45,.22,.67,.33,.52,.28,.85,.56,1.03,.78,.1,.12,.16,.23,.18,.32,0,.02,0,.04,0,.06v.02s0,.08-.03,.12c-.06,.17-.22,.32-.38,.43t-.02,.02s-.09,.06-.14,.08c-.02,0-.03,.02-.05,.03-.1,.06-.22,.13-.34,.19-.11,.06-.22,.12-.33,.18-.02,0-.04,.02-.06,.03-.03,0-.05,.03-.07,.04-.22,.1-.45,.21-.65,.32-.08,.05-.17,.09-.25,.14Z"/><path class="cls-1" d="M137.43,121.83c-.25-.31-.6-.59-1.05-.85h0c-.14-.09-.29-.18-.45-.25-.49-.26-1.04-.48-1.58-.71-.03,0-.06-.03-.08-.04-.22-.09-.45-.19-.66-.29-.06-.02-.1-.05-.16-.06-.07-.04-.15-.06-.22-.1-.1-.05-.2-.09-.31-.14-.2-.1-.4-.2-.58-.31-.28-.15-.51-.31-.7-.47-.02,0-.03-.02-.04-.03-.03-.02-.05-.04-.06-.06-.06-.06-.12-.12-.17-.19-.05-.06-.07-.12-.09-.19-.07-.14-.09-.29-.07-.46,0,0,0-.02,0-.04,0-.1,.02-.21,.05-.33,.04-.17,.08-.34,.14-.54,0-.02,0-.04,.02-.06,.02-.08,.05-.18,.06-.26,.03-.1,.06-.2,.07-.31,.03-.13,.05-.27,.06-.41,0-.06,0-.14,0-.2,0-.18,0-.35-.04-.53-.07-.52-.29-1.03-.64-1.51-.46-.67-1.18-1.29-2.12-1.85-.36-.22-.75-.44-1.18-.63-.24-.11-.5-.22-.76-.33-.38-.15-.78-.31-1.22-.46-.19-.06-.39-.13-.6-.19h0c-.41-.14-.83-.28-1.3-.42-.59-.18-1.23-.36-1.93-.55-.73-.2-1.56-.43-2.54-.5-.69-.06-1.41-.03-2.11,0l-.71,.02c-2.01,.04-4.07-.15-6.05-.55-.7-.14-1.37-.3-2.04-.49-.47-.13-.93-.28-1.36-.43-.67-.22-1.3-.45-1.93-.68-.66-.24-1.32-.47-1.99-.71-.3-.09-.59-.19-.9-.29-.76-.22-1.61-.45-2.66-.53-.96-.08-2.06-.06-3.18,.08-.14,.02-.28,.04-.42,.06-.73,.1-1.45,.25-2.12,.44-1.84,.47-3.48,1.19-5,1.91-.54,.26-1.01,.51-1.42,.74-.52,.3-.95,.58-1.3,.87-.13,.11-.26,.22-.37,.33-.34,.32-.62,.65-.89,.96-.3,.34-.58,.68-.94,1-.1,.09-.21,.19-.32,.27-.39,.31-.85,.61-1.38,.89-.95,.52-2.11,.99-3.42,1.4-1.25,.4-2.62,.72-3.92,1.05-.3,.07-.59,.15-.89,.22-.53,.13-1.04,.26-1.55,.4-.1,.02-.19,.05-.3,.07-2.87,.8-4.59,1.69-5.11,2.66-.45,.85-.02,1.57,.64,2.14,.31,.27,.66,.51,.99,.71,.19,.11,.35,.21,.51,.31,.64,.37,1.32,.76,2.09,1.12,.4,.19,.82,.38,1.27,.54,.28,.11,.57,.21,.86,.31,.17,.05,.33,.09,.5,.14,.14,.04,.29,.07,.44,.11,0,0,.02,0,.03,0,.1,.03,.2,.05,.32,.06,.17,.05,.35,.08,.53,.12,.03,0,.06,0,.09,.02,0,0,.02,0,.03,0,.06,0,.12,.03,.19,.04,.2,.05,.4,.09,.59,.14h0c.48,.12,.92,.26,1.21,.43,.1,.06,.27,.18,.29,.29,.05,.27-.43,.85-.78,1.27-.59,.71-1.26,1.53-1.02,2.4,.19,.69,.94,1.18,1.6,1.58,.43,.25,.87,.49,1.33,.72,3.26,1.63,7.25,2.64,12.62,3.75,1.33,.28,2.06,.76,2.84,1.27,.32,.2,.64,.41,.99,.61,1.75,.96,4.13,1.52,6.87,1.61,.29,.03,.6,.05,.94,.05,.83,0,1.76-.1,2.71-.3,1.07-.21,2.14-.52,3.31-.92,1.28-.45,2.48-.76,3.53-1.04,.78-.21,1.5-.4,2.15-.61,.89-.29,1.64-.63,2.5-1.03,.53-.25,1.1-.51,1.78-.79,1.67-.7,3.87-1.11,5.99-1.51,2.79-.52,5.43-1.02,7.01-2.12,1.01-.71,1.26-1.48,1.48-2.16,.21-.66,.38-1.18,1.26-1.7,.29-.17,.61-.32,.94-.47,.14-.06,.28-.13,.41-.19,.22-.11,.43-.21,.61-.32,.02,0,.04-.03,.06-.04,.06-.04,.12-.07,.18-.12,.3-.19,.51-.39,.66-.58,.32-.41,.4-.8,.39-1.09,0-.41-.19-.81-.53-1.19Zm-2.24,2.58c-.35,.17-.71,.33-1.01,.52-1.23,.72-1.5,1.55-1.74,2.29-.19,.59-.36,1.1-1.08,1.61-1.4,.97-3.92,1.45-6.61,1.96-2.17,.41-4.43,.83-6.2,1.57-.69,.29-1.28,.56-1.82,.81-.83,.38-1.56,.71-2.39,.98-.63,.2-1.34,.39-2.09,.59-1.08,.29-2.3,.6-3.61,1.06-1.13,.39-2.17,.69-3.18,.89-1.22,.25-2.41,.33-3.34,.23h-.04c-3.27-.11-5.29-.87-6.41-1.49-.33-.18-.63-.37-.92-.57-.83-.54-1.7-1.1-3.22-1.42-5.29-1.09-9.19-2.08-12.35-3.66-.44-.22-.85-.45-1.26-.69-.28-.17-1.03-.61-1.12-.95-.08-.33,.42-.95,.82-1.43,.57-.69,1.14-1.38,1.01-2.14-.07-.41-.34-.75-.8-1.02-.28-.17-.62-.3-1-.41-.03,0-.06-.02-.09-.03-.2-.06-.42-.11-.63-.17-.06,0-.13-.03-.19-.05-.07,0-.15-.03-.22-.05-.09-.02-.19-.05-.3-.06-.04,0-.06,0-.1-.02-.23-.05-.47-.09-.7-.15,0,0-.02,0-.03,0-.11-.03-.21-.06-.32-.08-.06,0-.13-.03-.19-.06-.44-.11-.85-.25-1.23-.4-1.04-.39-1.91-.86-2.74-1.35-.14-.07-.27-.16-.41-.23-.28-.17-.54-.32-.76-.46-.75-.5-1.16-.92-.97-1.27,.35-.66,2.02-1.46,4.45-2.12,.41-.11,.83-.22,1.25-.32,.48-.13,.96-.25,1.46-.37,.06-.02,.13-.03,.19-.05,1.26-.32,2.57-.63,3.78-1.01,1.75-.55,3.27-1.22,4.41-1.95,.39-.24,.73-.5,1.02-.75,.04-.04,.07-.06,.11-.1,.41-.37,.72-.74,1.03-1.09,.25-.3,.49-.58,.78-.85,.11-.1,.22-.2,.34-.31,.22-.19,.48-.37,.79-.56,.46-.29,1.02-.58,1.72-.92,1.73-.83,3.76-1.73,6.2-2.16,.2-.04,.41-.07,.61-.1,.79-.11,1.58-.17,2.31-.17h.06c.35,0,.69,0,.99,.04,.96,.07,1.74,.28,2.44,.49,.3,.09,.59,.19,.87,.28,.68,.22,1.33,.45,1.98,.7,.25,.09,.5,.18,.75,.27,.7,.25,1.4,.49,2.16,.71,.15,.06,.3,.09,.45,.14,2.67,.76,5.58,1.14,8.4,1.09l.72-.02c.71-.03,1.36-.05,2,0,.87,.06,1.62,.27,2.34,.46,.6,.17,1.16,.32,1.68,.48,.5,.14,.96,.29,1.4,.43,.69,.23,1.29,.45,1.85,.68,.37,.15,.72,.31,1.05,.47,.38,.19,.73,.39,1.05,.6,.3,.19,.55,.38,.78,.6h0c.35,.31,.63,.62,.82,.95h0v.02c.15,.23,.24,.46,.3,.7,.05,.19,.06,.37,.05,.55,0,.03,0,.05,0,.07-.02,.16-.05,.32-.09,.49,0,.05-.02,.09-.04,.14-.02,.06-.04,.14-.06,.21-.05,.16-.09,.32-.13,.5-.04,.14-.06,.3-.08,.45,0,.05,0,.09,0,.15,0,.16,0,.32,0,.49,0,.06,.02,.11,.04,.17,0,.02,0,.03,0,.05,0,.05,.02,.08,.04,.13,.06,.19,.14,.36,.27,.54,.02,.03,.05,.06,.07,.08,0,0,0,.02,.02,.03,.17,.21,.38,.4,.63,.58,.34,.26,.76,.48,1.21,.7,.23,.12,.48,.23,.73,.34,.22,.09,.45,.19,.68,.29,.07,.04,.16,.06,.23,.1,.47,.19,.95,.4,1.36,.61,.45,.23,.82,.47,1.07,.72,.24,.22,.37,.45,.38,.65,0,.23-.18,.45-.39,.62h0c-.12,.1-.25,.19-.35,.25-.21,.12-.44,.24-.68,.35-.08,.05-.18,.08-.27,.13Z"/><path class="cls-1" d="M140.26,125.39c-.21-.15-.45-.29-.71-.42-.06-.04-.14-.07-.21-.11-.56-.26-1.17-.51-1.77-.75-.02,0-.05-.02-.06-.03-.15-.06-.31-.12-.45-.19-.19-.07-.37-.15-.55-.22h0c-.09-.04-.18-.07-.26-.11-.88-.4-1.65-.82-2-1.29-.24-.33-.25-.71-.15-1.21,.04-.19,.09-.41,.16-.64,.04-.14,.07-.28,.11-.42,.02-.07,.04-.15,.06-.23,0-.06,.02-.11,.04-.17,0-.07,.02-.14,.03-.21,0-.03,0-.06,0-.09,0-.07,0-.14,0-.21,0-.03,0-.05,0-.07,0-.06,0-.11,0-.18,0-.09,0-.19-.02-.28,0-.04,0-.07-.02-.11h0c-.03-.18-.06-.34-.12-.5-.04-.1-.07-.21-.13-.32-.14-.33-.34-.67-.6-.98-.48-.58-1.15-1.14-2-1.65-.41-.24-.86-.47-1.36-.7t-.02,0h0c-.31-.15-.62-.28-.96-.41-.18-.06-.35-.13-.54-.19-.06-.02-.11-.04-.16-.06-.4-.14-.81-.27-1.22-.39-1.31-.39-2.64-.71-3.77-.98-.11-.03-.22-.06-.34-.08-.73-.17-1.55-.34-2.48-.38-.27,0-.54-.02-.82-.02-.49,0-.99,.03-1.48,.06-.28,0-.56,.03-.83,.04-3.07,.13-6.1-.21-9.02-1.01-1.32-.36-2.52-.78-3.7-1.2-.17-.06-.32-.11-.49-.17-.57-.19-1.13-.4-1.73-.58-.32-.11-.65-.2-.99-.31-.83-.24-1.77-.48-2.94-.56-.03,0-.06,0-.09,0-1.16-.07-2.5,0-3.88,.21-2.33,.34-4.35,1.04-6.02,1.76-.54,.22-1.03,.45-1.49,.68-.09,.04-.19,.08-.28,.13-.99,.48-1.79,.94-2.41,1.39-.19,.14-.36,.27-.52,.41-.19,.17-.36,.32-.51,.49-.31,.32-.56,.62-.81,.93-.32,.4-.62,.77-1.02,1.15-.71,.67-1.74,1.32-3.04,1.91-.55,.26-1.15,.5-1.78,.71-.29,.11-.58,.21-.89,.31-1.4,.45-2.93,.83-4.41,1.2-.9,.22-1.79,.45-2.66,.7-.13,.03-.26,.06-.39,.1-.31,.08-.6,.18-.89,.27-2.66,.83-4.27,1.73-4.79,2.68-.35,.66-.19,1.23,.19,1.73,.19,.25,.44,.47,.71,.69,.49,.37,1.05,.68,1.5,.93,.1,.06,.2,.11,.32,.18,.32,.18,.66,.36,1.02,.55,.44,.22,.89,.45,1.38,.65,.32,.14,.65,.27,.99,.38,.03,.02,.06,.03,.09,.04,0,0,.03,0,.05,.02,.18,.06,.36,.12,.55,.17,.08,.04,.17,.06,.26,.08,.35,.1,.73,.2,1.13,.29,.31,.07,.63,.13,.96,.19,.92,.18,1.86,.36,2.4,.66,.21,.13,.34,.25,.36,.38,.07,.35-.45,.99-.87,1.52-.68,.83-1.37,1.68-1.1,2.59,.21,.73,1.03,1.24,1.78,1.67,.47,.27,.97,.52,1.49,.76,4.04,1.9,9.25,2.94,14.25,3.84,1.52,.28,2.37,.8,3.27,1.35,.36,.21,.72,.44,1.13,.65,1.99,1.02,4.66,1.57,7.73,1.6,.25,.02,.49,.03,.74,.03,1.17,0,2.32-.18,3.14-.34,1.16-.23,2.33-.55,3.55-.96,1.06-.35,2.07-.65,3.01-.93,1.11-.33,2.17-.64,3.08-.98,.82-.32,1.53-.67,2.28-1.05,.68-.33,1.37-.69,2.24-1.05,1.86-.79,4.32-1.26,6.71-1.72,3.09-.59,6.01-1.15,7.75-2.36,1.1-.77,1.36-1.6,1.6-2.35,.22-.72,.42-1.35,1.45-1.95,.32-.19,.69-.36,1.06-.54,.37-.17,.74-.34,1.06-.53,.04-.02,.06-.04,.09-.06,.22-.14,.43-.28,.59-.42,.09-.07,.17-.15,.24-.22h0c.22-.25,.38-.51,.45-.77,.06-.18,.08-.35,.07-.54-.03-.67-.48-1.32-1.31-1.88Zm-1.63,3.53c-.39,.19-.79,.38-1.13,.58-1.35,.8-1.63,1.7-1.88,2.5-.21,.67-.4,1.25-1.22,1.84-1.57,1.09-4.39,1.62-7.37,2.2-2.44,.46-4.95,.95-6.91,1.77-.89,.38-1.6,.73-2.29,1.08-.73,.36-1.42,.71-2.2,1-.87,.33-1.91,.64-3.01,.96-.95,.28-1.97,.58-3.04,.95-1.19,.4-2.31,.71-3.43,.93-1.32,.27-2.61,.37-3.63,.3h-.03c-3.71-.03-6.02-.83-7.31-1.48-.38-.2-.72-.41-1.07-.62-.94-.58-1.91-1.17-3.61-1.48-4.94-.89-10.08-1.92-14.02-3.77-.49-.23-.97-.47-1.43-.73-.35-.2-1.2-.68-1.32-1.09-.13-.42,.43-1.1,.92-1.71,.61-.75,1.23-1.52,1.09-2.32-.08-.42-.37-.77-.85-1.05-.67-.37-1.7-.58-2.69-.76-.32-.06-.63-.12-.94-.19-.05,0-.09-.02-.13-.03-.18-.04-.35-.08-.52-.13-.07-.02-.14-.04-.21-.06-.03,0-.06,0-.08-.03-.09-.02-.19-.05-.29-.08-.23-.06-.45-.13-.66-.2-.48-.17-.92-.35-1.34-.54-.37-.17-.72-.34-1.06-.52-.44-.22-.84-.45-1.23-.67-.29-.16-.55-.32-.79-.45-.36-.23-.67-.45-.88-.65-.36-.32-.5-.63-.34-.93,.41-.75,2.24-1.66,4.92-2.43,.06-.02,.1-.03,.16-.05,.43-.12,.86-.23,1.3-.34,.58-.16,1.15-.3,1.73-.45,1.48-.37,3.02-.75,4.46-1.22,.76-.24,1.48-.51,2.16-.8,.58-.24,1.12-.5,1.62-.77,.3-.16,.58-.32,.85-.49,.51-.32,.96-.65,1.33-.98,.05-.04,.08-.07,.12-.11,.42-.39,.74-.79,1.05-1.16,.03-.03,.05-.05,.06-.07,.36-.45,.71-.88,1.2-1.3,.04-.04,.07-.06,.12-.1,.59-.49,1.45-1.01,2.6-1.57,.26-.13,.54-.26,.83-.4,.49-.22,1.03-.45,1.6-.69,1.47-.58,3.17-1.11,5.07-1.39,1-.15,1.97-.23,2.86-.23,.31,0,.61,0,.9,.03,1.08,.08,1.96,.3,2.75,.53,.32,.09,.65,.19,.96,.3,.75,.24,1.47,.49,2.2,.74,1.18,.42,2.41,.85,3.76,1.22,2.27,.62,4.62,.97,6.99,1.06,.77,.02,1.54,.02,2.32,0,.29,0,.57-.03,.85-.05,.73-.04,1.49-.07,2.19-.05,.25,.02,.48,.04,.71,.06,.7,.08,1.33,.23,1.94,.38,1.25,.3,2.79,.68,4.23,1.14,0,0,.02,0,.03,0,.45,.14,.88,.29,1.3,.45,.08,.03,.17,.06,.24,.09,.51,.2,.98,.42,1.41,.65,.37,.18,.71,.38,1,.58,.3,.19,.56,.4,.79,.62,0,0,0,0,.02,0,.37,.34,.65,.7,.85,1.06,.06,.12,.11,.23,.15,.35,0,0,.02,.03,.02,.04,.02,.04,.03,.08,.04,.12,.06,.18,.08,.35,.09,.53t0,.02c0,.07,0,.14,0,.2,0,.04,0,.07,0,.12,0,.07-.02,.16-.03,.24,0,.04-.02,.07-.03,.11,0,.02,0,.04,0,.06-.02,.06-.04,.14-.06,.21-.02,.11-.06,.22-.08,.33-.05,.17-.09,.34-.13,.51-.18,.71-.24,1.47,.27,2.17,.43,.58,1.15,1.02,2.02,1.43,.19,.09,.39,.18,.59,.26,.22,.09,.45,.19,.68,.28,.06,.03,.12,.06,.19,.07,.07,.04,.15,.06,.22,.09,.6,.25,1.23,.5,1.77,.76,.14,.06,.27,.13,.39,.2,.27,.15,.5,.31,.69,.47,.38,.31,.59,.62,.6,.9,0,.05,0,.09,0,.14-.05,.24-.25,.46-.49,.66-.03,.02-.06,.05-.09,.06-.1,.07-.2,.14-.31,.2-.08,.05-.18,.1-.27,.15-.25,.13-.52,.26-.8,.39Z"/><path class="cls-1" d="M145.24,130.73c-.13-.85-.95-1.66-2.31-2.3-.03-.02-.06-.03-.09-.05-.18-.08-.36-.16-.55-.24-.26-.11-.53-.21-.8-.32-.22-.08-.44-.17-.65-.25-.08-.04-.18-.06-.26-.1-.23-.09-.47-.19-.71-.28-.27-.1-.52-.21-.76-.32-.86-.38-1.6-.79-1.95-1.27-.16-.21-.24-.45-.25-.71,0-.06,0-.13,0-.19,0-.25,.06-.52,.14-.8,.03-.14,.07-.28,.11-.42,.11-.4,.22-.81,.26-1.22,.02-.15,.02-.29,0-.43,0-.39-.07-.77-.22-1.14-.02-.06-.04-.11-.06-.17-.07-.16-.15-.32-.25-.47-.07-.14-.17-.28-.27-.41-.07-.1-.15-.19-.23-.29l-.02-.02c-.22-.26-.48-.51-.78-.74-.24-.21-.5-.4-.79-.59-.13-.08-.27-.17-.42-.25-.06-.04-.12-.07-.19-.11-.55-.32-1.16-.6-1.84-.86,0,0-.02,0-.02,0-.22-.08-.45-.17-.68-.25-.06-.02-.12-.04-.19-.06-.32-.11-.67-.21-1.02-.32-.27-.07-.55-.16-.83-.23-.48-.13-.97-.26-1.47-.37-.45-.11-.9-.21-1.35-.32-.5-.11-.99-.21-1.47-.32-.9-.19-1.92-.39-3.11-.43-.8,0-1.63,.05-2.45,.1-.33,.03-.66,.06-.99,.07-1.41,.08-2.83,.07-4.24-.04-1.3-.08-2.58-.26-3.86-.51-.62-.12-1.24-.26-1.86-.42-1.46-.38-2.79-.83-4.08-1.27-.81-.28-1.61-.55-2.45-.81-.36-.11-.72-.22-1.09-.32-.93-.26-1.96-.5-3.23-.58-1.27-.06-2.76,.03-4.34,.28-.71,.11-1.41,.25-2.12,.44-.68,.16-1.35,.35-2.03,.58-1.42,.47-2.85,1.07-4.31,1.79-.32,.16-.62,.32-.9,.47-.32,.17-.6,.34-.87,.51-.49,.31-.91,.61-1.26,.93-.04,.03-.06,.06-.1,.08-.46,.42-.82,.83-1.13,1.24-.08,.1-.17,.2-.24,.31-.08,.1-.16,.2-.24,.32-.25,.32-.5,.63-.83,.95,0,0,0,.02-.02,.03-.02,.02-.04,.04-.06,.06-.89,.84-2.26,1.68-3.97,2.41-.71,.31-1.46,.59-2.26,.85-.16,.06-.32,.1-.47,.15-.52,.17-1.06,.32-1.6,.47-.93,.25-1.87,.49-2.81,.73-1.14,.3-2.28,.58-3.39,.9-.32,.09-.64,.19-.97,.3-.33,.1-.68,.22-1.01,.34-1.87,.67-3.68,1.57-4.24,2.63-.24,.45-.25,.86-.1,1.23,.08,.24,.24,.47,.43,.69,.24,.27,.54,.51,.86,.73,.26,.19,.54,.35,.8,.5,.23,.13,.46,.25,.67,.36,.04,.02,.07,.05,.12,.06,.24,.13,.49,.27,.75,.4,.05,.03,.1,.06,.16,.08,.19,.1,.4,.2,.6,.3,1.31,.64,2.82,1.24,4.77,1.62,.34,.06,.7,.13,1.06,.19,1.02,.18,2.09,.36,2.69,.69,.27,.15,.43,.31,.46,.47,.08,.43-.48,1.14-.98,1.77-.45,.57-.92,1.14-1.12,1.73-.13,.34-.17,.7-.06,1.05,.05,.16,.12,.3,.21,.44,.33,.48,.95,.89,1.74,1.31,.52,.29,1.08,.56,1.66,.82,4.4,1.94,10.03,2.94,15.9,3.89,1.72,.26,2.68,.83,3.7,1.42,.41,.23,.82,.47,1.27,.7,2.21,1.07,5.19,1.6,8.59,1.56,.15,0,.3,0,.45,0,1.36,0,2.72-.2,3.65-.4,1.26-.25,2.5-.58,3.8-1,.71-.23,1.4-.45,2.06-.66,1.7-.54,3.16-1,4.42-1.54,.78-.33,1.45-.7,2.16-1.09,.78-.42,1.58-.85,2.59-1.29,2.05-.88,4.78-1.42,7.42-1.93,3.39-.67,6.59-1.29,8.47-2.61,1.2-.83,1.47-1.73,1.71-2.53,.25-.82,.46-1.52,1.63-2.21,.35-.21,.77-.41,1.18-.6,.44-.2,.88-.42,1.26-.64,.48-.29,.84-.59,1.09-.92,.13-.17,.22-.34,.29-.52,0-.03,.02-.06,.02-.09,.06-.18,.08-.35,.07-.54,0-.06,0-.12-.03-.18Zm-.89,.49c-.05,.16-.15,.31-.27,.44-.2,.22-.48,.41-.73,.56-.34,.21-.78,.42-1.19,.61-.43,.2-.87,.41-1.25,.63-1.47,.86-1.76,1.85-2.02,2.71-.23,.76-.43,1.41-1.37,2.07-1.73,1.22-4.84,1.82-8.14,2.47-2.69,.52-5.46,1.07-7.6,1.99-1.05,.45-1.87,.9-2.66,1.33-.7,.37-1.35,.73-2.1,1.05-1.21,.52-2.65,.98-4.32,1.5-.67,.21-1.36,.44-2.08,.67-1.26,.42-2.47,.73-3.69,.98-1.42,.28-2.76,.41-3.91,.37h-.02c-4.13,.05-6.75-.78-8.21-1.48-.44-.21-.82-.44-1.21-.67-1.05-.61-2.13-1.23-4.01-1.53-5.82-.93-11.38-1.92-15.69-3.82-.57-.25-1.1-.51-1.6-.78-.41-.22-1.37-.74-1.52-1.22-.16-.51,.46-1.3,1.02-1.99,.65-.83,1.33-1.67,1.16-2.5-.09-.44-.4-.79-.91-1.07-.73-.4-1.86-.59-2.96-.78-.35-.06-.71-.12-1.04-.19-1.5-.29-2.74-.73-3.82-1.22-.2-.08-.4-.18-.59-.28-.02,0-.03,0-.05-.02-.27-.12-.52-.25-.77-.38-.27-.14-.53-.28-.78-.41-.05-.03-.1-.06-.15-.08-.26-.14-.5-.27-.71-.4-.46-.27-.84-.51-1.12-.76-.26-.22-.44-.45-.5-.66-.06-.18-.04-.34,.06-.51,.39-.73,1.88-1.57,4.17-2.35,.37-.13,.77-.26,1.19-.38,.11-.04,.23-.06,.34-.1,1.09-.32,2.22-.6,3.36-.89,1.28-.32,2.6-.66,3.86-1.05,.36-.1,.71-.21,1.07-.32,.12-.04,.25-.08,.37-.12,.1-.04,.2-.07,.32-.11,.23-.08,.46-.17,.69-.26,.38-.14,.75-.3,1.1-.45,.49-.22,.95-.44,1.38-.67,.24-.13,.47-.26,.7-.39,0,0,.02,0,.03-.02,.43-.25,.82-.5,1.17-.76,0,0,.02,0,.03-.02,.32-.24,.6-.48,.85-.73l.25-.25c.11-.12,.22-.25,.32-.37,.04-.05,.07-.09,.11-.14,.08-.09,.16-.19,.23-.29,.03-.03,.06-.06,.08-.1,.06-.07,.12-.16,.18-.23,.02-.02,.04-.05,.05-.06,.28-.35,.54-.68,.84-1.01h0c.09-.1,.19-.19,.29-.29,.02-.03,.05-.05,.07-.07,.27-.23,.58-.47,.93-.71,.55-.38,1.22-.75,2.01-1.15,1.74-.87,3.44-1.54,5.13-2.03,.76-.22,1.53-.41,2.3-.56,.26-.05,.52-.09,.78-.14,1.51-.24,2.95-.33,4.15-.27,1.2,.07,2.17,.31,3.04,.55,.36,.1,.72,.21,1.08,.32,.83,.26,1.63,.53,2.43,.8,1.23,.42,2.51,.85,3.91,1.22,.07,.03,.16,.05,.23,.06,1.23,.32,2.47,.57,3.71,.74,2.17,.3,4.35,.39,6.52,.25,.33-.02,.67-.05,1-.06,.79-.06,1.6-.12,2.36-.1,1.11,.03,2.1,.23,2.96,.41,.42,.08,.85,.18,1.29,.28,.41,.08,.83,.19,1.24,.28,.85,.2,1.71,.43,2.52,.67,.35,.1,.7,.21,1.02,.32,.05,0,.08,.03,.12,.04,.37,.13,.73,.27,1.07,.42,.3,.12,.58,.25,.84,.38,.03,.02,.06,.03,.07,.05,.06,.02,.11,.05,.17,.08,.07,.04,.14,.07,.2,.11,.22,.12,.44,.25,.63,.38,.04,.03,.08,.06,.12,.08,.11,.07,.21,.15,.32,.22,.06,.05,.11,.08,.17,.13,.25,.2,.47,.41,.66,.62,.03,.02,.05,.05,.06,.06,.09,.09,.17,.19,.23,.28,.2,.27,.35,.54,.45,.82h0c.15,.39,.2,.79,.17,1.19,0,.08-.02,.16-.04,.24-.04,.27-.12,.56-.19,.84-.03,.1-.06,.21-.08,.32-.04,.12-.06,.24-.09,.36-.04,.2-.07,.41-.08,.61-.03,.21-.03,.43,0,.64,.05,.32,.17,.64,.39,.95,.53,.71,1.52,1.23,2.69,1.72,.27,.12,.56,.23,.85,.34,.06,.02,.11,.05,.18,.07,.11,.04,.23,.08,.35,.13,.17,.06,.33,.13,.5,.19h0s0,0,0,0c.39,.16,.78,.32,1.15,.48,.09,.04,.19,.07,.28,.12,.15,.06,.3,.14,.43,.21,.55,.29,.96,.61,1.22,.92,.18,.21,.28,.43,.29,.63,0,.03,0,.06,0,.09,0,.06,0,.13-.04,.19Z"/><path class="cls-1" d="M149,133.56c0-.07-.03-.15-.06-.22-.07-.23-.2-.45-.39-.67-.05-.06-.1-.12-.16-.19-.45-.47-1.11-.91-1.98-1.29-.04-.02-.06-.03-.1-.05-.28-.12-.58-.23-.87-.35-.06-.02-.13-.05-.19-.07-.33-.12-.67-.25-1-.37-.05-.02-.08-.03-.13-.05-.34-.13-.69-.25-1.02-.39-.3-.11-.58-.22-.85-.34-.56-.23-1.05-.49-1.45-.77-.25-.17-.45-.35-.61-.55t0-.02s-.06-.07-.07-.12c-.19-.29-.24-.6-.21-.94,0-.24,.05-.49,.11-.76,.05-.19,.09-.38,.15-.58,.05-.15,.08-.3,.12-.45,.07-.29,.14-.58,.17-.87,.11-1.1-.29-2.15-1.13-3.1-.33-.39-.75-.76-1.24-1.1-.19-.15-.41-.29-.63-.42-.31-.19-.64-.37-1-.54-.02-.02-.03-.02-.05-.03-.58-.28-1.21-.54-1.9-.77,0,0-.03,0-.04-.02-.09-.03-.19-.06-.29-.09-.06-.02-.1-.04-.16-.05-.15-.05-.3-.09-.45-.14-.05-.02-.09-.03-.15-.05-.03,0-.06-.02-.08-.03-.67-.19-1.37-.36-2.09-.52-.06-.03-.14-.04-.21-.06-.28-.06-.56-.12-.84-.19-.9-.19-1.81-.36-2.66-.51-.1-.02-.2-.04-.3-.06-.34-.06-.68-.12-1.01-.18-.77-.12-1.53-.2-2.37-.21-.83,0-1.76,.08-2.63,.17-.37,.03-.74,.06-1.11,.09-3.65,.29-7.31,0-10.89-.9-.12-.03-.23-.06-.34-.09-.82-.2-1.6-.44-2.36-.67-.6-.19-1.2-.38-1.78-.58-.88-.29-1.76-.58-2.67-.85-.4-.11-.8-.23-1.21-.33-1-.27-2.12-.53-3.51-.58-.61-.03-1.27-.02-1.98,.04-.86,.06-1.78,.16-2.74,.32-.12,.02-.23,.04-.35,.06h0c-2.81,.51-5.7,1.48-8.38,2.8-.13,.06-.26,.12-.38,.19-.29,.15-.57,.29-.83,.45-.12,.06-.25,.13-.36,.19h0c-.58,.35-1.09,.69-1.52,1.02-.22,.18-.44,.35-.62,.53-.04,.04-.07,.06-.1,.1-.08,.07-.16,.16-.22,.23-.25,.25-.46,.5-.65,.75,0,0,0,0-.02,.02-.03,.05-.06,.08-.09,.12-.11,.16-.22,.31-.33,.45-.19,.26-.38,.52-.58,.77l-.02,.02c-.17,.21-.35,.43-.57,.64-.25,.25-.54,.5-.85,.74-.14,.11-.29,.22-.45,.33-.18,.12-.35,.24-.55,.35-.24,.16-.5,.32-.78,.46-.19,.11-.4,.22-.61,.32-.24,.13-.5,.25-.76,.38-.27,.12-.55,.24-.83,.36-.64,.27-1.33,.53-2.04,.77-1.19,.4-2.44,.76-3.71,1.09l-1.39,.36c-.08,.02-.17,.05-.25,.06-1.22,.32-2.5,.66-3.7,1.01-.67,.19-1.38,.43-2.09,.68-.28,.1-.56,.21-.83,.32-1.76,.71-3.34,1.6-3.86,2.6-.11,.21-.18,.43-.19,.64-.02,.19,0,.39,.06,.58,0,.04,.03,.07,.05,.11,.04,.11,.1,.23,.18,.33,.1,.18,.24,.34,.41,.5,.09,.09,.19,.19,.31,.27,.15,.12,.32,.24,.5,.36,.47,.31,1.03,.6,1.6,.89,1.85,.95,3.94,2.02,7.01,2.57,.38,.06,.77,.12,1.16,.19,1.13,.17,2.31,.34,2.99,.7,.32,.18,.51,.35,.56,.57,.11,.5-.49,1.27-1.08,2.02-.31,.39-.62,.79-.86,1.19-.36,.6-.58,1.21-.39,1.8,0,.03,.02,.06,.04,.08,.27,.69,1.03,1.19,2.09,1.73,.58,.3,1.2,.58,1.84,.85,4.83,2.02,11.06,3,17.55,3.9,1.91,.26,2.99,.85,4.13,1.48,.45,.25,.91,.5,1.41,.73,2.21,1,5.09,1.53,8.39,1.53,.35,0,.71,0,1.06-.02h.06c1.27,0,2.75-.17,4.27-.46,1.35-.27,2.71-.63,4.04-1.06l.4-.13c2.52-.82,4.71-1.52,6.46-2.36,.75-.35,1.4-.73,2.09-1.13,.86-.5,1.75-1.02,2.9-1.52,2.23-.98,5.22-1.59,8.13-2.17,3.68-.74,7.17-1.44,9.19-2.87,1.28-.9,1.56-1.87,1.81-2.74,.27-.9,.5-1.69,1.81-2.47,.39-.22,.85-.45,1.31-.66,.47-.23,.96-.46,1.37-.71,1.09-.65,1.62-1.38,1.57-2.19,0-.08-.02-.18-.05-.26Zm-1.92,1.78c-.38,.23-.85,.45-1.31,.68-.47,.21-.96,.45-1.36,.7-1.59,.94-1.89,1.99-2.16,2.92-.24,.81-.46,1.57-1.51,2.31-1.89,1.34-5.3,2.01-8.91,2.74-2.94,.59-5.98,1.21-8.28,2.23-1.2,.52-2.11,1.05-2.99,1.56-.67,.39-1.3,.76-2.02,1.1-1.7,.82-3.86,1.51-6.36,2.32l-.39,.12c-1.32,.43-2.65,.78-3.96,1.04-1.49,.3-2.94,.45-4.17,.45h-.02c-4.56,.16-7.47-.7-9.1-1.44-.48-.22-.92-.46-1.35-.71-1.16-.63-2.35-1.3-4.4-1.58-6.44-.89-12.62-1.86-17.36-3.84-.62-.26-1.22-.54-1.78-.83-.77-.39-1.58-.86-1.74-1.36-.19-.58,.48-1.44,1.12-2.26,.46-.58,.92-1.16,1.12-1.72,.13-.32,.18-.64,.1-.96-.04-.19-.12-.37-.26-.53-.16-.21-.4-.4-.7-.57-.79-.41-2.02-.59-3.22-.78-.39-.06-.77-.11-1.14-.18-2.96-.53-5-1.58-6.8-2.5-.27-.14-.6-.31-.94-.5-.19-.1-.38-.22-.57-.34-.13-.08-.25-.17-.36-.25-.19-.15-.37-.31-.51-.46-.11-.13-.2-.27-.25-.4,0-.02,0-.03-.02-.05-.06-.2-.04-.4,.07-.62,.02-.04,.05-.08,.08-.12,.44-.68,1.67-1.43,3.52-2.15,.28-.12,.58-.23,.9-.34,.57-.19,1.17-.4,1.81-.58,1.2-.35,2.46-.69,3.68-1,.35-.09,.71-.19,1.07-.28,.47-.13,.96-.25,1.43-.39,.99-.27,1.97-.56,2.9-.87,.35-.12,.7-.24,1.04-.37,.27-.1,.54-.21,.81-.32,.4-.16,.79-.32,1.16-.5,.34-.16,.67-.32,.97-.49,0,0,.02,0,.02,0,.06-.02,.11-.06,.17-.08,.13-.06,.26-.14,.39-.21,.45-.26,.88-.53,1.26-.79,.08-.06,.17-.13,.24-.19,.42-.31,.79-.63,1.1-.95,.51-.52,.89-1.02,1.25-1.52,.16-.21,.31-.42,.46-.62,.06-.08,.13-.16,.19-.24,.16-.19,.32-.36,.5-.55l.17-.17c.17-.16,.34-.31,.55-.46,.06-.05,.12-.09,.18-.13,.06-.06,.13-.1,.2-.15,0,0,0-.02,.02-.02,.46-.32,1-.66,1.61-.99,.02,0,.05-.02,.06-.03,.09-.06,.19-.11,.3-.16,.07-.04,.16-.08,.23-.12,.26-.13,.52-.26,.79-.38,2.62-1.25,5.4-2.14,8.11-2.6,.35-.06,.7-.11,1.04-.16h.02c1.02-.13,1.99-.2,2.85-.2,.11,0,.22,0,.33,0,.1,0,.2,0,.31,0,1.31,.06,2.38,.31,3.35,.56,.4,.11,.79,.22,1.18,.33,.9,.27,1.78,.56,2.65,.84,.26,.08,.53,.18,.8,.26,.71,.22,1.43,.45,2.18,.67,.5,.15,1.02,.3,1.55,.43,3.66,.91,7.41,1.22,11.15,.92,.37-.03,.74-.06,1.12-.09,.85-.08,1.76-.18,2.56-.16,.57,0,1.1,.05,1.6,.1,.6,.07,1.16,.18,1.64,.27,.1,.02,.2,.04,.32,.06,.62,.11,1.26,.23,1.92,.36,.3,.06,.59,.12,.9,.19,.2,.05,.42,.09,.63,.14,.26,.06,.53,.12,.79,.19,.08,0,.16,.03,.24,.06,.3,.07,.59,.15,.88,.23,.27,.06,.53,.15,.79,.23,.13,.03,.25,.07,.38,.11,.06,.02,.11,.04,.16,.06,.14,.05,.28,.08,.41,.14,.35,.12,.69,.25,1,.39,.07,.03,.14,.06,.21,.09,.37,.16,.72,.33,1.04,.51,.17,.1,.33,.19,.48,.3,1.72,1.08,2.58,2.37,2.44,3.76-.02,.18-.05,.35-.09,.53-.05,.21-.1,.44-.17,.67-.03,.1-.06,.2-.08,.31-.08,.3-.15,.61-.19,.92-.05,.32-.05,.66,.03,.97,.05,.24,.14,.47,.28,.7,.04,.06,.07,.12,.12,.18,.15,.2,.33,.39,.56,.57,.66,.53,1.6,.95,2.64,1.35,.4,.15,.82,.31,1.23,.45,.12,.05,.25,.09,.37,.13,.28,.11,.56,.21,.83,.32,.32,.12,.63,.25,.92,.38,.1,.05,.2,.09,.3,.14,.44,.2,.8,.44,1.09,.68,.2,.15,.37,.31,.49,.47,.18,.22,.28,.45,.29,.67,.04,.61-.62,1.14-1.19,1.48Z"/><path class="cls-1" d="M151.95,134.37c-.47-.41-1.12-.8-1.92-1.13-.46-.19-.97-.39-1.48-.57-.29-.1-.58-.2-.85-.3-.54-.19-1.09-.38-1.6-.58-.32-.12-.62-.24-.9-.36-.29-.13-.56-.26-.81-.41-.51-.27-.92-.57-1.17-.91-.06-.06-.09-.13-.13-.2-.1-.17-.16-.34-.19-.53-.05-.31-.03-.63,.04-.96,.06-.32,.14-.64,.23-.97,.12-.46,.25-.95,.3-1.43,.19-2.12-1.32-4.02-4.23-5.4-.55-.26-1.16-.5-1.81-.72-.25-.09-.51-.17-.77-.25,0,0-.02,0-.03,0-.53-.16-1.09-.31-1.65-.45-.16-.03-.32-.06-.48-.1-.08-.02-.17-.04-.26-.06-.23-.06-.47-.11-.71-.15-.09-.03-.19-.05-.29-.06-.11-.03-.22-.05-.33-.06-.45-.09-.89-.17-1.35-.25-.24-.05-.48-.08-.72-.13-.2-.03-.42-.06-.62-.09-.38-.06-.76-.13-1.14-.19-.07,0-.15-.03-.22-.04-.65-.1-1.29-.19-1.94-.24-.12,0-.24-.02-.37-.03-.36-.03-.74-.04-1.13-.03-.33,0-.67,.03-1,.06-.61,.04-1.22,.11-1.84,.18-.4,.05-.81,.08-1.22,.12-3.96,.38-7.94,.11-11.84-.8-1.03-.25-2.02-.53-2.97-.82-.65-.19-1.29-.4-1.91-.59-.15-.05-.31-.09-.45-.14-.81-.25-1.61-.5-2.44-.74-.43-.12-.86-.24-1.31-.35-.78-.19-1.61-.39-2.58-.49-.38-.05-.78-.08-1.21-.09-.49-.02-1.02,0-1.58,.02-1.08,.06-2.26,.2-3.51,.43-2.66,.47-4.97,1.22-6.85,1.98-.3,.11-.58,.23-.85,.34-.19,.08-.38,.17-.56,.25-.02,0-.05,.02-.06,.03-.54,.25-1.03,.49-1.47,.71-.18,.09-.35,.19-.52,.28-.04,.02-.08,.05-.12,.06-.35,.19-.69,.4-.99,.59-.21,.14-.42,.28-.61,.42-.06,.03-.11,.06-.16,.11-.11,.07-.21,.16-.32,.23-.3,.23-.57,.46-.81,.7-.32,.31-.58,.61-.81,.92-.11,.14-.22,.28-.32,.43,0,0,0,.02-.02,.02-.1,.15-.21,.31-.32,.45-.03,.04-.06,.07-.08,.11-.19,.27-.37,.52-.58,.78-.18,.23-.36,.45-.58,.69-.07,.07-.15,.15-.23,.23-.03,.02-.06,.05-.08,.07-.09,.08-.19,.17-.29,.26,0,0,0,0-.02,0-.43,.37-.94,.73-1.5,1.09,0,0-.02,0-.03,.02-.35,.22-.73,.44-1.13,.65-.36,.2-.75,.4-1.15,.58-.55,.26-1.13,.51-1.73,.75-.41,.16-.83,.32-1.26,.46-.04,0-.07,.03-.12,.04-1.79,.62-3.76,1.15-5.66,1.66-.38,.1-.77,.2-1.16,.32-.38,.1-.77,.21-1.16,.32-.58,.17-1.17,.33-1.74,.51-.75,.23-1.68,.54-2.63,.91-.32,.12-.64,.25-.96,.4-1.59,.69-3.07,1.54-3.64,2.5-.03,.04-.06,.08-.07,.12-.11,.21-.18,.44-.19,.65,0,.03,0,.06,0,.09,0,.17,.02,.33,.07,.5,0,0,0,.02,0,.03,.34,1.06,1.75,1.82,3.28,2.58,2.01,.99,4.3,2.12,7.63,2.64,.42,.06,.84,.13,1.27,.19,1.23,.17,2.51,.33,3.27,.71,.39,.19,.6,.4,.66,.65,.14,.58-.53,1.44-1.17,2.27-.23,.31-.46,.61-.68,.92h0c-.4,.59-.71,1.18-.71,1.74,0,.18,.03,.35,.08,.53,.26,.76,1.1,1.31,2.3,1.89,.61,.31,1.29,.6,2,.88,5.27,2.09,12.09,3.02,19.2,3.87,2.1,.24,3.29,.87,4.55,1.53,.49,.26,1,.53,1.56,.77,2.26,.97,5.18,1.48,8.5,1.48,.58,0,1.19-.02,1.8-.06,1.38-.03,2.95-.22,4.55-.55,1.43-.29,2.88-.66,4.3-1.11,2.55-.81,5.2-1.71,7.22-2.76,.73-.39,1.36-.78,2.03-1.2,.94-.58,1.91-1.19,3.18-1.76,2.41-1.09,5.67-1.76,8.82-2.41,3.71-.78,7.23-1.5,9.44-2.85,.02,0,.04-.03,.06-.04,.15-.09,.29-.19,.43-.28,.08-.06,.17-.12,.24-.19,0,0,.03-.02,.04-.03,1.13-.9,1.39-1.86,1.63-2.71,.27-.96,.53-1.86,1.98-2.74,.43-.26,.94-.5,1.43-.74,.51-.24,1.05-.5,1.49-.77,1.16-.7,1.71-1.48,1.65-2.32-.04-.56-.36-1.1-.93-1.6Zm-1.08,3.33c-.43,.25-.94,.5-1.44,.74-.51,.24-1.03,.49-1.48,.76-1.69,1.02-1.99,2.1-2.28,3.15-.25,.88-.48,1.73-1.65,2.55-2.05,1.47-5.75,2.24-9.67,3.04-3.19,.67-6.48,1.35-8.96,2.47-1.32,.59-2.31,1.21-3.27,1.8-.66,.41-1.28,.8-1.99,1.17-1.98,1.03-4.58,1.92-7.12,2.73-1.39,.45-2.81,.81-4.21,1.09-1.57,.32-3.11,.5-4.44,.54h0c-5.02,.26-8.21-.61-10-1.38-.54-.23-1.03-.49-1.51-.74-1.26-.67-2.57-1.35-4.79-1.61-7.07-.83-13.84-1.76-19.04-3.81-.7-.28-1.35-.57-1.96-.86-.85-.42-1.75-.93-1.95-1.49-.23-.68,.5-1.63,1.21-2.56,.32-.41,.62-.81,.86-1.2,.34-.58,.55-1.12,.43-1.65-.02-.08-.05-.16-.07-.23-.16-.35-.47-.64-.95-.88-.85-.42-2.19-.6-3.48-.77-.43-.06-.84-.12-1.25-.19-3.24-.51-5.47-1.61-7.44-2.59-1.29-.63-2.68-1.37-2.94-2.18,0,0,0-.02,0-.03-.06-.17-.05-.34,0-.53,.02-.06,.05-.12,.07-.18,0-.02,.02-.03,.03-.05,.19-.34,.57-.71,1.11-1.08,.54-.37,1.24-.75,2.08-1.12,.23-.1,.46-.2,.71-.3,.87-.35,1.87-.71,2.98-1.04,.76-.23,1.55-.45,2.34-.67,.41-.12,.83-.22,1.22-.33,.16-.05,.32-.08,.47-.13,1.96-.53,3.98-1.07,5.83-1.72,.22-.07,.44-.16,.65-.23,.11-.04,.22-.08,.32-.12,.2-.07,.4-.15,.58-.23,.18-.06,.34-.14,.51-.21,.19-.07,.36-.15,.54-.23,.91-.41,1.74-.84,2.5-1.29,1.06-.64,1.94-1.31,2.6-1.99,.02-.02,.04-.05,.06-.06h0c.28-.3,.52-.6,.75-.9,.05-.07,.1-.14,.15-.21,.12-.17,.23-.32,.34-.48,.42-.59,.82-1.15,1.39-1.72,.31-.3,.67-.59,1.09-.89,.16-.12,.32-.24,.5-.35,.14-.09,.28-.18,.43-.27,.28-.17,.57-.34,.88-.51,.15-.08,.31-.17,.46-.25,.54-.28,1.18-.58,1.89-.91,.46-.19,.96-.41,1.48-.6,.48-.19,1-.37,1.55-.55,1.39-.46,2.96-.88,4.67-1.19,1.63-.3,3.15-.45,4.45-.45,.09,0,.19,0,.28,0,.07,0,.14,0,.2,0,.13,0,.26,0,.39,.02,.05,0,.08,0,.13,0,.34,.02,.67,.06,.98,.1,.16,.03,.31,.06,.46,.07,.32,.05,.62,.11,.92,.18,.26,.06,.51,.12,.76,.19,.09,.02,.18,.05,.26,.06,.35,.09,.69,.19,1.02,.28,.06,.02,.11,.03,.17,.05,.44,.13,.86,.26,1.29,.39,.47,.15,.95,.3,1.42,.45,.32,.1,.65,.2,.97,.31,1.26,.39,2.56,.78,3.97,1.11,3.31,.78,6.71,1.09,10.09,.96,.16,0,.31-.02,.46-.03,.13,0,.26-.02,.39-.02,.07,0,.15,0,.22-.02,.29-.02,.58-.05,.88-.07,.41-.04,.82-.08,1.22-.13,.33-.04,.67-.07,1-.1,.6-.06,1.2-.11,1.77-.12h.03c.2,0,.41,0,.6,.02,1.01,.03,1.93,.16,2.92,.31,.54,.08,1.08,.17,1.62,.26,.19,.03,.36,.06,.55,.09,.28,.05,.55,.09,.83,.15,.43,.07,.85,.16,1.27,.24,.08,.02,.16,.03,.23,.05,.08,.02,.16,.04,.24,.05,.24,.06,.47,.11,.71,.17,.52,.11,1.03,.24,1.51,.38,.18,.05,.35,.09,.53,.15,.09,.03,.19,.06,.28,.08,.15,.05,.28,.09,.42,.13,.8,.28,1.51,.58,2.15,.9,2.4,1.22,3.65,2.8,3.48,4.54-.04,.43-.15,.86-.28,1.32-.07,.28-.15,.57-.2,.86-.06,.31-.11,.61-.1,.92,0,.18,.02,.35,.05,.52,.06,.33,.2,.66,.44,.96,.03,.03,.05,.06,.07,.09,.32,.39,.78,.72,1.34,1.02,.25,.14,.52,.27,.81,.4,.78,.34,1.66,.65,2.58,.96,.17,.06,.34,.12,.51,.19,.34,.12,.69,.24,1.02,.36,.26,.1,.52,.2,.77,.31,1.47,.61,2.37,1.42,2.42,2.14,.06,.71-.69,1.31-1.32,1.69Z"/><path class="cls-1" d="M155.87,135.66c-.51-.47-1.25-.92-2.19-1.29-.79-.32-1.66-.6-2.51-.88-.96-.31-1.94-.64-2.78-1-.91-.38-1.66-.82-2.08-1.34,0,0-.02-.02-.03-.03-.65-.83-.38-1.86-.09-2.96,.13-.5,.26-1.02,.31-1.52,.26-2.88-2.43-5.31-7.37-6.66-.85-.23-1.76-.45-2.71-.62,0,0-.02,0-.03,0-.52-.1-1.05-.19-1.59-.29-.1,0-.2-.03-.31-.05-.08,0-.16-.03-.24-.04-.25-.04-.49-.07-.74-.11-.09-.02-.19-.03-.29-.05-.11-.02-.23-.04-.35-.05-.34-.06-.68-.1-1.02-.15-.06,0-.14-.02-.2-.03-.25-.03-.5-.06-.74-.09-.21-.03-.44-.06-.67-.09-.95-.11-2.06-.22-3.28-.18h-.05c-.19,0-.38,.02-.57,.04-.8,.06-1.61,.16-2.42,.26-.09,0-.19,.03-.29,.04-.34,.05-.68,.08-1.02,.13-.7,.08-1.39,.14-2.09,.18-.07,0-.15,0-.22,.02-.13,0-.26,0-.39,.02-.13,0-.26,0-.39,0-3.27,.11-6.51-.19-9.69-.89-1.55-.35-3-.76-4.39-1.18-.31-.09-.6-.18-.9-.27-.51-.16-1.03-.32-1.55-.46-.48-.14-.97-.28-1.47-.42-.04,0-.07-.02-.11-.03-.46-.13-.93-.25-1.41-.36-.08-.02-.16-.04-.24-.06-.8-.19-1.66-.36-2.63-.45-.05,0-.08,0-.13,0-.13,0-.26-.02-.39-.02-.07,0-.15-.02-.23-.02-.15,0-.3-.02-.45-.02-1.54-.03-3.38,.16-5.45,.56-1.83,.35-3.66,.83-5.41,1.45-.51,.17-1.01,.35-1.5,.55-.67,.26-1.33,.54-1.96,.83,0,0,0,0-.02,.02-.08,.03-.16,.06-.24,.1-.16,.07-.31,.15-.46,.23-.23,.11-.46,.22-.69,.34-.06,.03-.11,.06-.16,.08-.18,.09-.35,.19-.53,.3-.12,.06-.24,.13-.36,.2,0,0,0,0-.02,.02-.06,.02-.11,.05-.17,.09-.02,0-.04,0-.06,.03-1.07,.65-1.92,1.3-2.58,1.96-.1,.11-.2,.21-.29,.32-.3,.32-.54,.63-.75,.95-.14,.19-.26,.37-.38,.55-.03,.05-.06,.09-.09,.14-.06,.09-.12,.18-.18,.26-.22,.33-.45,.66-.71,.98-.13,.16-.27,.32-.42,.48-.04,.04-.07,.07-.11,.12,0,0-.02,0-.03,.02-.51,.52-1.14,1.04-1.89,1.54-.36,.25-.76,.49-1.18,.73-.13,.08-.28,.17-.43,.24-.25,.14-.5,.27-.77,.41-.08,.04-.17,.08-.25,.12-1.01,.5-2.13,.97-3.31,1.4-.88,.32-1.81,.62-2.75,.91-.4,.12-.81,.24-1.22,.35-.76,.22-1.53,.44-2.29,.65-1.18,.33-2.38,.67-3.56,1.03-.27,.07-.53,.16-.79,.23t-.02,0c-.65,.2-1.42,.46-2.24,.78-.55,.2-1.11,.44-1.67,.69-1.37,.61-2.66,1.35-3.42,2.13h0c-.21,.23-.38,.46-.5,.7-.02,.05-.04,.08-.06,.13-.07,.18-.13,.35-.14,.53-.02,.21,0,.44,.08,.65,.38,1.1,1.96,1.93,3.55,2.68,.06,.03,.13,.06,.19,.09,2.13,1,4.57,2.12,8.07,2.62,.44,.06,.9,.11,1.36,.17,1.35,.16,2.74,.32,3.56,.71,.44,.21,.69,.45,.76,.74,.16,.66-.56,1.61-1.24,2.54-.25,.32-.5,.66-.71,.99-.06,.09-.12,.19-.18,.28-.19,.3-.34,.6-.44,.89,0,0,0,0,0,.02-.15,.42-.19,.83-.05,1.22,.29,.79,1.2,1.35,2.48,1.95,.69,.32,1.42,.63,2.18,.91,5.31,1.98,12.06,2.87,19.17,3.58,.57,.06,1.13,.12,1.7,.18,1.02,.1,1.85,.29,2.58,.52,.9,.3,1.64,.67,2.41,1.05,.54,.27,1.09,.55,1.71,.79,2.3,.94,5.21,1.42,8.53,1.42,.85,0,1.73-.03,2.63-.09,1.48-.08,3.09-.3,4.78-.65,1.54-.32,3.06-.71,4.54-1.18,3.29-1.05,5.77-2.06,7.57-3.08,.71-.41,1.37-.84,1.99-1.26,.08-.06,.16-.1,.24-.16,.94-.62,1.92-1.25,3.2-1.85,1.75-.82,3.94-1.43,6.24-1.97,1.08-.26,2.17-.49,3.27-.73,4.29-.94,8.33-1.81,10.64-3.49,1.44-1.04,1.73-2.11,2-3.13,.28-1.05,.55-2.04,2.13-3.02,.45-.28,1.01-.55,1.54-.81,.56-.27,1.13-.55,1.6-.84,1.22-.75,1.81-1.58,1.73-2.45-.05-.54-.34-1.05-.86-1.53Zm-1.18,3.48c-.45,.28-1.01,.56-1.56,.82-.54,.27-1.1,.55-1.59,.83-1.79,1.09-2.1,2.25-2.4,3.36-.26,.97-.5,1.89-1.77,2.81-2.22,1.6-6.21,2.47-10.43,3.39-.32,.07-.65,.14-.97,.21-3.12,.68-6.26,1.42-8.66,2.52-1.43,.66-2.49,1.37-3.52,2.05-.51,.34-.99,.67-1.51,.98-.15,.08-.3,.18-.45,.26-1.76,1-4.21,1.99-7.47,3.02-1.45,.46-2.95,.86-4.47,1.17-1.66,.34-3.24,.56-4.69,.64h0c-5.45,.39-8.93-.48-10.89-1.28-.59-.24-1.13-.51-1.66-.78-.18-.08-.34-.18-.52-.26-1.22-.58-2.58-1.16-4.68-1.36-2.32-.23-4.61-.46-6.84-.74-5.14-.65-9.93-1.51-13.87-2.98-.75-.28-1.47-.58-2.14-.89-.95-.45-1.95-.98-2.17-1.61-.17-.46,.06-1.04,.44-1.64,.24-.4,.55-.81,.85-1.21,.23-.32,.47-.63,.67-.94,.41-.6,.71-1.19,.71-1.73h0c0-.13-.02-.25-.05-.36-.11-.46-.47-.84-1.07-1.13-.92-.44-2.36-.6-3.76-.76-.45-.06-.91-.1-1.35-.17-3.51-.49-5.95-1.64-8.09-2.66-.7-.32-1.41-.68-2-1.06-.49-.32-.9-.66-1.11-1.02-.06-.08-.1-.17-.13-.26-.1-.27-.07-.55,.08-.84,.1-.21,.28-.44,.51-.67,.44-.42,1.08-.86,1.9-1.3,0,0,0,0,.02,0,.22-.12,.45-.24,.71-.35,.26-.13,.54-.26,.83-.38,1.01-.44,2.2-.87,3.53-1.29,.08-.03,.17-.06,.25-.07,.3-.09,.59-.19,.89-.27,1.07-.32,2.14-.63,3.21-.93,.96-.26,1.93-.54,2.89-.82,.42-.12,.83-.25,1.23-.37,.14-.05,.29-.09,.44-.15,.59-.19,1.17-.38,1.73-.58,.92-.33,1.79-.69,2.61-1.06,0,0,.03,0,.04-.02,.54-.24,1.05-.49,1.53-.75,.42-.22,.83-.45,1.21-.69,.9-.56,1.67-1.13,2.3-1.71,.19-.18,.37-.34,.53-.52,.46-.49,.82-.98,1.14-1.47,.04-.06,.08-.12,.12-.18,.02-.03,.04-.06,.06-.08,0-.03,.03-.05,.05-.07,.19-.3,.39-.59,.6-.88,.1-.13,.2-.27,.32-.4,.15-.19,.32-.39,.52-.58,.1-.1,.21-.2,.32-.32,0,0,0,0,.02-.02,.3-.26,.63-.53,1-.8l.02-.02s.02,0,.03-.02c.35-.25,.74-.51,1.17-.76,0,0,.02,0,.03-.02,.2-.12,.43-.24,.65-.37,.1-.06,.21-.12,.32-.18,0,0,.03,0,.04-.02,.12-.06,.25-.13,.37-.19,.3-.16,.59-.31,.9-.45,.82-.39,1.68-.75,2.56-1.09,.52-.2,1.06-.39,1.6-.56,1.56-.52,3.18-.95,4.81-1.25,1.9-.36,3.59-.55,5.03-.55h.3c.45,0,.86,.04,1.26,.08,1,.09,1.87,.29,2.69,.48,.47,.11,.93,.23,1.38,.35,1.05,.28,2.04,.58,3.04,.89,.02,0,.05,0,.06,.02,1.69,.5,3.43,1.03,5.33,1.46,2.42,.54,4.88,.83,7.35,.91,1.87,.06,3.76-.02,5.63-.23,.44-.06,.88-.11,1.32-.17,.26-.04,.52-.06,.78-.09,.74-.1,1.49-.18,2.21-.2,1.36-.06,2.6,.09,3.62,.24,.08,0,.16,.02,.23,.03,.1,0,.19,.03,.3,.04,.29,.04,.58,.08,.88,.12,.31,.04,.6,.08,.91,.13,.19,.02,.38,.05,.57,.07,.11,.02,.22,.04,.33,.06,.2,.03,.42,.06,.62,.1,.34,.05,.69,.11,1.03,.18,.06,0,.1,0,.16,.03,.43,.07,.85,.15,1.26,.23,.4,.08,.79,.18,1.16,.27,.32,.07,.62,.15,.92,.23,.09,.03,.18,.05,.26,.07,4.47,1.29,6.9,3.45,6.68,5.97-.05,.45-.17,.96-.3,1.43-.24,.94-.49,1.9-.18,2.78,.07,.23,.19,.46,.37,.69,.08,.11,.18,.21,.29,.32,.09,.09,.19,.18,.3,.25,.32,.25,.68,.47,1.09,.68,.45,.22,.93,.42,1.45,.61,.65,.24,1.35,.47,2.05,.71,.32,.1,.65,.21,.96,.32,.52,.18,1.04,.36,1.51,.55,.85,.33,1.53,.74,1.99,1.16,.42,.38,.66,.78,.7,1.16,.06,.79-.75,1.47-1.46,1.9Z"/><path class="cls-1" d="M94.54,162.74c-.65-.24-1.24-.52-1.82-.79-1.49-.69-3.04-1.4-5.62-1.59-5.62-.4-11.09-.84-15.92-1.74,.82,.32,1.65,.62,2.49,.91,4.18,.63,8.74,.99,13.4,1.33,2.5,.18,3.92,.84,5.45,1.54,.58,.28,1.2,.56,1.86,.8,.71,.27,1.48,.5,2.31,.68,1.19,.06,2.38,.08,3.59,.08,.26,0,.51,0,.77,0-2.97-.14-5.08-.68-6.49-1.21Zm45.15-11.21c-3.66,.86-7.46,1.76-10.25,3.12-1.52,.74-2.64,1.55-3.73,2.33-.61,.44-1.24,.89-1.93,1.33-1.91,1.19-4.53,2.34-7.77,3.41-1.56,.51-3.14,.95-4.72,1.29-1.08,.23-2.13,.43-3.16,.57,2.08-.19,4.14-.47,6.17-.83,.62-.17,1.25-.36,1.86-.57,3.28-1.09,5.94-2.25,7.89-3.46,.71-.45,1.35-.9,1.96-1.35,1.07-.77,2.17-1.57,3.66-2.28,2.75-1.34,6.51-2.23,10.16-3.09,1.73-.42,3.44-.82,5.03-1.26,.47-.31,.95-.62,1.41-.94-1.97,.63-4.23,1.17-6.56,1.73Zm20.89-14.11c.03-.15,.04-.31,.02-.45-.12-1.09-1.3-2.13-3.27-2.87,0,0-.03,0-.04,0-.83-.31-1.77-.59-2.68-.86-2.19-.66-4.45-1.35-5.33-2.43-.73-.9-.45-2.04-.17-3.24,.13-.54,.26-1.09,.31-1.63,.21-3.07-2.69-5.57-7.99-6.86-1.99-.49-4.3-.82-6.62-1.08-.12,0-.24-.02-.36-.04-.04,0-.07,0-.11,0-.37-.05-.74-.08-1.11-.12-.04,0-.06,0-.1,0-.19-.02-.36-.04-.55-.06-.04,0-.07,0-.12,0-.38-.05-.8-.08-1.23-.12-.07,0-.14,0-.21-.02-.28-.02-.56-.03-.85-.04-.58-.02-1.19-.02-1.82,.02-.32,.02-.63,.06-.96,.09-.13,0-.26,.03-.39,.05-.15,.02-.31,.04-.45,.06-.47,.06-.95,.14-1.41,.21-.47,.07-.96,.15-1.43,.21s-.96,.13-1.44,.18h-.04c-4.09,.43-8.21,.24-12.25-.56-1.52-.31-2.94-.67-4.31-1.05-.47-.13-.94-.25-1.39-.38-.73-.2-1.48-.42-2.25-.62-.03,0-.06-.02-.09-.02-.33-.09-.68-.19-1.02-.27-.12-.03-.25-.06-.37-.09-.3-.07-.6-.14-.92-.2,0,0-.03,0-.04-.02-.06,0-.12-.03-.19-.04-.26-.06-.53-.11-.8-.17-.16-.02-.31-.05-.46-.07-.57-.09-1.18-.17-1.83-.22-.41-.03-.83-.05-1.27-.06-1.62,0-3.57,.25-5.81,.72-1.51,.32-3.01,.73-4.44,1.2-.31,.1-.61,.2-.91,.31-.08,.03-.18,.06-.26,.09-.12,.05-.23,.08-.35,.12-.62,.23-1.22,.47-1.81,.72-.14,.06-.26,.11-.39,.18-.34,.14-.68,.29-1.01,.45-.13,.06-.25,.11-.37,.18-.05,.02-.08,.04-.12,.06-.47,.22-.94,.46-1.38,.71-1,.56-1.86,1.13-2.59,1.7-.49,.38-.91,.77-1.27,1.15-.07,.08-.15,.17-.23,.25-.04,.06-.08,.11-.12,.17-.21,.25-.4,.5-.58,.75-.21,.32-.42,.63-.61,.94,0,.02-.02,.04-.04,.06-.22,.37-.47,.76-.75,1.14-.17,.23-.35,.46-.56,.7-.1,.11-.2,.22-.32,.33-.32,.32-.68,.64-1.08,.96-.23,.19-.46,.37-.72,.56-.07,.05-.16,.1-.23,.16-.06,.05-.14,.09-.2,.14-1.35,.9-3,1.77-4.85,2.54-.13,.06-.26,.12-.39,.17-.22,.09-.45,.19-.68,.27l-.45,.17c-1.87,.7-3.91,1.32-5.89,1.91-.12,.04-.23,.07-.35,.11-.19,.06-.39,.12-.59,.18-1.36,.41-2.75,.83-4.07,1.28-.04,0-.07,.03-.11,.04-.23,.07-.47,.17-.73,.25-.22,.08-.45,.17-.7,.26,0,0-.02,0-.02,0-.78,.29-1.61,.63-2.43,1h0c-.47,.22-.93,.45-1.36,.7-1.38,.75-2.51,1.6-2.95,2.49-.16,.32-.22,.64-.19,.95,.94,.92,1.89,1.81,2.87,2.66,.34,.17,.71,.33,1.07,.49,2.37,1.04,5.06,2.23,8.91,2.66,.48,.06,.98,.1,1.48,.15,.18,.02,.36,.03,.54,.05h0c1.27,.12,2.52,.26,3.31,.61,.5,.22,.78,.49,.87,.82,.08,.3,0,.66-.18,1.04-.24,.56-.69,1.17-1.11,1.78-.53,.72-1.06,1.47-1.32,2.18,.15,.07,.29,.16,.43,.24,.23-.67,.76-1.41,1.29-2.13,.23-.32,.45-.64,.66-.95,0,0,0,0,0-.02,.2-.3,.37-.58,.49-.86,.05-.1,.09-.2,.12-.31,.14-.38,.19-.75,.09-1.1-.13-.47-.51-.85-1.14-1.13-.98-.44-2.52-.58-4.02-.71-.13,0-.25-.03-.38-.04-.36-.04-.73-.06-1.09-.1-3.78-.44-6.44-1.6-8.78-2.63-1.61-.71-3.23-1.49-3.58-2.47-.11-.31-.08-.62,.07-.96,.35-.72,1.35-1.52,2.88-2.34,.15-.08,.3-.16,.45-.23,.34-.18,.71-.35,1.09-.53,.81-.35,1.7-.71,2.69-1.07,.21-.07,.43-.15,.65-.22,.09-.04,.19-.07,.28-.1,1.44-.48,2.95-.95,4.42-1.38,.07-.03,.16-.06,.23-.07,.26-.07,.52-.16,.78-.23,2.01-.6,4.05-1.23,5.93-1.96,0,0,0,0,.02,0,.37-.15,.74-.29,1.09-.45,1.55-.64,2.94-1.35,4.14-2.09,0,0,.03,0,.04-.02,.45-.27,.88-.56,1.27-.83,.34-.24,.66-.49,.95-.73,.11-.09,.22-.19,.32-.29,.19-.18,.39-.35,.56-.53,.1-.1,.2-.21,.3-.32,.17-.19,.32-.39,.46-.58,.2-.26,.38-.52,.53-.77,.15-.2,.27-.41,.4-.61,.12-.19,.24-.38,.37-.57,.1-.17,.21-.32,.32-.49,.21-.31,.45-.6,.73-.91,.02-.02,.04-.05,.06-.06,.09-.1,.19-.19,.29-.29,.84-.83,2-1.65,3.45-2.46,.17-.09,.34-.19,.52-.27,.02-.03,.04-.04,.06-.03,.06-.05,.11-.07,.17-.09,.07-.05,.15-.08,.22-.11,.3-.17,.6-.32,.91-.45,.17-.08,.34-.17,.51-.24,.14-.06,.29-.13,.44-.19,.06-.03,.14-.06,.21-.09,.74-.32,1.52-.63,2.33-.92,.52-.19,1.05-.36,1.59-.53,.55-.18,1.1-.33,1.66-.48,.76-.21,1.53-.4,2.3-.57,2.2-.46,4.12-.71,5.71-.71h.06c.68,0,1.31,.05,1.89,.11,.83,.1,1.59,.25,2.3,.4,.51,.11,1.01,.23,1.5,.35,1.14,.29,2.26,.59,3.35,.9,.19,.06,.39,.11,.59,.17,1.63,.45,3.32,.91,5.15,1.27,2.91,.58,5.87,.83,8.83,.77,1.69-.02,3.38-.15,5.06-.38,.48-.06,.96-.14,1.44-.22,.07,0,.14-.02,.21-.04h.03c.27-.04,.55-.08,.82-.12,.22-.04,.44-.06,.66-.09h.05c.47-.06,.95-.12,1.41-.15l.47-.03c.16,0,.31,0,.45,0,.3,0,.58,0,.86,.02,.4,0,.77,.04,1.13,.06,.44,.04,.84,.07,1.22,.11,.25,.03,.5,.06,.76,.08,.05,0,.09,0,.15,0,.1,0,.21,.02,.32,.04l.25,.03c.16,0,.31,.03,.46,.05,.38,.04,.76,.08,1.14,.14,2.02,.23,3.99,.53,5.71,.96,5.04,1.23,7.81,3.54,7.62,6.35-.04,.5-.17,1.04-.3,1.55-.31,1.27-.62,2.58,.27,3.66,.97,1.21,3.21,1.88,5.57,2.59,.85,.26,1.73,.52,2.5,.81,.06,.02,.11,.04,.16,.06,1.77,.66,2.89,1.58,2.98,2.47,.07,.71-.45,1.42-1.56,2.13-.48,.32-1.09,.61-1.66,.91-.58,.3-1.19,.6-1.7,.93-1.88,1.2-2.18,2.42-2.48,3.61-.04,.14-.06,.28-.11,.42,.22-.19,.45-.37,.66-.57,.27-1.05,.62-2.04,2.2-3.04,.48-.32,1.08-.61,1.65-.91,.34-.18,.71-.35,1.04-.54l2.43-2.54Z"/></g><path class="cls-1" d="M96.95,77.93c-.69,0-1.25-.54-1.28-1.24-.02-.71,.53-1.3,1.23-1.33h.22c.7-.05,1.31,.5,1.34,1.21,.03,.71-.51,1.31-1.22,1.34h-.25s-.03,.01-.05,.01Zm-8.09-3.88c-.36,0-.71-.15-.96-.44l-.18-.21c-.45-.55-.37-1.35,.18-1.8,.55-.45,1.36-.37,1.8,.18l.12,.14c.47,.53,.41,1.34-.12,1.81-.24,.21-.54,.32-.84,.32Zm-3.39-8.68c-.19,0-.39-.04-.57-.14-.46-.23-.72-.7-.71-1.19v-.19c0-.71,.57-1.28,1.28-1.28s1.28,.57,1.28,1.28v.21c0,.2-.04,.41-.13,.59-.22,.45-.68,.71-1.15,.71Zm2.4-9.09c-.2,0-.41-.05-.6-.15-.62-.33-.86-1.11-.53-1.73l.12-.22c.34-.62,1.12-.85,1.74-.51,.62,.34,.85,1.12,.51,1.74l-.1,.19c-.23,.43-.67,.68-1.13,.68Zm5.81-7.48c-.33,0-.67-.13-.92-.39-.49-.51-.48-1.32,.02-1.81l.12-.12c.51-.49,1.35-.5,1.84,.02,.49,.51,.5,1.3-.02,1.78l-.16,.15c-.25,.24-.57,.36-.89,.36Zm6.63-6.79c-.25,0-.51-.08-.73-.23-.58-.41-.72-1.2-.31-1.78l.11-.16c.39-.59,1.18-.75,1.77-.36s.75,1.19,.36,1.77l-.15,.22c-.25,.36-.65,.55-1.05,.55Zm1.88-9.05c-.61,0-1.15-.44-1.26-1.06l-.04-.19c-.14-.69,.31-1.37,1-1.51,.7-.14,1.37,.3,1.51,1l.05,.26c.12,.7-.34,1.36-1.04,1.49-.08,.01-.15,.02-.23,.02Zm-3.29-8.9c-.49,0-.96-.28-1.17-.76l-.09-.19c-.3-.64-.02-1.4,.62-1.7,.64-.3,1.4-.02,1.7,.62l.1,.23c.29,.65,0,1.4-.64,1.69-.17,.08-.35,.11-.52,.11Zm-3.07-8.97c-.63,0-1.18-.46-1.27-1.1l-.03-.22c-.09-.7,.4-1.36,1.1-1.45,.7-.09,1.34,.39,1.43,1.09l.03,.22c.1,.7-.39,1.35-1.09,1.45-.06,0-.12,.01-.18,.01Z"/><path class="cls-1" d="M110.04,82.22c-.69,0-1.25-.54-1.28-1.24-.02-.71,.53-1.3,1.23-1.33h.22c.7-.05,1.31,.5,1.34,1.21,.03,.71-.51,1.31-1.22,1.34h-.25s-.03,.01-.05,.01Zm-8.09-3.88c-.36,0-.71-.15-.96-.44l-.18-.21c-.45-.55-.37-1.35,.18-1.8,.55-.45,1.36-.37,1.8,.18l.12,.14c.47,.53,.41,1.34-.12,1.81-.24,.21-.54,.32-.84,.32Zm-3.39-8.68c-.69,0-1.26-.55-1.28-1.25v-.26c0-.71,.57-1.28,1.28-1.28s1.28,.57,1.28,1.28v.21c0,.7-.55,1.28-1.26,1.3,0,0-.02,0-.02,0Zm2.4-9.09c-.2,0-.41-.05-.6-.15-.62-.33-.86-1.11-.53-1.73l.12-.22c.34-.62,1.12-.85,1.74-.51,.62,.34,.85,1.12,.51,1.74l-.1,.19c-.23,.43-.67,.68-1.13,.68Zm5.81-7.48c-.33,0-.67-.13-.92-.39-.49-.51-.48-1.32,.02-1.81l.13-.13c.52-.48,1.35-.48,1.83,.03,.48,.51,.49,1.29-.02,1.78,0,0-.07,.06-.07,.07l-.09,.08c-.25,.24-.57,.36-.89,.36Zm6.63-6.79c-.25,0-.51-.08-.73-.23-.58-.41-.72-1.2-.31-1.78l.11-.16c.39-.59,1.18-.75,1.77-.36,.59,.39,.75,1.19,.36,1.77l-.15,.22c-.25,.36-.65,.55-1.05,.55Zm1.88-9.04c-.61,0-1.15-.44-1.26-1.06l-.04-.19c-.14-.69,.31-1.37,1-1.51,.7-.14,1.37,.31,1.51,1l.05,.26c.12,.7-.34,1.36-1.04,1.49-.08,.01-.15,.02-.23,.02Zm-3.29-8.9c-.49,0-.96-.28-1.17-.76l-.09-.19c-.3-.64-.02-1.4,.62-1.7,.64-.3,1.4-.02,1.7,.62l.1,.23c.29,.65,0,1.4-.64,1.69-.17,.08-.35,.11-.52,.11Zm-3.07-8.97c-.63,0-1.18-.46-1.27-1.1l-.03-.22c-.09-.7,.4-1.36,1.1-1.45,.7-.09,1.34,.39,1.43,1.09l.03,.22c.1,.7-.39,1.35-1.09,1.45-.06,0-.12,.01-.18,.01Z"/><path class="cls-1" d="M111.01,77.48s-.07,0-.11,0c-.7-.06-1.23-.68-1.17-1.38v-.2c.06-.71,.67-1.25,1.37-1.2,.71,.04,1.24,.65,1.2,1.35l-.02,.26c-.05,.67-.62,1.18-1.27,1.18Zm-1.13-9.41c-.59,0-1.11-.4-1.25-1l-.05-.22c-.16-.69,.27-1.38,.96-1.53,.69-.15,1.38,.27,1.53,.96l.05,.23c.16,.69-.28,1.38-.97,1.53-.1,.02-.19,.03-.28,.03Zm-1.48-9.37s0,0-.02,0c-.71,0-1.27-.59-1.26-1.3v-.25c.02-.7,.59-1.25,1.28-1.25,.01,0,.02,0,.03,0,.71,.02,1.27,.6,1.25,1.31v.22c-.01,.7-.58,1.27-1.28,1.27Zm3.5-8.55c-.33,0-.67-.13-.92-.39-.49-.51-.48-1.32,.03-1.81l.18-.17c.51-.49,1.32-.47,1.81,.05,.49,.51,.47,1.32-.05,1.81l-.16,.15c-.25,.24-.57,.36-.89,.36Zm7.84-5.35c-.43,0-.85-.22-1.09-.61-.37-.6-.18-1.39,.42-1.76l.14-.09c.6-.38,1.41-.21,1.79,.38,.38,.6,.23,1.37-.37,1.75,0,0-.05,.03-.06,.03,0,0-.15,.09-.16,.1-.21,.13-.44,.19-.67,.19Zm7.24-6.1c-.29,0-.59-.1-.83-.3-.54-.46-.61-1.26-.15-1.8l.15-.18c.46-.54,1.26-.61,1.8-.15,.54,.46,.61,1.26,.15,1.8l-.15,.18c-.25,.3-.61,.45-.98,.45Zm4.29-8.37c-.08,0-.17,0-.25-.03-.69-.14-1.14-.82-1-1.51l.04-.21c.13-.7,.81-1.15,1.5-1.02,.69,.13,1.15,.8,1.02,1.5l-.05,.24c-.12,.61-.66,1.03-1.25,1.03Zm-1.41-9.21c-.46,0-.9-.25-1.13-.68l-.1-.17c-.35-.62-.13-1.4,.48-1.75,.62-.35,1.4-.13,1.75,.48l.13,.23c.33,.62,.1,1.4-.53,1.73-.19,.1-.4,.15-.6,.15Zm-7.25-5.64c-.07,0-.14,0-.21-.02l-.21-.03c-.7-.11-1.18-.76-1.07-1.46,.11-.7,.75-1.18,1.46-1.07l.25,.04c.7,.12,1.17,.78,1.05,1.47-.1,.63-.65,1.07-1.26,1.07Z"/></g></g></g></svg>