<svg width="180" height="180" viewBox="0 0 303 303" fill="none" xmlns="http://www.w3.org/2000/svg">
      <path d="M28.7 120.7C31 123.9 32.2 128.1 31.6 132.3C30.4 140.6 22.4 147 13.6 145.7C5.30002 144.5 -1.09998 136.4 0.200015 127.7C0.700015 124.1 2.50002 120.9 4.90002 118.6L8.60002 120.9C6.30002 122.7 4.70002 125.4 4.30002 128.5C3.40002 134.5 8.00002 140.2 14.3 141.1C20.3 142 26.5 138.1 27.4 131.8C27.9 128.6 27 125.5 25.2 123.1L28.7 120.7ZM19.8 109.9C11.6 106.2 8.50002 96.4 12 88.8C15.7 80.7 25.5 77.5 33 80.9C41.1 84.6 44.3 94.5 40.9 102C37.2 110.1 27.4 113.3 19.8 109.9ZM37.5 100.4C40.2 94.4 36.7 87.2 31.3 84.7C25.4 82 18 84.8 15.4 90.3C12.7 96.2 15.9 103.5 21.5 106.1C27.5 108.8 35 106 37.5 100.4ZM59.4 65.8L62.3 68.7L51.9 81.5L28 62L30.7 58.6L51.4 75.5L59.4 65.8ZM77.7 43.6C80.8 47.5 80.3 53.8 75.9 57.4C71.9 60.6 65.4 60.1 61.9 55.7L48.7 38.9L52 36.3L65.2 53C67 55.3 70.7 56 73.2 54.1C75.5 52.2 76.2 48.3 74.2 45.9L61 29.1L64.2 26.5L77.7 43.6ZM115.5 35.2L111.6 36.9L101.3 22.3L102.2 41.3L89.7 28.3L93.2 44.9L89.3 46.6L82.8 15.2L98 31L96.8 9.1L115.5 35.2ZM134.8 31.9L123 33.6L118.6 3L129.1 1.5C133 0.9 137 3.6 137.6 7.8C137.8 9.5 137.5 11.1 136.8 12.5C140 13.6 142.7 16.6 143.3 20.5C144 25.9 140.2 31.2 134.8 31.9ZM123.4 6.4L124.4 13.3L130.2 12.5C132 12.2 133.9 11.1 133.5 8.4C133.3 6.7 131.5 5.3 129.7 5.6L123.4 6.4ZM134.1 28C136.6 27.6 139.3 25.3 138.7 21.3C138.1 17.3 135.2 15.8 132.5 16.2L125 17.3L126.7 29.1L134.1 28ZM157.8 31L153.5 30.8L154.8 0L159.1 0.2L157.8 31ZM189.8 36.6L185.2 35.6L184.4 30.7L172.8 28L169.9 32.1L165.5 31.1L184.6 3.2L189.8 36.6ZM183.8 26.4L182 14.4L175.2 24.4L183.8 26.4ZM220.7 53L210.9 46.2L228.5 20.8L237.2 26.8C240.5 29.1 241.5 33.7 239.1 37.2C238.1 38.6 236.8 39.5 235.3 40.1C236.9 43.1 236.9 47.1 234.6 50.4C231.5 54.9 225.2 56.2 220.7 53ZM222.8 49.7C224.9 51.2 228.4 51.3 230.7 47.9C233 44.6 231.8 41.5 229.6 40L223.4 35.7L216.6 45.5L222.8 49.7ZM229.7 26.6L225.7 32.3L230.6 35.7C232.1 36.7 234.2 37.2 235.8 34.9C236.8 33.5 236.4 31.3 235 30.3L229.7 26.6ZM249.2 80.2L246.1 76.7L248.3 72.2L240.3 63.3L235.6 65L232.5 61.6L264.2 49.8L249.2 80.2ZM250.2 68.4L255.6 57.6L244.3 61.9L250.2 68.4ZM257.3 81L261.3 83C259.7 86.3 258.7 88.9 260.5 92.2C262.3 95.5 265.5 95.1 266.5 94.5C271.8 91.6 265.5 79.5 273.1 75.3C277.8 72.7 282.4 75 284.9 79.3C286.3 81.9 286.7 85.3 286.1 88L282 86.9C282.5 84.8 282.4 82.7 281.6 81.2C280.4 79 277.5 77.8 275.3 79.1C271 81.5 275.6 94.4 269.3 97.9C264.6 100.5 259.2 97.6 257.2 93.9C254.7 89.9 255.4 84.9 257.3 81ZM266.2 114.6L264.8 110.6L294 100.5L295.4 104.5L266.2 114.6ZM289 125.7L269.9 128.4L269.3 124.2L300.3 119.8L283 140.1L302.4 137.3L303 141.5L271.8 145.9L289 125.7ZM27.4 236.8L20.8 226.9L46.4 209.7L52.3 218.5C54.5 221.8 53.8 226.5 50.3 228.9C48.9 229.8 47.3 230.2 45.7 230.2C46.1 233.5 44.6 237.3 41.3 239.5C36.8 242.5 30.4 241.4 27.4 236.8ZM30.6 234.5C32 236.6 35.2 238 38.7 235.7C42.1 233.4 42.1 230.1 40.6 227.9L36.4 221.6L26.5 228.2L30.6 234.5ZM45.4 215.5L39.6 219.4L42.9 224.3C43.9 225.8 45.7 227 48 225.5C49.4 224.6 49.9 222.3 48.9 220.9L45.4 215.5ZM45.3 258.3L42.3 255.3L64.4 233.7L67.4 236.7L45.3 258.3ZM95.1 284.9L99.4 283.7C100.5 287.2 101.5 289.8 105 291C108.5 292.2 110.6 289.8 111 288.6C112.9 282.8 100.1 278.2 102.8 270.1C104.5 265 109.4 263.5 114.2 265.1C117 266 119.6 268.3 120.9 270.7L117.2 272.7C116.2 270.8 114.6 269.4 113 268.8C110.6 268 107.7 269.1 106.9 271.6C105.3 276.3 117.5 282.6 115.2 289.5C113.5 294.5 107.6 296.1 103.5 294.8C99.2 293.2 96.3 289 95.1 284.9ZM153 298.5C150 301.1 145.9 302.5 141.6 302.1C133.3 301.5 126.3 293.9 127 285.1C127.6 276.8 135.3 269.8 144 270.5C147.7 270.8 151 272.3 153.4 274.6L151.3 278.5C149.4 276.3 146.5 274.9 143.4 274.7C137.4 274.2 132 279.1 131.5 285.5C131 291.5 135.3 297.5 141.6 297.9C144.8 298.1 147.9 297.1 150.1 295.1L153 298.5ZM170.5 300.7L166.3 301.2L162.7 270.5L166.9 270L170.5 300.7ZM187.4 293.3L198.4 290.2L199.1 294.3L184.4 298.5L176 268.8L190.7 264.6L192.2 268.5L181.2 271.6L184.6 283.4L194 280.7L194.8 284.9L185.8 287.4L187.4 293.3ZM207.6 270L216.9 286.9L213.2 288.9L198.2 261.5L223.3 270.6L213.9 253.4L217.6 251.4L232.7 279L207.6 270ZM261 248.5C260.9 252.5 259.2 256.5 256.1 259.4C250.1 265.2 239.8 265.3 233.6 258.9C227.8 252.9 227.8 242.5 234.1 236.4C236.8 233.9 240.1 232.4 243.5 232.1L245 236.3C242.1 236.3 239.2 237.4 236.9 239.6C232.5 243.8 232.6 251.1 237 255.7C241.2 260.1 248.4 260.9 253 256.5C255.4 254.3 256.6 251.3 256.6 248.3L261 248.5ZM271.1 234.4L277.3 224.8L280.5 227.4L272.2 240.2L246.3 223.4L254.6 210.6L258.3 212.5L252.1 222.1L262.4 228.8L267.7 220.6L271 223.3L265.9 231.1L271.1 234.4ZM87.7 252.6C84 249.2 78.9 247.9 74.1 248.7C76.1 248.8 78.2 249.7 79.7 251.2C80.2 251.7 80.7 252.4 80.9 253C82.4 253.5 83.9 254.3 85.1 255.4C89.6 259.5 90 267.5 85.6 272.3C81.6 276.7 73.6 277.8 68.7 273.3C64.4 269.3 63.8 261.8 67.7 256.9C67.8 256.7 68 256.5 68.3 256.2C69.3 255.1 70.5 254.4 71.9 253.7C75.1 252.6 78.4 253 80.7 256.7C80.7 256.6 80.9 256 80.9 255.9C80.9 255.6 81 255.4 80.9 255.1C80.9 254.6 80.8 254.1 80.6 253.6C80.2 252.6 79.6 251.7 78.8 251.1C77.2 249.7 74.9 248.9 72.7 249.3C71.6 249.5 70.6 249.8 69.6 250.2C67.9 250.9 66.4 252.1 65.2 253.4C59.5 259.6 59.6 270 66.2 276C72.3 281.6 82.7 281.6 88.8 275C94.3 269 94.3 258.7 87.7 252.6ZM17.1 183.5C24 183.8 24.4 173.1 17.5 172.9C10.7 172.6 10.3 183.3 17.1 183.5ZM285.3 183.8C292.1 183.2 291.3 172.6 284.4 173.2C277.6 173.8 278.4 184.4 285.3 183.8ZM116.1 127.6C95.7 127.6 79.9 145.8 79.2 146.5C77.1 149 77.1 152.7 79.2 155.1C79.9 155.9 95.7 174.1 116.1 174.1C136.5 174.1 152.3 155.9 153 155.1C155.1 152.6 155.1 148.9 153 146.5C152.3 145.7 136.5 127.6 116.1 127.6ZM116.1 167.4C98.5 167.4 84.2 150.8 84.2 150.8C84.2 150.8 98.5 134.2 116.1 134.2C133.6 134.2 147.9 150.8 147.9 150.8C147.9 150.8 133.7 167.4 116.1 167.4ZM240.1 183.7C239 182.7 237.8 181.7 236.6 180.7C227.7 173.4 217.7 168.9 217.3 168.7C214.3 167.2 187 154.6 161.9 163.7C136 173.1 123.2 202 122.7 203.3C122 204.9 122.7 206.8 124.3 207.6C125.2 208 141.3 215.9 160.2 215.9C166.6 215.9 173.3 215 179.8 212.6C201 204.9 213.4 184.2 217.5 176.2C221.4 178.2 228.1 182.1 233.9 187.1C220.2 217.1 189.8 238.1 154.5 238.1C106.3 238.1 67.2 199 67.2 150.9C67.2 102.7 106.3 63.6 154.5 63.6C189.8 63.6 220.1 84.5 233.9 114.6C228.1 119.6 221.3 123.5 217.5 125.5C213.4 117.5 201 96.8 179.8 89.1C153.9 79.7 125.5 93.6 124.3 94.2C122.7 95 122 96.9 122.7 98.5C123.2 99.7 136 128.6 161.9 138C168.5 140.4 175.1 141.3 181.5 141.3C199.5 141.3 215 134.1 217.2 133.1C217.7 132.9 227.7 128.3 236.6 121.1C237.8 120.2 238.9 119.2 240.1 118.1L240.6 117.6C240.9 117.3 241.1 117 241.3 116.6C241.4 116.4 241.5 116.1 241.6 115.8C241.6 115.5 241.5 115.3 241.4 115C241.2 114.4 240.9 113.7 240.6 113.1C240.5 112.9 240.4 112.7 240.3 112.5C225.6 79.8 192.7 56.9 154.6 56.9C102.8 56.9 60.7 99 60.7 150.8C60.7 202.5 102.8 244.7 154.6 244.7C192.7 244.7 225.7 221.8 240.3 189.1C240.4 188.9 240.5 188.7 240.6 188.5C240.8 188 241 187.5 241.2 187C241.4 186.5 241.6 186.1 241.5 185.5C241.4 184.9 241 184.4 240.6 184L240.1 183.7ZM177.5 206.4C158.8 213.2 137.9 206.1 130.3 202.9C134.2 195.6 145.6 176.7 164.3 169.9C183 163.1 203.8 170.2 211.5 173.4C207.7 180.7 196.2 199.6 177.5 206.4ZM164.3 131.7C145.6 124.9 134.2 106 130.3 98.7C138 95.6 158.8 88.5 177.5 95.2C196.2 102 207.6 120.9 211.5 128.2C203.9 131.4 182.9 138.5 164.3 131.7Z" fill="#CA973C"></path>
    </svg>